<svg width="110" height="71" viewBox="0 0 110 71" fill="none" xmlns="http://www.w3.org/2000/svg">
<g clip-path="url(#clip0_1_5282)">
<path d="M36.9851 27.0801C37.2568 23.9761 37.5121 21.0861 37.7591 18.1961C37.8661 16.8952 37.932 15.5943 38.0637 14.3017C38.3354 11.6669 40.048 10.1602 42.8145 10.1355C46.0338 10.1108 49.2449 10.1355 52.4642 10.1355C66.6753 10.1355 80.8863 10.1355 95.1057 10.1355C98.3991 10.1355 99.8482 11.2882 100.227 14.5651C100.655 18.2702 100.886 22 101.157 25.7216C101.223 26.6273 101.231 27.0142 102.359 26.5285C103.94 25.8451 105.702 25.9439 107.341 26.4379C109.078 26.9566 110.124 28.7597 110.008 30.6288C109.885 32.5307 108.617 34.1115 106.674 34.4409C105.678 34.6056 105.521 34.9843 105.612 35.857C106.204 41.5958 106.764 47.3428 107.332 53.0816C107.448 54.2014 107.579 55.3211 107.662 56.4491C107.835 58.6145 106.558 60.3189 104.294 60.6564C103.158 60.8294 102.886 61.2904 102.977 62.3279C103.067 63.3159 102.993 64.3286 102.993 65.3249C102.993 68.1572 101.725 69.7298 98.926 70.1085C96.95 70.3802 94.9327 70.4049 92.9567 70.0838C90.429 69.6639 89.1363 68.0172 89.161 65.4566C89.1693 64.1969 89.1446 62.9371 89.1693 61.6774C89.1857 61.0764 88.9717 60.7717 88.3459 60.8293C88.1319 60.8458 87.9095 60.8293 87.6955 60.8293C75.3534 60.8293 63.0113 60.8458 50.661 60.8046C49.5495 60.8046 49.0637 61.027 49.1955 62.2291C49.3025 63.2171 49.2202 64.2298 49.2202 65.2261C49.2202 68.116 47.9357 69.7298 45.0952 70.1168C43.078 70.3967 41.0113 70.4132 38.9941 70.0591C36.6393 69.6392 35.3961 68.0666 35.3878 65.6871C35.3878 64.3862 35.3631 63.0771 35.3961 61.7762C35.4125 61.134 35.1985 60.9035 34.548 60.7717C31.4522 60.1542 30.4971 58.9603 30.7688 55.7822C31.3534 49.0801 32.0286 42.3945 32.7202 35.7006C32.8025 34.8773 32.7037 34.622 31.8145 34.4738C29.435 34.0786 28.1341 32.1767 28.3893 29.7313C28.6116 27.5988 30.283 26.1826 32.6296 26.1744C34.0952 26.1744 35.6019 25.9603 37.0016 27.0883L36.9851 27.0801ZM69.203 29.9207C77.7658 29.9207 86.3287 29.9042 94.8916 29.9454C96.0113 29.9454 96.283 29.649 96.176 28.5539C95.789 24.7088 95.4268 20.8638 95.2045 17.0105C95.1303 15.7343 94.7104 15.4544 93.5083 15.4544C80.7299 15.4955 67.9515 15.4791 55.173 15.4791C51.5667 15.4791 47.9604 15.4791 44.3542 15.4791C43.786 15.4791 43.2756 15.3885 43.2097 16.2777C42.9133 20.2545 42.5181 24.2313 42.2052 28.2081C42.0735 29.9207 42.1229 29.9207 43.786 29.9207C52.2583 29.9207 60.7389 29.9207 69.2112 29.9207H69.203ZM51.2374 48.9319C51.2374 45.7538 50.5458 44.7987 47.9028 44.0659C45.6468 43.4401 43.3579 42.9461 41.1348 42.2298C37.1086 40.9371 36.9193 42.518 37.0345 45.515C37.1004 47.2276 37.9567 48.4626 39.5458 48.9154C42.6251 49.7882 45.7209 50.6115 48.825 51.4102C50.0847 51.7313 50.941 51.1302 51.1633 49.8376C51.2374 49.4177 51.2292 48.9731 51.2292 48.9237L51.2374 48.9319ZM101.182 44.8563C101.462 41.8099 100.128 41.3076 97.6333 42.0981C95.0398 42.9132 92.3721 43.5225 89.7456 44.2388C88.2718 44.6422 87.3414 45.6056 87.1191 47.1288C87.0203 47.8039 87.078 48.512 87.0944 49.2036C87.1274 51.1138 88.0166 51.7972 89.8527 51.3032C92.5286 50.5951 95.1962 49.8705 97.8803 49.1624C100.499 48.4708 101.198 47.5816 101.19 44.8563H101.182Z" fill="#B49758"/>
<path d="M72.1669 7.45958C72.0023 6.20808 71.9858 4.94012 71.78 3.70509C71.3683 1.24326 69.8698 0 67.3668 0C49.6729 0 31.9791 0 14.2852 0C11.634 0 10.0532 1.4244 9.80616 4.05913C9.41096 8.25823 9.07338 12.4573 8.6864 16.8952C7.262 15.7672 5.72233 15.9154 4.2156 15.9484C1.85257 15.9978 0.230567 17.4798 0.0247287 19.7358C-0.18111 21.9424 1.21036 23.8361 3.48281 24.2066C4.34733 24.3466 4.4873 24.6512 4.40497 25.4416C3.72982 32.1849 3.1123 38.9364 2.43715 45.6796C2.14898 48.5037 3.38401 50.1752 6.22458 50.4798C6.85033 50.5457 7.03147 50.735 7.015 51.3361C6.98206 52.8099 6.97383 54.2919 7.015 55.7739C7.0644 57.8076 8.72757 59.7343 10.6789 59.8413C12.7126 59.9566 14.771 59.9813 16.8047 59.8496C19.2583 59.6931 20.7897 57.89 20.8062 55.4117C20.8062 54.1108 20.8556 52.8016 20.7897 51.5007C20.7485 50.6692 21.0449 50.4798 21.8271 50.4963C22.6422 50.5127 23.4491 50.521 24.2642 50.521H24.3795C25.7051 50.521 27.0225 50.5127 28.3481 50.5045C28.5951 50.5045 28.9327 50.5786 29.1467 50.4633H30.1265L30.9746 36.351L29.9125 35.7912C29.9125 35.7912 29.8548 35.7582 29.8219 35.7418L29.369 35.503C26.9895 34.1774 25.9274 31.5509 26.5449 28.8256C27.1378 26.2156 29.5419 24.2313 32.2755 24.1407C33.2553 24.1078 34.5726 24.5359 35.1325 24.0501C35.8159 23.4573 35.3219 22.0659 35.5607 21.0531C35.7994 20.0404 35.5277 19.7193 34.4327 19.7275C27.9529 19.7769 21.4731 19.7275 15.0015 19.7769C13.9888 19.7769 13.6677 19.5711 13.7747 18.509C14.1699 14.5734 14.524 10.6377 14.7792 6.68563C14.8533 5.54117 15.125 5.15419 16.3354 5.16243C32.3825 5.20359 48.4214 5.18713 64.4686 5.18713C66.6587 5.18713 66.6916 5.18713 66.9222 7.37725C66.9963 8.06063 67.2104 8.24177 67.8608 8.21707C69.03 8.16766 70.2074 8.18413 71.3848 8.21707C71.9529 8.23353 72.2904 8.15943 72.1999 7.45135L72.1669 7.45958ZM20.6168 34.128C21.9918 34.5232 22.8151 35.8323 22.881 37.2979C23.0292 40.9124 22.6587 41.9828 18.6243 40.7395C16.5165 40.0891 14.3675 39.5621 12.2351 38.994C9.36155 38.2283 8.73581 37.4214 8.76874 34.4244C8.76874 33.988 8.72757 33.5516 8.76874 33.1235C8.90048 31.9461 9.80617 31.2298 10.9589 31.518C14.1864 32.3413 17.4139 33.1976 20.6086 34.1198L20.6168 34.128Z" fill="#B49758"/>
<path d="M80.878 36.952C79.89 37.0673 79.1325 37.6189 78.4162 38.2447C77.0906 39.3974 76.0202 40.7724 74.9993 42.1886C73.3279 44.5022 71.8541 46.9475 70.4297 49.4176C70.0921 50.0022 69.6969 50.5374 69.137 50.9326C68.3383 51.4924 67.5891 51.3854 66.9798 50.6279C66.5599 50.1092 66.3211 49.4999 66.0576 48.8989C65.5554 47.7544 65.1273 46.5688 64.5591 45.449C64.378 45.095 64.1886 44.7409 63.9581 44.4116C63.4888 43.7365 62.9536 43.1519 62.0562 42.9543C62.5008 42.7649 62.9124 42.699 63.3488 42.7237C64.4356 42.7814 65.3331 43.3083 66.1811 43.9341C66.9222 44.4857 67.5726 45.1362 68.1901 45.8113C68.2725 45.9019 68.3466 45.9842 68.4289 46.0748C68.9559 45.3667 69.4663 44.6668 69.9933 43.9752C71.1295 42.485 72.3234 41.0523 73.6984 39.7761C74.6288 38.9116 75.625 38.1294 76.7695 37.5531C77.6999 37.0838 78.6796 36.7874 79.7335 36.7874C80.1205 36.7874 80.5075 36.8368 80.8862 36.9438L80.878 36.952Z" fill="#765E2C"/>
<path d="M76.8766 45.4903C76.8766 44.2058 76.6131 43.0284 76.0862 41.9087C76.0203 41.7605 76.0285 41.6699 76.1273 41.5464C76.3332 41.3076 76.5308 41.0524 76.7202 40.7971C76.786 40.7148 76.819 40.7066 76.8766 40.8054C77.4036 41.7522 77.7576 42.7567 77.9387 43.8271C78.0787 44.634 78.1199 45.4409 78.0458 46.256C77.9058 47.8204 77.4282 49.2695 76.572 50.5868C75.2711 52.5876 73.4844 53.9873 71.179 54.5965C67.3422 55.601 64.057 54.5965 61.3893 51.6736C60.1461 50.3069 59.4215 48.6684 59.1663 46.8406C58.7793 44 59.4956 41.4476 61.3564 39.2575C62.8549 37.4955 64.7651 36.4169 67.0458 36.0546C69.8699 35.61 72.4058 36.3181 74.6371 38.113C74.7524 38.2036 74.7194 38.2448 74.6288 38.3189C74.3901 38.5082 74.1431 38.6976 73.9208 38.8952C73.8302 38.9775 73.7808 38.9611 73.6902 38.8952C72.6034 38.0471 71.3848 37.4873 70.0181 37.2567C67.6221 36.8615 65.4485 37.3885 63.5218 38.8623C61.9163 40.0891 60.8788 41.7111 60.4754 43.7036C59.9238 46.4042 60.5413 48.8248 62.3362 50.9162C63.6124 52.4064 65.2509 53.3286 67.1857 53.6415C69.6229 54.0449 71.8377 53.4768 73.7808 51.9371C75.4357 50.6198 76.4238 48.8825 76.786 46.7994C76.8684 46.3465 76.8931 45.8937 76.8848 45.4903H76.8766Z" fill="#765E2C"/>
</g>
<defs>
<clipPath id="clip0_1_5282">
<rect width="110" height="70.3144" fill="white"/>
</clipPath>
</defs>
</svg>
