<svg width="110" height="76" viewBox="0 0 110 76" fill="none" xmlns="http://www.w3.org/2000/svg">
<g clip-path="url(#clip0_1_5910)">
<path d="M50.5459 71.0232C50.5787 68.0057 49.0365 65.9223 46.2886 65.4925C45.0582 65.3023 44.5906 64.8724 44.2133 63.6819C43.4504 61.2845 41.2521 59.97 38.7092 60.2924C37.7823 60.4081 37.1588 60.4743 36.8389 59.4657C36.7897 59.3169 36.6831 59.1846 36.5928 59.0523C35.2312 57.1096 33.1395 57.2005 31.1298 56.6383C29.5466 56.1919 28.833 53.4059 26.487 53.3563C25.8471 53.3397 25.2155 53.4803 24.5757 53.5381C23.5421 53.6373 22.9761 55.2246 21.8195 54.6129C19.8919 53.596 18.0544 52.4055 16.2088 51.2399C15.4705 50.7769 16.0694 50.1899 16.2744 49.76C19.7524 42.6172 23.2878 35.4909 26.7494 28.3398C27.2826 27.232 27.8158 26.7773 28.8822 27.6123C31.9993 30.0429 34.8867 29.4559 37.7494 27.0667C38.8568 26.1408 40.2021 25.5125 41.4489 24.7602C42.6465 24.0409 43.9098 23.5614 45.3289 23.5697C46.8218 23.5697 48.6346 23.7433 49.2744 24.9172C49.7994 25.8762 48.0522 26.7608 47.2811 27.6371C45.4109 29.7701 43.4012 31.7707 41.5145 33.8954C39.5459 36.1027 39.8576 38.3844 42.2528 40.104C45.7718 42.6255 50.1685 42.6916 53.8024 40.1371C56.1156 38.5084 58.3468 36.7558 60.5533 34.9866C62.079 33.7714 63.3915 33.8458 64.8516 35.1354C71.6353 41.1539 78.4683 47.1146 85.2603 53.1248C87.3766 55.0014 87.6637 57.6965 86.0477 59.598C84.3744 61.5656 81.9053 61.6896 79.5921 59.846C76.8688 57.6717 74.2028 55.4396 71.4959 53.2571C70.7576 52.6618 69.9292 51.769 69.0597 52.9842C68.3132 54.0259 69.2565 54.5963 69.921 55.1502C72.1603 57.0103 74.4243 58.8457 76.6719 60.7058C78.821 62.4915 79.2394 64.2441 77.9433 65.8975C76.7047 67.4683 74.777 67.4683 72.5787 65.8727C69.6995 63.7812 66.8367 61.6648 63.9575 59.5732C63.1454 58.9779 62.2021 57.8949 61.3162 59.2094C60.4467 60.5074 61.8494 61.0365 62.6204 61.6317C64.4743 63.0619 66.4101 64.3929 68.2722 65.8149C70.0358 67.1707 70.4213 68.9977 69.2073 70.428C67.8703 72.007 66.2379 71.9987 64.6958 70.7917C62.1447 68.7993 59.6838 66.6912 57.1573 64.674C56.4519 64.1118 55.648 63.0454 54.7129 64.178C53.8434 65.2362 54.7785 65.9223 55.5496 66.5589C56.9851 67.7411 58.4452 68.8985 59.8397 70.1303C61.2424 71.3621 61.5541 72.8998 60.5123 74.4789C59.4541 76.0827 57.8874 76.2811 56.2468 75.4792C54.6555 74.6938 53.1298 73.7679 51.5712 72.9246C50.7263 72.4699 49.9471 72.0152 50.5623 71.0397L50.5459 71.0232Z" fill="#B49758"/>
<path d="M58.035 23.5449C61.3981 24.322 65.2453 24.9255 68.8955 26.1491C73.3333 27.6372 77.5495 27.4884 81.7904 25.7109C83.3489 25.0578 84.12 25.3885 84.768 27.1081C87.4832 34.3088 90.3213 41.4681 93.2415 48.5944C93.9142 50.2313 93.5122 50.6281 91.9701 51.2482C89.1237 52.3808 87.1796 51.6863 84.9731 49.6278C78.9932 44.0557 72.7673 38.7648 66.6151 33.3911C63.7524 30.8944 61.8903 30.8531 58.8799 33.1348C56.7553 34.7469 54.6882 36.4417 52.5227 37.9877C49.7993 39.9387 46.4034 39.9304 43.9097 38.1943C42.7531 37.3841 42.3758 36.574 43.4503 35.4331C46.4936 32.1841 49.4958 28.8938 52.5801 25.6778C53.9254 24.2724 55.7218 23.7599 58.0514 23.5449H58.035Z" fill="#B49758"/>
<path d="M26.8233 22.4867C26.6428 22.867 26.4213 23.3879 26.167 23.8922C21.7129 32.9943 17.2013 42.0799 12.8374 51.2234C11.9023 53.1744 11.0082 53.5051 9.16257 52.4221C6.6607 50.9506 4.02759 49.7022 1.41089 48.4456C0.0820292 47.8008 -0.401938 47.0981 0.352723 45.6183C5.10216 36.3012 9.81059 26.9593 14.5026 17.6091C15.1096 16.4021 15.7905 15.8565 17.1603 16.5509C19.9657 17.9811 22.8121 19.3122 25.6339 20.7093C26.2901 21.0317 26.9463 21.412 26.8233 22.4867ZM8.59657 46.4946C9.95004 46.3044 10.877 45.6183 10.8688 44.1715C10.8688 42.8488 10.0567 42.0468 8.76063 42.0055C7.48099 41.9642 6.60328 42.6669 6.49664 44.0062C6.3736 45.4777 7.26771 46.197 8.59657 46.5028V46.4946Z" fill="#B49758"/>
<path d="M95.5876 16.1953C97.0969 15.9638 97.4578 16.6583 97.7859 17.4602C101.764 27.2237 105.734 36.9872 109.754 46.7259C110.344 48.1644 109.819 48.8175 108.581 49.3135C105.587 50.5123 102.585 51.6945 99.6316 52.9924C98.3437 53.5546 97.6711 53.1908 97.1953 51.9756C93.2826 42.0136 89.3616 32.06 85.4325 22.1063C85.1454 21.3705 84.8665 20.5604 85.7196 20.1966C89.1319 18.7416 92.5853 17.4023 95.5876 16.187V16.1953ZM103.823 44.5021C103.544 43.1132 102.773 42.1955 101.362 42.303C100.083 42.4022 99.2953 43.3198 99.3527 44.6095C99.4183 46.0232 100.321 46.8582 101.74 46.7507C103.028 46.6515 103.676 45.7421 103.823 44.5021Z" fill="#B49758"/>
<path d="M42.0149 65.5669C41.9738 66.9475 38.3974 72.0318 37.1424 72.5527C36.0186 73.0156 35.0753 72.6849 34.2796 71.8913C33.3855 70.9984 33.1476 69.7997 33.7956 68.7663C34.9522 66.9227 36.2483 65.1535 37.6345 63.4836C38.34 62.6403 39.4228 62.4502 40.5055 63.0206C41.5391 63.558 42.0477 64.393 42.0149 65.5669Z" fill="#B49758"/>
<path d="M27.824 64.5831C28.0372 62.4419 31.1625 59.0524 32.6801 59.3087C34.255 59.5649 35.1327 60.5983 34.9768 62.2104C34.7882 64.2028 31.4906 67.4187 29.9813 67.1873C28.4474 66.9558 27.7912 65.9637 27.8322 64.5831H27.824Z" fill="#B49758"/>
<path d="M40.8254 73.0154C41.5391 71.2545 42.6383 69.3779 44.4593 68.1461C45.337 67.5508 46.5018 67.7989 47.3057 68.6752C48.0029 69.444 48.331 70.3534 47.8307 71.3372C47.0596 72.8501 46.0671 74.2224 44.8694 75.4046C44.1148 76.1404 43.1058 76.1239 42.1707 75.7023C41.1864 75.2558 40.8172 74.3878 40.8336 73.0072L40.8254 73.0154Z" fill="#B49758"/>
<path d="M47.2072 11.4915C47.199 12.1115 46.9775 12.4339 46.6002 12.6323C46.026 12.9465 45.5174 12.7811 45.0827 12.3347C42.7039 9.92897 40.3086 7.53976 37.938 5.12575C37.4294 4.61319 37.3064 3.96835 37.8232 3.38965C38.3646 2.79441 39.029 2.92669 39.5294 3.42272C41.9902 5.85326 44.4265 8.31687 46.8545 10.7888C47.0596 10.9954 47.1334 11.3427 47.199 11.4915H47.2072Z" fill="#B49758"/>
<path d="M72.4556 4.08409C72.513 4.72893 72.0946 5.12576 71.6927 5.53085C69.5435 7.70511 67.3862 9.87937 65.2289 12.0536C64.63 12.6571 63.9656 13.211 63.1699 12.4587C62.3579 11.6899 62.8828 10.9954 63.4816 10.3837C65.6882 8.15154 67.9112 5.9194 70.1259 3.7038C70.5935 3.23258 71.1185 2.85229 71.8321 3.14164C72.2423 3.30698 72.4227 3.6542 72.4556 4.09236V4.08409Z" fill="#B49758"/>
<path d="M26.1999 55.8198C27.3893 55.9851 28.267 56.7044 28.2916 58.1594C28.3162 59.6888 26.0194 62.2434 24.6742 62.2268C23.214 62.2103 22.4184 61.4249 22.4266 59.9451C22.4266 58.3826 24.6906 55.8281 26.1999 55.8115V55.8198Z" fill="#B49758"/>
<path d="M53.8515 6.44015C53.8515 4.81978 53.8351 3.20769 53.8515 1.58732C53.8597 0.843278 53.9499 0.0496309 54.9261 2.79583e-05C55.9022 -0.0578422 56.1155 0.677935 56.1155 1.46332C56.1319 4.69578 56.1319 7.92823 56.1155 11.1607C56.1155 11.913 56.0171 12.7149 55.0491 12.748C53.9007 12.7893 53.8679 11.8717 53.8515 11.045C53.8269 9.50726 53.8515 7.96957 53.8515 6.44015Z" fill="#B49758"/>
</g>
<defs>
<clipPath id="clip0_1_5910">
<rect width="110" height="76" fill="white"/>
</clipPath>
</defs>
</svg>
