<svg width="30" height="30" viewBox="0 0 30 30" fill="none" xmlns="http://www.w3.org/2000/svg">
<path d="M25 25V5C25 4.33696 24.7366 3.70107 24.2678 3.23223C23.7989 2.76339 23.163 2.5 22.5 2.5H7.5C6.83696 2.5 6.20107 2.76339 5.73223 3.23223C5.26339 3.70107 5 4.33696 5 5V25C5 25.663 5.26339 26.2989 5.73223 26.7678C6.20107 27.2366 6.83696 27.5 7.5 27.5H22.5C23.163 27.5 23.7989 27.2366 24.2678 26.7678C24.7366 26.2989 25 25.663 25 25ZM10 18.75C9.75277 18.75 9.5111 18.6767 9.30554 18.5393C9.09998 18.402 8.93976 18.2068 8.84515 17.9784C8.75054 17.7499 8.72579 17.4986 8.77402 17.2561C8.82225 17.0137 8.9413 16.7909 9.11612 16.6161C9.29093 16.4413 9.51366 16.3222 9.75614 16.274C9.99861 16.2258 10.2499 16.2505 10.4784 16.3451C10.7068 16.4398 10.902 16.6 11.0393 16.8055C11.1767 17.0111 11.25 17.2528 11.25 17.5C11.25 17.8315 11.1183 18.1495 10.8839 18.3839C10.6495 18.6183 10.3315 18.75 10 18.75ZM10 13.75C9.75277 13.75 9.5111 13.6767 9.30554 13.5393C9.09998 13.402 8.93976 13.2068 8.84515 12.9784C8.75054 12.7499 8.72579 12.4986 8.77402 12.2561C8.82225 12.0137 8.9413 11.7909 9.11612 11.6161C9.29093 11.4413 9.51366 11.3222 9.75614 11.274C9.99861 11.2258 10.2499 11.2505 10.4784 11.3451C10.7068 11.4398 10.902 11.6 11.0393 11.8055C11.1767 12.0111 11.25 12.2528 11.25 12.5C11.25 12.8315 11.1183 13.1495 10.8839 13.3839C10.6495 13.6183 10.3315 13.75 10 13.75ZM15 23.75C14.7528 23.75 14.5111 23.6767 14.3055 23.5393C14.1 23.402 13.9398 23.2068 13.8451 22.9784C13.7505 22.7499 13.7258 22.4986 13.774 22.2561C13.8222 22.0137 13.9413 21.7909 14.1161 21.6161C14.2909 21.4413 14.5137 21.3222 14.7561 21.274C14.9986 21.2258 15.2499 21.2505 15.4784 21.3451C15.7068 21.4398 15.902 21.6 16.0393 21.8055C16.1767 22.0111 16.25 22.2528 16.25 22.5C16.25 22.8315 16.1183 23.1495 15.8839 23.3839C15.6495 23.6183 15.3315 23.75 15 23.75ZM15 18.75C14.7528 18.75 14.5111 18.6767 14.3055 18.5393C14.1 18.402 13.9398 18.2068 13.8451 17.9784C13.7505 17.7499 13.7258 17.4986 13.774 17.2561C13.8222 17.0137 13.9413 16.7909 14.1161 16.6161C14.2909 16.4413 14.5137 16.3222 14.7561 16.274C14.9986 16.2258 15.2499 16.2505 15.4784 16.3451C15.7068 16.4398 15.902 16.6 16.0393 16.8055C16.1767 17.0111 16.25 17.2528 16.25 17.5C16.25 17.8315 16.1183 18.1495 15.8839 18.3839C15.6495 18.6183 15.3315 18.75 15 18.75ZM15 13.75C14.7528 13.75 14.5111 13.6767 14.3055 13.5393C14.1 13.402 13.9398 13.2068 13.8451 12.9784C13.7505 12.7499 13.7258 12.4986 13.774 12.2561C13.8222 12.0137 13.9413 11.7909 14.1161 11.6161C14.2909 11.4413 14.5137 11.3222 14.7561 11.274C14.9986 11.2258 15.2499 11.2505 15.4784 11.3451C15.7068 11.4398 15.902 11.6 16.0393 11.8055C16.1767 12.0111 16.25 12.2528 16.25 12.5C16.25 12.8315 16.1183 13.1495 15.8839 13.3839C15.6495 13.6183 15.3315 13.75 15 13.75ZM20 18.75C19.7528 18.75 19.5111 18.6767 19.3055 18.5393C19.1 18.402 18.9398 18.2068 18.8451 17.9784C18.7505 17.7499 18.7258 17.4986 18.774 17.2561C18.8222 17.0137 18.9413 16.7909 19.1161 16.6161C19.2909 16.4413 19.5137 16.3222 19.7561 16.274C19.9986 16.2258 20.2499 16.2505 20.4784 16.3451C20.7068 16.4398 20.902 16.6 21.0393 16.8055C21.1767 17.0111 21.25 17.2528 21.25 17.5C21.25 17.8315 21.1183 18.1495 20.8839 18.3839C20.6495 18.6183 20.3315 18.75 20 18.75ZM20 13.75C19.7528 13.75 19.5111 13.6767 19.3055 13.5393C19.1 13.402 18.9398 13.2068 18.8451 12.9784C18.7505 12.7499 18.7258 12.4986 18.774 12.2561C18.8222 12.0137 18.9413 11.7909 19.1161 11.6161C19.2909 11.4413 19.5137 11.3222 19.7561 11.274C19.9986 11.2258 20.2499 11.2505 20.4784 11.3451C20.7068 11.4398 20.902 11.6 21.0393 11.8055C21.1767 12.0111 21.25 12.2528 21.25 12.5C21.25 12.8315 21.1183 13.1495 20.8839 13.3839C20.6495 13.6183 20.3315 13.75 20 13.75ZM20 8.75H10C9.66848 8.75 9.35054 8.6183 9.11612 8.38388C8.8817 8.14946 8.75 7.83152 8.75 7.5C8.75 7.16848 8.8817 6.85054 9.11612 6.61612C9.35054 6.3817 9.66848 6.25 10 6.25H20C20.3315 6.25 20.6495 6.3817 20.8839 6.61612C21.1183 6.85054 21.25 7.16848 21.25 7.5C21.25 7.83152 21.1183 8.14946 20.8839 8.38388C20.6495 8.6183 20.3315 8.75 20 8.75Z" fill="#C8A96B"/>
</svg>
