<svg width="30" height="24" viewBox="0 0 30 24" fill="none" xmlns="http://www.w3.org/2000/svg">
<path d="M1.95973 18.9841H5.78373V21.2721C5.78373 21.4843 5.69945 21.6878 5.54942 21.8378C5.39939 21.9878 5.19591 22.0721 4.98373 22.0721H2.72773C2.51556 22.0721 2.31208 21.9878 2.16205 21.8378C2.01202 21.6878 1.92773 21.4843 1.92773 21.2721V18.9841H1.95973Z" stroke="#2B2B2B" stroke-width="1.45" stroke-miterlimit="10"/>
<path d="M13.4158 18.9841H17.2318V21.2721C17.2318 21.4843 17.1475 21.6878 16.9975 21.8378C16.8474 21.9878 16.644 22.0721 16.4318 22.0721H14.1838C13.9716 22.0721 13.7681 21.9878 13.6181 21.8378C13.4681 21.6878 13.3838 21.4843 13.3838 21.2721V18.9841H13.4158Z" stroke="#2B2B2B" stroke-width="1.45" stroke-miterlimit="10"/>
<path d="M4.25636 12.1121H14.9444C15.3484 12.112 15.7484 12.1921 16.1213 12.3477C16.4942 12.5033 16.8325 12.7313 17.1167 13.0184C17.4009 13.3056 17.6253 13.6463 17.777 14.0208C17.9287 14.3952 18.0046 14.7961 18.0004 15.2001V19.0161H1.20036V15.2001C1.19613 14.7961 1.27205 14.3952 1.42374 14.0208C1.57542 13.6463 1.79985 13.3056 2.08405 13.0184C2.36825 12.7313 2.70657 12.5033 3.07944 12.3477C3.45232 12.1921 3.85234 12.112 4.25636 12.1121Z" stroke="#2B2B2B" stroke-width="1.45" stroke-miterlimit="10"/>
<path d="M13.0323 6.76001H6.16828C5.83664 6.76137 5.51444 6.8706 5.25034 7.0712C4.98624 7.27181 4.79457 7.55289 4.70428 7.87201L3.48828 12.112H15.7123L14.4963 7.87201C14.406 7.55289 14.2143 7.27181 13.9502 7.0712C13.6861 6.8706 13.3639 6.76137 13.0323 6.76001Z" stroke="#2B2B2B" stroke-width="1.45" stroke-miterlimit="10"/>
<path d="M3.87154 16.6881C4.50335 16.6881 5.01554 16.176 5.01554 15.5441C5.01554 14.9123 4.50335 14.4001 3.87154 14.4001C3.23973 14.4001 2.72754 14.9123 2.72754 15.5441C2.72754 16.176 3.23973 16.6881 3.87154 16.6881Z" fill="#2B2B2B"/>
<path d="M15.3276 16.6881C15.9594 16.6881 16.4716 16.176 16.4716 15.5441C16.4716 14.9123 15.9594 14.4001 15.3276 14.4001C14.6958 14.4001 14.1836 14.9123 14.1836 15.5441C14.1836 16.176 14.6958 16.6881 15.3276 16.6881Z" fill="#2B2B2B"/>
<path d="M18.0005 10.584H15.2725" stroke="#2B2B2B" stroke-width="1.45" stroke-miterlimit="10"/>
<path d="M3.9282 10.584H1.2002" stroke="#2B2B2B" stroke-width="1.45" stroke-miterlimit="10"/>
<path d="M26.7994 7.19995L18.3994 7.19995" stroke="#2B2B2B" stroke-width="1.5" stroke-linecap="round" stroke-linejoin="round"/>
<path d="M22.5994 11.4L18.3994 7.2L22.5994 3" stroke="#2B2B2B" stroke-width="1.5" stroke-linecap="round" stroke-linejoin="round"/>
</svg>
