<svg width="33" height="19" viewBox="0 0 33 19" fill="none" xmlns="http://www.w3.org/2000/svg">
<g clip-path="url(#clip0_3_6718)">
<path d="M15.9285 6.5433H7.06437L8.81203 2.13859H15.9285V0.174072H7.46015L5.70491 4.60374C5.67376 4.59265 5.63502 4.58275 5.59628 4.57522L2.86856 4.1332C2.79108 4.12093 2.70122 4.1134 2.60897 4.1134C1.78866 4.1134 1.10613 4.70394 0.972339 5.48024L0.971141 5.49015C0.95876 5.56817 0.951172 5.65729 0.951172 5.74759C0.951172 6.56112 1.54664 7.23682 2.32941 7.37069L2.33939 7.37188L3.9261 7.63052C2.95243 8.5601 2.33819 9.85287 2.30345 11.2886V18.829H7.79602V15.9817H15.9289V6.5433H15.9285ZM10.0101 13.3387H5.5811C4.97565 13.3351 4.48642 12.8496 4.48243 12.2491C4.48722 11.6487 4.97565 11.1647 5.5811 11.1595H10.0101C10.6144 11.1643 11.1036 11.6499 11.1072 12.2491H11.1084C11.1048 12.8496 10.6152 13.3347 10.0097 13.3387H10.0101Z" fill="black"/>
<path d="M17.0718 15.9787H25.2046V18.826H30.6972V11.2916V11.2852C30.662 9.84906 30.0482 8.55668 29.0745 7.6271L30.6612 7.36846L30.6712 7.36728C31.454 7.2334 32.0495 6.5577 32.0495 5.74417C32.0495 5.65387 32.0419 5.56475 32.0295 5.48673L32.0283 5.47683C31.8949 4.70053 31.212 4.10998 30.3917 4.10998C30.2994 4.10998 30.2095 4.11751 30.1321 4.12979L27.4044 4.5718C27.3656 4.57933 27.3269 4.58923 27.2957 4.60032L25.5401 0.170654H17.0718V2.13517H24.1882L25.9359 6.53988H17.0718V15.9783V15.9787ZM21.8914 12.2461H21.8926C21.8962 11.6468 22.3858 11.1616 22.9897 11.1565H27.4187C28.0242 11.1612 28.5122 11.6456 28.5174 12.2461C28.5138 12.8465 28.0242 13.3317 27.4187 13.3357H22.9897C22.3842 13.3321 21.895 12.8465 21.891 12.2461H21.8914Z" fill="#D3B478"/>
</g>
<defs>
<clipPath id="clip0_3_6718">
<rect width="31.0976" height="18.6585" fill="white" transform="translate(0.951172 0.170654)"/>
</clipPath>
</defs>
</svg>
