<svg width="145" height="124" viewBox="0 0 145 124" fill="none" xmlns="http://www.w3.org/2000/svg">
<path d="M2.67995 103.359C2.67995 98.3663 2.67997 93.374 2.96797 88.3817C3.35197 82.9094 4.31195 77.533 7.67195 72.9247C8.53595 71.6766 8.43997 71.1006 6.90397 70.7166C5.94397 70.5246 4.98394 70.0445 4.02394 69.8525C1.71994 69.1805 0.663966 67.6444 1.04797 65.3402C1.43197 63.1321 2.67995 61.5 5.27195 61.5C6.03995 61.5 6.71195 61.404 7.47995 61.5C13.1439 62.7481 16.5999 60.1559 18.8079 55.0676C23.2239 44.9869 31.096 40.7627 42.04 42.0107C44.632 42.2988 47.32 42.1068 49.912 42.0107C52.12 42.0107 51.5439 43.4508 51.5439 44.6029C51.5439 45.755 52.0239 47.1951 49.8159 47.1951C45.3039 47.1951 40.696 47.1951 36.184 47.1951C31.672 47.1951 28.3119 49.0192 26.0079 52.8594C23.0319 57.7558 19.96 62.5561 16.984 67.4524C15.448 70.0445 16.12 71.3886 19.192 71.3886C29.08 71.3886 38.968 71.3886 48.856 71.3886C50.776 71.3886 51.544 71.7727 51.448 73.8848C51.352 82.0453 51.352 90.2058 51.448 98.4624C51.448 100.286 51.064 101.055 49.048 100.959C47.032 100.767 45.0159 100.959 43.0959 100.959C40.6959 100.959 40.6 102.495 40.6 104.319C40.6 106.143 40.7919 107.679 43.0959 107.583C45.2079 107.583 47.32 107.583 49.3359 107.583C50.8719 107.583 51.5439 107.967 51.3519 109.503C51.3519 110.271 51.2559 111.135 51.3519 111.999C51.5439 113.727 50.7759 114.111 49.1439 114.111C40.2159 114.111 31.288 114.111 22.456 114.111C20.344 114.111 19.4799 114.495 19.4799 116.896C19.6719 123.52 19.4799 123.52 12.9519 123.52C10.5519 123.52 8.24797 123.52 5.84797 123.52C3.35197 123.52 2.39196 122.368 2.39196 119.968C2.39196 114.495 2.39196 109.023 2.39196 103.647L2.67995 103.359ZM19.9599 93.7581C21.6879 93.7581 23.4159 93.7581 25.1439 93.7581C27.4479 93.7581 28.888 92.51 29.368 90.3018C29.848 88.0937 28.888 86.3656 26.776 85.5015C23.512 84.2534 20.152 82.9094 16.792 81.9493C13.432 80.9892 10.0719 83.2934 9.49594 86.6536C8.82394 90.2058 11.224 93.47 14.872 93.7581C16.6 93.8541 18.328 93.7581 20.056 93.7581H19.9599Z" fill="#C8A96B"/>
<path d="M55.48 68.3164C55.48 52.3794 55.48 36.5384 55.48 20.6014C55.48 15.6091 57.4 13.6889 62.392 13.5929C65.464 13.5929 68.536 13.5929 71.704 13.5929C73.048 13.5929 73.528 13.977 73.624 15.417C73.912 20.8894 73.912 20.8894 68.344 20.8894C64.632 20.8894 62.776 22.7455 62.776 26.4578C62.776 55.2596 62.776 84.0614 62.776 112.863C62.776 115.167 63.256 116.031 65.752 115.935C88.792 115.839 111.928 115.935 134.968 115.935C137.176 115.935 137.656 115.359 137.656 113.247C137.656 83.4854 137.656 53.6275 137.656 23.8656C137.656 21.4654 136.984 20.5054 134.68 20.8894C133.816 20.9854 132.856 20.8894 131.992 20.8894C126.232 20.8894 126.328 20.8894 126.904 15.129C127 13.977 127.384 13.4969 128.536 13.5929C132.28 13.5929 136.024 13.5929 139.672 13.5929C142.552 13.6889 144.568 15.7051 144.952 18.5853C145.048 19.4493 144.952 20.4094 144.952 21.2734C144.952 52.7634 144.952 84.1574 144.952 115.647C144.952 121.408 143.224 123.136 137.464 123.136C112.6 123.136 87.64 123.136 62.776 123.136C57.4 123.136 55.576 121.312 55.576 115.935C55.576 99.9985 55.576 84.1574 55.576 68.2204L55.48 68.3164Z" fill="#C8A96B"/>
<path d="M99.9279 24.2496C95.0319 24.2496 90.136 24.2496 85.24 24.2496C79.096 24.2496 75.0639 17.4332 77.6559 11.8648C78.2319 10.6167 79.2879 10.2327 80.5359 10.2327C83.3199 10.2327 86.1999 10.2327 88.9839 10.2327C90.1359 10.2327 90.616 9.9447 90.904 8.60061C91.96 3.7043 95.4159 0.824116 100.024 0.824116C104.632 0.824116 108.088 3.60829 109.24 8.50461C109.528 9.9447 110.2 10.2327 111.448 10.1367C114.04 10.1367 116.728 10.1367 119.32 10.1367C121.72 10.1367 122.776 11.2888 122.776 13.5929C122.776 14.553 122.776 15.6091 122.776 16.5691C122.584 21.2734 119.704 24.0576 114.904 24.1536C109.912 24.1536 104.92 24.1536 99.9279 24.1536V24.2496ZM104.152 10.1367C104.152 7.83256 102.232 6.00845 99.9279 6.00845C97.6239 6.00845 95.7999 8.12058 95.8959 10.3287C95.8959 12.4409 97.9119 14.265 100.024 14.265C102.232 14.265 104.152 12.3449 104.152 10.1367Z" fill="#C8A96B"/>
<path d="M111.064 37.0184C116.536 37.0184 121.912 37.0184 127.384 37.0184C129.208 37.0184 129.784 37.4985 129.688 39.3226C129.688 40.8587 129.688 42.0107 127.48 42.0107C116.44 41.9147 105.4 41.9147 94.36 42.0107C92.248 42.0107 92.056 41.1467 92.056 39.4186C92.056 37.4985 92.728 37.0184 94.552 37.0184C100.12 37.1144 105.592 37.0184 111.16 37.0184H111.064Z" fill="#C8A96B"/>
<path d="M110.872 61.02C105.304 61.02 99.832 61.02 94.264 61.02C92.152 61.02 91.96 60.1559 91.96 58.4278C91.96 56.7957 92.248 56.0276 94.168 56.0276C105.208 56.0276 116.248 56.1237 127.384 56.0276C129.496 56.0276 129.688 56.8917 129.688 58.6198C129.688 60.2519 129.4 61.02 127.48 61.02C121.912 60.924 116.44 61.02 110.872 61.02Z" fill="#C8A96B"/>
<path d="M110.872 80.0292C105.304 80.0292 99.832 79.9332 94.264 80.0292C92.056 80.0292 92.056 79.0691 91.96 77.437C91.96 75.7089 92.344 75.0369 94.264 75.1329C105.304 75.1329 116.344 75.2289 127.48 75.1329C129.688 75.1329 129.688 76.1889 129.688 77.821C129.688 79.5492 129.304 80.2212 127.48 80.1252C121.912 80.0292 116.44 80.1252 110.872 80.1252V80.0292Z" fill="#C8A96B"/>
<path d="M111.064 99.1344C105.496 99.1344 100.024 99.1344 94.456 99.1344C92.536 99.1344 91.96 98.6544 91.96 96.7343C91.96 95.0061 92.152 94.1421 94.264 94.1421C105.304 94.2381 116.44 94.2381 127.48 94.1421C129.784 94.1421 129.592 95.2942 129.688 96.8303C129.784 98.6544 129.208 99.1344 127.384 99.1344C121.912 99.0384 116.536 99.1344 111.064 99.1344Z" fill="#C8A96B"/>
<path d="M77.2719 99.1344C75.5439 99.1344 74.8719 97.9823 73.9119 97.1183C72.9519 96.2542 72.0879 95.3902 71.2239 94.4301C70.3599 93.374 70.2639 92.318 71.2239 91.2619C72.1839 90.2058 73.6239 90.2058 74.2959 91.2619C76.5999 94.5261 78.1359 92.894 79.9599 90.7819C81.1119 89.4378 82.4559 88.1897 83.8959 87.0376C84.7599 86.2696 85.7199 86.3656 86.5839 87.1336C87.4479 87.9017 87.7359 88.9578 87.0639 89.8218C84.2799 92.99 81.3039 96.0622 78.0399 98.8464C77.7519 99.0384 77.3679 99.0384 77.2719 99.0384V99.1344Z" fill="#C8A96B"/>
<path d="M87.352 69.6605C87.352 70.6206 86.776 71.2926 86.2 71.8687C83.8 74.2688 81.4 76.573 79.096 78.9731C77.656 80.4132 76.312 80.4132 74.872 78.9731C73.72 77.821 72.568 76.669 71.416 75.5169C70.456 74.4608 70.072 73.3087 71.224 72.1567C72.376 71.0046 73.72 71.1966 74.488 72.3487C76.6 75.5169 78.136 73.7888 79.768 71.9647C80.92 70.6206 82.264 69.3725 83.608 68.1244C84.28 67.4524 85.144 67.2604 86.104 67.7404C86.872 68.1244 87.256 68.7965 87.352 69.5645V69.6605Z" fill="#C8A96B"/>
<path d="M87.3519 50.8433C87.2559 51.6114 86.8719 52.1874 86.2959 52.6674C83.8959 55.0676 81.496 57.3717 79.192 59.7719C77.656 61.308 76.216 61.308 74.776 59.7719C73.72 58.6198 72.568 57.5637 71.512 56.5077C70.456 55.4516 70.1679 54.2995 71.2239 53.1475C72.2799 51.9954 73.72 52.0914 74.584 53.2435C76.696 56.4117 78.232 54.7796 79.864 52.8594C81.112 51.5154 82.36 50.2673 83.704 49.0192C84.376 48.3472 85.24 48.1551 86.2 48.7312C86.968 49.2112 87.2559 49.8833 87.3519 50.7473V50.8433Z" fill="#C8A96B"/>
<path d="M87.352 31.7381C87.256 32.6021 86.776 33.1782 86.104 33.8502C83.8 36.1544 81.496 38.4585 79.192 40.7627C77.752 42.2988 76.312 42.3948 74.776 40.7627C73.624 39.6106 72.472 38.4585 71.32 37.3064C70.36 36.3464 70.168 35.1943 71.128 34.1382C72.088 33.0822 73.144 33.2742 74.296 34.0422C75.352 34.7143 75.832 36.7304 77.368 36.0584C78.424 35.6743 79.192 34.3303 80.152 33.4662C81.304 32.3141 82.456 31.1621 83.704 30.01C84.472 29.3379 85.24 29.1459 86.2 29.626C86.968 30.106 87.256 30.778 87.448 31.6421L87.352 31.7381Z" fill="#C8A96B"/>
</svg>
