<svg width="166" height="94" viewBox="0 0 166 94" fill="none" xmlns="http://www.w3.org/2000/svg">
<path d="M97.936 76.1667C87.76 76.1667 77.584 76.1667 67.312 76.1667C65.68 76.1667 65.68 76.1667 66.352 74.7266C75.472 56.1974 84.688 37.6682 93.808 19.043C94.384 17.9869 94.96 17.5069 96.208 17.5069C106.96 17.5069 117.712 17.5069 128.56 17.5069C129.616 17.5069 130.096 17.7949 130.384 18.851C132.976 26.6275 138.256 31.8118 146.032 34.404C146.992 34.692 147.28 35.172 147.28 36.1321C147.28 43.2366 147.28 50.245 147.28 57.3495C147.28 58.4055 146.992 58.7896 145.936 59.0776C138.16 61.6697 132.88 66.9501 130.288 74.8226C130 75.7826 129.424 75.9747 128.56 75.9747C118.288 75.9747 108.112 75.9747 97.84 75.9747L97.936 76.1667ZM107.056 68.0061C107.728 68.0061 108.4 68.0061 109.072 68.0061C109.936 68.0061 110.224 67.7181 110.128 66.9501C110.128 65.99 110.128 65.03 110.128 64.1659C110.032 63.1098 110.416 62.7258 111.376 62.3418C114.928 60.9977 117.136 58.5975 117.616 54.7573C118.096 50.725 116.56 47.6528 113.2 45.4447C112.048 44.6767 110.896 44.1006 109.648 43.5246C108.4 42.9485 107.152 42.3725 105.904 41.7965C104.752 41.2204 103.984 40.3564 104.176 39.0123C104.368 37.7642 105.328 36.9962 106.864 36.9002C108.784 36.7081 110.704 36.9002 112.432 37.8602C114.544 38.9163 114.448 38.9163 115.408 36.8041C117.136 32.9639 116.944 32.4839 112.336 31.0438C112.336 31.0438 112.144 31.0438 112.048 31.0438C110.512 31.0438 110.128 30.2757 110.224 28.7396C110.32 25.9555 110.224 25.9555 107.44 25.9555C104.272 25.9555 104.176 25.9555 104.368 29.0276C104.368 30.4677 103.984 31.0438 102.64 31.6198C99.376 32.9639 97.456 35.4601 97.072 39.0123C96.688 42.6605 98.32 45.3487 101.296 47.3648C102.64 48.2289 104.08 48.9009 105.616 49.477C106.768 49.957 107.92 50.437 108.88 51.2051C109.936 52.0691 110.512 53.1252 110.224 54.4693C109.936 55.9094 109.072 56.5814 107.728 56.9654C107.248 57.0614 106.672 57.1574 106.192 57.1574C103.6 57.2535 101.392 56.2934 99.28 55.0453C98.512 54.5653 98.128 54.6613 97.84 55.6213C97.552 56.6774 97.168 57.7335 96.784 58.7896C96.304 60.0376 96.784 60.9017 97.744 61.4777C99.088 62.2458 100.528 62.9178 102.16 63.0138C103.6 63.1098 103.888 63.6859 103.792 65.0299C103.792 68.1982 103.792 68.1982 106.864 68.1982L107.056 68.0061Z" fill="#C8A96B"/>
<path d="M57.8081 93.7358C59.2481 90.6636 60.6881 87.8794 61.9361 85.0952C62.2241 84.4232 62.8 84.5192 63.376 84.5192C75.088 84.5192 86.704 84.5192 98.416 84.5192C115.312 84.5192 132.208 84.5192 149.008 84.5192C150.064 84.5192 151.12 84.5192 152.08 84.3272C154.864 83.7511 156.784 81.255 156.784 78.2788C156.784 65.606 156.784 53.0292 156.784 40.3564C156.784 32.2919 156.784 24.2273 156.784 16.1628C156.784 11.8425 154.384 9.34639 149.968 9.34639C133.456 9.34639 117.04 9.34639 100.528 9.4424C98.512 9.4424 98.512 9.4424 99.376 7.71429C100.432 5.60215 101.488 3.49001 102.448 1.37788C102.832 0.513823 103.312 0.225806 104.272 0.225806C118.672 0.225806 133.072 0.225806 147.376 0.225806C149.488 0.225806 151.6 0.0337936 153.616 0.513824C161.008 2.04992 166 8.19432 166 15.6828C166 36.6121 166 57.5415 166 78.4708C166 87.1114 159.184 93.8318 150.544 93.8318C123.088 93.8318 95.632 93.8318 68.0801 93.8318C64.7201 93.8318 61.36 93.8318 57.712 93.8318L57.8081 93.7358Z" fill="#C8A96B"/>
<path d="M54.736 22.0192C47.152 22.0192 39.568 22.0192 32.08 22.0192C29.2 22.0192 27.472 20.1951 27.568 17.4109C27.568 14.9147 29.488 13.1866 32.272 13.1866C36.496 13.1866 40.624 13.1866 44.848 13.1866C55.696 13.1866 66.544 13.1866 77.392 13.1866C80.368 13.1866 82.288 14.9147 82.288 17.6989C82.288 20.2911 80.464 22.1152 77.776 22.1152C70.96 22.1152 64.144 22.1152 57.328 22.1152C56.464 22.1152 55.6 22.1152 54.832 22.1152L54.736 22.0192Z" fill="#C8A96B"/>
<path d="M26.6081 42.4685C33.8081 42.4685 41.0081 42.4685 48.2081 42.4685C51.3761 42.4685 53.488 45.3487 52.432 48.3249C51.856 50.149 50.128 51.3011 47.8241 51.3011C38.32 51.3011 28.816 51.3011 19.216 51.3011C14.608 51.3011 10 51.3011 5.29605 51.3011C2.41604 51.3011 0.400024 49.477 0.400024 46.7888C0.400024 44.1966 2.32002 42.3725 5.20002 42.3725C12.304 42.3725 19.312 42.3725 26.416 42.3725L26.6081 42.4685Z" fill="#C8A96B"/>
<path d="M33.424 71.8464C38.32 71.8464 43.216 71.8464 48.112 71.8464C50.992 71.8464 52.816 73.4785 52.816 76.1667C52.816 78.8548 51.0881 80.679 48.2081 80.679C38.4161 80.679 28.5281 80.679 18.7361 80.679C15.2801 80.679 13.168 77.8948 14.224 74.8226C14.8 72.9985 16.336 71.9424 18.352 71.9424C23.344 71.9424 28.432 71.9424 33.424 71.9424V71.8464Z" fill="#C8A96B"/>
</svg>
