<svg width="116" height="125" viewBox="0 0 116 125" fill="none" xmlns="http://www.w3.org/2000/svg">
<path d="M92.736 98.8863C92.736 104.263 92.832 109.639 92.736 115.015C92.64 120.68 87.936 125 82.176 125C65.856 125 49.536 125 33.216 125C25.92 125 18.528 125 11.232 125C4.512 125 0 120.584 0 114.055C0 83.4293 0 52.7074 0 22.0814C0 15.361 4.416 11.0407 11.04 10.9447C13.728 10.9447 16.32 10.9447 19.008 10.9447C19.68 10.9447 19.968 11.1367 19.968 11.9048C19.968 13.6329 19.968 15.265 19.968 16.9931C19.968 17.8571 19.776 18.2412 18.816 18.1452C16.128 18.1452 13.536 18.1452 10.848 18.1452C8.16 18.1452 7.104 19.2012 7.104 21.9854C7.104 47.523 7.104 73.1567 7.104 98.6943C7.104 103.783 7.104 108.967 7.104 114.055C7.104 116.647 8.256 117.8 10.848 117.8C34.464 117.8 58.08 117.8 81.696 117.8C84.192 117.8 85.344 116.647 85.44 114.151C85.44 111.655 85.44 109.159 85.44 106.759C85.44 105.991 85.728 105.415 86.208 104.839C88.224 102.823 90.24 100.71 92.256 98.5983C92.352 98.5983 92.448 98.7903 92.544 98.7903L92.736 98.8863Z" fill="#C8A96B"/>
<path d="M46.368 21.0253C39.9359 21.0253 33.4079 21.0253 26.9759 21.0253C24.5759 21.0253 23.52 19.9693 23.424 17.5691C23.424 15.361 23.424 13.2488 23.424 11.0407C23.424 8.92857 24.5759 7.48848 26.6879 7.7765C30.1439 8.25653 32.0639 6.91244 33.5999 3.84024C35.9039 -0.672044 34.9439 -1.19954e-06 40.1279 -1.19954e-06C44.9279 -1.19954e-06 49.728 -1.19954e-06 54.624 -1.19954e-06C55.872 -1.19954e-06 56.736 0.384023 57.312 1.5361C58.2719 3.26421 59.328 4.99232 60.288 6.72043C60.672 7.48848 61.152 7.7765 62.016 7.7765C63.36 7.7765 64.704 7.7765 66.048 7.7765C68.064 7.7765 69.216 8.92857 69.216 10.9447C69.216 13.2488 69.216 15.553 69.216 17.8571C69.216 19.8733 67.9679 21.0253 65.952 21.0253C59.424 21.0253 52.8 21.0253 46.272 21.0253H46.368Z" fill="#C8A96B"/>
<path d="M78.336 107.047C78.336 107.047 77.952 106.759 77.856 106.567C75.36 104.071 72.864 101.574 70.368 99.0783C69.888 98.5983 69.792 98.3103 70.368 97.7343C80.736 87.3656 91.104 76.9969 101.472 66.6283C101.952 66.1482 102.336 66.0522 102.816 66.6283C105.312 69.1244 107.712 71.6206 110.304 74.1167C111.168 74.9808 110.496 75.2688 110.016 75.7488C100.704 85.0614 91.392 94.374 81.984 103.783C81.024 104.743 80.064 105.703 79.104 106.663C78.912 106.855 78.72 107.143 78.336 107.143V107.047Z" fill="#C8A96B"/>
<path d="M85.5359 76.9969C85.5359 68.5484 85.5359 60.3879 85.5359 52.2273C85.5359 42.1467 85.5359 32.066 85.5359 21.9854C85.5359 19.2972 84.4799 18.1452 81.7919 18.1452C79.1039 18.1452 76.5119 18.1452 73.8239 18.1452C73.0559 18.1452 72.7679 18.0492 72.7679 17.1851C72.7679 15.361 72.7679 13.6329 72.7679 11.8088C72.7679 11.3287 72.7679 10.9447 73.4399 10.9447C77.0879 11.0407 80.8319 10.5607 84.4799 11.2327C89.1839 12.0968 92.7359 16.321 92.7359 21.1213C92.7359 37.1544 92.7359 53.1874 92.7359 69.2204C92.7359 69.6044 92.7359 69.9885 92.4479 70.2765C90.1439 72.4846 87.9359 74.6928 85.5359 77.0929V76.9969Z" fill="#C8A96B"/>
<path d="M61.248 84.1014C56.448 84.1014 51.648 84.1014 46.752 84.1014C45.6 84.1014 44.736 83.7174 44.256 82.5653C43.872 81.6052 43.968 80.7412 44.64 79.9731C45.12 79.3971 45.792 79.1091 46.56 79.1091C56.352 79.1091 66.144 79.1091 75.84 79.1091C77.376 79.1091 78.528 80.1651 78.528 81.5092C78.528 82.9493 77.376 84.0054 75.744 84.0054C70.848 84.0054 66.048 84.0054 61.152 84.0054L61.248 84.1014Z" fill="#C8A96B"/>
<path d="M61.248 44.7389C56.448 44.7389 51.744 44.7389 46.944 44.7389C45.312 44.7389 44.256 43.8748 44.064 42.5307C43.968 40.9946 45.024 39.9386 46.752 39.9386C51.84 39.9386 57.024 39.9386 62.112 39.9386C66.624 39.9386 71.04 39.9386 75.552 39.9386C77.472 39.9386 78.624 40.8026 78.624 42.3387C78.624 43.8748 77.472 44.8349 75.456 44.8349C70.752 44.8349 65.952 44.8349 61.248 44.8349V44.7389Z" fill="#C8A96B"/>
<path d="M61.248 64.4201C56.736 64.4201 52.224 64.4201 47.712 64.4201C47.232 64.4201 46.656 64.4201 46.176 64.4201C45.024 64.2281 44.256 63.5561 44.16 62.404C43.968 61.1559 44.544 60.2919 45.696 59.8118C46.272 59.5238 46.848 59.6198 47.52 59.6198C56.832 59.6198 66.144 59.6198 75.36 59.6198C75.648 59.6198 75.84 59.6198 76.128 59.6198C77.664 59.7158 78.624 60.6759 78.72 62.02C78.72 63.3641 77.664 64.4201 76.032 64.4201C71.136 64.4201 66.24 64.4201 61.344 64.4201H61.248Z" fill="#C8A96B"/>
<path d="M35.328 75.1728C35.328 76.1329 34.944 76.6129 34.56 77.0929C30.72 81.0292 26.976 84.9654 23.136 88.8057C21.984 89.9578 21.024 89.9578 19.872 88.8057C18.144 87.0776 16.416 85.2534 14.784 83.4293C13.92 82.4693 13.92 81.3172 14.784 80.5492C15.648 79.7811 16.704 79.8771 17.664 80.8372C18.72 81.8932 19.776 83.0453 20.736 84.1974C21.312 84.8694 21.792 84.8694 22.368 84.1974C25.536 80.9332 28.704 77.765 31.776 74.5008C32.544 73.7327 33.312 73.2527 34.464 73.8287C35.04 74.2127 35.424 74.6928 35.424 75.1728H35.328Z" fill="#C8A96B"/>
<path d="M16.032 40.7066C16.608 40.7066 17.088 40.9946 17.472 41.4747C18.528 42.5307 19.584 43.5868 20.544 44.7389C21.216 45.5069 21.696 45.5069 22.368 44.7389C25.344 41.6667 28.32 38.5945 31.296 35.6183C31.68 35.2343 32.064 34.8502 32.448 34.5622C33.312 33.9862 34.08 34.1782 34.848 34.8502C35.52 35.5223 35.616 36.2903 35.136 37.0584C34.944 37.4424 34.56 37.7304 34.272 38.0184C30.624 41.7627 26.976 45.5069 23.328 49.1551C21.888 50.5952 21.024 50.5952 19.488 49.1551C17.856 47.427 16.32 45.6989 14.688 44.0668C14.016 43.3948 13.92 42.6267 14.304 41.7627C14.592 41.0906 15.168 40.7066 16.128 40.7066H16.032Z" fill="#C8A96B"/>
<path d="M35.328 55.8756C35.328 56.4516 35.04 56.9316 34.656 57.3157C30.816 61.2519 26.88 65.2842 23.04 69.2204C21.984 70.3725 21.024 70.2765 19.872 69.2204C18.144 67.3963 16.512 65.6682 14.784 63.8441C13.92 62.884 13.92 61.7319 14.688 60.9639C15.552 60.1958 16.608 60.2919 17.568 61.2519C18.624 62.308 19.68 63.4601 20.736 64.5161C21.312 65.1882 21.792 65.1882 22.368 64.5161C25.536 61.2519 28.704 58.0837 31.776 54.8195C32.544 53.9554 33.408 53.7634 34.464 54.2435C35.04 54.5315 35.424 55.1075 35.424 55.8756H35.328Z" fill="#C8A96B"/>
<path d="M24.768 95.7181C28.032 95.7181 30.432 98.2143 30.336 101.574C30.336 104.647 27.744 107.047 24.576 107.047C21.408 107.047 18.816 104.551 18.816 101.382C18.816 98.1183 21.408 95.7181 24.672 95.7181H24.768Z" fill="#C8A96B"/>
<path d="M55.2961 98.8863C58.0801 98.8863 60.96 98.8863 63.744 98.8863C64.704 98.8863 64.896 99.1743 64.608 100.134C63.552 103.879 63.648 103.879 59.808 103.879C55.488 103.879 51.168 103.879 46.848 103.879C45.6 103.879 44.64 103.495 44.16 102.247C43.488 100.614 44.736 98.9823 46.752 98.9823C49.632 98.9823 52.5121 98.9823 55.2961 98.9823V98.8863Z" fill="#C8A96B"/>
<path d="M77.472 108.103C73.728 109.063 70.464 110.023 67.2 110.887C66.144 111.175 65.76 110.791 66.048 109.735C66.816 106.567 67.776 103.495 68.544 100.326C68.64 99.7504 68.832 99.6544 69.312 100.038C72 102.631 74.592 105.223 77.472 108.103Z" fill="#C8A96B"/>
<path d="M115.584 69.3164C115.584 69.9885 113.664 72.2926 113.184 72.4846C112.896 72.4846 112.704 72.3886 112.512 72.1966C109.92 69.6045 107.328 67.0123 104.736 64.4201C104.544 64.2281 104.256 64.0361 104.448 63.7481C105.216 62.884 105.888 61.924 107.04 61.4439C108 61.0599 108.48 61.828 108.96 62.404C110.88 64.3241 112.8 66.2442 114.72 68.0684C115.104 68.4524 115.488 68.8364 115.584 69.3164Z" fill="#C8A96B"/>
</svg>
