<svg width="55" height="43" viewBox="0 0 55 43" fill="none" xmlns="http://www.w3.org/2000/svg">
<g clip-path="url(#clip0_1_1262)">
<path d="M13.0949 37.8722C9.4858 37.8722 5.87666 37.8722 2.27382 37.8722C1.4109 37.8722 0.730646 37.5372 0.289739 36.7706C0.0881814 36.4292 0 36.0556 0 35.6562C0 34.1359 0.00629867 32.6091 0 31.0888C0 30.4833 0.157467 29.9421 0.56688 29.4977C0.749542 29.3044 0.80623 29.0918 0.799931 28.8341C0.793633 27.2752 0.755841 25.7098 0.80623 24.1508C0.862918 22.4308 1.47389 20.9105 2.67064 19.6672C2.70843 19.6286 2.74622 19.5964 2.77771 19.5577C2.93518 19.3709 2.89739 19.2227 2.65804 19.1712C2.26752 19.0875 1.92739 18.8942 1.60616 18.6687C0.976294 18.2307 0.642465 17.419 0.831425 16.7555C1.00779 16.1242 1.4046 15.6475 1.94629 15.2932C3.02336 14.591 4.20121 14.4621 5.42945 14.6554C5.73809 14.7005 5.76958 14.7005 5.87666 14.3977C6.07822 13.8115 6.26718 13.2253 6.44984 12.6391C6.98523 10.9255 7.60879 9.25705 8.75515 7.85271C9.72515 6.66095 10.9156 5.81061 12.3895 5.41121C13.1327 5.21151 13.8949 5.12132 14.6696 5.12776C17.8 5.1342 20.9242 5.12776 24.0546 5.1342C24.1302 5.1342 24.2058 5.1342 24.2814 5.1342C24.4703 5.1342 24.5585 5.25016 24.5585 5.43053C24.5585 5.79128 24.5585 6.15203 24.5522 6.51278C24.5459 6.75113 24.4703 6.822 24.2184 6.83488C24.0168 6.84132 23.8153 6.82844 23.6137 6.82844C20.3699 6.82844 17.1324 6.80267 13.8886 6.82844C12.3958 6.84132 11.1423 7.49196 10.122 8.61286C9.18346 9.64357 8.60398 10.8869 8.17568 12.201C7.65918 13.7793 7.16159 15.3576 6.6514 16.9359C6.61361 17.0454 6.56322 17.1484 6.52542 17.258C6.43094 17.5285 6.48763 17.6123 6.78367 17.5994C8.88743 17.5027 10.9975 17.5672 13.1012 17.5607C16.7356 17.5478 20.3699 17.5607 23.9979 17.5607C24.5585 17.5607 24.5585 17.5607 24.5585 18.1469C24.5585 22.7143 24.5585 27.2816 24.5585 31.849C24.5585 32.1711 24.5585 32.4932 24.5585 32.8153C24.5585 33.2275 24.527 33.2598 24.1302 33.2598C22.2406 33.2598 20.3447 33.2662 18.4551 33.2662C17.0316 33.2662 15.6018 33.2662 14.1783 33.2662C14.1279 33.2662 14.0775 33.2662 14.0271 33.2662C13.4288 33.2726 13.328 33.4015 13.4603 33.9877C13.5799 34.5095 13.9327 34.9926 14.6633 34.9862C17.756 34.9669 20.8423 34.9733 23.935 34.9733C23.9853 34.9733 24.0357 34.9733 24.0861 34.9733C24.5207 34.9733 24.5585 35.012 24.5648 35.4565C24.5648 36.1135 24.5648 36.7706 24.5648 37.4277C24.5648 37.7949 24.5144 37.8593 24.1554 37.8593C23.2232 37.8593 22.291 37.8593 21.3525 37.8593C18.6 37.8593 15.8538 37.8593 13.1012 37.8593L13.0949 37.8722ZM7.20568 26.2445C7.20568 26.2445 7.20568 26.2445 7.20568 26.238C8.31425 26.238 9.42281 26.238 10.5314 26.238C10.7455 26.238 10.9597 26.238 11.1738 26.238C11.3817 26.238 11.4825 26.1414 11.5266 25.9288C11.6651 25.2846 11.4384 24.7886 10.9534 24.4021C10.5755 24.0993 10.1724 23.8481 9.73775 23.6419C8.91262 23.2554 8.0623 22.9591 7.18049 22.7143C6.19789 22.4437 5.209 22.3213 4.20121 22.2827C3.98706 22.2762 3.7729 22.2956 3.56505 22.3406C2.8218 22.4953 2.39979 22.9977 2.3872 23.7643C2.3746 24.4729 2.56986 25.1365 2.78401 25.8C2.89739 26.1478 3.11154 26.2574 3.46427 26.2574C4.71141 26.238 5.95854 26.2509 7.20568 26.2509V26.2445ZM6.77737 32.6864C6.42464 32.6864 6.07192 32.6864 5.71919 32.6864C4.96335 32.6929 4.41537 33.5239 4.70511 34.2389C4.90037 34.7285 5.25939 34.9862 5.78218 34.9926C6.41205 34.9926 7.04191 34.9733 7.67178 34.9991C8.00561 35.012 8.25756 34.8896 8.49061 34.6834C8.85593 34.3613 8.97561 33.9233 8.81814 33.4659C8.66067 33.0085 8.26386 32.7057 7.79776 32.6929C7.45763 32.6864 7.1175 32.6929 6.77737 32.6929V32.6864Z" fill="white"/>
<path d="M54.9874 22.8818C54.9874 28.4927 54.9874 34.1036 54.9937 39.721C54.9937 40.1655 54.9559 40.5971 54.8362 41.0158C54.6724 41.5827 54.3134 42.0401 53.8536 42.4009C53.356 42.7874 52.7891 42.9871 52.1656 42.9935C50.9184 43.0064 49.6713 43.0064 48.4178 43.0064C41.9365 43.0064 35.4489 43.0064 28.9675 43.0064C28.1487 43.0064 27.3992 42.8196 26.7756 42.2269C26.1646 41.6472 25.8623 40.9385 25.8497 40.1011C25.8308 39.0317 25.8497 37.9624 25.8497 36.8866C25.8497 26.5666 25.8497 16.2466 25.8497 5.92656C25.8497 4.91517 26.1646 4.04551 26.952 3.40776C27.4244 3.02768 27.9661 2.79577 28.5833 2.79577C29.7171 2.79577 30.8509 2.79577 31.9909 2.79577C32.4129 2.79577 32.4444 2.82798 32.4444 3.25315C32.4444 3.89734 32.4318 4.54154 32.4444 5.18573C32.4822 6.37105 32.9294 7.38244 33.7356 8.23277C33.7608 8.25854 33.7923 8.28431 33.8175 8.31008C33.8868 8.38094 34.0065 8.43892 33.9687 8.55487C33.9246 8.70304 33.786 8.65794 33.679 8.65794C32.0665 8.65794 30.4477 8.6515 28.8353 8.64506C28.1298 8.64506 27.5252 9.16042 27.5252 9.97854C27.5378 17.812 27.5378 25.6389 27.5378 33.4723C27.5378 35.6111 27.5378 37.7562 27.5378 39.8949C27.5378 40.4618 27.7519 40.8935 28.2558 41.1511C28.3692 41.2091 28.4888 41.2478 28.6211 41.2478C28.7723 41.2478 28.9235 41.2542 29.0746 41.2542C36.5071 41.2542 43.9332 41.2542 51.3656 41.2542C51.6176 41.2542 51.8695 41.2542 52.1215 41.2542C52.8269 41.2413 53.3182 40.5649 53.3182 39.9272C53.3056 30.3544 53.3056 20.7817 53.3056 11.209C53.3056 10.7838 53.3056 10.3586 53.3119 9.93345C53.3245 9.31502 52.8458 8.66439 52.1089 8.6515C50.9373 8.63218 49.7658 8.64506 48.5879 8.6515C48.0714 8.6515 47.5549 8.61285 47.0384 8.65794C46.9755 8.65794 46.9062 8.65794 46.8747 8.59352C46.8306 8.50978 46.8747 8.44536 46.9314 8.38738C47.0573 8.25854 47.1833 8.13615 47.303 8.00086C48.084 7.11188 48.4052 6.04895 48.4241 4.87652C48.4367 4.30963 48.4178 3.74274 48.4241 3.17585C48.4241 2.82154 48.4808 2.78289 48.8273 2.78289C49.9358 2.78289 51.0507 2.8151 52.1593 2.78289C53.3686 2.75068 54.6283 3.71697 54.9055 4.96026C54.9874 5.32101 55.0063 5.66888 55.0063 6.02963C55.0063 9.08955 55.0063 12.143 55.0063 15.203C55.0063 17.7604 55.0063 20.3114 55.0063 22.8689L54.9874 22.8818Z" fill="white"/>
<path d="M40.45 0.0063927C42.2137 0.0063927 43.9773 0.0063927 45.7472 0.0063927C45.9866 0.0063927 46.2259 -4.92492e-05 46.4653 -4.92492e-05C47.0699 -4.92492e-05 47.429 0.3607 47.429 0.979127C47.429 2.34482 47.4541 3.71051 47.429 5.07621C47.3786 7.11186 45.7283 8.63216 43.9395 8.63216C41.5964 8.63216 39.247 8.63216 36.9039 8.63216C35.2788 8.63216 33.8427 7.33089 33.5467 5.85568C33.4963 5.59156 33.427 5.32744 33.427 5.05688C33.427 3.6783 33.427 2.29973 33.427 0.921149C33.427 0.521748 33.5971 0.238303 33.9561 0.0643702C34.1136 -0.0129331 34.2773 -4.92492e-05 34.4411 -4.92492e-05C36.4441 -4.92492e-05 38.447 -4.92492e-05 40.4563 -4.92492e-05L40.45 0.0063927ZM40.4311 3.03411C39.7887 3.02767 39.1966 3.62033 39.1777 4.28385C39.1588 4.90871 39.7761 5.55291 40.4059 5.56579C41.0547 5.57868 41.6279 4.97313 41.6405 4.26452C41.6468 3.62032 41.0799 3.04055 40.4311 3.03411Z" fill="white"/>
<path d="M7.19934 38.497C9.01336 38.497 10.8274 38.497 12.6414 38.497C13.0004 38.497 13.0319 38.5228 13.0319 38.89C13.0319 39.2765 13.0319 39.663 13.0193 40.0496C13.0067 40.5263 12.8492 40.9579 12.6162 41.3637C12.402 41.7373 12.0934 41.9306 11.6588 41.9306C10.3235 41.9242 8.98816 41.9306 7.65284 41.9306C5.99 41.9306 4.32715 41.9306 2.6643 41.9306C2.13521 41.9306 1.83917 41.6021 1.61872 41.1705C1.43606 40.8097 1.35417 40.4167 1.32898 40.0173C1.30378 39.6437 1.29749 39.2701 1.29749 38.8964C1.29749 38.5357 1.34158 38.4906 1.688 38.4906C2.48164 38.4906 3.27527 38.4906 4.0689 38.4906C5.11448 38.4906 6.16006 38.4906 7.20564 38.4906L7.19934 38.497Z" fill="white"/>
<path d="M44.6261 29.3559C42.7743 29.3559 40.9225 29.3559 39.0707 29.3559C38.6927 29.3559 38.6361 29.3044 38.6298 28.9114C38.6298 28.628 38.6298 28.3445 38.6298 28.0611C38.6424 27.6875 38.7053 27.623 39.0896 27.623C40.2737 27.623 41.4579 27.623 42.642 27.623C45.1363 27.623 47.6306 27.623 50.1248 27.623C50.2004 27.623 50.276 27.623 50.3516 27.623C50.5217 27.623 50.6098 27.7261 50.6161 27.8872C50.6161 28.2866 50.6161 28.686 50.6161 29.0854C50.6161 29.2335 50.5217 29.3173 50.3768 29.3302C50.2508 29.3366 50.1248 29.3495 49.9989 29.3495C48.21 29.3495 46.4212 29.3495 44.6324 29.3495L44.6261 29.3559Z" fill="white"/>
<path d="M44.626 14.7005C42.812 14.7005 40.9917 14.7005 39.1777 14.7005C39.0895 14.7005 39.0013 14.7005 38.9131 14.7005C38.7494 14.7005 38.6423 14.6168 38.6423 14.4429C38.636 14.0435 38.636 13.6441 38.6423 13.2447C38.6423 13.0578 38.762 12.9677 38.9383 12.9677C39.0769 12.9677 39.2155 12.9677 39.354 12.9677C42.938 12.9677 46.5156 12.9677 50.0996 12.9677C50.1752 12.9677 50.2508 12.9677 50.3263 12.9677C50.509 12.9677 50.6161 13.0772 50.6161 13.2575C50.6287 13.6569 50.6224 14.0563 50.6161 14.4557C50.6161 14.6619 50.4649 14.7005 50.3011 14.7005C49.835 14.7005 49.3689 14.7005 48.9028 14.7005C47.4793 14.7005 46.0558 14.7005 44.626 14.7005Z" fill="white"/>
<path d="M44.6009 22.0121C42.7869 22.0121 40.9666 22.0121 39.1526 22.0121C39.077 22.0121 39.0014 22.0121 38.9258 22.0121C38.7432 22.0121 38.6361 21.9284 38.6361 21.7351C38.6361 21.3615 38.6235 20.9879 38.6361 20.6142C38.6424 20.3952 38.718 20.3308 38.951 20.3115C39.0392 20.305 39.1274 20.3115 39.2156 20.3115C42.7113 20.3115 46.2008 20.3115 49.6966 20.3115C49.8855 20.3115 50.0745 20.2986 50.2634 20.305C50.5091 20.3115 50.6036 20.3759 50.6162 20.6142C50.6351 20.9879 50.6288 21.3615 50.6162 21.7351C50.6162 21.9155 50.5028 22.0121 50.3201 22.0121C50.0304 22.0121 49.7407 22.0121 49.4509 22.0121C47.8385 22.0121 46.2197 22.0121 44.6072 22.0121H44.6009Z" fill="white"/>
<path d="M44.582 36.6611C42.7806 36.6611 40.9791 36.6611 39.1777 36.6611C39.0895 36.6611 39.0014 36.6611 38.9132 36.6611C38.7431 36.6611 38.6486 36.5645 38.6486 36.4035C38.6423 36.0041 38.636 35.6047 38.6486 35.2053C38.6486 35.0184 38.7746 34.9347 38.951 34.9347C39.1147 34.9347 39.2785 34.9411 39.4423 34.9411C43.0325 34.9411 46.6228 34.9411 50.2193 34.9411C50.5594 34.9411 50.6224 34.9927 50.6287 35.3341C50.635 35.6562 50.6413 35.9783 50.6287 36.3004C50.6161 36.6096 50.572 36.6611 50.2697 36.6676C49.7784 36.674 49.2871 36.6676 48.7958 36.6676C47.3975 36.6676 45.9992 36.6676 44.6009 36.6676L44.582 36.6611Z" fill="white"/>
<path d="M32.8475 16.1048C32.7153 16.1048 32.6523 15.9953 32.5767 15.9116C31.8461 15.1643 31.1154 14.417 30.3848 13.6698C30.2966 13.5796 30.2084 13.4894 30.1139 13.3992C30.0068 13.2897 29.988 13.1866 30.1013 13.0642C30.4037 12.755 30.6997 12.4393 31.002 12.1301C31.1154 12.0142 31.2162 12.0399 31.3233 12.1559C31.6949 12.5424 32.0665 12.9289 32.4381 13.309C32.7216 13.5989 32.7531 13.5925 33.0176 13.2639C33.6601 12.4716 34.3025 11.6792 34.9513 10.8868C35.1844 10.6034 35.2284 10.6034 35.493 10.8289C35.7323 11.035 35.9717 11.2411 36.211 11.4537C36.463 11.6728 36.4693 11.7243 36.2551 11.9884C35.6945 12.6841 35.1277 13.3799 34.5671 14.0692C34.0758 14.6747 33.5845 15.2802 33.0932 15.8793C33.0239 15.9695 32.9672 16.079 32.8412 16.0984L32.8475 16.1048Z" fill="white"/>
<path d="M31.1343 26.6761C31.2414 26.6696 31.2855 26.7469 31.3485 26.8113C31.7201 27.1979 32.0917 27.5844 32.4633 27.9645C32.709 28.2157 32.7594 28.2028 32.9924 27.9194C33.616 27.1399 34.2459 26.3733 34.8694 25.6003C34.9009 25.5616 34.9387 25.523 34.9702 25.4843C35.1592 25.2846 35.2536 25.2653 35.4552 25.4263C35.7197 25.6389 35.9843 25.8644 36.2362 26.0963C36.463 26.3089 36.463 26.3604 36.2677 26.6052C35.7072 27.3009 35.1466 27.9967 34.5797 28.686C34.0821 29.2979 33.5782 29.9099 33.0743 30.5219C32.8413 30.8054 32.8224 30.8118 32.583 30.567C31.7831 29.7489 30.9831 28.9243 30.1832 28.1062C29.9565 27.8743 29.9628 27.8485 30.1832 27.6037C30.4352 27.3331 30.6934 27.069 30.9517 26.8049C31.002 26.7469 31.0524 26.6889 31.1343 26.6761Z" fill="white"/>
<path d="M36.4189 19.0166C36.3937 19.1583 36.3244 19.2485 36.2488 19.3323C35.7197 19.9185 35.2473 20.5562 34.7497 21.1682C34.1891 21.8446 33.6349 22.5275 33.0806 23.2103C32.8601 23.4809 32.8475 23.4873 32.5893 23.2232C31.7956 22.418 31.002 21.6063 30.2084 20.7946C29.9438 20.524 29.9501 20.5047 30.2084 20.2406C30.4477 19.9958 30.6871 19.751 30.9327 19.5062C31.1343 19.3129 31.1721 19.3129 31.361 19.5062C31.7327 19.8927 32.1043 20.2728 32.4759 20.6593C32.7027 20.8977 32.7782 20.9105 32.9735 20.6335C33.5089 19.8992 34.1262 19.2356 34.6741 18.5141C34.7875 18.3595 34.9261 18.2243 35.0458 18.0761C35.1339 17.9666 35.241 17.9408 35.3418 18.0246C35.6756 18.2951 36.0095 18.5721 36.3307 18.8556C36.3748 18.8942 36.3874 18.9651 36.4126 19.0037L36.4189 19.0166Z" fill="white"/>
<path d="M31.1595 33.9942C31.2414 33.9942 31.2854 34.065 31.3421 34.123C31.7201 34.5159 32.1043 34.9089 32.4885 35.2954C32.7152 35.5273 32.753 35.5273 32.9546 35.2825C33.5908 34.5031 34.2206 33.7171 34.8631 32.9377C35.2158 32.5125 35.2158 32.5189 35.6126 32.8797C35.8079 33.0601 36.0157 33.2276 36.2236 33.4015C36.463 33.6012 36.4693 33.7043 36.274 33.9426C35.304 35.1279 34.334 36.3068 33.364 37.4921C33.2506 37.6274 33.1436 37.7756 33.0302 37.9109C32.879 38.0912 32.816 38.0977 32.6649 37.9431C31.8271 37.0927 30.9894 36.2295 30.1517 35.3792C30.0257 35.2503 29.9816 35.1279 30.1265 34.9798C30.4225 34.677 30.7123 34.3742 31.002 34.0715C31.0461 34.0264 31.1028 33.9877 31.1658 33.9942H31.1595Z" fill="white"/>
</g>
<defs>
<clipPath id="clip0_1_1262">
<rect width="55" height="43" fill="white"/>
</clipPath>
</defs>
</svg>
