<svg width="56" height="54" viewBox="0 0 56 54" fill="none" xmlns="http://www.w3.org/2000/svg">
<path d="M1.05575 40.5716C1.05575 39.7996 1.12532 39.0207 1.04183 38.2628C0.777431 35.8417 1.81415 34.0663 3.63711 32.6417C5.968 30.8172 8.67461 29.8067 11.4856 29.0417C11.9796 28.9084 12.1257 28.7119 12.1048 28.2137C12.0492 26.8102 12.0422 25.4067 12.0422 24.0031C12.0422 23.6102 11.9031 23.4067 11.5552 23.2382C9.98965 22.4803 8.54241 21.554 7.45002 20.1505C6.71249 19.2031 6.32981 18.1365 6.31589 16.9224C6.29502 14.9505 6.28806 12.9716 6.17673 10.9996C6.07932 9.23823 6.76815 7.85578 7.97186 6.67683C9.78787 4.90841 12.0213 3.86279 14.3661 3.05578C19.1671 1.42069 24.1211 0.90139 29.1655 1.01367C33.5907 1.11192 37.9324 1.70841 42.1002 3.28735C44.2432 4.10139 46.254 5.13297 47.8126 6.89437C48.7798 7.98209 49.3016 9.23823 49.1972 10.733C49.0998 12.2277 49.0511 13.7295 48.9537 15.2312C48.9259 15.6663 49.0441 15.8909 49.4547 16.0733C50.888 16.726 52.2239 17.547 53.3441 18.6768C54.4713 19.8207 55.0975 21.147 54.9792 22.8172C54.8331 24.8242 54.7496 26.8382 54.6939 28.8523C54.6452 30.4523 53.9912 31.7365 52.8849 32.8312C51.2428 34.4523 49.2251 35.4488 47.1029 36.2417C46.2819 36.5505 45.44 36.8172 44.5911 37.0488C44.2015 37.154 44.0554 37.3154 44.0414 37.7224C43.9788 39.4768 43.8118 41.2312 43.8118 42.9926C43.8118 45.0137 42.9769 46.5645 41.4949 47.8277C39.2823 49.7154 36.6522 50.761 33.8969 51.533C28.9568 52.9224 23.9193 53.2172 18.8261 52.8663C15.0828 52.6137 11.416 51.961 7.90229 50.5856C6.2324 49.933 4.65992 49.1049 3.30314 47.8979C1.96723 46.7049 1.11837 45.2874 1.17403 43.4137C1.20186 42.4663 1.17403 41.5189 1.17403 40.5716C1.12532 40.5716 1.07662 40.5716 1.03487 40.5716H1.05575ZM27.7809 17.954C32.387 17.9119 36.9166 17.4137 41.2861 15.8558C43.1021 15.2102 44.8486 14.4031 46.2749 13.0558C48.1744 11.2523 48.1675 9.28034 46.2888 7.46279C45.1686 6.38209 43.8257 5.65928 42.4063 5.06279C38.6769 3.5049 34.7457 2.83121 30.745 2.61367C25.3526 2.32595 20.0229 2.71192 14.8602 4.4663C12.6823 5.21016 10.5811 6.13648 8.91813 7.81367C7.16475 9.58209 7.19954 11.3926 9.00859 13.1049C10.261 14.2909 11.7778 15.0207 13.3642 15.6102C18.0121 17.3575 22.8547 17.8838 27.774 17.954H27.7809ZM42.4968 37.5681C40.5347 37.9891 38.6352 38.2277 36.7218 38.361C32.6166 38.6417 28.5393 38.4382 24.4968 37.6593C21.5258 37.0909 18.6383 36.2417 16.0221 34.6628C14.4148 33.6944 13.0094 32.5154 12.3484 30.6628C12.237 30.361 12.084 30.4663 11.8961 30.5154C10.0314 30.9996 8.22931 31.6382 6.53159 32.5575C5.34875 33.1961 4.24245 33.94 3.38663 34.9996C2.21075 36.4663 2.23162 37.9049 3.44925 39.3295C3.67886 39.5961 3.94326 39.8347 4.21462 40.0663C5.33483 41.0137 6.63595 41.6593 7.99274 42.1926C11.5273 43.5751 15.215 44.2067 18.9792 44.4803C24.0097 44.8452 28.9916 44.5645 33.8899 43.2593C36.2625 42.6277 38.5656 41.7926 40.5486 40.2768C41.4322 39.6031 42.1907 38.8102 42.5038 37.5751L42.4968 37.5681ZM14.1644 24.347C14.2618 24.7189 14.4705 24.8733 14.6445 25.0558C15.5142 25.961 16.5648 26.6067 17.692 27.14C21.0666 28.733 24.6568 29.4488 28.3306 29.8488C31.3781 30.1786 34.4257 30.2137 37.4871 29.9821C40.9939 29.7154 44.4311 29.0979 47.7222 27.8207C49.5034 27.126 51.208 26.2768 52.5161 24.8172C53.8799 23.2944 53.8938 21.6382 52.5718 20.0803C51.6325 18.9786 50.4218 18.2628 49.1555 17.6172C48.8493 17.4628 48.8354 17.6663 48.7937 17.8558C48.5014 19.1681 47.7291 20.1716 46.762 21.0417C45.3147 22.354 43.6101 23.2312 41.8149 23.933C38.3777 25.2803 34.7944 25.94 31.1276 26.1996C27.1269 26.4803 23.147 26.326 19.1949 25.6172C17.525 25.3154 15.876 24.9014 14.1783 24.347H14.1644ZM34.5161 34.2347V33.0488C34.5161 31.5681 34.5161 31.5821 33.0341 31.6031C32.6723 31.6031 32.5679 31.7154 32.5679 32.0733C32.5888 33.1751 32.5679 34.2838 32.5679 35.3856C32.5679 36.9716 32.5679 36.9645 34.1474 36.8593C34.4257 36.8382 34.5161 36.754 34.5161 36.4733C34.5022 35.7224 34.5161 34.9716 34.5161 34.2277V34.2347ZM28.6506 22.0593V20.8172C28.6506 19.3716 28.6506 19.3856 27.1964 19.4067C26.8346 19.4067 26.7303 19.5119 26.7303 19.8768C26.7511 20.9996 26.7372 22.1224 26.7372 23.2523C26.7372 24.747 26.7372 24.74 28.2193 24.6909C28.5393 24.6838 28.6646 24.5996 28.6576 24.2558C28.6367 23.526 28.6576 22.7961 28.6576 22.0663L28.6506 22.0593ZM26.9947 33.8137V35.1189C26.9947 36.5856 26.9947 36.5786 28.4558 36.6137C28.7828 36.6207 28.9011 36.5435 28.8942 36.1996C28.8733 35.1119 28.8942 34.0312 28.8803 32.9435C28.8803 32.4382 29.1029 31.7645 28.7828 31.4698C28.4767 31.1891 27.8157 31.3154 27.3217 31.2172C27.0295 31.161 26.9947 31.2663 26.9947 31.5119C27.0016 32.2838 26.9947 33.0488 26.9947 33.8207V33.8137ZM17.9216 48.5435C17.9216 48.1856 17.9286 47.8347 17.9216 47.4768C17.9007 46.9856 18.1095 46.3961 17.8381 46.0312C17.5668 45.6733 16.9406 45.9189 16.4952 45.7716C16.0987 45.6452 16.036 45.8277 16.043 46.1786C16.0569 47.3014 16.043 48.4312 16.043 49.554C16.043 51.0488 16.043 51.0347 17.5181 51.1681C17.8381 51.1961 17.9286 51.0979 17.9216 50.7891C17.9077 50.0382 17.9216 49.2874 17.9216 48.5365V48.5435ZM15.1245 48.1575V46.9716C15.1245 45.4909 15.1245 45.4979 13.6982 45.2663C13.3294 45.2031 13.2251 45.3014 13.232 45.6803C13.2529 46.8242 13.239 47.9681 13.239 49.1189C13.239 50.0406 13.6866 50.5692 14.5818 50.7049C14.6375 50.7119 14.7001 50.7049 14.7558 50.7189C15.0341 50.7961 15.1385 50.7049 15.1315 50.4031C15.1106 49.6523 15.1315 48.9014 15.1315 48.1505L15.1245 48.1575ZM20.2525 21.4768C20.2525 21.0838 20.2525 20.6909 20.2525 20.2979C20.2525 18.8172 20.2525 18.8312 18.8261 18.5926C18.4782 18.5365 18.3808 18.6347 18.3878 18.9786C18.4017 20.1575 18.3878 21.3435 18.3878 22.5224C18.3878 23.8698 18.3878 23.8558 19.7446 24.0452C20.1203 24.0944 20.2734 24.0312 20.2525 23.6102C20.2247 22.9014 20.2455 22.1926 20.2455 21.4838L20.2525 21.4768ZM23.0217 21.954C23.0217 21.54 23.0356 21.126 23.0217 20.7119C23.0009 20.2417 23.2096 19.6803 22.9313 19.3365C22.6877 19.0277 22.1172 19.1961 21.6997 19.126C21.6441 19.1189 21.5814 19.1049 21.5258 19.0838C21.2266 18.9926 21.157 19.14 21.157 19.4137C21.157 20.9084 21.157 22.4102 21.157 23.9049C21.157 24.1224 21.1918 24.2979 21.4423 24.333C21.8876 24.3891 22.3329 24.4452 22.7782 24.4944C23.0704 24.5295 23.0217 24.3049 23.0217 24.1365C23.0217 23.4067 23.0217 22.6768 23.0217 21.954ZM25.8257 22.0523C25.8257 21.6593 25.8397 21.2663 25.8257 20.8733C25.8049 20.4031 26.0136 19.8347 25.7353 19.5049C25.4918 19.2102 24.9212 19.4488 24.5038 19.3786C24.462 19.3786 24.4272 19.3786 24.3855 19.3645C24.0028 19.2452 23.9263 19.4207 23.9332 19.7716C23.9541 20.9154 23.9332 22.0523 23.9332 23.1961C23.9332 24.6768 23.9332 24.6628 25.3944 24.6698C25.7214 24.6698 25.8397 24.5856 25.8327 24.2417C25.8118 23.5119 25.8327 22.7821 25.8327 22.0593L25.8257 22.0523ZM26.0832 33.6593V32.354C26.0832 31.4558 25.6425 30.9365 24.7612 30.7961C24.7612 30.7961 24.7194 30.7961 24.7055 30.7891C24.3646 30.7119 24.2115 30.8102 24.2185 31.2031C24.2394 32.326 24.2185 33.4558 24.2185 34.5786C24.2185 35.5096 24.6731 36.0546 25.5822 36.2137C25.5822 36.2137 25.624 36.2137 25.6379 36.2277C25.9719 36.3189 26.0901 36.1996 26.0832 35.8488C26.0623 35.1189 26.0832 34.3891 26.0832 33.6593ZM23.5923 48.74C23.5923 48.347 23.5923 47.954 23.5923 47.554C23.5923 46.0242 23.5923 46.0312 22.0963 46.0733C21.7554 46.0803 21.6719 46.1996 21.6719 46.5224C21.6858 47.6452 21.6719 48.7681 21.6719 49.8909C21.6719 51.4417 21.6719 51.4277 23.2096 51.3505C23.5297 51.3365 23.5992 51.2172 23.5923 50.9224C23.5784 50.1926 23.5923 49.4628 23.5923 48.733V48.74ZM31.6773 34.1856C31.6773 33.6523 31.6773 33.1189 31.6773 32.5856C31.6773 31.9681 31.3804 31.6382 30.7867 31.5961C30.571 31.5821 30.3553 31.554 30.1466 31.5189C29.8822 31.4768 29.8056 31.5891 29.8056 31.8417C29.8126 33.3645 29.8126 34.8803 29.8056 36.4031C29.8056 36.6698 29.917 36.733 30.1535 36.74C30.5084 36.747 30.8563 36.7821 31.2042 36.8242C31.5521 36.8663 31.6982 36.761 31.6843 36.3821C31.6564 35.6523 31.6773 34.9224 31.6843 34.1926L31.6773 34.1856ZM24.4411 48.6628C24.4411 49.0768 24.4411 49.4909 24.4411 49.9049C24.4411 51.3786 24.4411 51.3716 25.9023 51.2172C26.2293 51.1821 26.3267 51.0768 26.3198 50.754C26.3058 49.5681 26.3198 48.3821 26.3198 47.2031C26.3198 46.4312 25.951 46.0546 25.2135 46.0733C25.0952 46.0733 24.9769 46.0874 24.8586 46.0733C24.5107 46.0312 24.4272 46.2067 24.4342 46.5224C24.4481 47.2312 24.4342 47.94 24.4342 48.6558L24.4411 48.6628ZM10.421 47.0979C10.421 47.4909 10.421 47.8838 10.421 48.2768C10.421 49.8347 10.421 49.8277 11.9518 50.1435C12.244 50.2066 12.3205 50.1645 12.3136 49.8628C12.2997 48.74 12.3136 47.6172 12.3136 46.4944C12.3136 44.9505 12.3136 44.9645 10.7828 44.6277C10.4628 44.5575 10.421 44.6277 10.421 44.9154C10.4349 45.6453 10.421 46.3751 10.421 47.1049V47.0979ZM40.0685 33.8207C40.0685 33.4277 40.0824 33.0347 40.0685 32.6417C40.0476 32.1716 40.2772 31.526 39.978 31.2874C39.7136 31.0768 39.1014 31.3505 38.6352 31.3575C38.2664 31.3575 38.1829 31.5189 38.1899 31.8558C38.2108 32.9786 38.1899 34.1014 38.1899 35.2242C38.1899 36.761 38.2316 36.7891 39.7206 36.4312C39.978 36.3681 40.0755 36.2768 40.0685 36.0102C40.0546 35.2803 40.0685 34.5505 40.0685 33.8277V33.8207ZM23.2513 33.154C23.2513 32.761 23.2513 32.3681 23.2513 31.9681C23.2513 30.5154 23.2513 30.5365 21.8458 30.1575C21.3866 30.0312 21.3658 30.1996 21.3727 30.5646C21.3866 31.6453 21.3727 32.733 21.3727 33.8137C21.3727 35.2803 21.3727 35.2663 22.7712 35.6312C23.1887 35.7365 23.2653 35.6102 23.2513 35.2172C23.2235 34.5295 23.2444 33.8347 23.2444 33.147L23.2513 33.154ZM29.1168 48.347C29.1168 47.7926 29.1168 47.2452 29.1168 46.6909C29.1168 46.078 28.8269 45.795 28.2471 45.8417C28.0523 45.8558 27.8574 45.8838 27.6626 45.8838C27.3147 45.8838 27.2173 46.0593 27.2243 46.4031C27.2452 47.4838 27.2312 48.5716 27.2312 49.6523C27.2312 51.2031 27.2312 51.1891 28.7411 50.9716C29.0542 50.9295 29.1307 50.8102 29.1238 50.5224C29.1099 49.7926 29.1238 49.0628 29.1238 48.333L29.1168 48.347ZM29.576 22.0452V23.3505C29.576 24.7681 29.576 24.761 31.0024 24.6347C31.3503 24.6067 31.4686 24.4874 31.4686 24.1295C31.4477 23.0277 31.4616 21.9189 31.4686 20.8172C31.4686 19.3575 31.4686 19.3786 30.0213 19.4838C29.6526 19.5119 29.5691 19.6382 29.576 19.9821C29.5969 20.6698 29.576 21.3645 29.576 22.0523V22.0452ZM40.9869 33.7014C40.9869 34.0733 40.9869 34.4523 40.9869 34.8242C40.9869 36.3891 40.9869 36.3751 42.4898 35.9681C42.789 35.8839 42.8864 35.7645 42.8795 35.4488C42.8586 34.0874 42.8447 32.733 42.8795 31.3716C42.8934 30.8382 42.7473 30.7189 42.2672 30.8803C41.9958 30.9716 41.6966 30.9996 41.4044 31.0207C41.0913 31.0488 40.9661 31.1821 40.98 31.5119C41.0009 32.2417 40.98 32.9716 40.98 33.7014H40.9869ZM37.007 18.5996C36.4713 18.6909 35.9912 18.761 35.5181 18.8452C35.3024 18.8874 35.1215 18.9365 35.1284 19.2452C35.1423 20.74 35.1354 22.2417 35.1284 23.7365C35.1284 23.9119 35.1562 24.0663 35.3789 24.0242C35.859 23.926 36.3321 23.8207 36.8053 23.7154C36.9792 23.6803 37.0001 23.554 37.0001 23.4067C37.0001 21.8137 37.0001 20.2207 37.0001 18.5996H37.007ZM30.0631 48.1435V49.3295C30.0631 50.8663 30.0631 50.8593 31.5521 50.4663C31.8373 50.3891 31.9626 50.2698 31.9556 49.947C31.9348 48.5224 31.9348 47.1049 31.9556 45.6803C31.9556 45.3084 31.8443 45.2523 31.5173 45.3435C31.1972 45.4277 30.8632 45.4628 30.5362 45.5049C30.1953 45.547 30.0353 45.6803 30.0561 46.0733C30.0909 46.761 30.0631 47.4558 30.0631 48.1435ZM14.6375 20.2207V19.0979C14.6375 17.6172 14.6305 17.6382 13.2529 17.133C12.7797 16.9575 12.745 17.133 12.7519 17.533C12.7728 18.5786 12.7519 19.6242 12.7519 20.6698C12.7519 21.671 13.2297 22.3213 14.1852 22.6207C14.22 22.6347 14.2618 22.6417 14.2966 22.6558C14.561 22.7891 14.6375 22.6768 14.6375 22.4102C14.6305 21.6803 14.6375 20.9505 14.6375 20.2207ZM9.48868 49.4067V45.7224C9.48868 44.7587 9.0341 44.1248 8.12494 43.8207C8.09015 43.8067 8.0484 43.7996 8.01361 43.7786C7.68659 43.6172 7.61006 43.7716 7.61006 44.0803C7.61701 45.5189 7.61006 46.9575 7.61006 48.3891C7.61006 48.6137 7.67268 48.754 7.88837 48.8452C8.38934 49.0488 8.8903 49.2593 9.48172 49.4067H9.48868ZM43.8049 33.0558C43.8049 33.4137 43.8049 33.7645 43.8049 34.1224C43.8049 35.2265 44.3198 35.5798 45.3495 35.1821C45.3495 35.1821 45.3843 35.1751 45.4052 35.1681C45.6 35.1189 45.6905 35.0067 45.6905 34.7891C45.6835 33.3084 45.6905 31.8277 45.6905 30.347C45.6905 30.1575 45.6487 30.0452 45.4191 30.1084C44.9668 30.2347 44.5146 30.361 44.0623 30.4733C43.8118 30.5365 43.7979 30.7119 43.8049 30.9224C43.8049 31.6312 43.8049 32.347 43.8049 33.0558ZM34.7318 44.5365C34.1821 44.6768 33.7368 44.8031 33.2776 44.9084C32.9715 44.9786 32.8323 45.1189 32.8462 45.4698C32.8741 46.5365 32.8532 47.6031 32.8532 48.6698C32.8532 50.2698 32.8532 50.2558 34.3839 49.6803C34.6274 49.5891 34.7318 49.4838 34.7318 49.2242C34.7249 47.6874 34.7318 46.1505 34.7318 44.5435V44.5365ZM37.9672 20.9295C37.9672 21.6382 37.9672 22.354 37.9672 23.0628C37.9672 23.3645 38.0298 23.5189 38.3708 23.3996C38.7395 23.2733 39.1222 23.1821 39.491 23.0628C39.6858 23.0067 39.8319 22.9295 39.8319 22.6628C39.818 21.2031 39.825 19.7435 39.8319 18.2768C39.8319 18.0031 39.7276 17.926 39.4771 17.9961C39.1222 18.1014 38.7674 18.2347 38.4056 18.2909C38.0577 18.347 37.9533 18.5084 37.9672 18.8452C37.9881 19.533 37.9672 20.2277 37.9672 20.9154V20.9295ZM48.4806 29.0137C47.8961 29.2312 47.3743 29.4277 46.8455 29.6102C46.595 29.6944 46.6089 29.8909 46.6089 30.0874C46.6089 30.74 46.6089 31.3856 46.6089 32.0382C46.6089 32.9154 46.6089 33.7856 46.6089 34.747C47.2073 34.4944 47.7082 34.2838 48.2092 34.0733C48.3832 33.9961 48.4875 33.8909 48.4806 33.6733C48.4736 32.1435 48.4806 30.6067 48.4806 29.0137ZM40.7434 22.5505C41.3835 22.4312 41.9123 22.1224 42.469 21.8909C42.6012 21.8347 42.629 21.7295 42.629 21.6031C42.629 20.1224 42.629 18.6417 42.629 17.154C42.629 16.9365 42.5594 16.8733 42.3437 16.9645C41.8915 17.147 41.4322 17.3295 40.973 17.4838C40.7852 17.547 40.7434 17.6663 40.7434 17.8347C40.7434 19.3926 40.7434 20.9575 40.7434 22.5435V22.5505ZM17.692 33.7365C17.692 32.0803 17.692 30.4874 17.692 28.9014C17.692 28.7681 17.6503 28.6838 17.525 28.6277C16.9684 28.3681 16.4187 28.0944 15.8134 27.7996C15.8134 29.3575 15.8134 30.8382 15.8134 32.3189C15.8134 32.4523 15.7925 32.5996 15.9317 32.6909C16.4813 33.0488 17.0101 33.4558 17.692 33.7435V33.7365ZM9.9479 15.6523C9.9479 17.2102 9.9479 18.6909 9.9479 20.1716C9.9479 20.3681 9.9966 20.5084 10.1706 20.6137C10.6089 20.8803 11.0333 21.154 11.4647 21.4277C11.7222 21.5961 11.8404 21.561 11.8335 21.2172C11.8265 19.7786 11.8335 18.333 11.8335 16.8874C11.8335 16.7049 11.8265 16.5435 11.6247 16.4452C11.0959 16.1996 10.5741 15.94 9.95486 15.6382L9.9479 15.6523ZM20.67 48.74C20.67 48.3049 20.6839 47.8698 20.67 47.4347C20.6561 47.0066 20.8439 46.4803 20.5795 46.1716C20.3499 45.8979 19.835 46.1154 19.4523 46.0523C19.3967 46.0452 19.3341 46.0523 19.2784 46.0312C18.8888 45.9119 18.8122 46.1084 18.8122 46.4523C18.8261 47.6172 18.8122 48.7821 18.8122 49.947C18.8122 51.3716 18.8122 51.3645 20.2664 51.3365C20.5726 51.3365 20.6769 51.2382 20.67 50.9295C20.6561 50.1996 20.67 49.4698 20.67 48.74ZM17.3859 20.9926C17.3859 20.5996 17.3859 20.2067 17.3859 19.8067C17.3859 18.3681 17.3859 18.3821 16.0082 18.0312C15.6186 17.933 15.5281 18.0312 15.5351 18.4031C15.549 19.5049 15.5351 20.6137 15.5351 21.7154C15.5351 23.1821 15.5351 23.1751 16.9753 23.5049C17.3163 23.5821 17.3928 23.4909 17.3859 23.1821C17.3789 22.4523 17.3859 21.7224 17.3859 20.9926ZM37.2714 34.1295V32.7119C37.2714 31.9353 36.9003 31.5634 36.1582 31.5961C36.0608 31.5961 35.9634 31.6172 35.8659 31.5961C35.4833 31.54 35.4137 31.7365 35.4206 32.0733C35.4346 33.1751 35.4206 34.2838 35.4206 35.3856C35.4206 36.8452 35.4206 36.8312 36.8679 36.726C37.2227 36.6979 37.2784 36.5505 37.2714 36.2488C37.2575 35.54 37.2714 34.8312 37.2714 34.1154V34.1295ZM34.203 21.6523C34.203 20.9996 34.1752 20.354 34.21 19.7014C34.2448 19.154 34.1056 18.9365 33.542 19.133C33.3472 19.1961 33.1176 19.1821 32.9019 19.1891C32.5053 19.1961 32.3314 19.3505 32.3453 19.7996C32.3801 20.9014 32.3592 22.0031 32.3592 23.1049C32.3592 24.5295 32.3592 24.5084 33.7786 24.3049C34.1474 24.2488 34.2239 24.1084 34.21 23.7856C34.1891 23.0768 34.21 22.3681 34.21 21.6593L34.203 21.6523ZM20.4543 34.9014V31.2663C20.4543 29.7084 20.4543 29.7224 19.007 29.2803C18.6661 29.1751 18.6035 29.2803 18.6035 29.5961C18.6104 31.0207 18.6035 32.4382 18.6035 33.8628C18.6035 34.1014 18.6383 34.2768 18.8957 34.3751C19.3828 34.5645 19.8629 34.7821 20.4543 34.9014ZM43.5474 21.3154C44.1876 21.0277 44.6746 20.6698 45.1686 20.326C45.3426 20.2067 45.4191 20.0523 45.4191 19.8277C45.4121 18.5295 45.4191 17.2312 45.4191 15.926C45.4191 15.6452 45.3843 15.4979 45.0642 15.6874C44.6607 15.926 44.2432 16.1365 43.8188 16.347C43.617 16.4452 43.5405 16.5786 43.5405 16.8031C43.5474 18.2768 43.5405 19.7575 43.5405 21.3154H43.5474ZM38.4821 45.4838C38.4821 45.7786 38.4612 46.0733 38.4821 46.3681C38.5239 46.8593 38.2455 47.6312 38.6143 47.7786C38.99 47.933 39.498 47.3435 39.9363 47.0558C40.145 46.9154 40.3468 46.7821 40.3399 46.4593C40.3259 45.14 40.3329 43.8207 40.3399 42.5014C40.3399 42.2207 40.2564 42.1505 39.9989 42.2909C39.6232 42.5014 39.2544 42.7189 38.8648 42.8944C38.5795 43.0277 38.4612 43.2031 38.4751 43.533C38.496 44.1786 38.4821 44.8312 38.4751 45.4838H38.4821ZM37.4871 46.0242C37.4871 45.3365 37.4732 44.6488 37.4871 43.954C37.4941 43.5961 37.3758 43.554 37.0766 43.6944C36.7426 43.8488 36.3878 43.9821 36.0399 44.0803C35.7198 44.1716 35.6294 44.354 35.6294 44.6768C35.6433 46.0172 35.6433 47.3575 35.6294 48.6909C35.6294 49.1119 35.7059 49.3014 36.1512 49.0698C36.4435 48.9224 36.7566 48.7891 37.0697 48.6838C37.4106 48.5716 37.501 48.361 37.4871 48.0242C37.4663 47.3575 37.4871 46.6838 37.4802 46.0172L37.4871 46.0242ZM6.70553 45.7084C6.70553 45.4137 6.65683 45.1049 6.71249 44.8242C6.9421 43.6382 6.4968 42.9295 5.34875 42.5365C4.85474 42.3681 4.84082 42.4874 4.84778 42.8874C4.8617 43.8347 4.84778 44.7821 4.84778 45.7295C4.84778 46.7353 5.28381 47.4909 6.15586 47.9961C6.20457 48.0242 6.26023 48.0523 6.30893 48.0874C6.62204 48.2979 6.70553 48.1645 6.70553 47.8417C6.69858 47.133 6.70553 46.4242 6.70553 45.7084ZM49.392 33.4067C51.0828 32.6979 51.2359 32.4733 51.2359 30.8382V27.6523C50.6375 27.9681 50.1365 28.2347 49.6356 28.4874C49.4755 28.5645 49.392 28.6698 49.392 28.8453C49.392 30.34 49.392 31.8417 49.392 33.3996V33.4067ZM13.5521 26.1996C13.7469 28.1365 13.1346 30.1645 14.888 31.7786C14.888 30.6698 14.8045 29.6663 14.9089 28.6838C15.0202 27.6031 14.6932 26.8312 13.7678 26.2979C13.733 26.2768 13.6982 26.2698 13.5521 26.1996ZM3.96413 46.354C3.96413 44.7751 3.96413 43.3575 3.96413 41.94C3.96413 41.8137 3.92239 41.7154 3.81802 41.6312C3.45621 41.3435 3.0944 41.0558 2.73259 40.7681C2.73259 41.7645 2.74651 42.7049 2.73259 43.6453C2.71172 44.6838 3.17094 45.4979 3.96413 46.354ZM7.82575 14.1084C7.82575 15.2944 7.76313 16.4382 7.84662 17.5681C7.90229 18.333 8.34759 18.9786 9.02946 19.5751C9.02946 18.0663 9.02946 16.6698 9.02946 15.2733C9.02946 15.0909 8.92509 14.9856 8.79985 14.8874C8.47979 14.6347 8.15973 14.3751 7.82575 14.1084ZM47.4786 14.0593C47.4299 14.0452 47.3882 14.0242 47.3395 14.0102C47.2212 14.1154 47.1238 14.2417 46.9916 14.3119C46.4002 14.6417 46.268 15.14 46.3097 15.7926C46.3654 16.754 46.3236 17.7224 46.3306 18.6838C46.3306 18.7961 46.2471 18.9645 46.4628 19.0347C47.7709 17.561 47.2699 15.7435 47.4856 14.0663L47.4786 14.0593ZM53.365 26.0944C52.4048 26.5856 52.0291 27.2172 52.1334 28.2207C52.2309 29.2172 52.1543 30.2347 52.1543 31.3505C53.692 29.7786 53.031 27.8768 53.365 26.1014V26.0944ZM42.2602 40.7049C41.9263 41.0909 41.2583 41.1961 41.2305 41.7154C41.1678 43.0417 41.2096 44.3681 41.2096 45.8207C42.6777 44.2628 42.1419 42.4242 42.2602 40.7049Z" fill="white" stroke="white" stroke-width="0.75"/>
<path d="M37.9185 5.0625C37.8142 5.80636 37.4036 6.25548 36.9792 6.68355C35.3024 8.36075 33.2707 9.48355 31.1207 10.4099C30.5919 10.6344 30.0561 10.852 29.4578 10.9502C29.5552 10.6485 29.7987 10.5993 30.0005 10.4871C31.4616 9.61689 32.9993 8.86601 34.1961 7.59583C34.37 7.41338 34.6135 7.23092 34.6762 7.00636C34.8988 6.19934 35.5529 5.9818 36.2139 5.7432C36.7635 5.54671 37.2993 5.31513 37.9324 5.0625H37.9185Z" fill="white"/>
<path d="M28.8662 14.1014C29.2071 14.1014 29.4855 14.0593 29.7429 14.1014C31.5172 14.4383 33.187 13.8979 34.8778 13.519C35.1283 13.4628 35.5458 13.4277 35.1492 12.9856C35.0309 12.8523 35.1352 12.733 35.2535 12.6418C35.5388 12.4242 35.8171 12.2207 36.2137 12.3541C36.4294 12.4242 36.3946 12.5786 36.3946 12.726C36.3877 13.0839 36.2763 13.4207 35.9354 13.5541C33.8828 14.3891 31.8372 15.2453 29.555 14.5155C29.3254 14.4453 29.0541 14.4242 28.8732 14.0874L28.8662 14.1014Z" fill="white"/>
<path d="M36.0955 15.1473C35.6641 15.1333 35.2884 15.1894 34.9265 15.0702C34.8152 15.0351 34.6969 14.9789 34.6691 14.8456C34.6413 14.6982 34.7665 14.6421 34.8639 14.5859C35.1909 14.3965 35.504 14.2702 35.9076 14.4175C36.5825 14.6561 37.2922 14.5859 37.988 14.4737C38.3081 14.4245 38.3916 14.3052 38.322 13.9614C38.1759 13.2386 38.5168 12.8877 39.2683 12.8877C39.5048 12.8877 39.5674 13.021 39.6092 13.2035C39.7414 13.7579 39.4283 14.1087 39.0317 14.3894C38.1272 15.0351 37.0765 15.1123 36.0816 15.1403L36.0955 15.1473Z" fill="white"/>
<path d="M20.5308 40.0243C20.0089 40.0734 19.5636 39.9681 19.1253 39.6032C18.8122 39.3436 18.346 39.2594 17.9355 39.119C16.6205 38.6769 15.3054 38.2348 13.9834 37.8067C13.5312 37.6594 13.1137 37.4418 12.7241 37.1822C12.1953 36.8383 11.7013 36.4804 11.0124 36.698C10.7411 36.7892 10.4836 36.6418 10.421 36.3471C10.3375 35.919 10.0453 35.912 9.71827 35.905C8.40323 35.8699 7.10211 35.7576 5.85665 35.2874C5.58529 35.1822 5.32089 35.0418 5.07737 34.8944C4.93125 34.8032 4.76427 34.6558 4.89646 34.4594C5.01475 34.2839 5.20957 34.4032 5.32089 34.4734C6.20454 35.0558 7.20648 35.1962 8.21537 35.3366C9.02248 35.4488 9.82263 35.5611 10.6506 35.3506C11.4369 35.1541 12.244 35.2804 13.0233 35.526C13.1763 35.5751 13.3503 35.6102 13.3711 35.7927C13.399 35.9822 13.2389 36.0594 13.0859 36.1015C12.5014 36.2769 12.7589 36.4944 13.058 36.705C14.053 37.4067 15.2219 37.6874 16.3422 38.0944C17.358 38.4594 18.3669 38.8383 19.5219 38.5927C20.3499 38.4173 21.2196 38.698 22.0893 38.5295C22.4233 38.4664 22.98 38.5646 23.0565 39.0067C23.133 39.4418 22.646 39.5822 22.305 39.7015C21.7345 39.898 21.157 40.1155 20.5308 40.0102V40.0243ZM20.8856 39.505C21.0039 39.5611 21.0944 39.6173 21.1987 39.6453C21.3866 39.7085 21.5466 39.6453 21.644 39.4769C21.6788 39.4208 21.6997 39.3015 21.6649 39.2664C21.5258 39.133 21.3796 39.2734 21.2405 39.3015C21.1292 39.3225 21.0039 39.3155 20.8856 39.498V39.505Z" fill="white"/>
<path d="M20.5099 40.5156C21.1083 40.7332 21.6927 40.9858 22.2981 41.1753C23.6966 41.6174 25.1508 41.5893 26.5911 41.6174C26.7163 41.6174 26.925 41.6174 26.8415 41.4069C26.6467 40.8946 27.0851 40.9788 27.3077 40.8805C27.6 40.7472 27.9826 40.7612 28.087 41.0349C28.1844 41.3016 27.9757 41.6384 27.6904 41.8069C27.3982 41.9753 27.0712 42.0384 26.7302 42.0454C25.6587 42.0454 24.5802 42.0946 23.5087 42.0384C22.3259 41.9753 21.324 41.4279 20.4333 40.684L20.5029 40.5226L20.5099 40.5156Z" fill="white"/>
<path d="M29.2489 43.7298C27.9896 43.7017 27.0642 43.4841 26.1805 43.0771C26.0344 43.007 25.8048 42.9298 25.8605 42.7122C25.9022 42.5438 26.104 42.5578 26.2571 42.5298C26.5562 42.4736 26.8137 42.5087 27.085 42.6982C27.6556 43.1052 28.3444 43.2175 29.0124 43.3578C29.409 43.442 29.6038 43.3017 29.5899 42.8666C29.5829 42.628 29.5064 42.2912 29.8195 42.1999C30.1535 42.1087 30.5361 42.0877 30.8562 42.235C31.1484 42.3684 31.0023 43.0491 30.6405 43.2947C30.1326 43.6385 29.569 43.7508 29.2489 43.7298Z" fill="white"/>
<path d="M34.7944 26.1997C35.4485 26.2418 36.0956 26.2839 36.7496 26.319C38.1968 26.3821 39.5536 25.912 40.9382 25.5892C41.147 25.54 41.2792 25.4418 41.0704 25.2383C40.8756 25.0488 40.9382 24.9155 41.1261 24.7611C41.4392 24.4944 41.7871 24.3821 42.1559 24.5435C42.3785 24.6418 42.2463 24.8944 42.2185 25.0769C42.1698 25.3646 42.0376 25.6102 41.7593 25.7225C39.978 26.4313 38.2107 27.1962 36.2208 26.8734C35.7129 26.7892 35.191 26.6909 34.7944 26.2067V26.1997Z" fill="white"/>
<path d="M41.8427 27.3575C41.5504 27.3434 41.2582 27.3434 40.966 27.3013C40.8059 27.2803 40.5833 27.2592 40.5346 27.0487C40.4859 26.8101 40.7224 26.775 40.8616 26.6908C41.126 26.5364 41.3834 26.4873 41.6965 26.5926C42.3367 26.8101 42.9977 26.775 43.6656 26.6978C44.1457 26.6417 44.2779 26.4662 44.1527 26.0241C44.0344 25.6031 44.104 25.2873 44.6049 25.2101C44.8763 25.168 45.2172 24.9224 45.3912 25.2452C45.5582 25.554 45.5094 25.9399 45.245 26.2417C44.7232 26.8382 44.0205 27.0697 43.2829 27.2031C42.8028 27.2873 42.3158 27.3785 41.8218 27.3575H41.8427Z" fill="white"/>
<path d="M30.9745 12.0311C30.884 11.7504 30.6127 11.7645 30.3831 11.7364C30.23 11.7153 30.0421 11.6873 29.9169 11.7504C29.068 12.1925 28.073 12.1434 27.2311 12.5364C26.5284 12.8662 25.8326 12.9855 25.4499 12.9294C24.1975 12.8592 23.3139 12.8311 22.4372 12.7469C21.8388 12.6908 21.2265 12.6627 20.656 12.4241C20.3429 12.2908 20.1967 12.1645 20.5725 11.9188C20.7186 11.8276 20.9204 11.7294 20.8299 11.5118C20.7534 11.3224 20.5377 11.3504 20.3637 11.3434C19.4801 11.3364 18.666 11.589 17.8867 11.975C17.5458 12.1434 17.2118 12.2697 16.8431 12.3399C15.4724 12.5855 14.1086 12.8171 12.7101 12.5504C12.5431 12.5224 12.3065 12.4732 12.2578 12.6978C12.2161 12.9013 12.4318 12.9925 12.5988 13.0417C12.9536 13.1539 13.3224 13.2171 13.6911 13.2171C14.9505 13.2241 16.1681 12.9574 17.3858 12.6557C17.5597 12.6136 17.8102 12.382 17.9702 12.7609C18.172 13.2452 18.5338 13.2101 18.9443 13.0136C19.1809 12.9013 19.3896 12.6908 19.7027 12.8101C21.7483 13.596 23.8914 13.4557 26.0205 13.5188C26.4658 13.5329 26.9389 13.5188 27.3633 13.6311C28.6993 14.0031 29.7568 13.4767 30.731 12.6417C30.9119 12.4873 31.0441 12.2627 30.9606 12.0101L30.9745 12.0311ZM19.1391 12.3609C18.8747 12.4732 18.6243 12.4802 18.5825 12.375C18.5408 12.2697 18.7217 12.0943 18.9861 11.982C19.2505 11.8697 19.501 11.8627 19.5427 11.968C19.5844 12.0732 19.4035 12.2487 19.1391 12.3609ZM29.4298 13.0276C29.1654 13.1048 28.9149 13.1048 28.8732 13.0346C28.8315 12.9645 29.0124 12.8452 29.2768 12.768C29.5412 12.6908 29.7916 12.6908 29.8334 12.7609C29.8751 12.8311 29.6942 12.9504 29.4298 13.0276ZM28.8245 12.8381C28.5601 12.9153 28.3096 12.9153 28.2679 12.8452C28.2261 12.775 28.407 12.6557 28.6714 12.5785C28.9358 12.5013 29.1863 12.5013 29.2281 12.5715C29.2698 12.6416 29.0889 12.7609 28.8245 12.8381Z" fill="white"/>
</svg>
