<svg width="52" height="41" viewBox="0 0 52 41" fill="none" xmlns="http://www.w3.org/2000/svg">
<g clip-path="url(#clip0_1_32625)">
<path d="M26.3174 30.2728C25.1222 30.0937 23.9212 30.0879 22.726 30.0301C21.445 29.9665 20.1469 30.0474 18.8831 29.7295C17.522 29.3886 16.2982 28.7991 15.3832 27.6836C14.8571 27.0363 14.5254 26.3081 14.5426 25.447C14.5597 24.58 15.0401 23.9963 15.875 23.7998C17.2189 23.4819 18.5857 23.3721 19.9582 23.3028C23.378 23.1236 26.7977 22.9271 30.1832 22.3376C32.0189 22.0197 33.8489 21.6788 35.6846 21.3667C36.8397 21.1702 38.0064 21.0372 39.1844 21.0488C40.3453 21.0546 41.3747 21.4765 42.3697 22.014C44.274 23.0369 45.9954 24.3373 47.6481 25.7244C49.0892 26.9381 50.536 28.1518 51.8799 29.481C52.0343 29.6371 52.04 29.718 51.9314 29.8914C50.9763 31.4114 50.0327 32.9314 49.0834 34.4514C47.8139 36.4857 46.5444 38.5086 45.2862 40.5487C45.1433 40.7799 45.0575 40.8146 44.8116 40.6701C42.8158 39.5084 40.7685 38.4508 38.5725 37.7168C37.6346 37.4047 36.6796 37.0984 35.6846 37.2371C34.9125 37.3469 34.152 37.5665 33.3914 37.7572C30.1718 38.5721 26.9064 39.1616 23.641 39.7685C22.6345 39.9534 21.628 40.1673 20.6044 40.2771C19.3291 40.4158 18.071 40.2597 16.8186 40.0632C11.5517 39.2194 6.59362 37.4509 1.85855 35.0062C1.48683 34.8155 1.12656 34.5959 0.771999 34.3705C0.0628822 33.9139 -0.165865 33.1741 0.131506 32.3708C0.314504 31.8737 0.657625 31.5096 1.06937 31.2033C1.97292 30.5387 3.00229 30.3248 4.10027 30.3537C5.71866 30.3942 7.26842 30.7987 8.81819 31.2206C9.84183 31.4981 10.854 31.8275 11.8834 32.0876C13.5761 32.5152 15.2631 32.9892 17.0359 32.8967C19.0032 32.7927 20.9075 32.3592 22.7718 31.7408C23.9841 31.3362 25.1679 30.8681 26.3174 30.2786V30.2728Z" fill="white"/>
<path d="M16.0295 22.0313C15.755 22.0949 15.492 22.1527 15.2289 22.222C13.8793 22.5746 13.0215 23.8576 12.8957 25.054C12.8442 25.5221 12.8785 25.9787 12.9586 26.441C13.0558 27.0074 12.9872 27.5854 12.9986 28.1517C13.0101 28.5563 13.0101 28.9551 12.9986 29.3597C12.9872 29.8914 12.6841 30.1457 12.1694 30.1861C11.2716 30.2555 10.4652 29.9029 9.63031 29.6833C8.59523 29.4117 7.57159 29.1169 6.51935 28.9378C6.26773 28.8973 6.21054 28.7933 6.21626 28.5505C6.23342 27.7876 6.21626 27.0248 6.2277 26.2619C6.2277 26.0654 6.19338 25.9671 5.98179 25.9209C4.7294 25.6261 3.98025 24.6552 3.98025 23.3548C3.98025 20.4593 3.98025 17.5696 3.98025 14.674C3.98025 13.1714 5.07252 12.0791 6.5651 12.0675C6.7195 12.0675 6.99972 12.1831 7.01688 11.9577C7.03403 11.7554 6.73666 11.8248 6.58797 11.8017C5.86742 11.6803 5.14115 11.5763 4.41487 11.478C4.18041 11.4433 3.99169 11.3451 3.86588 11.1486C3.55135 10.6689 3.28257 10.1718 3.15104 9.60546C2.95089 8.74432 3.29401 8.29352 4.17469 8.22995C5.03249 8.17215 5.8617 8.35709 6.68519 8.57671C6.91966 8.64029 7.14841 8.71542 7.37143 8.79055C7.52584 8.84257 7.59446 8.81367 7.62306 8.64029C7.84608 7.30523 8.08055 5.97596 8.3093 4.6409C8.42367 3.9936 8.52089 3.3463 8.6467 2.70478C8.88689 1.42752 9.76756 0.693527 11.1629 0.543261C14.0795 0.23117 17.0017 0.0288893 19.9411 -7.97049e-06C22.1714 -0.0173464 24.4017 0.0346688 26.6262 0.202273C27.9816 0.300524 29.3369 0.387216 30.6808 0.583718C31.9046 0.762881 32.7052 1.58356 32.9168 2.82037C33.2428 4.74493 33.5859 6.66949 33.9118 8.59983C33.9462 8.81367 34.0033 8.83101 34.1921 8.76744C35.1471 8.45534 36.1135 8.19527 37.1315 8.20683C37.3431 8.20683 37.5489 8.22417 37.7548 8.28196C38.2924 8.43801 38.5383 8.83101 38.441 9.39162C38.3267 10.0389 38.035 10.6111 37.6805 11.1486C37.5547 11.3393 37.3659 11.4433 37.1315 11.478C36.3137 11.5936 35.4959 11.7207 34.6839 11.8479C34.6152 11.8594 34.4952 11.8132 34.5066 11.9577C34.518 12.0848 34.621 12.0617 34.701 12.0617C35.0384 12.0617 35.3701 12.0617 35.6961 12.1484C36.7883 12.449 37.5547 13.4257 37.5661 14.57C37.5775 16.1073 37.5661 17.6447 37.5718 19.182C37.5718 19.3727 37.5203 19.4363 37.3316 19.4594C36.2794 19.5635 35.2386 19.7195 34.1978 19.9218C34.0262 19.9565 34.0205 19.8524 33.9919 19.7311C33.7231 18.5347 32.7109 17.6909 31.5272 17.6678C30.3548 17.6447 29.314 18.4423 28.9938 19.6097C28.908 19.9391 28.8451 20.2743 28.9366 20.6153C28.9881 20.8061 28.8966 20.8581 28.7422 20.8754C27.8386 20.9852 26.9351 21.095 26.0315 21.2106C25.8428 21.2337 25.8085 21.1644 25.8085 20.9852C25.8199 20.3726 25.8142 19.7542 25.8085 19.1416C25.8085 18.6272 25.5854 18.4076 25.0822 18.4076C22.2114 18.4076 19.3349 18.4076 16.4641 18.4076C15.9495 18.4076 15.7379 18.6156 15.7379 19.1358C15.7379 19.8467 15.7379 20.5575 15.7379 21.2684C15.7379 21.6961 15.7493 21.7192 16.041 22.0429L16.0295 22.0313ZM29.7601 12.7437C29.4227 10.4666 29.091 8.21839 28.7536 5.97018C28.6793 5.46158 28.3075 5.10904 27.81 5.05124C25.8313 4.82006 23.847 4.67558 21.8569 4.64668C19.1519 4.60622 16.4527 4.71603 13.7649 5.03968C13.2045 5.10904 12.8499 5.42691 12.7642 6.00485C12.4496 8.12591 12.1465 10.2528 11.8149 12.3738C11.7634 12.6917 11.7977 12.7553 12.1179 12.7495C17.8824 12.7379 23.6525 12.7379 29.417 12.7379C29.5199 12.7379 29.6228 12.7379 29.7601 12.7379V12.7437ZM10.0135 22.8693C11.4489 22.8809 12.6326 21.7076 12.6383 20.2686C12.6383 18.8584 11.4889 17.6736 10.0878 17.6505C8.67529 17.6273 7.48581 18.8006 7.48009 20.2223C7.46865 21.673 8.60095 22.852 10.0192 22.8635L10.0135 22.8693Z" fill="white"/>
</g>
<defs>
<clipPath id="clip0_1_32625">
<rect width="52" height="40.7568" fill="white"/>
</clipPath>
</defs>
</svg>
