<svg width="53" height="36" viewBox="0 0 53 36" fill="none" xmlns="http://www.w3.org/2000/svg">
<g clip-path="url(#clip0_1_1218)">
<path d="M0 25.9371C0 13.2786 9.98933 1.96268 23.4241 0.223736C34.7377 -1.2403 45.7426 4.55192 50.8723 14.6084C51.3223 15.497 51.213 15.8231 50.2938 16.1491C48.8474 16.667 47.4397 17.2871 46.0448 17.9201C45.4212 18.2014 45.0805 18.1694 44.6177 17.5748C39.1152 10.4592 31.8064 7.24345 22.8327 7.95948C12.8241 8.75863 3.9983 16.6159 1.88344 26.4166C1.46562 28.3473 1.25349 30.2973 1.25992 32.2728C1.25992 32.5477 1.51704 33.0399 1.00279 33.0591C0.604245 33.0719 0.649242 32.5668 0.584961 32.2728C0.192844 30.4507 0.0128563 28.6031 0 25.9243L0 25.9371Z" fill="white"/>
<path d="M4.91755 33.1167C4.29402 33.1167 3.65764 33.0463 3.04696 33.1295C1.98632 33.2765 1.85133 32.7714 1.90918 31.8764C2.62271 20.8162 9.95721 12.1215 20.9172 10.082C30.4051 8.31752 38.2089 11.5589 44.1742 19.1348C44.6242 19.7102 44.502 19.8508 43.9042 20.1897C42.8243 20.8034 42.0658 20.7587 41.4551 19.5951C41.0565 18.8343 40.5552 18.7959 40.0088 19.512C39.7645 19.8252 39.4367 20.0746 39.1474 20.3559C38.0803 21.3916 37.7268 21.3276 36.8718 20.0746C36.6083 19.691 36.8525 19.5567 37.0518 19.3649C37.5468 18.8791 38.016 18.3548 38.556 17.9265C39.2117 17.4022 39.0574 17.0634 38.466 16.6159C36.8847 15.414 35.2069 14.391 33.3813 13.5983C32.7771 13.3362 32.4621 13.3745 32.2821 14.065C32.0893 14.8002 31.8257 15.5226 31.5622 16.2387C31.4336 16.5839 31.4015 17.0314 30.7587 16.7757C30.1866 16.5519 30.4115 16.2387 30.5208 15.919C30.7844 15.1263 31.0608 14.3335 31.3436 13.5471C31.4979 13.1252 31.4272 12.8631 30.9387 12.748C29.653 12.4475 28.3674 12.1854 27.0496 12.0639C26.484 12.0128 26.2397 12.1854 26.2847 12.7736C26.3168 13.2786 26.2847 13.7965 26.2718 14.3079C26.259 15.5738 25.6419 15.9957 24.427 15.6121C24.0798 15.5035 24.0863 15.2797 24.0863 15.0304C24.0863 14.4102 24.0348 13.7837 24.112 13.1699C24.2277 12.2429 23.9063 11.9361 22.9678 12.0895C21.2707 12.3708 19.593 12.716 17.9667 13.3042C17.3817 13.5152 17.2082 13.7262 17.5167 14.3143C17.896 15.0176 18.1788 15.772 18.5259 16.4944C18.7188 16.8972 18.6802 17.1465 18.2238 17.3511C17.761 17.5621 17.6645 17.2935 17.5231 16.9739C17.1889 16.2067 16.8096 15.4587 16.5011 14.6787C16.3146 14.2056 16.1089 14.0522 15.6268 14.3207C14.2512 15.0943 12.9334 15.9446 11.7185 16.9547C11.2943 17.3063 11.3007 17.5493 11.6735 17.9073C12.1749 18.3868 12.5992 18.9686 13.1456 19.3777C13.9491 19.9851 13.4798 20.3431 13.0041 20.7842C12.5478 21.2062 12.1685 21.7943 11.5771 20.9249C11.3778 20.6244 11.0757 20.4006 10.8122 20.1385C9.99364 19.3117 9.22655 19.3777 8.51088 20.3367C7.77164 21.334 7.13526 22.4017 6.54387 23.4949C6.28674 23.9744 6.27389 24.2493 6.8717 24.4603C7.63023 24.7224 8.35018 25.0932 9.09584 25.3873C9.44296 25.528 9.69366 25.6494 9.50724 26.097C9.32083 26.5381 9.07656 26.5892 8.65873 26.3846C8.0352 26.0842 7.34739 25.8988 6.74957 25.5599C6.02962 25.1508 5.6825 25.2722 5.44466 26.0842C4.96255 27.7336 4.564 29.3894 4.41616 31.1028C4.36473 31.659 4.52543 31.8252 5.04611 31.8189C5.81749 31.8125 6.58887 31.8636 7.36024 31.8508C7.87449 31.8444 8.06734 32.0298 8.06091 32.5541C8.06091 33.1167 7.72022 33.0975 7.34096 33.0911C6.53101 33.0911 5.7275 33.0911 4.91755 33.0911V33.1167Z" fill="white"/>
<path d="M53 18.1311C52.7043 18.7832 52.1194 19.1092 51.5987 19.4672C46.739 22.8045 41.5708 25.6494 36.4347 28.5392C32.16 30.943 27.8467 33.2701 23.5399 35.61C22.3764 36.2429 21.2515 36.0895 20.3965 35.2776C19.5609 34.4848 19.2973 33.2957 19.728 32.2664C19.9658 31.7038 20.3515 31.2627 20.9043 31.0133C30.9515 26.5189 40.928 21.8647 51.3544 18.2653C51.8365 18.0991 52.3637 17.8114 52.9936 18.1247L53 18.1311Z" fill="white"/>
<path d="M41.3586 26.9921C41.2622 26.5445 41.5322 26.4934 41.6993 26.3975C43.165 25.5792 44.6499 24.7928 46.1026 23.9489C46.6361 23.6356 46.829 23.7571 47.0411 24.2941C48.0632 26.8962 48.571 29.5941 48.6739 32.3751C48.6932 32.9505 48.4875 33.1359 47.9153 33.1231C46.379 33.0911 44.8427 33.0911 43.2999 33.1231C42.715 33.1359 42.5543 32.9249 42.5543 32.3687C42.5543 31.7678 42.7086 31.5056 43.3578 31.5568C44.052 31.6079 44.7527 31.544 45.4405 31.5887C46.0383 31.6271 46.199 31.397 46.1476 30.8344C45.9998 29.2297 45.6398 27.6825 45.1512 26.1545C44.9777 25.6047 44.7141 25.6303 44.2577 25.8285C43.3128 26.244 42.3357 26.6021 41.3586 26.9857V26.9921Z" fill="white"/>
</g>
<defs>
<clipPath id="clip0_1_1218">
<rect width="53" height="36" fill="white"/>
</clipPath>
</defs>
</svg>
