<svg width="84" height="30" viewBox="0 0 84 30" fill="none" xmlns="http://www.w3.org/2000/svg">
<path d="M14.9009 29.158C18.6448 29.1181 21.6475 26.0508 21.6076 22.3069C21.5678 18.563 18.5004 15.5603 14.7566 15.6002C11.0127 15.64 8.00997 18.7074 8.04984 22.4513C8.0897 26.1951 11.157 29.1978 14.9009 29.158Z" fill="#CBCBCB"/>
<path fill-rule="evenodd" clip-rule="evenodd" d="M70.7173 15.5996C66.9726 15.5996 63.938 18.6343 63.938 22.3789C63.938 26.1235 66.9726 29.1582 70.7173 29.1582C74.4619 29.1582 77.4966 26.1235 77.4966 22.3789C77.4966 18.6343 74.4619 15.5996 70.7173 15.5996Z" fill="#CBCBCB"/>
<path fill-rule="evenodd" clip-rule="evenodd" d="M83.9451 19.341C83.9418 18.9818 83.0287 18.9784 83.0069 18.6041C82.876 16.3248 81.8924 12.1337 81.6423 9.79224C81.5517 8.94294 81.2076 7.81837 79.7037 6.89019C77.9463 5.80422 72.916 2.84343 71.0076 2.04281C69.7471 1.51409 70.0542 1.38653 68.7014 1.19183C61.9792 0.226716 47.2826 -0.912955 40.6964 1.18008C35.2817 2.9005 30.5652 5.39468 25.6742 8.43604C17.0234 9.92819 9.96216 11.1954 5.76099 12.325C3.73509 12.8705 2.86733 13.8356 2.24126 15.0475C1.55981 16.3684 1.23587 17.1405 0.923676 17.8908C0.173406 17.9512 -0.00786737 18.6427 0.00556027 19.576C0.0273802 21.0412 -0.110253 22.0852 0.297612 23.5371C0.598055 24.6063 1.55645 25.2256 2.69612 25.2626L4.80259 25.3314C5.82477 25.1384 6.13864 25.1937 6.05136 23.8258C6.02115 23.3575 6.01443 22.8758 6.01443 22.3807C6.01443 17.5131 9.96048 13.5671 14.828 13.5671C19.6955 13.5671 23.6416 17.5131 23.6416 22.3807C23.6416 23.0604 23.6416 23.7234 23.5963 24.3596C23.4435 26.5298 22.7688 26.3032 24.8534 26.4106L60.2705 26.372C61.7862 26.1874 62.1907 26.3687 61.9809 24.3126C61.9171 23.6898 61.9036 23.0436 61.9036 22.379C61.9036 17.5115 65.8497 13.5654 70.7172 13.5654C75.5847 13.5654 79.5308 17.5115 79.5308 22.379C79.5308 22.8171 79.5308 23.2451 79.5157 23.6596C79.4603 25.3314 79.091 25.6687 81.2311 25.3028C82.1911 25.1384 82.9532 24.9218 83.267 24.6315C84.2624 23.7066 83.9619 20.8197 83.9451 19.341ZM51.5963 2.49095C51.3848 3.88575 50.8678 6.89858 50.5556 8.9228C50.4046 9.89966 50.1729 10.1313 49.1759 10.1397C45.2349 10.1732 34.6657 10.9302 34.7143 10.7406C34.7597 10.5643 34.9913 9.90469 35.0333 9.20813C35.1037 8.03154 32.5223 7.94426 31.1896 8.03154C33.7744 6.1097 38.0427 4.06367 41.4768 2.87196C44.3084 1.92364 48.1202 1.90182 51.1548 1.83803C51.6819 1.83132 51.6634 2.05288 51.5979 2.49095H51.5963ZM70.1432 8.86237C69.9619 9.1326 69.732 9.30381 69.2989 9.31891C64.4801 9.48004 59.1006 9.98862 54.2885 10.0474C52.939 10.0641 52.8601 10.3931 53.0078 9.17624C53.55 4.73169 53.6171 3.44432 54.035 2.36339C54.1022 2.18883 54.4949 1.82461 54.7887 1.83803C57.9895 1.99077 61.5495 1.93706 64.6479 2.65544C65.749 2.96428 68.0015 5.52728 68.5654 6.29937C68.7836 6.59646 70.4017 8.47633 70.1415 8.86405L70.1432 8.86237Z" fill="#CBCBCB"/>
</svg>
