<svg width="89" height="37" viewBox="0 0 89 37" fill="none" xmlns="http://www.w3.org/2000/svg">
<g clip-path="url(#clip0_170_4446)">
<path d="M75.8938 30.4485C75.851 34.1467 72.836 37.047 69.0934 36.9953C65.4173 36.9437 62.4594 33.9496 62.5022 30.3077C62.545 26.6237 65.5743 23.7187 69.3216 23.7703C73.0262 23.822 75.9413 26.7786 75.8985 30.4485H75.8938ZM69.2455 25.9244C66.7394 25.9057 64.6897 27.8861 64.6755 30.3359C64.6612 32.7998 66.6633 34.8131 69.1552 34.8365C71.6518 34.86 73.7062 32.8748 73.7157 30.4204C73.7253 27.9284 71.747 25.9432 69.2408 25.9244H69.2455Z" fill="#CBCBCB"/>
<path d="M72.912 30.4204C72.8882 32.4713 71.219 34.081 69.1408 34.0481C67.1007 34.02 65.4648 32.3586 65.4838 30.3406C65.5076 28.2991 67.1863 26.6847 69.2645 26.7129C71.3189 26.741 72.9357 28.3836 72.912 30.4157V30.4204Z" fill="#CBCBCB"/>
<path d="M23.4162 30.4204C23.3925 32.4713 21.7233 34.081 19.6451 34.0481C17.605 34.02 15.9691 32.3586 15.9881 30.3406C16.0119 28.2991 17.6906 26.6847 19.7687 26.7129C21.8231 26.741 23.44 28.3836 23.4162 30.4157V30.4204Z" fill="#CBCBCB"/>
<path d="M19.7736 23.7656C23.6541 23.897 26.5978 26.8865 26.4456 30.5377C26.2839 34.3156 23.2356 37.1314 19.455 36.9953C15.8313 36.8639 12.9256 33.79 13.0397 30.2185C13.1539 26.5908 16.2307 23.6483 19.7784 23.7656H19.7736ZM19.7688 34.8412C22.2227 34.8365 24.2628 32.842 24.2676 30.4438C24.2723 27.9096 22.2655 25.915 19.7213 25.9291C17.2246 25.9432 15.1988 27.9518 15.213 30.4063C15.2273 32.8513 17.2769 34.8459 19.7688 34.8412Z" fill="#CBCBCB"/>
<path d="M88.9572 23.5826L88.786 20.2365L88.7099 17.5755L88.4389 13.3095C88.4389 13.2767 88.4294 13.2485 88.4294 13.2157V13.1781L88.3961 12.9388C87.9205 9.35799 87.2215 5.80535 86.3464 2.29026C86.2418 1.87727 86.2608 1.49244 86.5224 1.1827C87.0788 0.525673 86.7887 0.380189 86.0896 0.361417C82.8701 0.276942 79.6554 0.131457 76.4359 0.0892197C58.9212 -0.126661 41.4113 0.126764 23.9014 0.431812C20.7199 0.488129 17.7858 1.46898 15.1892 3.29927C12.6403 5.0967 10.096 6.91291 7.71351 8.92154C6.58169 9.87423 5.38805 10.6345 4.00894 11.2024C2.33024 11.8922 1.31255 13.15 1.19366 15.0272C1.00344 18.0167 0.951127 21.0061 0.209262 23.9628C-0.180692 25.5162 0.0618405 27.2291 0.166462 28.8764C0.218773 29.6977 0.775172 30.4251 0.618239 31.2276C0.437528 32.1427 0.860772 32.2507 1.60739 32.2648C4.6557 32.3211 7.704 32.4149 10.7571 32.49C11.8651 32.5182 11.8651 32.5088 11.9127 31.4059C11.9935 29.5756 12.3121 27.797 13.4011 26.2577C15.0703 23.8924 17.5099 23.0288 20.2967 23.0242C22.6317 23.0242 24.7812 23.5967 26.3124 25.5349C27.6916 27.2807 27.9626 29.341 27.9816 31.4576C27.9911 32.5135 27.9483 32.5182 29.0088 32.5088C39.433 32.4149 49.8524 32.3117 60.2765 32.2413C61.0755 32.2366 61.318 32.063 61.3085 31.2323C61.2942 29.5287 61.4559 27.8298 62.407 26.3234C63.905 23.944 66.1877 22.8364 68.9078 22.6581C72.5696 22.4141 76.355 24.6996 76.7878 28.7825C76.8876 29.7305 76.9114 30.6738 76.8734 31.6171C76.8544 32.0677 77.0256 32.2225 77.4631 32.1615C80.6778 31.7298 83.9401 31.7204 87.1358 31.0821C88.0061 30.9085 88.4722 30.4533 88.7337 29.6789C88.9002 29.1955 88.9572 28.6981 88.9477 28.1959C88.9239 26.6613 89.0571 25.1407 88.9477 23.592L88.9572 23.5826ZM2.9009 29.0031C2.89139 29.4349 2.5585 29.5334 2.18757 29.524C1.82615 29.5146 1.59788 29.3457 1.58837 28.9702C1.57886 28.4446 1.58837 27.919 1.58837 27.3934C1.58837 26.8959 1.58361 26.3985 1.59313 25.8963C1.60264 25.5302 1.81664 25.3425 2.18281 25.3237C2.56801 25.305 2.89139 25.4458 2.90566 25.8494C2.93419 26.9006 2.92943 27.9519 2.90566 29.0031H2.9009ZM5.74947 21.9448C4.36561 21.8697 2.9865 21.9401 1.62641 22.2357C1.14135 22.3437 0.936861 22.1982 1.00344 21.6819C1.1033 20.8794 1.22219 20.0769 1.22219 19.2697C1.22219 18.5939 1.55508 18.2983 2.12099 18.0448C3.43352 17.4488 4.83641 17.3503 6.23929 17.2142C6.61022 17.1766 6.65302 17.3784 6.64827 17.6694C6.63876 18.2795 6.64827 18.8943 6.64827 19.5091H6.63876C6.63876 20.0112 6.59596 20.5181 6.64827 21.0108C6.72436 21.7054 6.4628 21.9823 5.74947 21.9448ZM28.7996 16.2239C28.8471 16.6181 28.5047 16.7871 28.1195 16.7918C27.5869 16.7965 27.0543 16.7918 26.5169 16.7918C25.9843 16.7965 25.4517 16.8059 24.9191 16.7918C24.6052 16.7824 24.2866 16.7308 24.1724 16.3694C24.0583 16.0127 24.1772 15.7405 24.4578 15.4824C25.6086 14.4218 27.021 14.586 28.3668 14.7832C29.1182 14.8911 28.7425 15.7171 28.7996 16.2192V16.2239ZM29.7935 3.28049C29.4796 4.80573 29.1515 6.33567 28.8281 7.86091C28.4619 9.57387 27.5584 10.3998 25.7703 10.5782C20.5773 11.0991 15.3794 11.6013 10.1816 12.1081C10.0675 12.1175 9.95813 12.1363 9.84399 12.1363C9.42551 12.1363 8.88813 12.5023 8.63609 11.9345C8.39355 11.3901 8.58853 10.841 8.96897 10.3811C9.0736 10.2544 9.18297 10.1136 9.37795 10.1183C9.61097 11.3291 9.67755 11.3807 10.9901 11.3807C11.1042 11.3807 11.2183 11.3807 11.3277 11.3807C12.9541 11.3807 13.4154 10.7706 12.9969 9.19843C12.8828 8.77605 12.5784 8.62588 12.1837 8.60241C11.8508 8.58364 11.5179 8.60241 11.1327 8.60241C11.1851 8.45223 11.1898 8.35837 11.2374 8.31613C13.1729 6.60317 15.2225 5.03569 17.4529 3.70287C19.0079 2.77364 20.6961 2.47329 22.47 2.41697C24.5862 2.34658 26.7024 2.24333 28.8186 2.16824C29.8173 2.13539 29.9837 2.33719 29.7887 3.28519L29.7935 3.28049ZM38.8433 16.6275H35.7902V15.9564H38.8433V16.6275ZM48.8918 12.92C46.8279 12.92 44.7687 12.8872 42.7048 12.9294C40.0465 12.981 37.5878 12.1973 35.1578 11.2728C34.4777 11.0146 34.1353 10.5359 33.9784 9.86953C33.4458 7.64972 33.4553 5.39237 33.4981 3.13501C33.5076 2.55307 33.8642 2.21986 34.4587 2.15885C34.6537 2.14008 34.8534 2.14478 35.0531 2.14478C42.001 2.14478 48.9536 2.15885 55.9014 2.126C56.0584 2.126 56.1915 2.1307 56.3104 2.14947V12.9388C56.3104 12.9388 56.2866 12.9388 56.2724 12.9388C53.8138 12.9012 51.3551 12.9247 48.9013 12.9247L48.8918 12.92ZM82.9557 12.7651C82.347 12.92 81.7288 12.92 81.1058 12.92C73.4827 12.92 65.8595 12.92 58.2364 12.9341C58.2126 12.9341 58.1936 12.9341 58.1698 12.9341V2.1307C62.1788 2.14947 66.1877 2.14008 70.1966 2.14008C74.177 2.14008 78.1574 2.15885 82.1425 2.126C82.989 2.12131 83.4408 2.39351 83.6405 3.22418C84.2207 5.64579 84.4775 8.10964 84.6582 10.5829C84.7391 11.6951 84.0733 12.4789 82.9605 12.7651H82.9557ZM87.9158 22.278H85.6902V14.2904C85.6902 13.8258 86.237 13.8352 86.237 13.8352H86.7459C87.5543 13.8352 87.9158 16.6134 87.9158 16.6134V22.278Z" fill="#CBCBCB"/>
</g>
<defs>
<clipPath id="clip0_170_4446">
<rect width="89" height="37" fill="white"/>
</clipPath>
</defs>
</svg>
