<svg width="103" height="46" viewBox="0 0 103 46" fill="none" xmlns="http://www.w3.org/2000/svg">
<g clip-path="url(#clip0_170_4398)">
<path d="M103 33.9447H93.8281V34.3889C93.4139 34.3889 92.9943 34.3889 92.5801 34.3889V33.3085C93.3867 33.3085 94.1878 33.3085 94.9943 33.3085C97.256 33.303 99.5503 33.6211 101.774 32.8642C102.041 32.771 102.232 32.6722 102.237 32.3925C102.237 32.0854 102.074 31.844 101.752 31.8989C101.054 32.0196 100.967 31.6576 101.022 31.0981C101.049 30.791 101.022 30.4838 101.027 30.1712C101.027 30.067 101.027 29.886 101.06 29.875C101.866 29.6337 101.392 28.9701 101.512 28.5094C101.55 28.3503 101.512 28.1145 101.321 28.1145C100.945 28.1145 101.027 27.8677 101.027 27.6592C101.027 24.33 101.027 21.0008 101.027 17.6716C101.027 17.529 101.027 17.2822 101.082 17.2658C101.888 16.997 101.387 16.3389 101.512 15.8727C101.556 15.7081 101.49 15.4942 101.294 15.4942C100.994 15.4942 101.033 15.3132 101.033 15.1322C101.033 11.825 101.033 8.51771 101.033 5.20496C101.033 5.06784 100.978 4.91427 101.229 4.832C101.545 4.72779 101.692 3.30726 101.398 3.22499C100.875 3.08239 101.049 2.72589 101.038 2.42423C101.016 1.90867 101.044 1.39859 101.027 0.883034C101.005 0.26875 100.766 0.0274243 100.166 0.00548562C99.9645 -0.00548373 99.7574 0.00548562 99.5558 0.00548562C75.8494 0.00548562 52.1431 0.00548562 28.4367 0.00548562C27.2923 0.00548562 27.1615 0.131633 27.1615 1.27245C27.1615 1.65089 27.1615 2.02933 27.1615 2.40777H27.2596V8.56158H27.1615C27.1615 16.3663 27.1615 24.171 27.1615 31.9757C27.1615 33.2207 27.265 33.3249 28.4749 33.3249C29.5485 33.3249 30.6166 33.3249 31.6902 33.3249V34.378C30.2188 34.378 28.7419 34.378 27.2705 34.378C26.2841 34.378 26.1696 34.2628 26.1642 33.292C26.1642 30.95 26.1642 28.6081 26.1533 26.2661C26.1478 24.9717 26.0824 23.6774 26.5838 22.4378C26.6819 22.1965 26.7037 21.9168 26.72 21.6535C26.8508 19.498 26.829 17.3371 26.7963 15.1816C26.7745 14.0408 26.2023 13.1248 25.3522 12.3625C24.017 11.1668 22.5074 10.6348 20.6926 10.7664C18.1476 10.9474 15.5917 11.0077 13.0412 11.0791C12.3109 11.101 11.5643 10.4703 10.8559 11.1558C9.52068 11.1449 8.59422 11.8579 7.85306 12.8945C7.26994 13.7117 6.75221 14.5783 6.26173 15.4558C5.11184 17.5181 4.07639 19.6351 3.08454 21.7742C2.97009 22.0155 2.88835 22.2843 2.53412 22.2349C2.15263 22.18 2.07089 22.4159 2.10904 22.723C2.17443 23.2879 1.96189 23.7322 1.63491 24.1819C1.05724 24.9772 0.79565 25.8932 0.806549 26.9023C0.828348 29.3485 0.817448 31.7947 0.822898 34.2408C0.822898 34.5315 0.861046 34.8496 0.58311 35.0306C0.0381364 35.3871 -0.016361 35.9027 0.0217871 36.4841C0.0544855 36.9338 0.0544855 37.389 0.0326866 37.8388C-0.0708584 39.8736 0.316073 40.1204 2.29433 40.104C4.8121 40.0875 7.36803 39.8133 9.76046 40.9431C10.1365 41.1186 10.3218 41.0199 10.3054 40.5592C10.2836 39.8407 10.2945 39.1222 10.3054 38.4037C10.3436 36.7254 10.9867 35.3049 12.3055 34.2847C14.5181 32.568 16.9868 32.1676 19.6517 33.0232C22.3167 33.8789 23.8317 35.8588 23.9788 38.667C24.0115 39.3251 24.0061 39.9833 24.0115 40.6415C24.0115 40.9157 24.0497 41.1515 24.3985 41.1186C24.8944 41.0693 24.9816 41.3545 24.9489 41.7658C24.9325 41.9907 24.9271 42.2211 24.9489 42.4459C24.9652 42.5995 24.8344 42.8792 25.1342 42.8682C25.3522 42.8573 25.2868 42.6159 25.2977 42.4624C25.334 41.8188 25.6664 41.4989 26.295 41.5026C26.3331 41.5026 26.3767 41.5135 26.4149 41.5026C26.8726 41.3709 27.6029 41.8975 27.7446 40.9596C27.75 40.9212 27.9244 40.8883 28.0225 40.8883C28.3277 40.8883 28.6329 40.8938 28.9435 40.9047C29.0907 40.9047 29.2651 40.9212 29.2596 41.1131C29.2487 41.5793 29.5648 41.5026 29.8427 41.5026C31.4559 41.5026 33.069 41.4971 34.6821 41.5245C35.1508 41.5355 35.3742 41.4093 35.2925 40.9157C35.2107 40.4276 35.4614 40.3124 35.8919 40.3563C36.0718 40.3727 36.3606 40.4769 36.4206 40.2082C36.5023 39.8517 36.7476 39.9339 36.9819 39.8955C37.9192 39.7475 38.6386 40.0491 39.1836 40.8389C39.358 41.0857 39.5433 41.3819 39.9465 41.3819C42.17 41.3654 44.399 41.3709 46.6225 41.3654C46.786 41.3654 46.9931 41.3709 46.9767 41.1406C46.944 40.6524 47.2655 40.6963 47.5762 40.6963C50.0885 40.6963 52.6008 40.6963 55.1132 40.6853C55.3039 40.6853 55.6254 40.7841 55.6472 40.5427C55.7072 39.923 56.1159 40.104 56.4429 40.1369C59.0642 40.4056 61.6801 40.6908 64.3014 40.9486C64.8191 43.8061 67.2824 45.9945 70.2634 46.0329C73.7077 46.0823 76.4761 43.3619 76.5197 39.8955C76.5306 39.1003 76.3889 38.3434 76.1328 37.6413H76.487C76.5633 37.6194 76.6614 37.6084 76.7977 37.6084C77.3263 37.6194 77.8604 37.6359 78.389 37.6084C78.8141 37.581 78.9503 37.7181 78.9449 38.1569C78.9176 39.901 78.9231 41.6506 78.934 43.3948C78.934 43.6251 78.765 44.0365 79.1465 44.0365C79.4517 44.0365 79.3318 43.6416 79.3318 43.4167C79.3372 42.0181 79.3318 40.6195 79.3263 39.2264C79.3263 38.5518 79.2991 37.8827 79.4408 37.2135C79.5007 36.9448 79.5498 36.8077 79.8386 36.8077C81.2065 36.8132 82.5744 36.8132 83.9423 36.8077C84.1875 36.8077 84.3238 36.8735 84.3183 37.1532C84.3183 37.422 84.1548 37.4439 83.9532 37.4439C83.4027 37.4439 82.8523 37.4549 82.3019 37.4604C80.8523 37.4768 80.5089 37.8333 80.5253 39.3032C80.5362 40.3124 80.934 40.7457 81.9259 40.7512C84.8251 40.7621 87.7244 40.7731 90.6236 40.7621C91.6972 40.7621 92.0842 40.3234 92.0842 39.1716C92.0842 37.9375 91.6863 37.4604 90.6127 37.4439C89.8389 37.4329 89.0596 37.4604 88.2857 37.4439C88.0623 37.4439 87.6917 37.5975 87.7135 37.1313C87.7353 36.7199 88.0677 36.868 88.2748 36.868C90.4602 36.8516 92.6455 36.8516 94.8308 36.8461C96.1551 36.8461 96.1824 36.8461 96.1388 35.4859C96.117 34.899 96.3023 34.7235 96.8145 34.9539C97.2451 35.1458 97.9263 34.8716 98.0734 35.6504C98.1061 35.8149 98.4767 35.8643 98.5966 35.5736C98.7383 35.2336 98.7274 34.9429 98.5912 34.74H103.011V33.9721L103 33.9447ZM1.14988 38.3269C0.57766 38.3379 0.57221 37.7236 0.566761 37.2794C0.561311 36.8241 0.594009 36.2153 1.13353 36.2044C1.70031 36.1934 1.66761 36.8132 1.733 37.2465C1.68396 37.7017 1.70576 38.3105 1.14988 38.3214V38.3269ZM3.62951 34.4328C3.14449 34.4822 2.65946 34.5644 2.17988 34.6412C1.7657 34.7016 1.56406 34.537 1.56406 34.1092C1.56406 32.9629 1.56406 31.8111 1.55861 30.6648C1.55861 30.3522 1.68396 30.1712 1.98369 30.078C2.49052 29.9244 2.99189 29.7544 3.49327 29.5898C3.94015 29.4472 4.15814 29.6118 4.16359 30.078C4.16359 30.7142 4.16359 31.3504 4.16359 31.9866C4.16359 32.6009 4.15814 33.2152 4.16359 33.8295C4.16904 34.2025 4.01099 34.3944 3.63496 34.4328H3.62951ZM8.57242 36.347C8.34898 36.3689 8.12554 36.347 7.9021 36.347C7.67867 36.347 7.44978 36.3744 7.23179 36.3415C6.9266 36.2976 6.79036 36.0837 6.79581 35.7766C6.79581 35.4694 6.9266 35.2555 7.25359 35.2391C7.67867 35.2171 8.10374 35.2116 8.52882 35.2171C8.86671 35.2226 9.052 35.4091 9.05745 35.7546C9.0629 36.0947 8.90486 36.3031 8.56697 36.336L8.57242 36.347ZM8.30538 25.1527C7.50427 25.3941 6.70316 25.6409 5.8966 25.8657C5.17179 26.0632 4.63226 25.7177 4.59957 24.9992C4.54507 23.8638 4.61591 22.7559 5.16634 21.7084C5.9075 20.2988 6.56692 18.8399 7.34078 17.4029C7.31353 18.7302 7.38983 20.0575 7.9239 21.2531C8.46888 22.4707 9.50433 23.3812 10.2455 24.5659C9.57517 24.7688 8.93211 24.9663 8.29449 25.1582L8.30538 25.1527ZM11.1501 24.3136C10.8068 24.4178 10.6052 24.3904 10.3872 24.0832C9.79316 23.2496 9.16099 22.4433 8.55062 21.6206C8.38168 21.3957 8.19094 21.1709 8.20729 20.8198C8.57787 20.8473 8.9212 20.9953 9.29179 20.9624C9.57517 20.935 9.75501 20.8582 9.76591 20.5346C9.84766 18.4614 10.0384 16.3882 9.96756 14.3205C9.94576 13.6239 10.2346 13.613 10.6106 13.4813C11.1501 13.2949 11.7169 13.1961 12.2946 13.1852C14.9868 13.1303 17.6789 13.0755 20.3711 13.0206C21.0469 13.0097 21.2213 13.1742 21.194 13.8488C21.1014 15.8617 21.0087 17.8691 20.8888 19.8765C20.8234 21.0063 20.3384 21.5767 19.2485 21.9003C16.5508 22.7066 13.8478 23.4964 11.1556 24.3136H11.1501ZM20.9052 28.2955C20.5237 28.2571 20.1313 28.29 19.7444 28.29V28.3119C19.3356 28.3119 18.9269 28.3229 18.5182 28.3119C17.9296 28.2955 17.7934 28.0541 18.0768 27.5276C18.3874 26.9572 18.8724 26.6555 19.5155 26.6391C20.0278 26.6226 20.5346 26.6501 21.0469 26.6281C21.4447 26.6117 21.6191 26.7652 21.5864 27.1656C21.5755 27.3082 21.57 27.4563 21.5864 27.5989C21.6518 28.1254 21.4556 28.3613 20.9052 28.3064V28.2955ZM64.0071 40.1094C61.4076 39.8572 58.8135 39.5829 56.214 39.3471C55.7944 39.3087 55.6581 39.1551 55.6745 38.7383C55.729 37.3561 55.5055 37.603 56.7917 37.581C57.5437 37.57 58.3013 37.581 59.0533 37.581C59.3803 37.581 59.7073 37.603 60.0343 37.581C60.6174 37.5371 61.1951 37.5481 61.7618 37.6139H64.5794C64.3341 38.2721 64.1979 38.9851 64.187 39.7365C64.187 39.8736 64.187 40.0107 64.1979 40.1424C64.1325 40.1314 64.0671 40.1259 64.0071 40.1149V40.1094ZM74.5033 39.8297C74.4979 42.1278 72.6068 43.9926 70.3125 43.9707C68.0181 43.9487 66.1761 42.062 66.1925 39.7475C66.1925 38.9632 66.4214 38.2282 66.8083 37.603H67.713C67.2334 38.1843 66.9445 38.9357 66.9336 39.7529C66.9118 41.6452 68.4214 43.2028 70.2961 43.2302C72.2035 43.2577 73.7404 41.7494 73.7622 39.8242C73.7731 38.9741 73.4842 38.2008 72.9938 37.5975H73.8984C74.2853 38.2392 74.5088 39.0015 74.5088 39.8242L74.5033 39.8297ZM86.9069 37.4274C86.2966 37.4165 85.6807 37.4165 85.0704 37.411C84.8633 37.411 84.7216 37.3671 84.7161 37.1093C84.7161 36.8241 84.8687 36.7693 85.1031 36.7748C85.4082 36.7803 85.7134 36.7748 86.0186 36.7748C86.302 36.7748 86.5908 36.7857 86.8742 36.7748C87.1249 36.7638 87.2503 36.8461 87.2448 37.1203C87.2394 37.3726 87.1195 37.4274 86.9015 37.4274H86.9069Z" fill="#CBCBCB"/>
<path d="M17.5318 33.5992C14.0875 33.5498 11.3027 36.2757 11.2646 39.731C11.2264 43.1425 13.9404 45.9562 17.3247 46C20.7689 46.0494 23.5374 43.329 23.581 39.8627C23.6191 36.4238 20.9433 33.6485 17.5372 33.5992H17.5318ZM17.3846 43.9762C15.0903 43.9542 13.2483 42.0675 13.2646 39.753C13.281 37.4549 15.1611 35.6011 17.4664 35.6175C19.7716 35.634 21.5864 37.4988 21.5809 39.8352C21.5755 42.1333 19.6844 43.9981 17.3901 43.9762H17.3846Z" fill="#CBCBCB"/>
<path d="M17.4828 36.3579C15.5754 36.3305 14.0276 37.8443 14.0058 39.7584C13.984 41.6506 15.4936 43.2083 17.3683 43.2357C19.2757 43.2631 20.8126 41.7548 20.8344 39.8297C20.8562 37.921 19.3684 36.3853 17.4828 36.3579Z" fill="#CBCBCB"/>
</g>
<defs>
<clipPath id="clip0_170_4398">
<rect width="103" height="46" fill="white"/>
</clipPath>
</defs>
</svg>
