<svg width="110" height="37" viewBox="0 0 110 37" fill="none" xmlns="http://www.w3.org/2000/svg">
<g clip-path="url(#clip0_170_4426)">
<path fill-rule="evenodd" clip-rule="evenodd" d="M86.673 26.6051C83.7582 26.6051 81.395 28.9323 81.395 31.8026C81.395 34.6729 83.7582 37.0001 86.673 37.0001C89.5877 37.0001 91.951 34.6729 91.951 31.8026C91.951 28.9323 89.5877 26.6051 86.673 26.6051Z" fill="#CBCBCB"/>
<path fill-rule="evenodd" clip-rule="evenodd" d="M27.1538 26.2889C24.2391 26.2889 21.8759 28.6161 21.8759 31.4864C21.8759 34.3567 24.2391 36.6839 27.1538 36.6839C30.0686 36.6839 32.4318 34.3567 32.4318 31.4864C32.4318 28.6161 30.0686 26.2889 27.1538 26.2889Z" fill="#CBCBCB"/>
<path fill-rule="evenodd" clip-rule="evenodd" d="M109.441 2.17693C109.418 0.0345014 108.645 0.0144683 106.722 0H9.59189C7.62875 0 5.47913 1.84527 4.99993 3.6527C4.86431 4.16354 4.75694 4.70889 4.65749 5.27204C3.63128 5.30877 3.12043 5.30432 2.09422 5.34104C0.819371 5.38667 0.107352 5.13515 0.0858789 6.49183L0.00224502 11.7561C-0.010187 12.5463 0.0191978 12.6565 0.921087 12.6565C1.5879 12.6565 2.34512 12.6598 2.35982 11.9063L2.4604 6.96039C2.47736 6.13792 2.61411 6.14904 3.37246 6.13569C3.75221 6.12901 4.13195 6.12233 4.51169 6.11454C3.3962 12.6954 2.82884 21.2418 3.08088 28.0764C3.19728 31.2294 3.72282 34.3879 5.59441 34.3879H19.8099C20.5909 34.2677 20.6745 34.0496 20.4338 33.0312C20.3162 32.5348 20.2541 32.0173 20.2541 31.4853C20.2541 27.7325 23.3429 24.6908 27.1539 24.6908C30.9649 24.6908 34.0537 27.7336 34.0537 31.4853C34.0537 32.0151 33.9915 32.5293 33.8762 33.0245C33.6411 34.0251 33.6253 34.3979 34.6707 34.3979H79.477C80.1461 34.2944 80.1506 34.2043 79.9472 33.3317C79.8319 32.8409 79.7709 32.3278 79.7709 31.8025C79.7709 28.0497 82.8597 25.008 86.6707 25.008C90.4817 25.008 93.5705 28.0497 93.5705 31.8025C93.5705 32.2933 93.5173 32.7719 93.4167 33.2327C93.1726 34.3523 93.2857 34.3979 94.0983 34.3979H108.15C108.979 34.3979 109.369 34.024 109.464 33.2471C110.016 28.7352 110.329 12.5507 109.438 2.17582L109.441 2.17693ZM15.3547 12.6598C15.3547 13.0504 14.6031 13.4444 13.8764 13.6859C12.4863 14.1456 12.3631 13.8874 12.2795 15.4711C12.2354 16.3036 12.0353 18.1923 11.9382 19.6424C11.8884 20.3881 11.4228 20.9312 11.1561 21.0559C8.96802 22.0798 6.86022 22.6185 5.52999 23.5923C5.29152 23.7659 4.92647 23.2718 4.92421 22.781C4.91743 21.4621 5.52095 10.9848 6.1968 6.66545C6.28722 6.08449 6.53586 5.3544 6.9868 4.94038C7.98137 4.02776 9.8507 2.55756 10.9685 2.55756H14.4449C15.1581 2.55756 15.5401 2.89589 15.5401 3.62821C15.5401 5.75951 15.3547 10.5285 15.3547 12.6609V12.6598ZM35.22 12.5452C35.22 12.8568 34.9273 13.1128 34.5702 13.1128H20.0778C19.7206 13.1128 19.4279 12.8568 19.4279 12.5452V4.59537C19.5387 4.59871 19.6698 4.59982 19.8099 4.59982H35.22V12.5463V12.5452ZM35.22 4.0311H19.8099C19.6698 4.0311 19.5387 4.03333 19.4279 4.03555V2.80908C19.4279 2.49746 19.7206 2.24148 20.0778 2.24148H34.5702C34.9273 2.24148 35.22 2.49746 35.22 2.80908V4.0311ZM52.5933 12.5452C52.5933 12.8568 52.3005 13.1128 51.9434 13.1128H37.451C37.0939 13.1128 36.8011 12.8568 36.8011 12.5452V2.8102C36.8011 2.49857 37.0939 2.24259 37.451 2.24259H51.9434C52.3005 2.24259 52.5933 2.49857 52.5933 2.8102V12.5463V12.5452ZM70.3372 12.5452C70.3372 12.8568 70.0445 13.1128 69.6873 13.1128H55.1949C54.8378 13.1128 54.5451 12.8568 54.5451 12.5452V4.59982H70.3383V12.5463L70.3372 12.5452ZM70.3372 4.0311H54.544V2.80908C54.544 2.49746 54.8367 2.24148 55.1938 2.24148H69.6862C70.0434 2.24148 70.3361 2.49746 70.3361 2.80908V4.0311H70.3372ZM88.0811 12.5452C88.0811 12.8568 87.7884 13.1128 87.4313 13.1128H72.9378C72.5806 13.1128 72.2879 12.8568 72.2879 12.5452V2.8102C72.2879 2.49857 72.5806 2.24259 72.9378 2.24259H87.4313C87.7884 2.24259 88.0811 2.49857 88.0811 2.8102V12.5463V12.5452ZM105.825 12.5452C105.825 12.8568 105.532 13.1128 105.175 13.1128H90.6828C90.3257 13.1128 90.033 12.8568 90.033 12.5452V4.59982H105.826V12.5463L105.825 12.5452ZM105.825 4.0311H90.0318V2.80908C90.0318 2.49746 90.3246 2.24148 90.6817 2.24148H105.174C105.531 2.24148 105.824 2.49746 105.824 2.80908V4.0311H105.825Z" fill="#CBCBCB"/>
</g>
<defs>
<clipPath id="clip0_170_4426">
<rect width="110" height="37" fill="white"/>
</clipPath>
</defs>
</svg>
