<svg width="84" height="31" viewBox="0 0 84 31" fill="none" xmlns="http://www.w3.org/2000/svg">
<g clip-path="url(#clip0_170_4410)">
<path fill-rule="evenodd" clip-rule="evenodd" d="M66.3842 17.7313C62.6655 17.7313 59.6517 20.7012 59.6517 24.3657C59.6517 28.0301 62.6655 31 66.3842 31C70.1029 31 73.1166 28.0301 73.1166 24.3657C73.1166 20.7012 70.1029 17.7313 66.3842 17.7313Z" fill="#CBCBCB"/>
<path fill-rule="evenodd" clip-rule="evenodd" d="M13.034 17.7313C9.31529 17.7313 6.30151 20.7012 6.30151 24.3657C6.30151 28.0301 9.31529 31 13.034 31C16.7526 31 19.7664 28.0301 19.7664 24.3657C19.7664 20.7012 16.7526 17.7313 13.034 17.7313Z" fill="#CBCBCB"/>
<path fill-rule="evenodd" clip-rule="evenodd" d="M83.9893 19.6631C84.0385 18.3578 83.4746 18.7824 82.9639 18.4312C82.8548 16.5871 82.9532 13.4901 82.7498 11.5963C82.5117 9.38398 81.8706 9.11006 79.3676 9.1153L49.8842 9.17821C49.1487 9.17952 48.8694 9.05239 48.7138 8.94754C48.1884 8.59761 47.8639 4.38922 47.3093 1.94623C47.0127 0.64348 47.0207 -0.00134277 45.5444 -0.00134277H32.3455C30.3811 -0.00134277 28.422 0.923952 26.7715 2.24505L19.2464 8.26602C13.5885 8.75357 7.72193 9.69591 3.1627 10.861C1.73295 11.2267 1.14908 11.8768 1.15972 13.443L1.19164 18.6789C0.97618 18.6959 0.722151 18.7378 0.510681 18.8086C0.0677917 18.9554 0.0465117 19.1035 0.0159218 19.5308C-0.00801816 19.8702 0.00129182 20.2909 0.00528182 20.5019C0.0252318 21.3394 0.107692 23.7339 0.724811 24.1874C1.02672 24.4102 1.5135 24.5871 1.94043 24.595L3.30634 24.6212C4.32511 24.422 4.52062 24.0943 4.70549 22.9659C5.3665 18.9449 8.84312 16.0354 13.0326 16.0485C17.387 16.0485 20.9634 19.2988 21.4236 23.4705C21.5552 24.6631 22.2016 24.6789 23.0927 24.6894L57.0569 24.7601C57.7724 24.7614 57.916 24.3643 57.9692 23.7025C58.3124 19.4194 61.9486 16.0485 66.3828 16.0485C70.817 16.0485 74.3788 19.3512 74.7844 23.5714C74.8908 24.6828 74.8735 24.7955 75.8843 24.7981L78.6228 24.8034C79.7918 24.806 83.5265 24.6291 83.8417 23.3932C84.1037 22.3643 83.9494 20.7195 83.9893 19.6618V19.6631ZM39.743 2.0406C39.5488 3.32238 39.1817 6.73915 38.8891 8.33811C38.7455 9.12317 38.5739 9.32107 37.7559 9.32107H25.8245C25.379 9.32107 26.052 9.0537 26.0865 8.49276C26.1437 7.54256 24.3801 7.47179 23.2869 7.54125L27.8554 3.49538C28.4965 2.92788 28.9194 2.66576 29.7201 2.30665C30.8612 1.79551 31.8135 1.51242 32.8363 1.51242H39.3785C39.8121 1.50718 39.7948 1.68673 39.7416 2.0406H39.743ZM44.0814 9.32238H41.9521C40.8495 9.32238 40.8123 9.38791 40.9333 8.40626C41.3203 5.27389 41.4972 3.00783 41.6502 2.13365C41.7167 1.75226 41.7898 1.50718 42.2686 1.51242H44.2769C44.4352 1.51242 44.5283 1.87546 44.5589 2.43771L44.8728 8.1022C44.9486 9.47572 44.8009 9.32238 44.0814 9.32238Z" fill="#CBCBCB"/>
</g>
<defs>
<clipPath id="clip0_170_4410">
<rect width="84" height="31" fill="white"/>
</clipPath>
</defs>
</svg>
