<svg width="96" height="24" viewBox="0 0 96 24" fill="none" xmlns="http://www.w3.org/2000/svg">
<g clip-path="url(#clip0_170_4510)">
<path d="M80.2381 23.8746C84.1125 23.1472 86.6485 19.495 85.9024 15.7173C85.1563 11.9396 81.4107 9.46693 77.5363 10.1944C73.6619 10.9219 71.1259 14.574 71.872 18.3517C72.6181 22.1294 76.3637 24.6021 80.2381 23.8746Z" fill="#CBCBCB"/>
<path fill-rule="evenodd" clip-rule="evenodd" d="M94.3816 13.7073C94.1534 13.321 94.0314 12.9381 93.9641 12.5415C93.4318 9.35778 98.5506 7.67281 93.2903 7.02263C88.2298 6.39659 84.0113 5.83263 78.3972 4.51329C77.0812 4.20458 75.6963 3.78894 74.2742 3.33364C69.893 1.93496 65.1615 0.170659 60.9996 0.0326887C54.9398 -0.169093 48.7349 0.563876 43.51 2.61619C40.2997 3.8769 36.5888 5.53082 32.0979 7.59176C30.9323 7.12611 21.602 6.46212 17.3304 6.87086C12.1408 7.36755 4.76507 9.10771 0.925074 12.8588C-0.383816 14.1385 -0.171564 14.9784 0.739353 16.603C2.1809 19.1778 4.96318 22.0701 8.05499 22.1684C9.89097 22.227 9.26659 21.3354 9.08441 19.5831C9.03489 19.0985 8.75542 17.5429 8.75542 17.0359C8.75542 12.0344 12.9138 7.9798 18.0432 7.9798C23.1727 7.9798 27.331 12.0344 27.331 17.0359C27.331 17.5205 27.3222 17.9947 27.2904 18.4587C27.0976 21.3405 25.7551 22.1942 28.7761 22.1908L68.1666 22.1477C70.0575 22.1459 69.778 20.9611 69.5516 18.8157C69.4914 18.2396 69.4702 17.6446 69.4702 17.0341C69.4702 12.0327 73.6286 8.07293 78.758 8.07293C83.8875 8.07293 88.0458 12.0327 88.0458 17.0341C88.0458 17.5981 88.0264 19.0416 87.9716 19.559C87.7876 21.2922 88.1838 22.1822 89.6307 21.9942C92.1918 21.663 95.0237 20.0522 95.8373 17.8895C96.4422 16.2856 95.2324 15.1457 94.3816 13.7056V13.7073ZM61.0792 2.10052C60.6211 3.26465 60.0338 4.9065 59.3263 6.3276C58.8576 7.27097 58.3376 8.63171 57.1879 8.80417C53.5725 9.34226 44.076 9.69064 42.2294 9.14565C41.8615 9.037 41.8809 8.96457 41.9747 8.64551C42.0649 8.33852 42.2276 7.86425 42.2542 7.37273C42.3072 6.38279 40.7312 6.61044 39.41 6.77428C38.7785 6.85189 38.8935 6.6639 39.3357 6.40176C40.9594 5.44286 43.0094 4.47017 45.2505 3.64925C48.3812 2.50236 51.3032 1.89702 54.6302 1.60728C56.3813 1.45379 58.143 1.38653 59.8853 1.33651C60.7219 1.31237 61.3321 1.45551 61.0792 2.10052ZM69.0599 4.5909C67.7934 6.16031 64.6344 7.63832 62.779 8.23505C61.4984 8.64723 61.2596 8.47477 61.585 7.21234C62.0202 5.52565 62.5136 3.68546 63.4546 2.19193C63.75 1.72283 64.2895 1.76422 64.7158 1.8539C65.77 2.07638 67.6166 2.57997 68.6248 3.10254C69.4667 3.53887 69.7798 3.70271 69.0616 4.59262L69.0599 4.5909Z" fill="#CBCBCB"/>
<path d="M25.0593 18.6337C25.9657 14.8895 23.5874 11.1378 19.7474 10.2541C15.9073 9.37036 12.0596 11.6893 11.1533 15.4335C10.2469 19.1777 12.6252 22.9294 16.4652 23.8131C20.3053 24.6968 24.153 22.3779 25.0593 18.6337Z" fill="#CBCBCB"/>
</g>
<defs>
<clipPath id="clip0_170_4510">
<rect width="96" height="24" fill="white"/>
</clipPath>
</defs>
</svg>
