<svg width="84" height="28" viewBox="0 0 84 28" fill="none" xmlns="http://www.w3.org/2000/svg">
<g clip-path="url(#clip0_170_4367)">
<path d="M13.712 27.051C17.1807 27.0171 19.9651 24.1777 19.9312 20.709C19.8973 17.2403 17.0579 14.4559 13.5892 14.4898C10.1205 14.5237 7.33608 17.3631 7.36998 20.8318C7.40388 24.3004 10.2433 27.0849 13.712 27.051Z" fill="#CBCBCB"/>
<path fill-rule="evenodd" clip-rule="evenodd" d="M83.9891 17.6111C83.986 17.2767 83.14 17.2767 83.1198 16.9284C82.997 14.8151 82.8492 12.4762 82.6191 10.3054C82.3423 7.69909 76.9975 7.60267 73.7241 6.567C71.3946 5.8299 69.4772 4.24995 66.4853 2.92659C63.1916 1.46949 60.3163 0.133692 56.8516 0.133692C51.2239 0.133692 42.8576 -0.538096 37.617 1.12738C32.5988 2.72132 28.0269 5.60441 23.2684 7.84993C17.5085 8.46107 11.114 9.63048 5.27942 11.0782C3.39157 11.5463 2.57049 12.4203 1.99045 13.543C1.35754 14.7669 1.05897 15.9145 0.769728 16.6081C0.307873 16.6454 0.290767 16.5288 0.143036 16.7993C-0.0109154 17.0824 0.0746132 17.4602 0.0419568 17.9252C-0.0342414 18.978 -0.0171357 20.3651 0.248781 21.3106C0.503811 22.2172 0.737071 22.6557 1.18493 22.9901C1.52704 23.2451 1.93292 23.441 2.41499 23.4566L4.55165 23.5266C5.8268 23.2917 5.58732 23.1285 5.50646 21.505C5.49402 21.2624 5.48935 21.0151 5.48935 20.7663C5.48935 16.2566 9.14531 12.6007 13.655 12.6007C18.1647 12.6007 21.8207 16.2566 21.8207 20.7663C21.8207 21.2251 21.8113 21.676 21.7802 22.113C21.589 24.8484 21.3339 24.3756 23.8143 24.5L58.0739 24.4627C59.8965 24.2108 59.7938 24.4409 59.6025 22.1488C59.5652 21.6993 59.5528 21.2375 59.5528 20.7648C59.5528 16.2551 63.2087 12.5991 67.7184 12.5991C72.2281 12.5991 75.8841 16.2551 75.8841 20.7648C75.8841 21.152 75.8732 21.5361 75.8437 21.9171C75.6975 23.7909 76.2215 23.6385 77.4469 23.5452C78.7221 23.4472 80.1667 23.3275 81.3066 23.1316C82.1977 22.9792 82.9021 22.7801 83.1929 22.5095C84.1166 21.6527 84.0093 18.9795 83.9938 17.608L83.9891 17.6111ZM47.7141 2.34344C47.232 3.6357 47.0392 6.4286 46.7499 8.30245C46.61 9.2075 46.3954 9.4221 45.4717 9.42988C41.8188 9.46098 32.0281 10.1608 32.0717 9.98659C32.1136 9.82486 32.3282 9.21217 32.3671 8.56681C32.4324 7.47671 30.4404 7.39585 29.2057 7.47671C31.6005 5.69616 35.1553 3.80054 38.337 2.69644C39.4567 2.32167 42.4937 1.8396 44.5977 1.7945L47.3035 1.73697C47.7918 1.73074 47.8571 1.95778 47.7141 2.34189V2.34344ZM60.5216 8.87783C57.0305 9.0691 53.2874 9.30547 50.2084 9.34279C48.9581 9.35834 48.885 9.66314 49.0219 8.53571C49.5257 4.4179 49.6159 3.05411 50.0016 2.05264C50.0638 1.88936 50.3981 1.73385 50.6718 1.73697L55.4738 1.7945C56.9092 1.81161 58.3911 2.07286 59.8063 2.48962C60.0411 2.55493 60.4843 2.73065 61.0363 2.97324L60.5216 8.87783ZM66.5179 6.66341C66.3811 7.06307 66.0016 7.8857 65.7606 8.24647C65.5927 8.49684 65.3812 8.65545 64.9784 8.66945C63.8743 8.70677 62.6862 8.76275 61.4562 8.82807L61.8761 3.35268C63.6908 4.19397 65.9954 5.39759 66.3422 5.87033C66.6003 6.22489 66.6221 6.36484 66.521 6.66497L66.5179 6.66341Z" fill="#CBCBCB"/>
<path d="M73.9973 20.9711C74.1081 17.504 71.3873 14.6036 67.9202 14.4928C64.4531 14.382 61.5527 17.1029 61.4419 20.5699C61.3311 24.037 64.052 26.9375 67.519 27.0482C70.9861 27.159 73.8865 24.4382 73.9973 20.9711Z" fill="#CBCBCB"/>
</g>
<defs>
<clipPath id="clip0_170_4367">
<rect width="84" height="27.0504" fill="white"/>
</clipPath>
</defs>
</svg>
