<svg width="84" height="33" viewBox="0 0 84 33" fill="none" xmlns="http://www.w3.org/2000/svg">
<path fill-rule="evenodd" clip-rule="evenodd" d="M83.1623 18.2951C82.7268 18.203 82.2761 18.1109 82.2665 17.9239C82.1176 15.3422 81.7345 13.2475 81.1599 11.3342C80.2007 8.14546 79.225 5.46047 77.4031 1.8628C76.4164 -0.0867472 76.783 0.0207083 74.2707 0.0193128C65.2289 0.0151262 55.6937 -0.0616277 46.5141 0.118395C40.3774 0.23841 34.3909 0.280276 31.8359 1.10224C28.5243 2.95829 25.418 7.51747 23.0932 9.38329C17.1204 10.0252 10.5579 10.483 4.50657 12.0027C2.37325 12.5386 1.67593 12.6125 1.268 14.8524C1.02683 16.1767 0.984113 17.6267 0.825631 18.4054C0.660257 18.4193 0.550008 18.4137 0.470078 18.4123C0.153112 18.4054 0.0814507 18.7738 0.0690477 19.145C0.0263262 20.5056 -0.0921913 23.4293 0.137953 25.0941C0.330889 26.491 1.12882 26.9348 2.33604 26.9348H4.52724C6.24712 26.9348 5.94118 26.7757 6.0597 25.1095C6.39596 20.4205 10.2602 16.721 14.9775 16.721C19.6947 16.721 23.5493 20.4107 23.8938 25.0927C24.0275 26.9041 23.6623 26.9348 25.4911 26.9348H60.7046C62.791 26.9348 62.3845 26.8148 62.6132 24.755C63.1149 20.2349 66.9019 16.7224 71.4979 16.7224C76.0939 16.7224 80.0174 20.3633 80.4074 24.9992C80.4942 26.0389 80.2145 26.9348 81.2577 26.9348H81.8117C81.8737 26.9167 81.933 26.9027 81.9936 26.8916C83.0961 26.7004 83.5853 26.826 83.7631 25.3858C83.9753 23.6609 83.8995 20.948 83.985 19.8818C84.0442 19.1464 83.9381 18.4584 83.1609 18.2937L83.1623 18.2951ZM45.7107 2.68477C45.4613 4.09564 45.0106 6.97461 44.7102 8.94231C44.5655 9.89266 44.3436 10.4425 43.3845 10.4257C39.5974 10.6337 30.0995 10.9253 30.1463 10.6016C30.189 10.4313 30.484 9.89685 30.5239 9.22002C30.5915 8.07568 28.5257 7.99056 27.2454 8.07429C29.0852 5.51908 30.6397 4.21845 32.3954 2.7671C33.5558 2.37357 40.2989 2.15586 42.4804 2.10842C43.4162 2.08888 44.3505 2.06794 45.2862 2.04841C45.7934 2.04143 45.8609 2.28006 45.7121 2.68477H45.7107ZM60.4248 10.4299C56.5275 10.5416 51.1377 10.5179 48.2974 10.5179C47.0006 10.5332 46.9248 10.3727 47.0668 9.18931C47.5891 4.86458 47.6828 3.43277 48.0838 2.38054C48.1486 2.21029 48.4945 2.04562 48.7784 2.0498C52.3298 1.94653 55.5697 2.01212 59.1845 1.90885C59.8984 1.88792 60.123 2.52149 60.3201 3.15506C60.8493 4.85202 61.7051 7.40583 61.8746 9.07907C62.0207 10.5234 61.5934 10.3992 60.4248 10.4327V10.4299ZM77.8427 10.4271C75.9768 10.3909 71.3077 10.4341 68.5446 10.4299C67.6874 10.4299 67.1679 9.94429 66.8303 9.21025C66.2198 7.87892 65.2551 5.57071 64.3497 3.49138C63.826 2.28704 63.8067 1.90885 65.1807 1.88653C67.8969 1.84327 73.0703 1.90606 75.0534 1.94095C75.2326 1.93816 75.748 2.21029 75.8362 2.38054C76.3847 3.43137 76.9153 4.50174 78.456 8.82787C78.8777 10.0113 78.6682 10.4439 77.8414 10.4271H77.8427Z" fill="#CBCBCB"/>
<path fill-rule="evenodd" clip-rule="evenodd" d="M71.4992 18.5547C67.5605 18.5547 64.3674 21.7881 64.3674 25.7765C64.3674 29.7649 67.5605 32.9998 71.4992 32.9998C75.4378 32.9998 78.6323 29.7663 78.6323 25.7765C78.6323 21.7867 75.4392 18.5547 71.4992 18.5547Z" fill="#CBCBCB"/>
<path fill-rule="evenodd" clip-rule="evenodd" d="M14.9773 18.5547C11.0387 18.5547 7.84424 21.7881 7.84424 25.7765C7.84424 29.7649 11.0373 32.9998 14.9773 32.9998C18.9174 32.9998 22.1091 29.7663 22.1091 25.7765C22.1091 21.7867 18.916 18.5547 14.9773 18.5547Z" fill="#CBCBCB"/>
</svg>
