<svg width="89" height="43" viewBox="0 0 89 43" fill="none" xmlns="http://www.w3.org/2000/svg">
<g clip-path="url(#clip0_170_4485)">
<path d="M0.545482 33.2062C0.784154 34.1905 1.13485 35.165 1.87522 35.9348C2.30386 36.3831 2.80068 36.6072 3.41441 36.6121C4.15965 36.6121 4.90976 36.5975 5.65499 36.617C6.06902 36.6316 6.24437 36.5098 6.14695 36.0761C5.85957 34.819 5.94237 33.5668 6.26385 32.334C7.05293 29.2741 8.97691 27.1594 11.8945 26.029C13.7747 25.303 15.7279 25.264 17.686 25.8926C20.4283 26.7745 22.3279 28.5676 23.3995 31.189C24.0473 32.7677 24.2908 34.4487 23.8476 36.1541C23.7599 36.4903 23.8573 36.6219 24.1983 36.6072C24.398 36.5975 24.5977 36.6072 24.7974 36.6072C36.5215 36.6072 48.2505 36.6072 59.9746 36.6072C60.1256 36.6072 60.2717 36.5975 60.4227 36.6072C60.7491 36.6316 60.8855 36.5585 60.8416 36.1638C60.7393 35.277 60.6517 34.4 60.7588 33.4888C60.9829 31.5642 61.7525 29.9026 63.0189 28.4701C64.1879 27.1545 65.6394 26.2726 67.3344 25.7951C67.4708 25.7561 67.6413 25.7805 67.7144 25.6051C67.6218 25.4492 67.4513 25.4638 67.315 25.4492C65.7173 25.2835 64.1343 25.0155 62.5464 24.7573C62.2152 24.7037 61.8986 24.6306 61.5771 24.5429C61.1339 24.4259 60.8221 24.5039 60.5835 24.9765C59.9649 26.2044 59.0735 27.2179 57.9776 28.0413C55.849 29.6298 53.4623 30.2681 50.8272 29.9075C49.5461 29.7321 48.2846 29.4251 47.0036 29.3033C46.2194 29.2302 45.4887 29.1182 44.8312 28.6699C43.8229 27.9829 43.2676 27.0912 43.4527 25.8195C43.5209 25.3615 43.5599 24.8986 43.6573 24.4454C43.7157 24.1677 43.6232 24.0264 43.3115 23.9777C41.7723 23.7487 40.238 23.4953 38.6988 23.2614C38.0802 23.1688 37.4713 22.4574 37.559 21.902C37.6759 21.1857 38.3724 20.6936 39.069 20.8057C40.6081 21.0493 42.1473 21.2588 43.6816 21.5073C44.0275 21.5658 44.1298 21.4391 44.1736 21.1467C44.3636 19.8847 44.5487 18.6228 44.7484 17.3657C44.7922 17.0977 44.7337 16.9953 44.4464 16.9369C42.9997 16.6348 41.5336 16.4837 40.0821 16.2304C39.7898 16.1816 39.4927 16.1426 39.2443 15.9575C38.7767 15.6067 38.5916 15.0609 38.7718 14.5591C38.9667 14.0182 39.4391 13.6625 40.0285 13.721C40.9004 13.8087 41.7674 13.9598 42.6344 14.0913C43.3407 14.1985 44.0421 14.3106 44.7435 14.4421C45.1332 14.5152 45.2452 14.3739 45.2988 13.9841C45.3962 13.2386 45.44 12.4688 45.8394 11.7866C46.4483 10.739 47.7585 10.1641 48.9665 10.3687C50.6129 10.6513 52.2836 10.8219 53.9202 11.1483C57.1008 11.7866 59.4145 13.5992 60.8368 16.5325C61.1485 17.1805 61.3774 17.848 61.5187 18.5448C61.5771 18.8274 61.7038 18.9151 61.9765 18.9492C64.8601 19.3049 67.7533 19.4852 70.6564 19.3829C72.2004 19.3293 73.7347 19.1734 75.2252 18.7592C76.7644 18.3304 78.2451 17.7506 79.1267 16.2791C79.6577 15.3923 79.76 14.408 79.682 13.4043C79.5018 11.0947 78.0795 9.59885 76.3017 8.37585C74.6748 7.25517 72.8531 6.53404 70.9827 5.91035C69.0879 5.2818 67.1494 4.86276 65.1962 4.52169C63.3257 4.19035 61.4164 4.04418 59.5168 3.93698C56.9449 3.79081 54.378 3.93698 51.8208 4.18061C50.0771 4.34627 48.343 4.62888 46.6188 4.96996C44.8312 5.32078 43.0679 5.76418 41.329 6.28554C39.5755 6.81177 37.8659 7.46956 36.1854 8.20044C33.6185 9.31625 31.2269 10.7439 28.8548 12.2105C27.6468 12.956 26.4778 13.7649 25.2163 14.4178C23.1511 15.4897 20.9884 16.2645 18.7088 16.7371C17.2379 17.0441 15.7863 17.4387 14.3202 17.7896C12.4888 18.2281 10.6427 18.6228 8.82104 19.1051C6.97499 19.5924 5.05588 19.8555 3.34135 20.7813C1.70961 21.6632 0.701349 22.9788 0.360391 24.8109C-0.160789 27.6223 -0.116952 30.424 0.550353 33.1965L0.545482 33.2062ZM51.6211 6.00293C53.3941 5.86163 55.0404 5.69596 56.6917 5.73494C59.619 5.80316 62.5415 5.96395 65.4397 6.47557C67.7241 6.87999 69.9696 7.42084 72.0981 8.35636C73.7932 9.09698 75.3567 10.0423 76.4916 11.5625C77.081 12.3518 77.4804 13.2191 77.534 14.2277C76.9933 13.4774 76.3845 12.805 75.6977 12.2154C73.9247 10.6952 71.8302 9.75965 69.6676 8.99466C67.2516 8.14197 64.7578 7.54752 62.2249 7.12848C59.3998 6.66072 56.565 6.28067 53.6912 6.21245C53.0483 6.19783 52.3761 6.25143 51.6211 6.0078V6.00293ZM31.8309 34.6923C35.3184 34.4974 38.8011 34.2782 42.2886 34.1174C46.2583 33.9322 50.2281 33.7714 54.1929 33.4791C55.8295 33.3573 57.5928 33.6691 58.9858 32.3389C58.9225 33.3621 58.0068 34.4828 56.9644 34.4828C55.4934 34.4828 54.0176 34.5315 52.5466 34.5754C48.8399 34.6826 45.1283 34.59 41.4167 34.7313C39.8434 34.7947 38.2701 34.7508 36.6969 34.8093C35.5717 34.8483 34.4465 34.78 33.3214 34.8824C32.8197 34.9311 32.3082 34.9067 31.8309 34.6875V34.6923ZM16.8969 19.9189C17.2671 19.9091 17.5739 19.724 17.9149 19.6606C19.0352 19.4511 20.1506 19.2075 21.2709 18.9785C23.1023 18.6081 24.9387 18.2671 26.7652 17.8626C27.6468 17.6677 28.6356 17.619 29.1373 16.6494C29.1471 16.6348 29.1958 16.6396 29.264 16.6299C29.2834 17.0733 29.1373 17.4728 29.0155 17.8821C28.8305 18.4912 28.3969 18.7446 27.7881 18.7641C27.491 18.7738 27.1939 18.7933 26.8967 18.8274C24.0035 19.1685 21.1102 19.5144 18.2169 19.8555C17.7785 19.9091 17.3401 20.0455 16.8969 19.914V19.9189Z" fill="#CBCBCB"/>
<path d="M79.6138 23.6122C76.8472 24.0751 74.0757 24.2748 71.2701 24.0994C69.3558 23.9825 67.4465 23.8266 65.5371 23.6171C63.4329 23.388 61.3628 22.9982 59.2829 22.6474C58.9079 22.5841 58.8202 22.6815 58.7228 22.9739C58.489 23.6609 58.2357 24.3333 57.8412 24.9521C56.1364 27.6174 52.9801 28.9086 50.0186 28.4408C49.2539 28.319 48.4892 28.1777 47.7196 28.0852C47.6416 28.0754 47.5783 28.0608 47.5247 28.0364C47.5247 28.0364 47.5247 28.0364 47.5199 28.0364C43.779 27.822 44.2807 26.6624 44.2807 26.6624V26.6478C44.2807 26.5503 44.2807 26.4431 44.3002 26.3213C44.5243 24.8547 44.7386 23.3832 44.9773 21.9165C45.1331 20.9274 45.2988 19.9383 45.4595 18.954L45.5033 18.6666C45.7907 16.9027 46.0781 15.134 46.3606 13.3653C46.4483 12.839 46.8087 12.4785 47.3494 12.4395C47.6124 12.42 47.8803 12.4395 48.1433 12.4833C49.4487 12.688 50.7492 12.9316 52.0546 13.1021C53.5597 13.3019 54.9138 13.833 56.1023 14.7686C57.7535 16.0695 58.6692 17.7993 58.9858 19.8506C59.0345 20.1576 59.166 20.2258 59.4096 20.2745C61.4018 20.674 63.428 20.8689 65.4445 21.0541C67.2078 21.2149 68.9905 21.2636 70.7732 21.2198C73.0285 21.1613 75.2593 20.9713 77.4366 20.3963C79.5895 19.8262 81.5622 18.8907 83.0575 17.1756C84.5431 15.4751 85.1179 13.5553 84.2314 11.3627C83.5056 9.56957 82.171 8.2881 80.6513 7.17229C79.0342 5.98827 77.2466 5.12096 75.4054 4.35597C73.8078 3.68844 72.1614 3.14272 70.4859 2.70906C68.8931 2.29977 67.2809 1.96357 65.6394 1.73943C63.7592 1.48119 61.8742 1.20833 59.9795 1.11575C58.1773 1.02804 56.375 0.98419 54.5631 1.04753C51.2509 1.16447 48.0021 1.65173 44.7971 2.46056C43.4673 2.79677 42.1668 3.22555 40.8468 3.63484C42.1863 2.78702 43.6573 2.23643 45.1624 1.7979C48.0167 0.9647 50.9441 0.531046 53.9055 0.282547C56.3799 0.0779012 58.8494 -0.0536569 61.3384 0.048666C63.5936 0.141244 65.8245 0.355635 68.0553 0.657731C69.9598 0.915975 71.8302 1.33014 73.6714 1.83688C75.7951 2.42646 77.8603 3.20119 79.8476 4.17569C81.645 5.05762 83.3351 6.09546 84.811 7.45977C86.5402 9.05309 87.943 10.8608 88.6395 13.1606C89.6965 16.6591 88.3862 19.5972 85.4637 21.4829C83.6859 22.6279 81.7034 23.2711 79.6138 23.6268V23.6122Z" fill="#CBCBCB"/>
<path d="M76.1994 28.3434C75.347 27.3982 74.3485 26.6478 73.16 26.1703C73.0187 26.1118 72.8482 26.0533 72.9018 25.8682C72.9505 25.6879 73.121 25.7951 73.233 25.8048C73.8273 25.8438 74.4215 25.9267 75.0158 25.9267C77.0225 25.9267 79.0147 25.7854 80.9972 25.4248C82.5656 25.1422 84.095 24.7329 85.5465 24.0848C85.9752 23.8899 86.0872 23.9094 86.1797 24.3869C86.3989 25.5466 86.4768 26.716 86.5304 27.8952C86.623 29.888 86.6814 31.8711 85.8631 33.7568C85.3907 34.8385 84.6552 35.6668 83.5543 36.1492C82.5071 36.6121 81.4014 36.6267 80.2909 36.6121C79.911 36.6121 79.5262 36.6121 79.1462 36.6121C78.4935 36.6121 78.4984 36.6121 78.591 35.9884C79.0147 33.06 78.1672 30.5214 76.1994 28.3434Z" fill="#CBCBCB"/>
<path d="M61.8596 35.1065C61.9083 39.5649 65.4982 43.0633 69.9501 43C74.3241 42.9415 77.8409 39.3261 77.7922 34.936C77.7435 30.4922 74.1342 26.9889 69.6822 27.0522C65.2741 27.1156 61.8109 30.6823 61.8596 35.1065ZM64.4461 35.0724C64.4363 32.0661 66.7889 29.6737 69.765 29.6493C72.746 29.6298 75.1814 32.0125 75.2009 34.9652C75.2204 37.9375 72.8385 40.364 69.8673 40.3932C66.8961 40.4224 64.4509 38.0252 64.4412 35.0675L64.4461 35.0724Z" fill="#CBCBCB"/>
<path d="M69.7455 30.6043C72.215 30.5702 74.217 32.5144 74.2413 34.975C74.2705 37.4064 72.3173 39.4138 69.8916 39.4479C67.4221 39.4821 65.4348 37.5428 65.4056 35.0724C65.3764 32.6215 67.3004 30.6433 69.7455 30.6092V30.6043Z" fill="#CBCBCB"/>
<path d="M7.30629 35.1065C7.355 39.5649 10.9448 43.0633 15.3968 43C19.7708 42.9415 23.2875 39.3261 23.2388 34.936C23.1901 30.4922 19.5808 26.9889 15.1289 27.0522C10.7208 27.1156 7.25759 30.6823 7.30629 35.1065ZM9.89271 35.0724C9.88297 32.0661 12.2356 29.6737 15.2117 29.6493C18.1926 29.6298 20.628 32.0125 20.6475 34.9652C20.667 37.9375 18.2852 40.364 15.314 40.3932C12.3427 40.4224 9.89758 38.0252 9.88784 35.0675L9.89271 35.0724Z" fill="#CBCBCB"/>
<path d="M15.1922 30.6043C17.6617 30.5702 19.6636 32.5144 19.688 34.975C19.7172 37.4064 17.764 39.4138 15.3383 39.4479C12.8688 39.4821 10.8815 37.5428 10.8523 35.0724C10.823 32.6215 12.747 30.6433 15.1922 30.6092V30.6043Z" fill="#CBCBCB"/>
</g>
<defs>
<clipPath id="clip0_170_4485">
<rect width="89" height="43" fill="white"/>
</clipPath>
</defs>
</svg>
