<svg width="294" height="160" viewBox="0 0 294 160" fill="none" xmlns="http://www.w3.org/2000/svg">
<path d="M199.596 108.911L265.92 60.6676C247.857 35.8345 222.241 16.865 192.435 7.18433L167.094 85.254C180.257 89.5501 191.594 97.9391 199.596 108.926V108.911Z" fill="#FEAF00"/>
<path d="M212.047 147.17H293.998C293.998 114.833 283.575 84.9493 265.918 60.6677L199.594 108.912C207.422 119.666 212.047 132.874 212.047 147.17Z" fill="#FE2A00"/>
<path d="M146.996 82.0464C154.013 82.0464 160.754 83.1785 167.089 85.2395L192.43 7.16981C178.121 2.5254 162.856 0 146.996 0C131.136 0 115.871 2.5254 101.562 7.16981L126.903 85.2395C133.239 83.1785 139.994 82.0464 146.996 82.0464Z" fill="#FEF000"/>
<path d="M94.4047 108.912L28.0808 60.6677C10.4234 84.9493 0 114.833 0 147.17H81.9518C81.9518 132.888 86.5763 119.666 94.4047 108.912Z" fill="#1EA614"/>
<path d="M126.904 85.2393L101.564 7.16968C71.7577 16.8649 46.1269 35.8199 28.0781 60.653L94.4021 108.897C102.39 97.9099 113.727 89.5209 126.904 85.2248V85.2393Z" fill="#9FCC00"/>
<path d="M148.092 147.833C154.638 147.63 159.782 142.165 159.583 135.626C159.384 129.088 153.916 123.951 147.371 124.154C140.826 124.357 135.681 129.822 135.88 136.361C136.08 142.899 141.547 148.036 148.092 147.833Z" fill="#101012"/>
<path opacity="0.3" d="M227.515 114.6L150.205 141.454L146.813 128.795L227.192 113.396C227.95 113.253 228.243 114.345 227.515 114.6Z" fill="black"/>
<path d="M226.753 115.45L149.444 142.303L146.052 129.645L226.43 114.246C227.189 114.103 227.481 115.195 226.753 115.45Z" fill="#101012"/>
<path d="M141.298 137.702C140.349 134.159 142.464 130.501 146.01 129.55C149.557 128.6 153.218 130.711 154.168 134.254C155.117 137.796 153.002 141.455 149.455 142.405C145.908 143.356 142.247 141.245 141.298 137.702Z" fill="#1B1B1F"/>
<path opacity="0.36" d="M159.23 138.899L226.753 115.448C227.124 115.319 227.231 114.99 227.152 114.696L136.28 139.045C137.972 145.36 144.476 149.11 150.799 147.416C155.089 146.267 158.187 142.915 159.216 138.902L159.23 138.899Z" fill="black"/>
</svg>
