<svg width="22" height="22" viewBox="0 0 22 22" fill="none" xmlns="http://www.w3.org/2000/svg">
<g clip-path="url(#clip0_325_4071)">
<path d="M20.9882 5.42432C20.5685 4.98598 19.8748 4.97177 19.438 5.39003L19.0605 5.75115C19.4159 6.37779 19.5815 7.11743 19.4587 7.88394L19.3603 8.49882L20.9539 6.97444C21.3913 6.55574 21.4063 5.8617 20.9882 5.42432Z" fill="#B0B0B0"/>
<path d="M9.48951 13.2932C9.04202 13.3447 8.6196 13.5558 8.32402 13.9159L4.05561 19.1179C3.43753 19.8708 3.54741 20.982 4.30038 21.5997C4.62802 21.8686 5.0241 22 5.41788 22C5.92757 22 6.43346 21.7799 6.78171 21.3552L10.3616 16.9929L12.2542 17.4171L10.0689 14.7904C9.70288 14.3505 9.51808 13.8238 9.48951 13.2932Z" fill="#B0B0B0"/>
<path d="M16.4902 5.6234C15.5317 5.46992 14.6247 6.12401 14.4705 7.08566L13.7939 11.3146C13.864 11.3812 13.9381 11.4419 14.0017 11.5183L16.7957 14.8765L17.9534 7.64303C18.1066 6.68139 17.4522 5.7771 16.4902 5.6234Z" fill="#B0B0B0"/>
<path d="M14.2524 4.73093C14.6 4.91298 14.989 5.02531 15.4086 5.02531C16.1222 5.02531 16.7632 4.72446 17.2205 4.24698C17.6523 3.79562 17.9214 3.18654 17.9214 2.51281C17.9214 1.12517 16.7967 0 15.4086 0C14.0212 0 12.8965 1.12517 12.8965 2.51281C12.8965 3.48085 13.4502 4.31119 14.2524 4.73093Z" fill="#B0B0B0"/>
<path d="M12.8785 12.4532C12.4909 11.9883 11.8009 11.9241 11.3348 12.3117C10.8688 12.6992 10.8061 13.3904 11.1929 13.8556L17.5267 21.4685C17.7437 21.7289 18.0555 21.8635 18.3703 21.8635C18.6172 21.8635 18.8655 21.7804 19.0705 21.6101C19.5364 21.2226 19.5993 20.5314 19.2125 20.066L12.8785 12.4532Z" fill="#B0B0B0"/>
<path d="M11.6701 5.48099C11.6701 2.45388 9.2164 0 6.18892 0C3.16152 0 0.708008 2.45388 0.708008 5.48099C0.708008 8.50802 3.16152 10.9621 6.18892 10.9621C9.2164 10.9621 11.6701 8.50795 11.6701 5.48099Z" fill="#B0B0B0"/>
</g>
<defs>
<clipPath id="clip0_325_4071">
<rect width="22" height="22" fill="white"/>
</clipPath>
</defs>
</svg>
