<svg width="17" height="22" viewBox="0 0 17 22" fill="none" xmlns="http://www.w3.org/2000/svg">
<path fill-rule="evenodd" clip-rule="evenodd" d="M2.39456 6.47059C2.39456 2.89699 5.07476 0 8.38095 0C11.6871 0 14.3673 2.89699 14.3673 6.47059V9.27973C15.7624 9.81265 16.7619 11.2508 16.7619 12.9412V18.1176C16.7619 20.2619 15.1538 22 13.1701 22H3.59184C1.60813 22 0 20.2619 0 18.1176V12.9412C0 11.2508 0.999501 9.81265 2.39456 9.27973V6.47059ZM4.78912 9.05882H11.9728V6.47059C11.9728 4.32643 10.3647 2.58824 8.38095 2.58824C6.39718 2.58824 4.78912 4.32643 4.78912 6.47059V9.05882Z" fill="#B0B0B0"/>
</svg>
