<svg width="120" height="82" viewBox="0 0 120 82" fill="none" xmlns="http://www.w3.org/2000/svg">
<g clip-path="url(#clip0_958_16309)">
<mask id="mask0_958_16309" style="mask-type:luminance" maskUnits="userSpaceOnUse" x="1" y="2" width="113" height="48">
<path d="M56.5098 44.3474C52.34 44.0303 40.409 42.3775 25.2117 33.7603C23.6436 32.82 22.1252 31.8196 20.6324 30.8083C15.8531 27.572 10.9672 24.1553 7.60532 19.9041C7.1463 19.3246 6.7295 18.7251 6.36779 18.1037C6.01893 17.5079 5.71965 16.8847 5.62601 16.2341C5.27531 13.8507 8.06802 13.0234 10.3815 12.2781C14.2318 11.039 18.341 10.2846 22.4006 9.61581C22.4006 9.61581 37.3244 6.64741 57.4499 6.54173C77.5772 6.64741 92.501 9.61581 92.501 9.61581C96.5606 10.2846 100.67 11.0408 104.52 12.2781C106.834 13.0234 109.624 13.8507 109.276 16.2341C109.18 16.8847 108.881 17.5079 108.534 18.1037C108.17 18.7251 107.755 19.3246 107.294 19.9041C103.934 24.1553 99.0485 27.572 94.2691 30.8083C92.7745 31.8214 91.2579 32.82 89.6862 33.7603C74.4907 42.3775 62.5597 44.0321 58.3918 44.3474C58.0778 44.3711 57.7638 44.382 57.4517 44.382C57.1396 44.382 56.8256 44.3711 56.5135 44.3474M19.4537 6.22648C15.058 7.06288 10.6055 8.00861 6.43573 9.55932C3.92945 10.4905 0.905401 11.5255 1.28547 14.5067C1.39013 15.3212 1.71145 16.1011 2.08968 16.8482C2.48261 17.6227 2.93429 18.3734 3.43187 19.0987C7.07469 24.4159 12.3627 28.689 17.5404 32.738C19.158 34.0044 20.8014 35.2545 22.5016 36.4316C38.9604 47.2101 51.8828 49.2801 56.3996 49.6755C57.079 49.7357 57.7583 49.7357 58.4359 49.6755C62.9508 49.2801 75.8733 47.2101 92.3339 36.4316C94.0323 35.2545 95.6756 34.0044 97.295 32.738C102.473 28.689 107.761 24.4141 111.402 19.0987C111.899 18.3734 112.351 17.6227 112.744 16.8482C113.12 16.1011 113.443 15.3212 113.548 14.5067C113.926 11.5273 110.902 10.4923 108.398 9.55932C104.228 8.00861 99.7756 7.0647 95.3781 6.22648C95.3781 6.22648 79.215 2.51279 57.415 2.38159C35.6168 2.51461 19.4537 6.22648 19.4537 6.22648Z" fill="white"/>
</mask>
<g mask="url(#mask0_958_16309)">
<path d="M113.926 2.38159H0.907227V49.7339H113.926V2.38159Z" fill="url(#paint0_linear_958_16309)"/>
</g>
<mask id="mask1_958_16309" style="mask-type:luminance" maskUnits="userSpaceOnUse" x="0" y="0" width="116" height="53">
<path d="M39.8765 20.7223H60.9053L57.3561 28.9569C56.2288 31.5718 56.4987 34.5475 58.0795 36.92C59.6604 39.2926 62.3136 40.7103 65.1816 40.7103H80.4285L80.3863 40.7303C69.9683 45.4954 62.1171 46.6325 58.8709 46.904C58.2301 46.9568 57.5875 46.9568 56.9467 46.904C53.6399 46.6288 45.5665 45.4572 34.8676 40.4716L32.5284 39.3764L31.8454 39.0101L34.6252 32.5303H49.5197L52.6649 25.3854H37.7705L39.8783 20.7205L39.8765 20.7223ZM27.9143 36.7706C27.6903 36.6431 27.4645 36.5064 27.2404 36.377L33.6852 21.679C35.367 17.8578 37.9045 16.0775 41.6667 16.0775H87.615L86.7263 18.0947H72.5645C70.24 18.0947 68.314 19.0677 66.9901 20.8681L66.5697 21.4931C66.3824 21.8047 66.2098 22.14 66.0537 22.4899L62.8167 29.6457C62.0106 31.4771 62.018 33.0369 62.8369 34.2796C63.3822 35.1069 64.5151 36.0928 66.8102 36.0928L89.1041 36.0709C87.962 36.7433 86.7796 37.5123 85.6798 38.1027H65.2734C63.2463 38.1027 61.4451 37.1405 60.3288 35.4659C59.2124 33.7895 59.0288 31.7686 59.8238 29.9227L63.8082 20.6786L64.9135 18.1111H62.1024L41.4592 18.1147C39.5239 18.1147 37.7741 19.2518 37.0011 21.0084L33.911 27.9037H48.8054L47.9167 29.9227H33.0168L29.6549 37.7364L27.9125 36.7706H27.9143ZM24.9857 35.0249C23.3791 33.9717 21.824 32.8565 20.2945 31.7249C19.4223 31.0816 18.5502 30.4311 17.6817 29.7715C16.4515 28.8239 16.4258 28.8385 16.009 28.4759C12.6049 25.7917 9.38991 22.898 6.95524 19.5397C6.4852 18.891 6.05923 18.2222 5.68833 17.528C5.33213 16.861 5.02367 16.1649 4.92819 15.436C4.57015 12.7738 7.42895 11.8481 9.79752 11.0172C13.7396 9.63044 17.9498 8.78676 22.1067 8.03964C22.1067 8.03964 37.3904 4.7232 58.0024 4.60476C78.6126 4.7232 93.8963 8.03964 93.8963 8.03964C98.0532 8.78676 102.262 9.63227 106.204 11.0172C108.574 11.8499 111.433 12.7738 111.075 15.436C110.976 16.1649 110.669 16.861 110.315 17.528C109.942 18.2222 109.516 18.8928 109.046 19.5397C107.619 21.5095 105.919 23.3172 104.074 25.0209C103.325 25.6952 103.468 25.564 102.759 26.1963C102.06 26.8031 101.345 27.3953 100.618 27.9784C99.3991 28.966 98.9089 29.3214 98.9089 29.3214C97.8476 30.1377 96.7753 30.9377 95.7067 31.7267C94.8786 32.3408 94.1019 32.8073 93.2555 33.4032L93.0921 33.5088L66.812 33.5307C64.8896 33.5307 64.3498 32.5777 65.1889 30.6716L68.4241 23.5158C69.2632 21.6116 70.6421 20.6585 72.5664 20.6585H88.4211L91.5681 13.5136H41.6685C36.8634 13.5136 33.4116 15.8952 31.3147 20.6585L25.0078 35.0395C25.0078 35.0395 24.9931 35.0304 24.9857 35.0268M18.9945 4.2968C14.4924 5.2316 9.93156 6.28849 5.66263 8.02142C3.0976 9.06373 0.000102729 10.2208 0.387519 13.55C0.494013 14.4612 0.824511 15.334 1.21193 16.1668C1.61403 17.0323 2.07489 17.8724 2.58533 18.6832C5.0714 22.6429 8.30844 26.0869 11.7621 29.2831C12.2046 29.6913 12.6471 30.0958 13.0952 30.4985C14.3969 31.6666 15.7208 32.8055 17.0354 33.9261C18.6952 35.342 20.3771 36.7378 22.1177 38.0553C38.9749 50.102 52.2077 52.4126 56.8328 52.8554C57.5269 52.9228 58.2246 52.9228 58.9168 52.8554C63.5438 52.4126 76.7765 50.102 93.6337 38.0553C95.3744 36.7378 97.0562 35.342 98.7142 33.9261C100.459 32.4392 102.214 30.9213 103.92 29.3451C104.357 28.9424 104.788 28.5342 105.216 28.1224C105.607 27.7452 105.996 27.368 106.38 26.9853C106.709 26.6536 107.035 26.3202 107.359 25.9849C109.52 23.7272 111.508 21.32 113.162 18.6832C113.671 17.8724 114.134 17.0323 114.536 16.1668C114.923 15.334 115.256 14.4612 115.36 13.55C115.748 10.2208 112.652 9.06373 110.085 8.02142C105.816 6.28849 101.257 5.23342 96.7533 4.2968C96.7533 4.2968 80.199 0.1476 57.8739 0C35.547 0.1476 18.9945 4.2968 18.9945 4.2968Z" fill="white"/>
</mask>
<g mask="url(#mask1_958_16309)">
<path d="M115.746 0H0V52.9738H115.746V0Z" fill="url(#paint1_linear_958_16309)"/>
</g>
<mask id="mask2_958_16309" style="mask-type:luminance" maskUnits="userSpaceOnUse" x="0" y="62" width="116" height="9">
<path d="M0.358398 62.1889V70.316H1.78872V67.0068H5.8924V65.7058H1.78872V63.4881H6.41752V62.1889H0.358398ZM7.71013 70.316H9.13862V62.1889H7.71013V70.316ZM12.383 63.4881H14.467C15.5246 63.4881 16.1525 63.9655 16.1525 64.8347V64.8603C16.1525 65.6821 15.4989 66.2178 14.478 66.2178H12.383V63.4899V63.4881ZM10.9545 62.1889V70.316H12.383V67.4824H14.1769L16.1764 70.316H17.8619L15.6659 67.2383C16.8062 66.9139 17.6067 66.1121 17.6067 64.7764V64.7527C17.6067 64.0439 17.3625 63.4407 16.931 62.9998C16.4096 62.4877 15.6054 62.1871 14.5826 62.1871H10.9545V62.1889ZM25.3275 62.1889V63.5118H27.909V70.316H29.3504V63.5118H31.9319V62.1889H25.3257H25.3275ZM49.7476 62.1889V65.5673H45.8642V62.1889H44.4339V70.316H45.8642V66.8902H49.7476V70.316H51.1797V62.1889H49.7476ZM62.5195 70.316H63.948V62.1889H62.5195V70.316ZM73.9841 62.1889V70.316H80.0781V69.0386H75.4144V66.8556H79.496V65.58H75.4144V63.4663H80.0193V62.1889H73.9841ZM103.02 63.4881H105.104C106.162 63.4881 106.79 63.9655 106.79 64.8347V64.8603C106.79 65.6821 106.14 66.2178 105.115 66.2178H103.02V63.4899V63.4881ZM101.592 62.1889V70.316H103.02V67.4824H104.812L106.813 70.316H108.499L106.303 67.2383C107.441 66.9139 108.244 66.1121 108.244 64.7764V64.7527C108.244 64.0439 108.001 63.4407 107.568 62.9998C107.045 62.4877 106.244 62.1871 105.222 62.1871H101.593L101.592 62.1889ZM96.289 63.8362L97.6954 67.087H94.8936L96.289 63.8362ZM95.6482 62.1287L92.0678 70.316H93.533L94.3703 68.3535H98.2187L99.045 70.316H100.554L96.9739 62.1287H95.6482ZM18.7818 64.4284V64.4521C18.7818 65.9499 19.7586 66.4602 21.4919 66.8793C23.003 67.2273 23.328 67.5407 23.328 68.122V68.1439C23.328 68.7598 22.7716 69.1662 21.8866 69.1662C20.875 69.1662 20.0964 68.7835 19.3179 68.1111L18.4568 69.1315C19.4336 70.0026 20.6069 70.4326 21.8518 70.4326C23.5593 70.4326 24.7583 69.527 24.7583 68.0054V67.9835C24.7583 66.6369 23.8623 66.021 22.1419 65.6037C20.5849 65.232 20.2121 64.9532 20.2121 64.3263V64.3045C20.2121 63.7706 20.7024 63.3405 21.5378 63.3405C22.2814 63.3405 23.0158 63.6303 23.7484 64.1751L24.5159 63.0963C23.6897 62.4349 22.7478 62.0741 21.5617 62.0741C19.9459 62.0741 18.7836 63.038 18.7836 64.4302M109.421 64.4302V64.4539C109.421 65.9518 110.396 66.462 112.129 66.8811C113.642 67.2291 113.969 67.5426 113.969 68.1239V68.1457C113.969 68.7616 113.411 69.168 112.526 69.168C111.516 69.168 110.737 68.7853 109.957 68.1129L109.096 69.1334C110.073 70.0044 111.246 70.4344 112.491 70.4344C114.2 70.4344 115.397 69.5288 115.397 68.0072V67.9854C115.397 66.6387 114.503 66.0228 112.783 65.6055C111.226 65.2338 110.853 64.955 110.853 64.3282V64.3063C110.853 63.7724 111.341 63.3423 112.177 63.3423C112.92 63.3423 113.653 63.6321 114.386 64.1769L115.153 63.0982C114.327 62.4367 113.387 62.0759 112.201 62.0759C110.585 62.0759 109.423 63.0399 109.423 64.432M35.8575 66.2561V66.2798C35.8575 68.6122 37.6238 70.4581 39.9961 70.4581C41.52 70.4581 42.4491 69.9005 43.2974 69.0186L42.3793 68.0892C41.6816 68.7398 41.0427 69.1461 40.042 69.1461C38.485 69.1461 37.3558 67.8451 37.3558 66.2543V66.2324C37.3558 64.6416 38.4831 63.3642 40.042 63.3642C40.9729 63.3642 41.6706 63.7706 42.3224 64.3737L43.2405 63.3168C42.462 62.5734 41.5549 62.0504 40.0548 62.0504C37.589 62.0504 35.8557 63.9419 35.8557 66.2543M54.0551 66.2543V66.2324C54.0551 64.6507 55.1824 63.3642 56.8 63.3642C58.4176 63.3642 59.567 64.6762 59.567 66.2543V66.2779C59.567 67.856 58.4397 69.1443 56.8221 69.1443C55.2045 69.1443 54.0551 67.8323 54.0551 66.2524M52.555 66.2524V66.2761C52.555 68.5612 54.2993 70.4545 56.7982 70.4545C59.2971 70.4545 61.0653 68.5393 61.0653 66.2506V66.2287C61.0653 63.94 59.321 62.0486 56.8221 62.0486C54.3231 62.0486 52.555 63.9637 52.555 66.2524ZM65.4058 66.2524V66.2761C65.4058 68.6086 67.1722 70.4545 69.5444 70.4545C71.0684 70.4545 71.9993 69.8969 72.8475 69.0149L71.9295 68.0856C71.2318 68.7361 70.591 69.1425 69.5903 69.1425C68.0333 69.1425 66.9059 67.8414 66.9059 66.2506V66.2287C66.9059 64.6379 68.0351 63.3606 69.5903 63.3606C70.523 63.3606 71.2189 63.7669 71.8707 64.3701L72.7888 63.3132C72.0084 62.5697 71.1032 62.0467 69.6031 62.0467C67.1391 62.0467 65.4058 63.9382 65.4058 66.2506M84.1873 66.2506V66.2743C84.1873 68.6067 85.9554 70.4527 88.3277 70.4527C89.848 70.4527 90.7807 69.8951 91.629 69.0131L90.7109 68.0838C90.0132 68.7343 89.3742 69.1407 88.3736 69.1407C86.8147 69.1407 85.6874 67.8396 85.6874 66.2488V66.2269C85.6874 64.6361 86.8147 63.3587 88.3736 63.3587C89.3045 63.3587 90.0004 63.7651 90.654 64.3683L91.5721 63.3114C90.7936 62.5679 89.8847 62.0449 88.3846 62.0449C85.9205 62.0449 84.1873 63.9364 84.1873 66.2488" fill="white"/>
</mask>
<g mask="url(#mask2_958_16309)">
<path d="M115.392 62.0486H0.358398V70.4545H115.392V62.0486Z" fill="url(#paint2_linear_958_16309)"/>
</g>
<path d="M117.209 58.8194C117.308 58.8103 117.439 58.8048 117.593 58.8048C118.072 58.8048 118.313 58.9524 118.313 59.2494C118.313 59.5465 118.094 59.6995 117.657 59.6995H117.211V58.8212L117.209 58.8194ZM116.844 58.577V61.0862H117.209V59.9765H117.674C118.048 59.9765 118.289 60.3464 118.392 61.0862H118.757C118.695 60.7018 118.625 60.423 118.544 60.2517C118.467 60.0786 118.355 59.9492 118.212 59.8599C118.513 59.7323 118.665 59.521 118.665 59.2276C118.665 59.0071 118.568 58.8322 118.375 58.7028C118.181 58.5734 117.92 58.5096 117.591 58.5096C117.371 58.5096 117.121 58.5333 116.844 58.577ZM115.742 59.8016C115.742 58.7392 116.611 57.8773 117.681 57.8773C118.752 57.8773 119.62 58.7392 119.62 59.8016C119.62 60.8639 118.75 61.7258 117.681 61.7258C116.613 61.7258 115.742 60.8621 115.742 59.8016ZM116.04 58.1725C115.601 58.608 115.36 59.1857 115.36 59.8016C115.36 60.4175 115.601 60.9951 116.04 61.4288C116.477 61.8625 117.061 62.103 117.681 62.103C118.302 62.103 118.884 61.8643 119.321 61.4288C119.76 60.9933 120.002 60.4138 120.002 59.8016C120.002 59.1893 119.76 58.608 119.321 58.1725C118.884 57.737 118.3 57.4983 117.681 57.4983C117.062 57.4983 116.477 57.737 116.04 58.1725Z" fill="url(#paint3_linear_958_16309)"/>
<path d="M28.8246 80.1322C28.8246 80.3108 28.7879 80.4675 28.7163 80.6042C28.6447 80.739 28.5455 80.852 28.4189 80.9449C28.2922 81.036 28.1453 81.1071 27.98 81.1545C27.8129 81.2019 27.6367 81.2256 27.4476 81.2256H25.3838V76.9871H27.6697C27.8185 76.9871 27.9525 77.018 28.0718 77.0818C28.1912 77.1456 28.294 77.2276 28.3785 77.3296C28.4629 77.4317 28.5272 77.5465 28.5731 77.6759C28.619 77.8052 28.6429 77.9364 28.6429 78.0676C28.6429 78.2754 28.5915 78.4685 28.4868 78.6489C28.3821 78.8311 28.2297 78.9642 28.0296 79.0516C28.2738 79.1227 28.4684 79.2521 28.6098 79.438C28.753 79.622 28.8228 79.8552 28.8228 80.134L28.8246 80.1322ZM26.2137 77.6904V78.7583H27.3209C27.4604 78.7583 27.5798 78.7109 27.6789 78.6143C27.7781 78.5196 27.8258 78.3884 27.8258 78.2207C27.8258 78.0531 27.7799 77.9273 27.6899 77.8326C27.6 77.7378 27.488 77.6886 27.3558 77.6886H26.2137V77.6904ZM27.9892 79.9773C27.9892 79.9026 27.9764 79.8297 27.9507 79.7587C27.9249 79.6894 27.8901 79.6293 27.846 79.5764C27.8019 79.5254 27.7505 79.4835 27.6899 79.4544C27.6293 79.4252 27.5632 79.4106 27.4916 79.4106H26.2155V80.5258H27.4494C27.5265 80.5258 27.5963 80.5112 27.6624 80.4839C27.7285 80.4547 27.7854 80.4165 27.8331 80.3673C27.8809 80.3181 27.9194 80.2598 27.947 80.1923C27.9745 80.1249 27.9892 80.0539 27.9892 79.9773Z" fill="#231F20"/>
<path d="M31.5806 80.5259C31.777 80.5259 31.9423 80.4858 32.0763 80.4075C32.2103 80.3273 32.3187 80.2253 32.4013 80.0977C32.4839 79.9701 32.5408 79.8244 32.5757 79.6585C32.6088 79.4927 32.6271 79.3233 32.6271 79.1483V76.9872H33.4515V79.1483C33.4515 79.4381 33.4166 79.7114 33.3469 79.9665C33.2771 80.2216 33.1669 80.4439 33.0164 80.6353C32.8658 80.8266 32.673 80.9778 32.4362 81.089C32.1993 81.2001 31.9166 81.2566 31.5879 81.2566C31.2592 81.2566 30.9581 81.1983 30.7194 81.0799C30.4807 80.9633 30.2879 80.8066 30.1392 80.6134C29.9905 80.4202 29.884 80.1961 29.8179 79.941C29.7518 79.6859 29.7188 79.4217 29.7188 79.1465V76.9854H30.5487V79.1465C30.5487 79.3269 30.5652 79.4982 30.6001 79.664C30.635 79.8298 30.6919 79.9756 30.7745 80.1032C30.8571 80.2307 30.9636 80.3328 31.0958 80.4111C31.228 80.4877 31.3914 80.5278 31.5824 80.5278L31.5806 80.5259Z" fill="#231F20"/>
<path d="M35.0694 76.9854L36.1215 79.0262L37.1919 76.9854H38.0879L36.5364 79.7424V81.2238H35.712V79.7314L34.166 76.9854H35.0675H35.0694Z" fill="#231F20"/>
<path d="M40.6348 82.0001V76.5972H41.3196V82.0001H40.6348Z" fill="#231F20"/>
<path d="M46.8295 78.0949C46.802 78.0676 46.7506 78.0293 46.6753 77.982C46.6018 77.9346 46.51 77.8872 46.4054 77.8416C46.2989 77.7961 46.1832 77.7578 46.0602 77.725C45.9353 77.6922 45.8086 77.6776 45.6801 77.6776C45.4524 77.6776 45.2817 77.7196 45.1697 77.8034C45.0577 77.8872 45.0008 78.0056 45.0008 78.1569C45.0008 78.2444 45.0228 78.3172 45.0632 78.3755C45.1054 78.4339 45.166 78.4849 45.2468 78.5268C45.3276 78.5705 45.4286 78.6106 45.5497 78.6452C45.6728 78.6817 45.8141 78.7199 45.9739 78.7582C46.1832 78.8147 46.3723 78.873 46.5431 78.9368C46.7138 79.0006 46.8571 79.0808 46.9764 79.1755C47.0939 79.2703 47.1857 79.3851 47.25 79.5181C47.3142 79.6511 47.3454 79.8151 47.3454 80.0101C47.3454 80.2379 47.3032 80.431 47.2169 80.5932C47.1306 80.7536 47.015 80.8847 46.8681 80.985C46.7212 81.0834 46.5523 81.1563 46.3631 81.2036C46.1722 81.2492 45.9739 81.2729 45.7646 81.2729C45.4433 81.2729 45.1274 81.2255 44.8135 81.1289C44.4995 81.0324 44.2204 80.8975 43.9707 80.7226L44.3379 80.0119C44.3746 80.0483 44.4389 80.0939 44.5325 80.1522C44.6262 80.2105 44.7382 80.267 44.8667 80.3253C44.9952 80.3836 45.1366 80.431 45.2945 80.4711C45.4506 80.5112 45.6122 80.5312 45.7756 80.5312C46.2328 80.5312 46.4605 80.3855 46.4605 80.0957C46.4605 80.0046 46.4347 79.9263 46.3815 79.8625C46.3301 79.7987 46.2548 79.7422 46.1593 79.6948C46.0639 79.6475 45.9463 79.6037 45.8105 79.5636C45.6746 79.5236 45.5222 79.4798 45.3533 79.4324C45.1495 79.376 44.9714 79.3158 44.8208 79.2502C44.6703 79.1846 44.5454 79.1063 44.4444 79.017C44.3434 78.9277 44.2682 78.8238 44.2186 78.7054C44.169 78.5888 44.1433 78.4484 44.1433 78.2844C44.1433 78.0694 44.1837 77.8781 44.2626 77.7104C44.3434 77.5428 44.4536 77.4043 44.5968 77.2932C44.74 77.182 44.9053 77.0982 45.0926 77.0399C45.2817 76.9816 45.4836 76.9524 45.7003 76.9524C46.0014 76.9524 46.2787 76.9998 46.5302 77.0927C46.7836 77.1875 47.0039 77.2968 47.1931 77.4244L46.8258 78.0931L46.8295 78.0949Z" fill="#231F20"/>
<path d="M51.2378 80.5022V81.2238H48.2725V76.9854H51.1845V77.707H49.1024V78.7274H50.9018V79.3961H49.1024V80.5004H51.2378V80.5022Z" fill="#231F20"/>
<path d="M52.1895 81.2238V76.9854H53.0194V80.5004H55.197V81.222H52.1895V81.2238Z" fill="#231F20"/>
<path d="M56.0029 81.2238V76.9854H56.8328V80.5004H59.0105V81.222H56.0029V81.2238Z" fill="#231F20"/>
<path d="M61.5918 82.0001V76.5972H62.2767V82.0001H61.5918Z" fill="#231F20"/>
<path d="M68.4364 77.707H67.0704V81.2238H66.2459V77.707H64.8799V76.9854H68.4346V77.707H68.4364Z" fill="#231F20"/>
<path d="M69.2666 81.2238V76.9854H71.1559C71.3524 76.9854 71.5342 77.0254 71.7013 77.1074C71.8684 77.1894 72.0116 77.297 72.1309 77.43C72.2503 77.563 72.3457 77.7142 72.4137 77.8837C72.4816 78.0532 72.5147 78.2226 72.5147 78.3939C72.5147 78.6691 72.4449 78.9187 72.3072 79.1429C72.1695 79.367 71.9822 79.5292 71.7453 79.6294L72.7203 81.2238H71.7876L70.9154 79.8025H70.0965V81.2238H69.2666ZM70.0965 79.0809H71.1376C71.2129 79.0809 71.2845 79.0627 71.3506 79.0262C71.4167 78.9898 71.4736 78.9406 71.5213 78.8805C71.5691 78.8185 71.6076 78.7456 71.6352 78.6618C71.6627 78.578 71.6774 78.4887 71.6774 78.3939C71.6774 78.2992 71.6609 78.2026 71.6297 78.1188C71.5984 78.035 71.5544 77.9621 71.5011 77.9001C71.4461 77.8381 71.3855 77.7908 71.3138 77.7561C71.2422 77.7215 71.1725 77.7051 71.1009 77.7051H70.0965V79.0791V79.0809Z" fill="#231F20"/>
<path d="M74.7819 76.9854H75.5164L77.1413 81.2238H76.2875L75.8909 80.167H74.3982L74.0071 81.2238H73.1533L74.7838 76.9854H74.7819ZM75.7385 79.5875L75.1492 77.922L74.5359 79.5875H75.7385Z" fill="#231F20"/>
<path d="M77.9111 81.2238V76.9854H79.4626C79.8115 76.9854 80.1181 77.04 80.3807 77.153C80.6432 77.2641 80.8617 77.4154 81.0398 77.6067C81.2161 77.7981 81.3483 78.0222 81.4364 78.2791C81.5246 78.5361 81.5686 78.8094 81.5686 79.0991C81.5686 79.4217 81.5191 79.7132 81.4218 79.9738C81.3244 80.2344 81.1812 80.4567 80.9976 80.6425C80.8122 80.8284 80.5918 80.9706 80.3329 81.0726C80.0741 81.1746 79.784 81.2257 79.4626 81.2257H77.9111V81.2238ZM80.7314 79.0991C80.7314 78.8969 80.7038 78.7092 80.6469 78.5379C80.59 78.3666 80.5092 78.219 80.4009 78.0951C80.2926 77.9712 80.1585 77.8764 80.0006 77.809C79.8427 77.7416 79.6628 77.707 79.4626 77.707H78.7411V80.5004H79.4626C79.6683 80.5004 79.8482 80.464 80.008 80.3929C80.1659 80.3218 80.2981 80.2234 80.4046 80.0977C80.5111 79.972 80.5918 79.8244 80.6488 79.6531C80.7057 79.4818 80.7332 79.2959 80.7332 79.0973L80.7314 79.0991Z" fill="#231F20"/>
<path d="M85.4829 80.5022V81.2238H82.5176V76.9854H85.4296V77.707H83.3475V78.7274H85.1469V79.3961H83.3475V80.5004H85.4829V80.5022Z" fill="#231F20"/>
<path d="M86.3389 79.9465V79.2249H88.1603V79.9465H86.3389Z" fill="#231F20"/>
<path d="M89.249 81.2238V76.9854H90.0789V81.2238H89.249Z" fill="#231F20"/>
<path d="M92.1004 78.5086V81.2256H91.2705V76.9871H91.9131L94.1385 79.7678V76.9925H94.9684V81.2256H94.2946L92.0986 78.5086H92.1004Z" fill="#231F20"/>
</g>
<defs>
<linearGradient id="paint0_linear_958_16309" x1="1.23416" y1="26.6517" x2="113.421" y2="26.6517" gradientUnits="userSpaceOnUse">
<stop stop-color="#683C22"/>
<stop offset="0.24" stop-color="#683C22"/>
<stop offset="0.59" stop-color="#744928"/>
<stop offset="1" stop-color="#624031"/>
</linearGradient>
<linearGradient id="paint1_linear_958_16309" x1="0.378071" y1="26.1563" x2="115.274" y2="26.1563" gradientUnits="userSpaceOnUse">
<stop stop-color="#E8C77C"/>
<stop offset="0.24" stop-color="#A88140"/>
<stop offset="0.41" stop-color="#D0AE68"/>
<stop offset="0.59" stop-color="#906A30"/>
<stop offset="1" stop-color="#E8CA87"/>
</linearGradient>
<linearGradient id="paint2_linear_958_16309" x1="0.348447" y1="66.8115" x2="115.238" y2="66.8115" gradientUnits="userSpaceOnUse">
<stop stop-color="#E8C77C"/>
<stop offset="0.24" stop-color="#A88140"/>
<stop offset="0.41" stop-color="#D0AE68"/>
<stop offset="0.59" stop-color="#906A30"/>
<stop offset="1" stop-color="#E8CA87"/>
</linearGradient>
<linearGradient id="paint3_linear_958_16309" x1="117.681" y1="62.103" x2="117.681" y2="57.4965" gradientUnits="userSpaceOnUse">
<stop stop-color="#E8C77C"/>
<stop offset="0.45" stop-color="#D0AE68"/>
<stop offset="1" stop-color="#E8CA87"/>
</linearGradient>
<clipPath id="clip0_958_16309">
<rect width="120" height="82" fill="white"/>
</clipPath>
</defs>
</svg>
