<svg width="22" height="16" viewBox="0 0 22 16" fill="none" xmlns="http://www.w3.org/2000/svg">
<g clip-path="url(#clip0_1_362)">
<path d="M0 11.5275C0 5.90155 4.14651 0.872248 9.72323 0.0993839C14.4194 -0.5513 18.9875 2.02302 21.1168 6.49256C21.3036 6.88752 21.2582 7.03243 20.8767 7.17734C20.2763 7.4075 19.6919 7.68312 19.1129 7.96442C18.8541 8.08944 18.7127 8.07523 18.5206 7.81098C16.2365 4.64849 13.2027 3.21926 9.47774 3.53749C5.32323 3.89267 1.65967 7.38477 0.781807 11.7407C0.608369 12.5988 0.520315 13.4654 0.522984 14.3434C0.522984 14.4656 0.629715 14.6844 0.416252 14.6929C0.250819 14.6986 0.269497 14.4741 0.242814 14.3434C0.0800485 13.5336 0.00533657 12.7124 0 11.5219L0 11.5275Z" fill="#B49758"/>
<path d="M2.04126 14.7186C1.78244 14.7186 1.51828 14.6873 1.26479 14.7243C0.824524 14.7896 0.76849 14.5651 0.792504 14.1673C1.08868 9.25169 4.1332 5.38737 8.68262 4.48096C12.621 3.69673 15.8603 5.13733 18.3365 8.5044C18.5233 8.76013 18.4726 8.82264 18.2244 8.97324C17.7761 9.24601 17.4613 9.22612 17.2078 8.70898C17.0424 8.37086 16.8342 8.35381 16.6074 8.67205C16.506 8.81128 16.3699 8.92209 16.2499 9.04711C15.8069 9.50742 15.6602 9.47901 15.3053 8.92209C15.1959 8.75161 15.2973 8.69194 15.38 8.60669C15.5855 8.39075 15.7803 8.15775 16.0044 7.96738C16.2766 7.73438 16.2125 7.58378 15.967 7.38489C15.3106 6.8507 14.6142 6.39607 13.8564 6.04374C13.6056 5.92724 13.4749 5.94429 13.4001 6.25116C13.3201 6.57792 13.2107 6.899 13.1013 7.21724C13.0479 7.37068 13.0346 7.56958 12.7678 7.45592C12.5303 7.35647 12.6237 7.21724 12.669 7.07517C12.7784 6.72284 12.8932 6.3705 13.0106 6.02101C13.0746 5.83347 13.0453 5.71698 12.8425 5.66583C12.3088 5.53228 11.7752 5.41579 11.2282 5.3618C10.9934 5.33907 10.892 5.41579 10.9106 5.6772C10.924 5.90167 10.9106 6.13182 10.9053 6.35913C10.9 6.92173 10.6438 7.10927 10.1395 6.93878C9.99542 6.89048 9.99808 6.79103 9.99808 6.68021C9.99808 6.4046 9.97674 6.12614 10.0088 5.85336C10.0568 5.44136 9.92337 5.30497 9.5338 5.37316C8.82938 5.49819 8.13295 5.65162 7.45788 5.91303C7.21506 6.0068 7.14302 6.10057 7.2711 6.36198C7.42853 6.67453 7.54593 7.00982 7.69002 7.3309C7.77007 7.50991 7.75406 7.62072 7.56461 7.71165C7.37249 7.80541 7.33247 7.68608 7.27377 7.544C7.13502 7.20303 6.97759 6.87059 6.84951 6.52394C6.77213 6.31367 6.68674 6.24548 6.48662 6.36482C5.91561 6.70863 5.36861 7.08654 4.86431 7.53548C4.6882 7.69176 4.69087 7.79973 4.84563 7.95885C5.05375 8.17196 5.22986 8.43053 5.45666 8.61238C5.7902 8.88231 5.59542 9.04143 5.39796 9.23749C5.20851 9.42502 5.05109 9.68643 4.8056 9.3C4.72289 9.16645 4.59748 9.067 4.48808 8.9505C4.14832 8.58301 3.8299 8.61238 3.53283 9.03859C3.22598 9.48185 2.96182 9.95636 2.71634 10.4422C2.60961 10.6554 2.60427 10.7775 2.85242 10.8713C3.16728 10.9878 3.46612 11.1526 3.77565 11.2833C3.91973 11.3458 4.0238 11.3998 3.94642 11.5987C3.86904 11.7948 3.76764 11.8175 3.5942 11.7266C3.33538 11.593 3.04987 11.5106 2.80172 11.36C2.50287 11.1782 2.35879 11.2322 2.26006 11.593C2.05994 12.3261 1.89451 13.062 1.83314 13.8235C1.81179 14.0707 1.8785 14.1446 2.09463 14.1418C2.41482 14.1389 2.73501 14.1617 3.05521 14.156C3.26867 14.1531 3.34872 14.2355 3.34605 14.4685C3.34605 14.7186 3.20463 14.71 3.0472 14.7072C2.711 14.7072 2.37747 14.7072 2.04126 14.7072V14.7186Z" fill="#B49758"/>
<path d="M22 8.05814C21.8772 8.34797 21.6344 8.49288 21.4183 8.652C19.4011 10.1352 17.2558 11.3996 15.1238 12.684C13.3494 13.7523 11.559 14.7866 9.77124 15.8266C9.28828 16.1079 8.82133 16.0397 8.46645 15.6788C8.11957 15.3265 8.01017 14.798 8.18895 14.3405C8.28767 14.0905 8.44777 13.8944 8.67724 13.7836C12.8478 11.7861 16.9889 9.71753 21.3169 8.11781C21.517 8.04393 21.7358 7.91607 21.9973 8.0553L22 8.05814Z" fill="#B49758"/>
<path d="M17.1677 11.9965C17.1277 11.7976 17.2398 11.7749 17.3091 11.7323C17.9175 11.3686 18.5339 11.0191 19.1369 10.644C19.3584 10.5048 19.4384 10.5588 19.5265 10.7974C19.9507 11.9539 20.1615 13.153 20.2042 14.389C20.2122 14.6447 20.1268 14.7271 19.8894 14.7214C19.2516 14.7072 18.6139 14.7072 17.9735 14.7214C17.7307 14.7271 17.664 14.6334 17.664 14.3862C17.664 14.1191 17.7281 14.0026 17.9975 14.0253C18.2857 14.048 18.5766 14.0196 18.8621 14.0395C19.1102 14.0565 19.1769 13.9543 19.1556 13.7042C19.0942 12.991 18.9448 12.3034 18.742 11.6243C18.67 11.3799 18.5606 11.3913 18.3711 11.4794C17.9789 11.6641 17.5733 11.8232 17.1677 11.9937V11.9965Z" fill="#B49758"/>
</g>
<defs>
<clipPath id="clip0_1_362">
<rect width="22" height="16" fill="white"/>
</clipPath>
</defs>
</svg>
