<svg width="20" height="20" viewBox="0 0 20 20" fill="none" xmlns="http://www.w3.org/2000/svg">
<path d="M5.97309 11.1358C6.86024 11.1358 7.74739 11.139 8.63136 11.1327C8.80942 11.1327 8.8762 11.1677 8.87302 11.3617C8.86348 12.4366 8.86666 13.5147 8.87302 14.5897C8.87302 14.7391 8.82532 14.8282 8.70449 14.9172C7.94771 15.477 7.62656 16.2434 7.79508 17.1625C7.96679 18.0785 8.53915 18.6859 9.44855 18.9276C10.4947 19.2043 11.579 18.6859 12.0401 17.7096C12.5011 16.7396 12.2054 15.5692 11.3278 14.9363C11.1783 14.8314 11.1306 14.7232 11.1306 14.5483C11.137 13.4797 11.137 12.4112 11.1306 11.3426C11.1306 11.1804 11.1688 11.1263 11.3405 11.1295C12.6951 11.1358 14.0465 11.1358 15.401 11.1295C15.5887 11.1295 15.6204 11.1899 15.6204 11.3585C15.6141 12.4271 15.6141 13.4956 15.6204 14.5642C15.6204 14.7328 15.5664 14.8314 15.4328 14.93C14.6856 15.4897 14.374 16.2498 14.5457 17.1594C14.7174 18.0785 15.2898 18.6827 16.1992 18.9244C17.2453 19.2011 18.3328 18.6827 18.7907 17.7064C19.2517 16.7268 18.9592 15.5692 18.0816 14.9363C17.9353 14.8314 17.8813 14.7296 17.8813 14.5515C17.8876 11.5207 17.8876 8.48665 17.8813 5.45581C17.8813 5.28408 17.9194 5.17276 18.072 5.06463C18.902 4.4731 19.2199 3.41087 18.867 2.47268C18.5108 1.53449 17.5696 0.923869 16.5998 1.00974C15.5378 1.10515 14.7047 1.8239 14.5362 2.85432C14.3867 3.76707 14.692 4.52398 15.4424 5.08054C15.5632 5.16958 15.6204 5.24909 15.6204 5.40493C15.6141 6.48941 15.6141 7.5739 15.6204 8.65839C15.6204 8.82058 15.5823 8.87465 15.4106 8.87465C14.056 8.86829 12.7046 8.86829 11.35 8.87465C11.1624 8.87465 11.1306 8.81422 11.1306 8.64567C11.137 7.57072 11.137 6.49259 11.1306 5.41765C11.1306 5.26817 11.1752 5.17913 11.2992 5.09008C12.0591 4.53034 12.3803 3.76707 12.2086 2.84796C12.0369 1.92885 11.4645 1.32459 10.5551 1.08288C9.50897 0.803017 8.42785 1.32141 7.96361 2.29776C7.50255 3.26776 7.79508 4.43811 8.6727 5.07099C8.81896 5.17595 8.86984 5.2809 8.86984 5.45899C8.86348 6.52758 8.86348 7.59616 8.86984 8.66475C8.86984 8.82376 8.83486 8.88101 8.66316 8.88101C7.30222 8.87465 5.94129 8.87465 4.58036 8.88101C4.42137 8.88101 4.38321 8.82694 4.38321 8.67747C4.38957 7.57708 4.38957 6.47669 4.38321 5.3763C4.38321 5.21729 4.46907 5.16004 4.57082 5.08054C5.3117 4.51444 5.62967 3.75753 5.46115 2.85114C5.28944 1.93203 4.71709 1.32777 3.80768 1.08288C2.76154 0.796657 1.68361 1.31187 1.21936 2.2914C0.755118 3.26458 1.04448 4.42857 1.92527 5.06145C2.08425 5.17595 2.12559 5.29044 2.12559 5.47171C2.11923 6.9442 2.12241 8.41668 2.12559 9.88917C2.12559 10.662 2.59619 11.1358 3.36251 11.1358C4.23376 11.1358 5.10502 11.1358 5.97309 11.1358Z" stroke="#B49758"/>
</svg>
