<svg width="22" height="16" viewBox="0 0 22 16" fill="none" xmlns="http://www.w3.org/2000/svg">
<g clip-path="url(#clip0_1_380)">
<path d="M22 12.3932C21.8697 12.6016 21.6777 12.6732 21.414 12.6667C20.8996 12.6537 20.382 12.6667 19.8677 12.6634C19.5291 12.6634 19.3533 12.5104 19.3501 12.2012C19.3436 11.7519 19.3403 11.2994 19.3501 10.8502C19.3533 10.6972 19.2752 10.6874 19.145 10.6907C19.0148 10.6907 18.8943 10.6809 18.9236 10.8534C19.0375 11.5598 18.6957 12.0709 18.1358 12.5462C17.2015 13.3406 16.316 14.187 15.4208 15.0203C15.105 15.3133 14.7404 15.4435 14.2912 15.4403C12.5072 15.4338 10.7265 15.4338 8.94255 15.4403C8.46726 15.4403 8.08638 15.297 7.77711 14.965C7.21718 14.3627 6.63447 13.7768 6.07128 13.1778C5.98339 13.0834 5.89549 13.0476 5.76202 13.0508C5.43973 13.0573 5.11745 13.0573 4.79517 13.0508C4.13106 13.0345 3.53858 12.5039 3.5223 11.9082C3.51254 11.5598 3.50928 11.2115 3.5223 10.8664C3.52881 10.7167 3.47347 10.6744 3.31396 10.6874C3.1577 10.7004 2.99818 10.7004 2.84192 10.6874C2.67264 10.6744 2.64009 10.7362 2.64335 10.873C2.64986 11.4199 2.6466 11.9668 2.64335 12.5137C2.64335 12.9304 2.50662 13.0541 2.0411 13.0541C1.52674 13.0541 1.00913 13.0541 0.49478 13.0541C0.156219 13.0541 -0.0032959 12.9076 -0.0032959 12.6048C-0.0032959 10.5311 -0.0032959 8.46071 -0.0032959 6.38702C-0.0032959 6.08426 0.152963 5.94103 0.49478 5.93777C1.03843 5.93777 1.58208 5.93777 2.12574 5.93777C2.47406 5.93777 2.63683 6.08426 2.64009 6.40004C2.64335 6.96648 2.6466 7.53292 2.64009 8.09936C2.64009 8.25236 2.67264 8.32724 2.86146 8.30445C3.07306 8.28166 3.34651 8.38258 3.47998 8.26213C3.60369 8.14819 3.50928 7.90729 3.51579 7.72173C3.5223 7.54268 3.51579 7.36038 3.51579 7.18133C3.5223 6.47491 4.092 5.95405 4.87655 5.93451C5.17605 5.928 5.4788 5.928 5.7783 5.93451C5.90526 5.93451 5.98664 5.89871 6.07128 5.81081C6.654 5.19879 7.24323 4.59329 7.82269 3.98127C8.10265 3.68829 8.45098 3.55156 8.87744 3.55156C9.52201 3.55156 10.1666 3.54831 10.8111 3.55482C10.9641 3.55482 11.0065 3.51575 11 3.38228C10.9869 3.10557 10.9902 2.82886 11 2.55215C11.0065 2.41868 10.9641 2.37636 10.8111 2.37962C10.3228 2.38938 9.83778 2.38287 9.34947 2.37962C8.95557 2.37962 8.79605 2.23963 8.79605 1.89131C8.79605 1.41602 8.79605 0.937474 8.79605 0.462186C8.79605 0.13339 8.95882 -0.0065918 9.32343 -0.0065918C11.3222 -0.0065918 13.3178 -0.0065918 15.3166 -0.0065918C15.6715 -0.0065918 15.8407 0.149667 15.844 0.468697C15.844 0.943985 15.844 1.42253 15.844 1.89782C15.844 2.22336 15.6682 2.37636 15.2971 2.37962C14.8088 2.37962 14.3237 2.38613 13.8354 2.37962C13.6889 2.37962 13.6336 2.40892 13.6401 2.5489C13.6531 2.81259 13.6531 3.07627 13.6401 3.33996C13.6303 3.50599 13.6792 3.55807 13.8745 3.55482C15.1278 3.54505 16.3811 3.54831 17.6345 3.55156C18.2432 3.55156 18.7185 3.8771 18.878 4.3882C18.9236 4.53144 18.9236 4.68119 18.9236 4.82768C18.9236 5.65781 18.9269 6.48793 18.9236 7.31806C18.9236 7.46455 18.9627 7.5199 19.1385 7.51664C19.3077 7.51664 19.3566 7.47106 19.3533 7.31806C19.3436 6.88835 19.3468 6.45538 19.3533 6.02567C19.3533 5.68385 19.5226 5.52759 19.9035 5.52759C20.3983 5.52759 20.8931 5.53736 21.3847 5.52433C21.6484 5.51782 21.8567 5.58293 22.0032 5.78477V12.3867L22 12.3932ZM21.108 9.10528C21.108 8.24259 21.1047 7.37991 21.1112 6.51723C21.1112 6.36097 21.0591 6.31214 20.8931 6.32842C20.7499 6.34144 20.6066 6.34144 20.4634 6.32842C20.2909 6.31214 20.229 6.35772 20.2323 6.527C20.2453 6.96973 20.2388 7.41572 20.2355 7.85846C20.2355 8.16446 20.0793 8.3077 19.7375 8.31096C19.3566 8.31421 18.9789 8.31096 18.5981 8.31096C18.1716 8.31096 18.0349 8.184 18.0316 7.80311C18.0316 6.80696 18.0316 5.80755 18.0316 4.8114C18.0316 4.46307 17.9177 4.36216 17.5335 4.36216C14.6623 4.36216 11.791 4.36216 8.91976 4.36216C8.71467 4.36216 8.57143 4.42075 8.44121 4.56074C7.81618 5.22158 7.17812 5.87592 6.55308 6.53676C6.42287 6.67675 6.26986 6.74185 6.06803 6.7386C5.68714 6.73534 5.30952 6.7386 4.92864 6.7386C4.59659 6.7386 4.40452 6.90788 4.40126 7.20087C4.40126 8.7309 4.40126 10.2642 4.40126 11.7942C4.40126 12.0937 4.58356 12.2565 4.91887 12.2598C5.29975 12.2598 5.67738 12.2598 6.05826 12.2598C6.25684 12.2598 6.4131 12.3184 6.54657 12.4583C7.17812 13.1224 7.81943 13.7833 8.45098 14.4474C8.57794 14.5809 8.71792 14.6395 8.91325 14.6395C10.7102 14.6362 12.5072 14.6362 14.3042 14.6395C14.4995 14.6395 14.6428 14.5874 14.7795 14.4637C15.7984 13.5229 16.8239 12.5886 17.8493 11.6543C17.9795 11.5371 18.0381 11.4036 18.0349 11.2408C18.0284 10.9316 18.0284 10.6223 18.0349 10.313C18.0414 10.0461 18.2107 9.89308 18.5004 9.88983C18.9236 9.88657 19.3468 9.88657 19.7668 9.88983C20.0565 9.89308 20.229 10.0526 20.2323 10.3163C20.2355 10.6386 20.2323 10.9609 20.2323 11.2799C20.2323 11.4654 20.1444 11.7063 20.2681 11.8203C20.4016 11.9407 20.675 11.8398 20.8866 11.8626C21.0787 11.8854 21.1047 11.8073 21.1047 11.6543C21.0982 10.8046 21.1015 9.95494 21.1015 9.10528H21.108ZM0.888684 9.47639C0.888684 10.2023 0.885429 10.9283 0.888684 11.6575C0.888684 11.8528 0.787767 12.11 0.937515 12.2272C1.08075 12.3411 1.36397 12.2467 1.58208 12.263C1.72532 12.2728 1.76113 12.2239 1.76113 12.097C1.75462 11.524 1.75788 10.9511 1.76113 10.3814C1.76113 10.02 1.91088 9.88657 2.32106 9.88657C2.66288 9.88657 3.00795 9.88006 3.34977 9.88657C3.47998 9.88657 3.52556 9.85402 3.51905 9.73357C3.50928 9.57405 3.50928 9.41128 3.51905 9.25177C3.52881 9.12806 3.47022 9.10202 3.34651 9.10202C2.98191 9.10853 2.6173 9.10528 2.2527 9.10202C1.93367 9.10202 1.76113 8.94251 1.76113 8.65929C1.76113 8.21004 1.76439 7.75754 1.76113 7.30829C1.76113 7.11948 1.85554 6.86881 1.71556 6.75488C1.57883 6.64419 1.30538 6.7386 1.09052 6.71907C0.927749 6.70605 0.885429 6.76139 0.885429 6.90462C0.891939 7.76079 0.888684 8.61371 0.888684 9.46988V9.47639ZM12.3217 0.804003C11.5045 0.804003 10.6907 0.804003 9.87359 0.804003C9.73035 0.804003 9.66525 0.833302 9.67501 0.973284C9.68803 1.12629 9.68478 1.28255 9.67501 1.43555C9.6685 1.556 9.71733 1.58855 9.84755 1.58855C10.3261 1.58204 10.8079 1.58855 11.2864 1.58855C11.7389 1.58855 11.8854 1.72203 11.8854 2.13546C11.8854 2.55866 11.8887 2.98512 11.8854 3.40832C11.8854 3.52226 11.918 3.57109 12.0547 3.56133C12.2272 3.55156 12.3998 3.55156 12.5691 3.56133C12.7156 3.57109 12.7676 3.53203 12.7644 3.39205C12.7546 2.9428 12.7579 2.4903 12.7644 2.04106C12.7644 1.7383 12.9304 1.58855 13.2625 1.5853C13.6075 1.5853 13.9494 1.5853 14.2944 1.5853C14.506 1.5853 14.7892 1.66668 14.9162 1.55275C15.0529 1.42904 14.939 1.17512 14.9618 0.979795C14.9813 0.823535 14.9064 0.804003 14.7534 0.804003C13.9461 0.810514 13.1355 0.804003 12.3249 0.804003H12.3217Z" fill="#B49758"/>
<path d="M14.0894 9.22905C12.9174 10.8405 11.7813 12.4031 10.6452 13.9657C10.6321 13.9591 10.6159 13.9526 10.6028 13.9429C10.7558 13.4773 10.9088 13.0118 11.0651 12.5463C11.3125 11.8008 11.5599 11.0553 11.8138 10.3131C11.8659 10.1601 11.8594 10.1048 11.6706 10.108C11.0684 10.121 10.4694 10.108 9.86711 10.1145C9.70434 10.1145 9.68806 10.0787 9.75968 9.93873C10.4433 8.58122 11.1237 7.21721 11.8041 5.85645C11.8431 5.77832 11.8757 5.70996 11.9864 5.70996C12.6505 5.71647 13.3178 5.71322 13.9819 5.71647C14.0015 5.71647 14.0177 5.72949 14.0633 5.74251C13.3406 6.89818 12.6244 8.04734 11.8887 9.22579H14.0861L14.0894 9.22905Z" fill="#B49758"/>
</g>
<defs>
<clipPath id="clip0_1_380">
<rect width="22" height="15.4404" fill="white"/>
</clipPath>
</defs>
</svg>
