<svg width="16" height="22" viewBox="0 0 16 22" fill="none" xmlns="http://www.w3.org/2000/svg">
<g clip-path="url(#clip0_1_346)">
<path d="M12.9976 16.3419C13.3301 16.2814 13.6496 16.1704 13.9593 16.0292C14.4516 15.8006 14.9438 15.5754 15.4328 15.34C15.5893 15.2661 15.736 15.2493 15.8729 15.3669C16.0066 15.4812 16.0163 15.6292 15.9838 15.7939C15.8012 16.7184 15.6284 17.6496 15.4393 18.5742C15.3122 19.1961 14.9406 19.5928 14.3472 19.7609C14.2592 19.7878 14.2201 19.8214 14.2038 19.9189C13.9854 21.1325 12.9846 21.9898 11.7751 21.9965C10.4711 22.0032 9.16387 21.9965 7.85987 21.9965C6.6765 21.9965 5.49312 21.9797 4.31301 21.9999C2.99272 22.0234 1.9756 21.0518 1.79304 19.8853C1.78326 19.8113 1.7474 19.7844 1.6822 19.7676C1.04977 19.5928 0.678128 19.1726 0.550988 18.5103C0.378209 17.5992 0.19565 16.6848 0.0163508 15.7737C-0.016249 15.6124 0.00331092 15.4712 0.13045 15.3636C0.26411 15.2526 0.407549 15.2627 0.557508 15.3333C1.17691 15.6124 1.78 15.9317 2.4157 16.1771C2.60804 16.2511 2.80364 16.3083 3.0188 16.3385C2.97968 16.2444 2.9047 16.1973 2.84928 16.1368C2.17772 15.3703 1.85498 14.4794 2.01146 13.4473C2.12556 12.6875 2.3016 11.9412 2.43852 11.1848C2.56892 10.4687 2.64716 9.74591 2.65042 9.01303C2.65042 8.20282 2.65042 7.39261 2.59174 6.58577C2.52002 5.57048 3.30567 4.87458 4.14675 4.88803C4.63575 4.89475 5.12801 4.88803 5.62026 4.89139C5.7474 4.89139 5.80608 4.86449 5.7963 4.71657C5.78326 4.45435 5.78978 4.18876 5.7963 3.92654C5.7963 3.83913 5.77674 3.79206 5.6822 3.77189C4.89329 3.59035 4.46623 3.03901 4.46623 2.20526C4.46623 1.96657 4.46623 1.72788 4.46623 1.49255C4.47601 0.672257 5.10192 0.00997131 5.8941 0.00660945C7.29915 -0.00347612 8.70095 -0.000114264 10.106 0.00660945C10.8884 0.00997131 11.5143 0.65881 11.5339 1.46566C11.5404 1.75814 11.5404 2.05398 11.5339 2.34646C11.5143 3.05245 11.0351 3.63405 10.3635 3.76853C10.2429 3.79206 10.2005 3.83577 10.2071 3.96352C10.2168 4.21566 10.2168 4.47116 10.2071 4.7233C10.2038 4.85441 10.2397 4.89811 10.3701 4.89811C10.8656 4.89139 11.3611 4.89139 11.8566 4.89811C12.4956 4.9082 12.978 5.19059 13.2747 5.78228C13.3725 5.97727 13.4149 6.18907 13.4084 6.41431C13.3888 7.28839 13.3464 8.16248 13.3529 9.03992C13.3595 9.97788 13.4964 10.9024 13.6822 11.8202C13.7963 12.3749 13.9234 12.9262 13.9952 13.4877C14.1321 14.55 13.7963 15.4611 13.0758 16.2242C13.0465 16.2545 13.0041 16.278 12.9683 16.3015C12.978 16.3183 12.9878 16.3318 12.9976 16.3486V16.3419ZM8.00005 5.62764C7.46867 5.62764 6.94056 5.62764 6.40918 5.62764C5.66916 5.62764 4.92589 5.63436 4.18587 5.62764C3.74903 5.62427 3.26003 5.92012 3.30893 6.54542C3.35131 7.11022 3.34479 7.67837 3.36109 8.24316C3.37739 8.80459 3.36761 9.36602 3.32849 9.92745C3.26329 10.8587 3.05466 11.7664 2.88514 12.6808C2.81994 13.0338 2.7254 13.3834 2.69932 13.7398C2.6113 14.8627 3.33501 15.9452 4.45971 16.3688C4.48253 16.3789 4.50861 16.3856 4.53143 16.3856C4.58033 16.3856 4.64227 16.3957 4.67161 16.3553C4.71073 16.3049 4.64879 16.2646 4.62271 16.2276C4.23803 15.6224 4.06851 14.9568 4.10763 14.2407C4.18261 12.8825 4.26737 11.5243 4.34887 10.1661C4.39777 9.37275 4.43689 8.57935 4.49557 7.78931C4.54447 7.13039 5.01717 6.63619 5.59092 6.63283C7.19483 6.62947 8.79875 6.63283 10.4059 6.63283C10.6961 6.63283 10.9406 6.74714 11.1427 6.95893C11.397 7.22452 11.498 7.55734 11.5208 7.92042C11.6023 9.27189 11.6871 10.6267 11.7653 11.9782C11.811 12.7144 11.8534 13.454 11.8957 14.1903C11.9349 14.9198 11.7751 15.5955 11.3904 16.2108C11.3644 16.2545 11.2926 16.3015 11.3318 16.352C11.3709 16.4024 11.4491 16.3923 11.5111 16.3789C11.5404 16.3721 11.5665 16.3587 11.5958 16.3486C11.8697 16.2343 12.1272 16.0897 12.3554 15.8914C13.0204 15.3132 13.3823 14.5836 13.2943 13.6793C13.2388 13.1279 13.1084 12.5833 12.9911 12.0421C12.727 10.8049 12.5934 9.55765 12.6357 8.29359C12.6586 7.66156 12.6683 7.02953 12.6846 6.3975C12.6879 6.24286 12.6423 6.10838 12.5575 5.98735C12.3684 5.72513 12.1044 5.631 11.7979 5.631C10.5331 5.631 9.26492 5.631 8.00005 5.631V5.62764ZM0.883507 16.3083C0.850907 16.3755 0.876987 16.4293 0.883507 16.4797C1.00413 17.105 1.12801 17.727 1.24862 18.3523C1.3399 18.833 1.617 19.0683 2.0897 19.0683C6.02776 19.0683 9.96908 19.0683 13.9071 19.0683C14.3766 19.0683 14.6504 18.833 14.7417 18.3657C14.8362 17.8749 14.9373 17.3841 15.0286 16.8932C15.0644 16.7016 15.1199 16.5133 15.1296 16.2948C14.8395 16.4293 14.5689 16.5537 14.2983 16.6814C13.2975 17.1521 12.2543 17.2966 11.1688 17.0916C10.5885 16.984 10.0408 16.752 9.48334 16.557C8.74659 16.3015 8.00005 16.2309 7.23721 16.362C6.68628 16.4562 6.17446 16.6747 5.6496 16.8596C4.28041 17.3437 2.94382 17.2765 1.63004 16.6478C1.38228 16.5301 1.13127 16.4158 0.880247 16.3015L0.883507 16.3083ZM7.99679 12.8287C8.97805 12.8287 9.9593 12.8287 10.9406 12.8287C11.0514 12.8287 11.0938 12.8086 11.0873 12.6775C11.0351 11.9412 10.9895 11.205 10.9503 10.4687C10.9438 10.3544 10.9145 10.3107 10.7971 10.3141C10.419 10.3208 10.0408 10.3141 9.6659 10.3141C8.18587 10.3141 6.70584 10.3141 5.22254 10.3141C5.09541 10.3141 5.05955 10.351 5.05303 10.4822C5.01391 11.2083 4.97153 11.9345 4.91937 12.6606C4.90959 12.8018 4.94871 12.8287 5.07585 12.8287C6.05058 12.8254 7.02857 12.8287 8.00331 12.8287H7.99679ZM8.00331 13.5751C7.00902 13.5751 6.01146 13.5751 5.01717 13.5751C4.89981 13.5751 4.85091 13.6087 4.85091 13.7331C4.85091 13.9045 4.82809 14.076 4.82157 14.2474C4.80201 14.9064 4.95523 15.5081 5.37576 16.0225C5.44748 16.1099 5.51268 16.1402 5.62352 16.0931C5.85172 15.999 6.08644 15.925 6.3179 15.8477C7.16549 15.5552 8.03265 15.4846 8.91611 15.646C9.41814 15.7367 9.88758 15.925 10.3635 16.0931C10.4809 16.1334 10.5494 16.1133 10.6243 16.0191C10.8004 15.7973 10.934 15.5552 11.0318 15.2863C11.2144 14.782 11.1818 14.2643 11.1492 13.7432C11.1427 13.6121 11.1036 13.5751 10.9764 13.5751C9.98538 13.5818 8.99435 13.5751 8.00331 13.5751ZM8.01309 19.808C6.23314 19.808 4.44993 19.808 2.66998 19.808C2.50046 19.808 2.50046 19.808 2.5461 19.976C2.78082 20.7795 3.53387 21.3107 4.35539 21.2603C4.44015 21.2536 4.46623 21.2233 4.46297 21.1426C4.45971 20.951 4.46297 20.7594 4.46297 20.5644C4.46297 20.3223 4.60315 20.171 4.81505 20.1677C5.03021 20.1677 5.17038 20.3122 5.18017 20.5543C5.18669 20.7325 5.18995 20.9106 5.18017 21.0855C5.17365 21.2233 5.21602 21.2636 5.35294 21.2636C6.97642 21.2603 8.59989 21.2636 10.2266 21.2636C10.3896 21.2636 10.5494 21.2636 10.7124 21.2636C10.7939 21.2636 10.8265 21.2334 10.8232 21.1493C10.8232 20.951 10.8232 20.756 10.8232 20.5576C10.8265 20.3257 10.9666 20.1778 11.172 20.171C11.3872 20.1677 11.5306 20.3156 11.5371 20.5543C11.5404 20.7526 11.5404 20.9476 11.5371 21.146C11.5371 21.23 11.5665 21.2569 11.648 21.2636C12.4532 21.3107 13.1932 20.8031 13.4442 20.0231C13.5094 19.818 13.5094 19.8147 13.3008 19.8147C11.5404 19.8147 9.77674 19.8147 8.01635 19.8147L8.01309 19.808ZM7.98375 3.0659C8.66509 3.0659 9.34642 3.0659 10.0278 3.0659C10.4972 3.0659 10.8102 2.74316 10.8199 2.25905C10.8232 2.02036 10.8232 1.78503 10.8199 1.54634C10.8102 1.06896 10.5037 0.746218 10.0408 0.742856C8.68139 0.739495 7.32523 0.739495 5.96582 0.742856C5.49312 0.742856 5.18994 1.06559 5.18342 1.55643C5.18342 1.77495 5.18342 1.99011 5.18342 2.20863C5.18342 2.75325 5.4866 3.0659 6.01472 3.0659C6.67324 3.0659 7.32849 3.0659 7.98701 3.0659H7.98375ZM7.98375 9.5711C8.89981 9.5711 9.81912 9.5711 10.7352 9.5711C10.8591 9.5711 10.8949 9.53748 10.8851 9.40973C10.8558 9.03656 10.8428 8.66339 10.8134 8.29023C10.7971 8.10533 10.8134 7.9137 10.7613 7.73216C10.6928 7.49011 10.5591 7.37244 10.3505 7.37244C8.77919 7.37244 7.21113 7.37244 5.63982 7.37244C5.48334 7.37244 5.37902 7.44304 5.30078 7.57079C5.23558 7.68173 5.20624 7.80276 5.19646 7.93051C5.16712 8.4247 5.14105 8.9189 5.10519 9.41309C5.09541 9.5442 5.13778 9.57446 5.2584 9.57446C6.16468 9.5711 7.07421 9.57446 7.98049 9.57446L7.98375 9.5711ZM7.98375 4.88803C8.44341 4.88803 8.90633 4.88803 9.36598 4.88803C9.45726 4.88803 9.49964 4.86113 9.49638 4.76028C9.49312 4.48124 9.49312 4.20557 9.49638 3.92654C9.49638 3.83577 9.4703 3.79879 9.37902 3.79879C8.46297 3.79879 7.54691 3.79879 6.63086 3.79879C6.5298 3.79879 6.50698 3.84249 6.51024 3.93662C6.5135 4.20557 6.51676 4.47116 6.51024 4.74011C6.50698 4.86449 6.55262 4.89139 6.66346 4.88803C7.10356 4.8813 7.54691 4.88803 7.98701 4.88803H7.98375Z" fill="#B49758"/>
</g>
<defs>
<clipPath id="clip0_1_346">
<rect width="16" height="22" fill="white"/>
</clipPath>
</defs>
</svg>
