<svg width="21" height="21" viewBox="0 0 21 21" fill="none" xmlns="http://www.w3.org/2000/svg">
<path d="M20.08 11.0201C20.08 10.3601 20.02 9.73012 19.92 9.12012H10.47V12.8901H15.88C15.64 14.1301 14.93 15.1701 13.87 15.8901V18.4001H17.1C18.99 16.6501 20.08 14.0701 20.08 11.0201Z" fill="#4285F4"/>
<path d="M10.47 20.84C13.18 20.84 15.45 19.94 17.1 18.41L13.87 15.9C12.97 16.5 11.82 16.87 10.47 16.87C7.85001 16.87 5.63001 15.1 4.84001 12.72H1.51001V15.3C3.16001 18.58 6.55001 20.84 10.47 20.84Z" fill="#34A853"/>
<path d="M4.83993 12.71C4.62993 12.11 4.51993 11.46 4.51993 10.79C4.51993 10.12 4.63993 9.48003 4.83993 8.87003V6.28003H1.50993C0.819932 7.64003 0.429932 9.16003 0.429932 10.78C0.429932 12.4 0.819932 13.93 1.50993 15.28L4.83993 12.69V12.71Z" fill="#FBBC05"/>
<path d="M10.47 4.73001C11.95 4.73001 13.27 5.24001 14.32 6.24001L17.18 3.38001C15.45 1.76001 13.18 0.76001 10.47 0.76001C6.55001 0.76001 3.16001 3.02001 1.51001 6.30001L4.84001 8.88001C5.63001 6.49001 7.85001 4.73001 10.47 4.73001Z" fill="#EA4335"/>
</svg>
