<svg width="47" height="50" viewBox="0 0 47 50" fill="none" xmlns="http://www.w3.org/2000/svg">
<path d="M46.9926 31.4359C46.9926 30.8034 46.7861 30.2156 46.2403 29.8808C45.7756 29.5981 45.6871 29.2335 45.6944 28.735C45.7166 27.0683 45.7092 25.4017 45.6944 23.735C45.6871 22.4552 45.4068 21.2201 44.4626 20.3347C43.7619 19.6799 43.5775 18.988 43.6144 18.0877C43.666 16.7409 43.076 15.6993 41.9179 14.9999C41.6745 14.8511 41.4459 14.6948 41.1877 15.0148C40.7378 15.5728 40.2583 16.1085 39.6977 16.7633C40.6419 16.8153 41.2467 17.0534 41.35 17.8868C41.3868 18.1695 41.4975 18.6011 41.0033 18.6085C39.624 18.6308 38.2447 18.6159 36.6146 18.6159C37.8242 17.1874 38.8495 15.982 39.86 14.7692C40.7525 13.6978 40.7451 13.549 39.7199 12.604C35.3754 8.62338 31.0309 4.65761 26.6791 0.684392C25.639 -0.260548 25.4178 -0.245667 24.4736 0.825761C19.4506 6.51773 14.4275 12.2023 9.42655 17.9091C8.91761 18.4895 8.43079 18.854 7.65631 18.5043C7.61943 18.177 7.87021 18.0505 8.02511 17.8719C11.0345 14.4493 14.0439 11.0415 17.0534 7.62636C18.381 6.11594 19.7087 4.60552 21.0438 3.09511C21.4716 2.61892 21.8773 2.07576 21.2503 1.54749C20.6307 1.02665 20.1587 1.52517 19.7604 2.0088C19.6718 2.1204 19.5686 2.21713 19.4727 2.3213C14.9659 7.4329 10.4223 12.5073 5.98933 17.6784C5.09683 18.7201 4.1527 18.6457 3.09055 18.5936C2.61849 18.5713 2.33082 18.2439 2.30869 17.7454C2.28657 17.2395 2.58898 16.927 3.0463 16.8525C3.52574 16.7781 4.02731 16.8005 4.51412 16.8005C4.90505 16.8005 5.26648 16.8153 5.56152 16.4582C6.04834 15.863 6.56466 15.3049 7.25063 14.5311C5.80493 14.5311 4.64689 14.5237 3.48886 14.5311C1.30556 14.5609 0.0221281 15.8555 0.0221281 18.0579C0.014752 26.9195 0.0368801 35.7811 0 44.6427C0 46.2945 0.656466 47.5147 1.90301 48.4597C3.20119 49.4418 4.66902 49.985 6.3065 49.9924C7.60468 50.0073 8.90286 49.9924 10.2084 49.9924C20.2546 49.9924 30.3081 49.9924 40.3542 49.9924C43.6955 49.9924 45.6723 48.0058 45.7018 44.6502C45.7166 43.3034 45.7239 41.9567 45.7018 40.61C45.6871 39.985 45.7461 39.4716 46.3657 39.0921C46.823 38.8094 47 38.2588 47.0074 37.7008C47.0074 35.61 47.0074 33.5192 47.0074 31.4284L46.9926 31.4359ZM43.4374 44.8139C43.4079 46.6442 42.3531 47.7156 40.5312 47.7156C29.1427 47.7231 17.7615 47.7156 6.37288 47.7156C5.43613 47.7156 4.58051 47.4478 3.76915 46.9716C2.74388 46.3764 2.23493 45.5951 2.24969 44.3079C2.30132 36.8674 2.28657 29.4195 2.24969 21.979C2.24969 21.1085 2.44884 20.8778 3.34134 20.8778C9.52244 20.9225 15.7109 20.9002 21.892 20.9002C27.9699 20.9002 34.0477 20.9002 40.1255 20.9002C42.4933 20.9002 43.43 21.8451 43.43 24.2484C43.43 25.6695 43.3931 27.0832 43.4448 28.5043C43.4743 29.2484 43.2235 29.479 42.4859 29.4716C39.9559 29.4344 37.4259 29.4493 34.896 29.4567C32.602 29.4567 31.2227 30.8332 31.1932 33.1472C31.1784 34.1368 31.1784 35.1338 31.1932 36.1234C31.2374 38.1695 32.6315 39.5906 34.6599 39.613C37.2268 39.6427 39.7936 39.6502 42.3531 39.6055C43.1571 39.5906 43.4816 39.7841 43.4374 40.6621C43.3636 42.0386 43.4374 43.4225 43.4153 44.8064L43.4374 44.8139ZM38.8569 34.4939C38.879 35.6472 37.9644 36.6293 36.8506 36.6591C35.7442 36.6814 34.7706 35.7365 34.7411 34.5981C34.7115 33.4597 35.6262 32.4776 36.7473 32.4478C37.8759 32.418 38.8347 33.3481 38.8569 34.4939Z" fill="#E4C380"/>
</svg>
