<svg width="96" height="39" viewBox="0 0 96 39" fill="none" xmlns="http://www.w3.org/2000/svg">
<g clip-path="url(#clip0_206_3922)">
<path d="M65.8456 38.9999C65.2424 38.9999 64.6463 38.9999 64.0431 38.9999C63.21 38.9999 62.772 38.5323 62.693 37.5972C62.6571 37.1792 62.8725 36.6195 62.5565 36.3857C62.3052 36.2015 61.8528 36.3645 61.4865 36.3716C53.6373 36.6054 45.7881 36.4849 37.9318 36.4637C36.5314 36.4637 35.1239 36.3999 33.7235 36.3291C33.3932 36.3149 33.2424 36.3999 33.2783 36.7896C33.2926 36.9312 33.2783 37.08 33.2783 37.2217C33.2711 38.5607 32.8905 38.9999 31.7127 38.9999C30.5637 38.9999 29.4147 38.9999 28.2729 38.9999C27.4757 38.9999 26.9443 38.5111 26.9946 37.6184C27.0951 35.8048 26.693 34.0904 26.4129 32.3405C25.7594 28.3165 25.7379 24.2996 26.6571 20.304C27.088 18.4337 27.8707 16.7972 29.07 15.4157C29.4291 15.0048 29.781 14.5868 30.1328 14.1759C30.4991 13.7438 30.4345 13.34 29.9461 13.092C29.6876 12.9574 29.4219 12.9716 29.1418 13.0141C28.7828 13.0708 28.4165 13.1274 28.0574 13.1345C27.3608 13.1487 26.8869 12.7449 26.6212 12.0293C26.377 11.3705 26.5422 10.6408 27.0305 10.1236C27.7127 9.401 28.5314 9.16012 29.4506 9.23805C29.9677 9.28056 30.2262 9.6277 30.2693 10.1945C30.2693 10.2795 30.2621 10.3574 30.2693 10.4424C30.3411 10.8816 30.061 11.498 30.7145 11.6609C31.4758 11.8522 32.0431 11.5476 32.3231 10.8037C32.8977 9.27348 33.5727 7.79282 34.1759 6.27675C34.9802 4.2435 36.3519 3.32252 38.2549 3.11707C43.1023 2.59991 47.9497 2.32361 52.8187 2.69909C54.8151 2.85495 56.8187 2.90454 58.7935 3.33669C59.9569 3.59173 60.8187 4.27893 61.3932 5.46203C62.2334 7.19064 62.9731 8.97593 63.6481 10.7896C63.921 11.5193 64.7109 11.8947 65.3573 11.6326C65.5296 11.5618 65.6301 11.4342 65.6661 11.243C65.6876 11.1225 65.6876 10.995 65.6876 10.8746C65.7379 9.31598 66.0539 9.01844 67.4398 9.27348C68.0503 9.38683 68.5745 9.70563 69.0126 10.2015C69.4722 10.7258 69.5655 11.3563 69.3429 12.0222C69.1203 12.6882 68.6822 13.1133 68.0215 13.1203C67.6266 13.1203 67.2244 13.0637 66.8294 13.007C66.5494 12.9716 66.2837 12.9574 66.0251 13.0849C65.5296 13.34 65.465 13.7367 65.8312 14.1688C66.0467 14.4239 66.2477 14.686 66.4775 14.9198C68.2729 16.783 69.1921 19.1351 69.6158 21.7988C70.2765 25.9078 70.1041 29.9885 69.228 34.0195C68.991 35.1318 69.0126 36.2086 68.991 37.3067C68.9623 38.5607 68.5817 38.9999 67.4686 38.9999C66.9228 38.9999 66.377 38.9999 65.8312 38.9999H65.8456ZM47.9569 13.9351C53.0197 13.8925 58.0754 13.6588 63.1239 13.1062C63.5332 13.0637 63.6337 12.922 63.4973 12.4969C62.6427 9.76939 61.5224 7.20481 60.0072 4.85985C59.684 4.35685 59.2603 4.00972 58.7002 3.96012C55.5404 3.65549 52.3878 3.31544 49.2208 3.22334C45.3501 3.1029 41.5081 3.52797 37.6589 3.89636C36.8546 3.97429 36.1652 4.15849 35.6912 4.9732C34.3196 7.31816 33.2711 9.84023 32.474 12.4969C32.3519 12.9078 32.4237 13.0708 32.8402 13.1203C37.8671 13.6658 42.9012 13.9138 47.9497 13.9492L47.9569 13.9351ZM47.9928 22.571C44.6248 22.571 41.2567 22.571 37.8887 22.571C37.5655 22.571 37.2639 22.5923 37.0844 22.9465C36.8905 23.3361 37.0485 23.6479 37.2352 23.9667C37.6086 24.5972 37.9749 25.2348 38.3483 25.8724C38.8007 26.6517 39.4327 27.0413 40.2729 27.0342C45.4291 27.0272 50.5781 27.0272 55.7343 27.0342C56.596 27.0342 57.2352 26.6375 57.6948 25.8299C58.0395 25.2277 58.377 24.6184 58.7289 24.0163C58.9228 23.6833 59.1239 23.3574 58.9084 22.9394C58.7145 22.5498 58.3842 22.5639 58.0467 22.5639C54.693 22.5639 51.3465 22.5639 47.9928 22.5639V22.571ZM47.0449 32.9002C45.0772 32.8506 42.1831 32.7868 39.289 32.716C38.4704 32.6947 37.6517 32.6664 36.833 32.6381C36.5027 32.6239 36.1939 32.6522 36.0646 33.056C35.9425 33.4457 36.1939 33.6653 36.4237 33.8778C36.9766 34.3879 37.6086 34.6713 38.3267 34.6996C40.2226 34.7776 42.1113 34.8838 44.0072 34.9193C48.5817 35.0043 53.149 34.983 57.7163 34.6926C58.4919 34.643 59.167 34.31 59.7271 33.7078C60.0933 33.3111 59.9856 32.8506 59.5045 32.6876C59.3537 32.6381 59.1813 32.6522 59.0161 32.6522C55.3393 32.7939 51.6625 32.8648 47.052 32.9073L47.0449 32.9002ZM34.8079 25.4048C34.7145 23.3574 33.781 21.9122 32.0574 21.0762C30.9515 20.5378 29.824 20.0915 28.6248 19.9073C27.8635 19.7939 27.6696 19.9073 27.4111 20.7432C27.1239 21.6642 26.9802 22.6064 26.9874 23.5841C26.9946 24.4626 27.3106 24.9443 28.0646 25.2064C30.0179 25.8936 32.0287 26.262 34.0682 26.3896C34.7935 26.4391 34.8797 26.3187 34.8151 25.4048H34.8079ZM68.9982 23.3361C68.9838 22.4222 68.833 21.5438 68.5601 20.6866C68.316 19.9285 68.1077 19.801 67.4111 19.9002C66.1688 20.0844 65.0126 20.5378 63.8707 21.0975C62.1257 21.9618 61.2352 23.4637 61.1562 25.6032C61.1275 26.3045 61.2208 26.4321 61.8671 26.3896C63.8564 26.2691 65.8097 25.9078 67.7199 25.2844C68.7325 24.9514 69.0126 24.5263 68.9982 23.3361ZM64.2011 34.1541C65.0772 34.0833 65.8959 34.0337 66.7073 33.9558C67.0808 33.9203 67.3321 33.644 67.3393 33.2402C67.3465 32.7231 67.3896 32.1634 66.9946 31.7596C66.9372 31.7029 66.8223 31.71 66.7361 31.7171C65.4147 31.8375 64.1077 32.05 62.8151 32.3972C62.6355 32.4468 62.5206 32.4964 62.6068 32.7656C62.8438 33.5024 63.5835 34.14 64.2011 34.147V34.1541ZM30.6786 34.0833C30.6786 34.0833 30.6786 34.0691 30.6786 34.062C30.8941 34.0762 31.1167 34.0762 31.3321 34.1187C32.2585 34.2816 32.8474 33.7857 33.2998 32.9427C33.4937 32.5743 33.4003 32.4468 33.07 32.3688C31.8276 32.0642 30.5709 31.8729 29.2998 31.7312C29.0341 31.7029 28.8187 31.7737 28.754 32.0925C28.6894 32.4113 28.6319 32.7372 28.6248 33.0631C28.6104 33.5874 28.833 33.9203 29.3214 33.977C29.7738 34.0266 30.2262 34.062 30.6786 34.0975V34.0833Z" fill="#E4C380"/>
<path d="M66.4057 13.7014C66.93 13.751 67.3968 13.836 67.8636 13.8431C68.9551 13.8643 69.8671 13.0709 70.0467 11.8594C70.1185 11.3564 70.3124 11.3564 70.6499 11.3564C73.0197 11.3635 75.3896 11.3989 77.7522 11.3423C81.5081 11.2643 85.2496 10.981 88.9838 10.5984C89.5799 10.5346 89.6086 10.478 89.4147 9.84036C88.6032 7.25453 87.5189 4.82455 86.1257 2.56461C85.6876 1.85616 85.1418 1.45943 84.3663 1.38859C80.0287 0.991858 75.6912 0.531367 71.3321 0.729732C68.6391 0.850168 65.9533 1.16897 63.2675 1.39567C62.5135 1.45943 61.9677 1.85616 61.5799 2.57169C61.3788 2.94009 61.1706 3.29431 60.9695 3.64145C60.4452 3.42891 60.4237 3.13137 60.6966 2.62837C61.4363 1.28232 62.5925 0.82183 63.8779 0.658888C69.0628 -0.014137 74.2621 -0.184164 79.4758 0.212566C81.149 0.340086 82.8223 0.432184 84.474 0.743901C85.8025 0.991857 86.7864 1.72156 87.4255 3.08886C88.2083 4.76079 88.9192 6.46815 89.5799 8.20385C89.8815 8.99731 90.5278 9.35153 91.2531 9.13191C91.4686 9.06815 91.605 8.91938 91.6122 8.65725C91.6122 8.51556 91.6194 8.36679 91.6266 8.2251C91.6553 6.87905 92.0431 6.50357 93.2208 6.70902C93.8887 6.82238 94.4776 7.11992 94.9515 7.67251C95.3968 8.19676 95.5332 8.80603 95.2962 9.48614C95.0521 10.1733 94.6068 10.6055 93.9246 10.6055C93.4506 10.6055 92.9838 10.5134 92.5099 10.478C92.2298 10.4567 91.9641 10.4921 91.7487 10.733C91.4973 11.0093 91.368 11.2856 91.7199 11.5973C91.8636 11.7248 91.9641 11.9019 92.1005 12.0365C94.6499 14.5232 95.5189 17.8458 95.8348 21.4589C96.1221 24.6965 95.9354 27.9128 95.2603 31.0654C94.9946 32.291 94.9587 33.4883 94.9515 34.7139C94.9515 36.0175 94.5135 36.5063 93.3788 36.5063C92.2513 36.5063 91.1167 36.5063 89.9892 36.5063C89.1346 36.5063 88.6679 35.9891 88.632 35.0398C88.5889 33.7788 88.5889 33.7929 87.4542 33.8355C81.7522 34.0622 76.0503 33.9205 70.3483 33.9701C70.0036 33.9701 69.9102 33.885 69.9892 33.4812C70.1903 32.4398 70.1759 32.4256 71.1454 32.4398C75.246 32.5107 79.3465 32.3973 83.4399 32.206C84.2513 32.1706 84.9767 31.8872 85.5799 31.2709C85.7522 31.0938 85.9749 30.9167 85.86 30.6049C85.7451 30.3003 85.5153 30.1232 85.2136 30.1161C84.8689 30.109 84.5242 30.1303 84.1724 30.1515C79.7487 30.3712 75.3178 30.3782 70.8941 30.357C70.5637 30.357 70.4417 30.2649 70.4776 29.8752C70.6499 28.2387 70.6499 26.5951 70.5709 24.9515C70.5494 24.4202 70.8438 24.5265 71.1023 24.5265C73.6733 24.5265 76.2442 24.5265 78.8079 24.5265C79.7558 24.5265 80.7038 24.5194 81.6517 24.5265C82.5135 24.5335 83.1598 24.1297 83.6122 23.315C83.9928 22.6349 84.395 21.9761 84.7612 21.2889C85.1059 20.6442 84.8402 20.0987 84.1724 20.0491C84.0072 20.0349 83.842 20.0491 83.684 20.0491C79.2747 20.0491 74.8653 20.042 70.456 20.0562C70.0251 20.0562 69.8312 19.9428 69.702 19.4398C69.1993 17.4278 68.1436 15.7913 66.8294 14.3603C66.7002 14.2186 66.5781 14.0627 66.4488 13.9139C66.4273 13.8856 66.4201 13.8431 66.3627 13.7156L66.4057 13.7014ZM88.1221 23.8393C90.0898 23.7259 92.0215 23.3221 93.9102 22.6845C94.6284 22.4365 94.9587 21.9619 94.9659 21.1047C94.9803 20.0916 94.8223 19.1068 94.5278 18.1434C94.3483 17.5483 94.0395 17.2932 93.465 17.3711C92.0359 17.5553 90.7074 18.0938 89.4291 18.8093C88.0215 19.6028 87.3034 20.9417 87.1454 22.6703C87.0305 23.8534 87.0736 23.8889 88.1221 23.8393ZM90.5566 31.5968C91.325 31.5401 91.921 31.5047 92.5242 31.4551C93.1131 31.4055 93.3932 31.0088 93.307 30.3357C93.2783 30.1303 93.2495 29.9319 93.2208 29.7265C93.1706 29.3368 92.991 29.1739 92.6248 29.2022C91.3537 29.3156 90.097 29.5494 88.8474 29.8327C88.5027 29.9107 88.4883 30.0807 88.6463 30.3924C89.1059 31.3134 89.7666 31.7739 90.5637 31.5897L90.5566 31.5968Z" fill="#E4C380"/>
<path d="M29.6086 13.758C29.1777 14.268 28.7971 14.7073 28.4309 15.1536C27.3968 16.4076 26.6283 17.8386 26.219 19.4893C26.1041 19.9427 25.9174 20.0419 25.5368 20.0419C21.0915 20.0277 16.6463 20.0348 12.2011 20.0348C12.0215 20.0348 11.8348 20.0206 11.6553 20.049C11.1167 20.1269 10.851 20.6582 11.131 21.1754C11.5978 22.0326 12.0862 22.8828 12.6176 23.6833C13.0485 24.3422 13.7091 24.5193 14.4129 24.5193C17.8599 24.5122 21.2998 24.5193 24.7468 24.498C25.228 24.498 25.4003 24.6043 25.3716 25.1994C25.2926 26.6942 25.2926 28.2032 25.465 29.6909C25.5224 30.1939 25.4219 30.3498 24.9407 30.3498C20.4237 30.3569 15.9066 30.3498 11.3896 30.116C11.2962 30.116 11.21 30.1089 11.1167 30.1089C10.7217 30.1018 10.2477 29.9885 10.0969 30.5623C9.96048 31.0937 10.3985 31.3062 10.7002 31.5471C11.21 31.965 11.8061 32.1634 12.438 32.1917C16.6607 32.3901 20.8833 32.5035 25.1131 32.4326C25.3357 32.4326 25.6589 32.2909 25.7594 32.5601C25.903 32.9498 25.9605 33.389 25.9892 33.8141C26.0036 34.0408 25.7594 33.9487 25.6373 33.9558C24.9623 33.97 24.2872 33.9558 23.6122 33.9558C19.0736 33.9345 14.5422 33.9204 10.0036 33.8991C9.25671 33.8991 8.50986 33.8495 7.763 33.7999C7.43984 33.7787 7.28903 33.8779 7.31775 34.2746C7.46856 36.0528 6.92996 36.6337 5.22081 36.5133C4.28005 36.4495 3.32493 36.5062 2.377 36.4991C1.53678 36.4991 0.955096 35.9749 1.02691 35.0397C1.21362 32.4893 0.373409 30.1089 0.157969 27.6294C-0.143647 24.1367 -0.0359273 20.6937 0.818651 17.3073C1.22081 15.7204 1.92458 14.3176 2.92996 13.1133C3.33212 12.6386 3.74863 12.171 4.13643 11.6822C4.27287 11.5051 4.58167 11.3918 4.4165 11.0375C4.27287 10.7258 4.06461 10.4991 3.74145 10.4849C3.43265 10.4708 3.12386 10.5204 2.81506 10.5416C2.54217 10.5629 2.26928 10.6125 1.99639 10.5983C1.34289 10.57 0.904827 10.1661 0.667843 9.5002C0.423678 8.82717 0.538579 8.20374 0.991003 7.67949C1.68759 6.87186 2.56371 6.58848 3.53319 6.68766C3.93535 6.73017 4.20106 6.99938 4.28723 7.45279C4.32314 7.6299 4.30878 7.82118 4.33032 8.00537C4.38777 8.41627 4.15797 8.96886 4.73966 9.12472C5.42906 9.30183 6.07538 9.00428 6.31237 8.38794C6.99459 6.59557 7.72709 4.83153 8.5314 3.10292C9.17772 1.71437 10.1759 0.949244 11.526 0.736709C15.3967 0.120361 19.289 -0.042582 23.1885 0.0211782C26.3411 0.0707695 29.4865 0.19829 32.6104 0.757963C33.824 0.977582 34.7792 1.61518 35.4039 2.87622C35.6768 3.43589 35.1957 3.43589 35.0377 3.62009C34.8222 3.86804 34.7648 3.49257 34.6786 3.35796C34.4991 3.10292 34.3411 2.81954 34.1831 2.54325C33.781 1.8348 33.228 1.45933 32.474 1.39557C28.8976 1.07676 25.3285 0.680034 21.7307 0.680034C18.2477 0.680034 14.7863 1.08385 11.3178 1.40265C10.5565 1.47349 10.0395 1.89148 9.63732 2.59284C8.3375 4.8457 7.33212 7.24734 6.5709 9.79066C6.36264 10.4991 6.38418 10.5345 7.05204 10.6054C13.0413 11.243 19.0449 11.4838 25.0628 11.3634C25.2424 11.3634 25.4291 11.3634 25.6086 11.3563C25.781 11.3563 25.8456 11.413 25.8959 11.6185C26.3124 13.4179 27.21 14.0838 28.8258 13.7863C29.0556 13.7438 29.2854 13.6659 29.6086 13.7509V13.758ZM7.82045 23.8392C7.99998 23.8462 8.18669 23.8462 8.36623 23.8675C8.72529 23.91 8.86174 23.7258 8.86174 23.3362C8.85456 21.5367 8.33032 20.0065 6.9156 19.0571C5.54397 18.1432 4.05743 17.5552 2.44881 17.371C1.93894 17.3144 1.67323 17.5411 1.50088 18.0511C1.1849 19.0076 1.02691 19.9923 1.01255 20.9983C0.998184 21.9051 1.35007 22.4364 2.09693 22.6915C3.97125 23.322 5.87431 23.7258 7.82763 23.8392H7.82045ZM5.38598 31.6037C6.1831 31.7879 6.85815 31.3629 7.32493 30.4348C7.49729 30.1018 7.48292 29.9318 7.1095 29.8397C5.93176 29.5705 4.74684 29.3792 3.55474 29.2163C2.96587 29.1383 2.75043 29.4076 2.7217 30.0097C2.7217 30.1302 2.6858 30.2506 2.67143 30.3781C2.59962 31.0086 2.87969 31.4195 3.43265 31.4621C4.02871 31.5187 4.63194 31.5471 5.38598 31.6037Z" fill="#E4C380"/>
</g>
<defs>
<clipPath id="clip0_206_3922">
<rect width="96" height="39" fill="white"/>
</clipPath>
</defs>
</svg>
