<svg width="93" height="43" viewBox="0 0 93 43" fill="none" xmlns="http://www.w3.org/2000/svg">
<g clip-path="url(#clip0_206_3947)">
<path d="M57.1075 23.9315C57.3298 23.6764 57.2991 23.2636 57.0385 23.0685C56.9695 23.016 56.8852 22.8959 56.7933 23.0685C56.7166 23.2261 56.663 23.3237 56.6093 23.3687C56.594 23.3687 56.5787 23.3687 56.571 23.3687C56.571 23.3762 56.5557 23.3837 56.548 23.3987C56.479 23.3987 56.3947 23.2862 56.2414 23.0835C55.9348 23.3987 55.9195 23.7289 56.1954 23.9841C56.4714 24.2392 56.8622 24.2167 57.1075 23.939V23.9315Z" fill="#E4C380"/>
<path d="M89.0681 11.5493C87.8265 10.7988 86.4316 10.4161 84.937 10.4161C81.0588 10.4161 69.7615 10.4161 67.2935 10.4161C65.2395 10.4161 63.1164 10.4161 59.997 10.4161C58.7477 7.06916 56.617 4.34508 53.4823 2.34142C51.3975 1.00564 49.0752 0.345255 46.5996 0.172654C44.1163 5.41434e-05 41.6637 0.157646 39.2954 0.968117C35.4556 2.28888 32.7653 4.87789 30.8569 8.32239C30.4814 8.99028 30.1135 9.67318 29.9219 10.4236C29.8452 10.4386 29.7609 10.4761 29.6843 10.4761C27.9598 10.4761 28.0747 10.5287 26.3502 10.4761C24.8097 10.4311 23.3458 10.8364 22.0888 11.5568C22.0735 11.5568 22.0582 11.5568 22.0428 11.5568C22.0428 11.5568 22.0275 11.5643 22.0275 11.5718C22.0428 11.5718 22.0582 11.5718 22.0735 11.5718C19.322 13.1777 17.5898 16.3446 18.3333 19.8491C19.115 23.5562 22.2881 26.0402 26.151 26.0777C27.6838 26.0927 27.3696 26.0777 28.9025 26.0927C29.0481 26.0927 29.2091 26.0477 29.3394 26.1678C29.6306 27.4135 30.1288 28.5767 30.6883 29.7173C31.6923 31.7585 33.0259 33.5746 34.7198 35.1055C35.4479 35.7658 36.314 36.2836 37.203 36.7414C39.2035 37.777 41.3418 38.2723 43.5875 38.3999C46.9062 38.5875 50.1022 38.1747 53.0377 36.5163C53.2983 36.3737 53.3443 36.4562 53.3979 36.6814C53.5512 37.3042 53.7275 37.9271 53.8961 38.55C54.2027 39.6831 54.5016 40.8163 54.8082 41.9494C55.0381 42.8049 55.6513 43.1576 56.525 42.94C57.1152 42.7899 57.6977 42.6474 58.2878 42.4973C61.0777 41.7618 63.8675 41.0339 66.6651 40.2985C67.4162 40.0959 67.7917 39.4955 67.5924 38.7526C66.4658 34.5802 65.3238 30.4152 64.1894 26.2428C64.8179 26.2428 65.4081 26.2428 65.9676 26.2428C69.133 26.2428 80.3537 26.2428 84.7914 26.2203C88.1637 26.1978 90.7236 24.6294 92.1875 21.6802C94.004 18.018 92.6934 13.7556 89.0681 11.5643V11.5493ZM52.3862 26.1227C51.4895 26.1302 50.6004 26.0702 49.7037 26.1378C49.2975 27.2184 48.7457 28.1939 47.8183 28.9369C46.0784 30.3252 43.3959 30.2426 41.6867 28.6067C40.9586 27.9013 40.4911 27.0458 40.1462 26.1152C41.5104 26.1152 42.8747 26.1002 44.239 26.1002C45.8945 26.1002 47.55 26.1002 49.2055 26.1002C49.3665 26.1002 49.5351 26.1227 49.696 26.1302C50.5851 26.0627 51.4818 26.1227 52.3786 26.1152C53.0224 26.1152 53.0914 26.0627 53.283 25.4023C53.0914 26.0627 53.0224 26.1077 52.3786 26.1152L52.3862 26.1227ZM53.122 21.8002C52.3173 21.6877 51.5048 21.6201 50.7001 21.5376C50.5085 21.9203 50.5928 22.348 50.5161 22.7533C50.4088 23.3536 50.3858 23.9765 50.1636 24.5618C50.1022 24.847 50.0409 25.1322 49.9796 25.4173C49.857 25.4248 49.7344 25.4473 49.6117 25.4473C41.2345 25.4624 34.7121 25.4624 26.3349 25.4774C23.7443 25.4774 21.652 24.4943 20.1651 22.4381C18.5632 20.2318 18.2949 17.8004 19.4523 15.339C20.6249 12.84 22.6713 11.4217 25.4842 11.129C25.898 11.084 26.3119 11.084 26.7258 11.084C33.915 11.084 39.2494 11.0915 46.4387 11.099C46.5613 11.099 46.6916 11.1065 46.8142 11.099C46.9828 11.0765 47.0978 10.9939 47.1055 10.8138C47.1208 10.6187 47.0135 10.5062 46.8295 10.4686C46.7069 10.4461 46.5843 10.4611 46.454 10.4611C44.7985 10.4611 43.1353 10.4611 41.4798 10.4611C41.3878 10.4611 41.2882 10.4386 41.1962 10.4311C42.1159 9.41053 43.2119 8.72012 44.6375 8.63758C46.5843 8.53252 48.0788 9.29796 49.1059 10.9339C49.3205 11.2791 49.4968 11.6468 49.6501 12.022C50.1482 13.1327 50.3552 14.3184 50.5008 15.5041C50.6004 16.3295 50.7154 17.1625 50.6618 18.003C50.6618 18.1381 50.6618 18.2807 50.6618 18.4158C50.7307 19.2863 50.6771 20.1568 50.6618 21.0348C51.7501 21.1774 52.8461 21.3049 53.9268 21.4775C54.8389 21.6201 55.7433 21.8152 56.4407 22.4831C56.5404 22.5807 56.6477 22.5282 56.755 22.5432C57.2225 22.6182 57.5751 22.9634 57.6287 23.3912C57.6824 23.8564 57.4524 24.2767 57.0462 24.4493C56.6323 24.6294 56.1418 24.5168 55.8429 24.1716C55.5517 23.8339 55.5133 23.3086 55.8199 22.9484C56.0268 22.7083 55.9425 22.6257 55.7279 22.5056C54.9155 22.0554 54.0111 21.9353 53.1144 21.8077L53.122 21.8002ZM55.8506 35.6908C54.5629 35.7283 53.8655 34.5201 53.8272 33.1693C53.7965 32.0137 54.7699 31.1882 56.0882 31.2182C57.4448 31.2407 58.0732 32.4489 58.0962 33.7397C58.1192 34.9329 57.1842 35.7133 55.8506 35.6983V35.6908ZM59.1309 38.7451C59.062 39.0302 58.9546 39.1878 58.6557 39.2404C58.3568 39.2929 58.0732 39.3829 57.759 39.4655C58.3262 37.0716 58.8933 34.7077 59.4528 32.3439C59.6138 31.661 59.7977 30.9856 59.9357 30.2952C59.9817 30.055 60.0966 29.95 60.3189 29.8974C60.6255 29.8299 60.9244 29.7473 61.277 29.6573C61.0087 30.798 60.7481 31.8936 60.4875 32.9892C60.0353 34.9028 59.5678 36.8165 59.1309 38.7376V38.7451ZM65.0479 34.5952C65.3008 35.173 65.4387 35.7733 65.2855 36.4037C65.0785 37.2292 64.45 37.747 63.515 37.8596C62.5416 37.9796 61.8671 37.6569 61.4532 36.8615C61.231 36.4412 61.0624 36.006 61.093 35.6233C61.0317 34.4676 61.6065 33.7247 62.6796 33.477C63.7679 33.2294 64.6263 33.6196 65.0479 34.5877V34.5952ZM91.72 21.4475C90.3251 24.2542 87.9951 25.6875 84.7837 25.71C80.346 25.74 69.1253 25.7325 65.9599 25.7325C65.3391 25.7325 64.68 25.7325 63.9672 25.7325C63.8599 25.5749 63.7066 25.4398 63.5226 25.3348C63.0704 25.0796 62.6259 24.8095 62.1814 24.5543C62.143 24.5393 62.0971 24.5318 62.0664 24.5168C61.07 23.999 61.093 23.999 61.2386 22.9034C61.3383 22.183 61.3689 21.455 61.4303 20.7271C61.4303 20.6371 61.4609 20.532 61.3613 20.4645C60.7788 20.6295 60.2039 20.7946 59.6215 20.9597C59.039 21.1323 58.4871 21.3875 58.0196 21.7702C57.7667 21.9803 57.5674 22.0329 57.2915 21.7702C57.782 21.2674 58.3798 20.8997 59.0543 20.6671C59.6138 20.472 60.1886 20.3369 60.7558 20.1718C60.9934 20.1042 61.2233 20.0142 61.4226 19.8716C61.4226 19.0611 61.4226 18.2582 61.4303 17.4477C61.4149 17.3051 61.3996 17.1625 61.3843 17.0199C61.3153 15.7892 61.0777 14.581 60.8324 13.3728C60.7635 13.0351 60.7788 12.6524 60.5105 12.3597C60.4569 12.2997 60.5105 12.1421 60.5105 12.0371C60.3802 11.9695 60.4569 11.8419 60.4262 11.7444C60.3419 11.4592 60.2499 11.1741 60.158 10.8964C63.1777 10.8964 65.2625 10.8964 67.2705 10.8964C69.7385 10.8964 81.0358 10.8964 84.914 10.8964C86.3166 10.8964 87.6196 11.2566 88.7769 11.9545C92.1722 14.0107 93.4062 17.9955 91.7047 21.425L91.72 21.4475Z" fill="#E4C380"/>
<path d="M21.8743 16.292H25.4229L21.767 20.4644V21.5525H27.3083V20.2993H23.6447L27.3083 16.1269V15.0312H21.8743V16.292Z" fill="#E4C380"/>
<path d="M30.1441 18.911H33.2789V17.6353H30.1441V16.307H33.7081V15.0312H28.6956V21.5525H33.7617V20.2768H30.1441V18.911Z" fill="#E4C380"/>
<path d="M40.2306 18.4908C40.4912 18.1606 40.6291 17.7253 40.6291 17.2V17.185C40.6291 16.5096 40.4068 15.9768 39.97 15.6016C39.5254 15.2264 38.9123 15.0312 38.1229 15.0312H35.0801V21.5525H36.544V19.4663H37.6936L39.1192 21.5525H40.8284L39.2035 19.2262C39.6251 19.0686 39.97 18.8285 40.2382 18.4983L40.2306 18.4908ZM39.1422 17.2751C39.1422 17.5527 39.0426 17.7778 38.851 17.9429C38.6594 18.108 38.3834 18.1981 38.0155 18.1981H36.5287V16.3295H37.9849C38.3451 16.3295 38.6287 16.4045 38.828 16.5621C39.0273 16.7197 39.1346 16.9524 39.1346 17.26V17.2751H39.1422Z" fill="#E4C380"/>
<path d="M47.734 15.9018C47.4197 15.6016 47.0442 15.3615 46.615 15.1814C46.1858 15.0012 45.7106 14.9187 45.1971 14.9187C44.6835 14.9187 44.2084 15.0088 43.7715 15.1814C43.3346 15.3615 42.9667 15.6016 42.6525 15.9093C42.3382 16.217 42.093 16.5772 41.9167 16.9824C41.7404 17.3876 41.6484 17.8229 41.6484 18.2882V18.3032C41.6484 18.7684 41.7327 19.2037 41.909 19.6089C42.0853 20.0142 42.3306 20.3669 42.6448 20.667C42.9591 20.9672 43.3346 21.2074 43.7638 21.3875C44.193 21.5676 44.6682 21.6501 45.1817 21.6501C45.6952 21.6501 46.1704 21.5601 46.6073 21.3875C47.0442 21.2074 47.4121 20.9672 47.7263 20.6595C48.0406 20.3519 48.2858 19.9917 48.4621 19.5864C48.6384 19.1812 48.7304 18.7459 48.7304 18.2807V18.2656C48.7304 17.8004 48.646 17.3651 48.4698 16.9599C48.2935 16.5547 48.0482 16.2019 47.734 15.9018ZM47.1975 18.3107C47.1975 18.5883 47.1515 18.851 47.0518 19.0986C46.9522 19.3463 46.8143 19.5564 46.6456 19.744C46.4694 19.9316 46.2624 20.0742 46.0095 20.1793C45.7642 20.2843 45.496 20.3369 45.2047 20.3369C44.9135 20.3369 44.6376 20.2843 44.3923 20.1718C44.147 20.0667 43.9324 19.9166 43.7562 19.729C43.5722 19.5414 43.4342 19.3238 43.3346 19.0761C43.235 18.8285 43.189 18.5658 43.189 18.2882V18.2732C43.189 17.9955 43.235 17.7328 43.3346 17.4852C43.4342 17.2375 43.5722 17.0274 43.7408 16.8398C43.9171 16.6522 44.124 16.5096 44.3693 16.4046C44.6146 16.2995 44.8828 16.247 45.1817 16.247C45.4806 16.247 45.7412 16.2995 45.9865 16.4121C46.2318 16.5171 46.4464 16.6672 46.6303 16.8548C46.8143 17.0424 46.9522 17.2601 47.0518 17.5077C47.1515 17.7554 47.1975 18.018 47.1975 18.2957V18.3107Z" fill="#E4C380"/>
<path d="M65.4924 20.1943C65.3697 20.0818 65.2241 19.9992 65.0478 19.9392C64.8716 19.8791 64.6799 19.8491 64.4577 19.8491H62.9554V23.4512H63.7602V22.3706H64.3734C64.5803 22.3706 64.7719 22.3406 64.9559 22.288C65.1398 22.2355 65.2931 22.153 65.4311 22.0479C65.569 21.9428 65.6686 21.8078 65.7453 21.6502C65.8219 21.4926 65.8603 21.3125 65.8603 21.1023C65.8603 20.9072 65.8296 20.7346 65.7606 20.5845C65.6993 20.4345 65.5997 20.2994 65.4847 20.1943H65.4924ZM65.0478 21.1174C65.0478 21.2749 64.9942 21.4025 64.8792 21.5076C64.7642 21.6126 64.611 21.6652 64.404 21.6652H63.7602V20.562H64.3887C64.588 20.562 64.7489 20.6071 64.8715 20.6971C64.9865 20.7872 65.0478 20.9222 65.0478 21.1023V21.1174Z" fill="#E4C380"/>
<path d="M67.7305 19.8264L66.1516 23.451H66.9794L67.3166 22.6406H68.8725L69.2097 23.451H70.0528L68.4739 19.8264H67.7305ZM67.6079 21.9426L68.0984 20.772L68.5889 21.9426H67.6155H67.6079Z" fill="#E4C380"/>
<path d="M72.0608 21.2975L71.1871 19.8491H70.2367L71.6546 22.0329V23.4512H72.4594V22.0179L73.8696 19.8491H72.9576L72.0608 21.2975Z" fill="#E4C380"/>
<path d="M76.2149 21.3725L75.2492 19.8491H74.3755V23.4512H75.1726V21.1174L76.1996 22.6407H76.2226L77.2573 21.1023V23.4512H78.0544V19.8491H77.1807L76.2149 21.3725Z" fill="#E4C380"/>
<path d="M79.7329 21.9879H81.4651V21.29H79.7329V20.5545H81.7026V19.8491H78.9358V23.4512H81.7256V22.7458H79.7329V21.9879Z" fill="#E4C380"/>
<path d="M84.9217 22.0704L83.1972 19.8491H82.4537V23.4512H83.2508V21.1624L85.029 23.4512H85.7188V19.8491H84.9217V22.0704Z" fill="#E4C380"/>
<path d="M86.3396 20.5845H87.4586V23.4512H88.271V20.5845H89.3824V19.8491H86.3396V20.5845Z" fill="#E4C380"/>
<path d="M66.3048 18.836C66.6651 18.7009 66.9716 18.5133 67.2246 18.2732C67.4851 18.033 67.6844 17.7478 67.8224 17.4252C67.9603 17.1025 68.037 16.7498 68.037 16.367V16.352C68.037 15.9768 67.968 15.6241 67.8224 15.3014C67.6844 14.9787 67.4851 14.6936 67.2246 14.4534C66.964 14.2133 66.6574 14.0257 66.3048 13.8906C65.9446 13.7555 65.5537 13.688 65.1322 13.688H63.0015V19.0386H65.1322C65.5614 19.0386 65.9523 18.9711 66.3048 18.8285V18.836ZM64.2048 14.7536H65.1322C65.3774 14.7536 65.5997 14.7911 65.8066 14.8737C66.0059 14.9562 66.1822 15.0613 66.3278 15.2039C66.4734 15.3465 66.5808 15.5191 66.6651 15.7142C66.7494 15.9093 66.7877 16.1269 66.7877 16.367V16.3821C66.7877 16.6222 66.7494 16.8398 66.6651 17.0349C66.5808 17.23 66.4734 17.3951 66.3278 17.5377C66.1822 17.6803 66.0136 17.7929 65.8066 17.8679C65.6074 17.943 65.3774 17.9805 65.1322 17.9805H64.2048V14.7536Z" fill="#E4C380"/>
<path d="M69.6772 18.3257C69.9378 18.5734 70.2367 18.7685 70.5969 18.9111C70.9495 19.0536 71.3404 19.1287 71.7619 19.1287C72.1834 19.1287 72.5743 19.0536 72.9269 18.9111C73.2871 18.7685 73.5937 18.5659 73.8466 18.3182C74.1072 18.0631 74.3065 17.7704 74.4521 17.4402C74.5977 17.11 74.6744 16.7498 74.6744 16.3671V16.3521C74.6744 15.9693 74.6054 15.6091 74.4598 15.2789C74.3141 14.9488 74.1149 14.6561 73.8619 14.4084C73.6014 14.1608 73.2948 13.9657 72.9422 13.8231C72.5897 13.6805 72.1988 13.6055 71.7772 13.6055C71.3557 13.6055 70.9648 13.6805 70.6122 13.8231C70.2597 13.9657 69.9454 14.1683 69.6925 14.4159C69.4319 14.6711 69.2326 14.9638 69.087 15.294C68.9414 15.6241 68.8647 15.9844 68.8647 16.3671V16.3821C68.8647 16.7648 68.9337 17.125 69.0793 17.4552C69.225 17.7854 69.4243 18.0781 69.6772 18.3257ZM70.1217 16.3521C70.1217 16.1194 70.16 15.9093 70.2443 15.7067C70.3287 15.5041 70.4359 15.3315 70.5816 15.1739C70.7272 15.0238 70.8958 14.9037 71.0951 14.8137C71.2944 14.7236 71.5166 14.6861 71.7619 14.6861C72.0072 14.6861 72.2218 14.7311 72.4287 14.8212C72.628 14.9112 72.8043 15.0313 72.9575 15.1814C73.1108 15.3315 73.2181 15.5116 73.3024 15.7142C73.3868 15.9168 73.4251 16.1344 73.4251 16.3671V16.3821C73.4251 16.6147 73.3868 16.8248 73.3024 17.0275C73.2181 17.2301 73.1108 17.4027 72.9652 17.5603C72.8196 17.7104 72.651 17.8304 72.444 17.9205C72.2448 18.0105 72.0225 18.0481 71.7772 18.0481C71.532 18.0481 71.3097 18.003 71.1104 17.913C70.9111 17.8229 70.7349 17.7029 70.5892 17.5528C70.4436 17.4027 70.3287 17.2226 70.2443 17.02C70.16 16.8173 70.1217 16.5997 70.1217 16.3671V16.3521Z" fill="#E4C380"/>
<path d="M82.3465 13.6879L81.2198 17.3125L79.9935 13.6729H78.9588L77.7325 17.3125L76.6059 13.6879H75.3182L77.1807 19.076H78.2231L79.457 15.579L80.691 19.076H81.741L83.6035 13.6879H82.3465Z" fill="#E4C380"/>
<path d="M85.6805 15.6391L88.3248 19.0386H89.3518V13.688H88.1638V16.9824L85.6039 13.688H84.4926V19.0386H85.6805V15.6391Z" fill="#E4C380"/>
<path d="M26.5495 32.6515C24.4035 32.6515 22.2498 32.6515 20.1037 32.6515C19.138 32.6515 18.8621 32.3664 18.8544 31.4283C18.8544 31.0306 18.8468 30.6329 18.8544 30.2351C18.8698 29.6498 19.1764 29.3196 19.7818 29.3196C21.3071 29.3196 22.8399 29.3196 24.3652 29.3196C22.8783 28.5767 21.606 27.5036 20.6403 26.1678C19.8508 26.1002 19.0614 26.0177 18.2796 25.9051C17.1989 25.755 16.4555 25.2522 16.1949 24.1341C16.0109 23.3386 15.7197 22.5732 15.5971 21.7627C15.4208 20.5695 15.942 19.9016 17.1606 19.7591C17.3675 19.7365 17.5745 19.714 17.7738 19.6915C17.3522 17.3201 17.9807 14.9187 19.5212 13.0652C19.9888 12.5023 20.5253 12.0146 21.1001 11.5943C16.9307 11.6844 12.7612 11.857 8.60713 12.1646C8.06551 12.2047 7.88923 11.9795 8.07828 11.4892C8.63778 10.0634 9.25094 8.6601 9.97139 7.30931C11.1824 5.02799 13.0142 3.69972 15.7044 3.42205C21.7746 2.79919 27.8295 2.6416 33.892 3.11438C35.0647 2.08628 36.3753 1.2683 37.8239 0.64544C36.3753 0.465335 34.9191 0.292735 33.4628 0.210187C27.3543 -0.120005 21.2611 -0.0824832 15.1755 0.64544C12.0331 1.02066 9.66481 2.48401 7.97098 5.05801C7.51878 5.74841 7.12023 6.46883 6.80599 7.22677C6.61438 7.69954 6.33846 7.83462 5.84027 7.81961C4.86689 7.78209 3.89351 7.81211 2.92013 7.8046C2.43727 7.8046 1.97741 7.86464 1.53287 8.05225C0.651463 8.41996 0.0766318 9.04282 0.0229809 10.0034C-0.03067 10.9489 0.498175 11.5868 1.30294 12.0371C1.97741 12.4123 2.75918 12.4948 3.51029 12.8025C1.70149 14.4835 1.10366 15.4515 0.605476 17.5528C0.352551 18.6109 0.191598 19.684 0.137947 20.7721C-0.145636 26.4604 0.061303 32.1563 0.00765209 37.8446C-1.2327e-05 38.9027 0.728107 39.5856 1.80112 39.5931C3.83986 39.6081 5.87093 39.6081 7.90966 39.5931C8.92137 39.5931 9.61883 38.9252 9.66481 37.9421C9.68781 37.3868 9.71846 36.8315 9.66481 36.2837C9.59583 35.6383 9.87175 35.5257 10.4696 35.5257C16.8157 35.5332 26.5112 35.5407 33.9304 35.5407C33.0106 34.6777 32.1752 33.7172 31.4471 32.6741C29.416 32.6741 27.3696 32.6741 26.5495 32.6741V32.6515ZM12.7536 24.9371C10.5539 24.7194 8.33887 24.5844 6.15451 24.2767C4.06213 23.9765 3.09641 22.7758 3.10408 20.7196C3.08108 19.8941 3.31868 19.0461 3.70956 18.2357C3.84752 17.943 4.03147 17.8604 4.35337 17.928C6.26181 18.3632 8.18558 18.746 10.0787 19.2187C11.144 19.4814 11.8952 20.1343 12.1787 21.2449C12.4547 22.3406 12.7766 23.4212 13.1061 24.5018C13.2134 24.8545 13.1675 24.9896 12.7612 24.9446L12.7536 24.9371Z" fill="#E4C380"/>
<path d="M62.9785 34.475C62.6642 34.535 62.5723 34.7676 62.5723 35.0528C62.5799 35.5406 62.7256 36.0058 62.9095 36.4561C63.0168 36.7038 63.2161 36.8839 63.5303 36.8013C63.8216 36.7263 63.8905 36.5011 63.8676 36.231C63.8216 35.7507 63.7143 35.2779 63.5073 34.8352C63.4077 34.6175 63.2697 34.4224 62.9785 34.475Z" fill="#E4C380"/>
<path d="M56.2721 32.6741C56.1648 32.4489 56.0345 32.2163 55.7279 32.2839C55.3984 32.3514 55.3141 32.6065 55.3064 32.9517C55.3677 33.3795 55.4673 33.8523 55.6743 34.295C55.7739 34.5202 55.9809 34.6928 56.2721 34.6102C56.5787 34.5202 56.6553 34.28 56.617 34.0024C56.5557 33.5521 56.4637 33.1018 56.2721 32.6816V32.6741Z" fill="#E4C380"/>
</g>
<defs>
<clipPath id="clip0_206_3947">
<rect width="93" height="43" fill="white"/>
</clipPath>
</defs>
</svg>
