<svg width="57" height="49" viewBox="0 0 57 49" fill="none" xmlns="http://www.w3.org/2000/svg">
<g clip-path="url(#clip0_206_3929)">
<path d="M10.1648 12.7253H26.1057C25.6041 13.7227 25.0085 14.6734 24.6323 15.7098C24.1621 16.98 23.8486 18.3126 23.5351 19.6295C23.4567 19.9646 23.3705 20.0737 23.0335 20.0737C21.1839 20.0581 19.3343 20.0737 17.4848 20.0659C16.7794 20.0659 16.176 20.2529 15.8311 20.9153C15.7449 21.0868 15.6979 21.3673 15.7763 21.5231C16.607 23.183 17.4534 24.8272 18.3233 26.4715C18.5585 26.9156 18.9738 27.1104 19.5068 27.1027C20.8783 27.0871 22.2576 27.1027 23.6291 27.0949C23.9348 27.0949 24.1307 27.1572 24.1307 27.5001C24.1307 27.5312 24.1307 27.5702 24.1464 27.6014C24.6558 28.4118 24.452 29.2378 24.1934 30.134C23.3705 30.134 22.5398 30.134 21.709 30.134C20.8783 30.134 20.2826 30.6561 20.2905 31.3808C20.2905 32.0977 20.8391 32.5887 21.662 32.6042C21.7325 32.6042 21.7952 32.6042 22.0147 32.6042C21.6385 32.9315 21.3563 33.1887 21.0585 33.4225C19.5224 34.6381 17.9942 35.8616 16.4503 37.0694C16.317 37.1785 16.1054 37.272 15.9487 37.2486C14.3342 37.0382 13.1351 37.8331 11.983 38.7994C10.9407 39.6644 9.87484 40.506 8.80898 41.3476C8.66007 41.4645 8.44846 41.5658 8.26037 41.5658C6.59888 41.5969 4.9374 41.6203 3.27591 41.6281C2.20221 41.6281 1.62226 41.3631 1.53605 39.8436C1.32445 36.0018 1.14419 32.1679 0.963934 28.3261C0.838538 25.7857 0.681794 23.2453 0.642608 20.6971C0.619097 19.1698 1.06582 17.7671 2.22572 16.6372C3.13484 15.7488 3.93423 14.7514 4.77282 13.7929C4.84335 13.7149 4.88254 13.6136 4.96875 13.4656C3.70696 13.4656 2.52354 13.4656 1.34012 13.4656C1.08933 13.4656 0.830701 13.4734 0.579911 13.4344C0.235073 13.3798 -4.27319e-05 13.2006 0.0156317 12.8032C0.0234689 12.5694 0.0156317 12.3278 0.0156317 12.0941C0.0313061 10.707 0.282097 10.4187 1.64577 10.1147C2.21789 9.99006 2.79 9.81862 3.34644 9.6316C4.02044 9.40561 4.34961 9.60043 4.37312 10.3173C4.39663 10.9408 4.39663 11.5642 4.37312 12.1876C4.35744 12.5928 4.50635 12.6707 4.89821 12.7097C5.53302 12.772 5.823 12.4915 6.0973 11.9772C7.35909 9.61601 8.66007 7.27823 9.95321 4.93265C10.4313 4.06767 10.8466 3.16372 11.4266 2.36888C12.6649 0.638915 14.4439 -0.0234573 16.5521 -7.94398e-05C22.1166 0.0700541 27.681 0.124602 33.2375 0.140188C36.0198 0.140188 38.802 0.0388837 41.5763 -7.94398e-05C44.2175 -0.0390425 46.0906 1.19219 47.2975 3.49101C47.9323 4.70666 48.5985 5.90673 49.2881 7.19251C48.6298 6.8886 48.0655 6.58468 47.4621 6.36649C46.6157 6.04699 45.7457 5.77425 44.8758 5.52489C44.4526 5.408 44.1548 5.1976 43.9824 4.80797C43.5435 3.81051 42.7598 3.38971 41.6939 3.4053C37.2188 3.45205 32.736 3.52998 28.2609 3.52998C24.3972 3.52998 20.5256 3.47543 16.6619 3.38971C15.3844 3.35854 14.4831 3.77155 13.8718 4.93265C12.5395 7.46525 11.1366 9.95889 9.76511 12.4681C9.74944 12.4915 9.75728 12.5305 9.74944 12.6084C9.88267 12.6473 10.0159 12.6863 10.1491 12.7175M14.3891 24.0635C14.2715 22.692 13.9032 21.5076 12.7041 20.7984C10.9093 19.7386 8.92653 19.2399 6.85751 19.2633C5.58788 19.2711 4.44365 19.8399 3.55021 20.7906C2.9781 21.3985 2.89189 21.9673 3.36212 22.5596C4.05179 23.4167 4.92172 24.0479 6.08947 24.0635C7.32774 24.0791 8.56602 24.0635 9.79646 24.0635C11.3012 24.0635 12.806 24.0635 14.3891 24.0635Z" fill="#E4C380"/>
<path d="M31.4664 20.7984C32.7909 18.8736 34.8756 18.5386 36.7957 20.2529C37.5246 20.8997 38.1045 21.7257 38.755 22.466C38.8177 22.5362 38.8804 22.6141 38.9196 22.6531C42.5796 17.5489 47.6111 14.7046 53.7398 13.6526C52.9796 14.0266 52.188 14.3617 51.4591 14.7903C50.7224 15.2189 50.0093 15.6943 49.3431 16.2242C47.3054 17.8528 45.5421 19.7464 43.9589 21.827C42.5247 23.7129 41.2473 25.6844 40.1814 27.7962C39.8836 28.3962 39.6328 29.0118 39.3507 29.6197C39.3036 29.721 39.2331 29.8145 39.2174 29.8534C38.3553 28.3183 37.5481 26.7286 36.6076 25.2246C35.5653 23.557 34.2408 22.1154 32.4382 21.2114C32.1248 21.0556 31.7956 20.9387 31.4664 20.7984Z" fill="#E4C380"/>
<path d="M54.9388 17.2529C54.6409 16.4814 54.2804 15.7256 53.9121 14.8684C52.9716 15.4139 52.1252 15.9204 51.2553 16.3879C50.8556 16.5983 50.9496 16.8087 51.0829 17.1438C52.329 20.331 52.7679 23.4636 51.3963 26.7287C49.1 32.168 42.7362 35.1292 37.0856 33.2278C31.7955 31.4511 28.3314 25.8638 29.2641 20.37C29.7108 17.7205 30.9334 15.5152 32.924 13.7229C34.5072 12.2968 36.3411 11.3929 38.4493 10.9565C40.3145 10.5746 42.1249 10.6837 43.9197 11.1903C45.6282 11.6734 47.1486 12.5306 48.4339 13.6683C49.7035 13.2787 50.9339 12.9046 52.1957 12.5228C49.7505 9.68628 46.6705 8.01086 43.0105 7.42642C41.2315 7.13809 39.4368 7.19264 37.6499 7.55889C35.0871 8.08879 32.8065 9.18755 30.8394 10.8941C27.6496 13.6605 25.9097 17.1516 25.6198 21.3674C25.4474 23.8766 25.9411 26.2534 26.9364 28.5366C27.0618 28.8327 27.0932 28.9886 26.8737 29.238C26.4505 29.7367 26.4427 30.3601 26.8032 30.9134C26.9208 31.0926 27.0383 31.264 27.1637 31.4511C26.7327 31.7939 26.3408 32.1056 25.9489 32.4173C22.8768 34.8486 19.8124 37.2799 16.7324 39.6957C16.6305 39.7736 16.4032 39.8048 16.2935 39.7424C15.5176 39.3606 14.8044 39.4385 14.1304 39.9762C13.4956 40.4827 12.853 40.9814 12.2182 41.488C11.2307 42.2672 10.2118 43.0153 9.25569 43.8413C8.47981 44.5115 8.37792 45.3999 8.98139 46.2259C9.49864 46.935 10.0551 47.6052 10.6037 48.2831C11.2777 49.1169 12.32 49.2494 13.1665 48.5948C14.8279 47.3013 16.4659 45.9921 18.1117 44.6907C18.5506 44.3401 18.8798 43.8569 18.7387 43.3348C18.5193 42.5244 18.9817 42.1815 19.5068 41.8075C19.6321 41.7217 19.7419 41.6204 19.8594 41.5269C22.9865 39.0567 26.1057 36.5942 29.3424 34.0382C29.4365 34.1707 29.4992 34.2876 29.5854 34.3889C30.2281 35.137 30.855 35.2461 31.6623 34.6772C31.9287 34.4902 32.062 34.6227 32.2265 34.7318C34.178 36.0331 36.3097 36.8514 38.6452 37.1553C41.882 37.5761 44.9777 37.0851 47.8304 35.5344C51.702 33.4304 54.2883 30.2432 55.3071 25.9417C55.6363 24.5468 55.7852 23.0818 55.7852 21.648C55.7852 20.1596 55.4874 18.6712 54.9388 17.2607V17.2529Z" fill="#E4C380"/>
<path d="M45.8946 41.7295H53.8181C54.6018 41.7762 55.3855 41.7451 55.8949 41.3554C56.2397 41.0905 56.3495 40.6151 56.4122 40.1865C56.7257 37.9267 56.6708 35.5655 56.7962 33.2823L56.9373 29.7834C56.9843 29.3626 56.9921 28.934 57.0156 28.5132C56.9921 28.8872 56.4827 29.5184 56.3024 29.8613C55.3541 31.677 54.1551 33.3056 52.7287 34.6849C51.6158 35.7603 50.3383 36.6565 48.9668 37.3734C48.285 37.7319 47.5875 38.0514 46.8743 38.3397C46.5138 38.4877 46.1454 38.628 45.7771 38.7683C45.5968 38.8384 45.4244 38.9007 45.2441 38.9709C45.0874 39.0254 44.9071 39.0488 44.7818 39.1657C44.6564 39.2748 44.6015 39.454 44.5858 39.6255C44.5231 40.1631 44.4369 40.732 44.8053 41.1918C45.0247 41.4567 45.346 41.6204 45.6752 41.6983C45.7536 41.7139 45.8319 41.7295 45.9103 41.7373" fill="#E4C380"/>
</g>
<defs>
<clipPath id="clip0_206_3929">
<rect width="57" height="49" fill="white"/>
</clipPath>
</defs>
</svg>
