<svg width="30" height="37" viewBox="0 0 30 37" fill="none" xmlns="http://www.w3.org/2000/svg">
<path d="M30 13.4104C30 15.9878 29.987 18.5587 30 21.1361C30.0195 24.7733 28.7849 27.9003 26.2443 30.4843C24.6589 32.1001 22.8135 33.3626 20.8447 34.4485C19.0838 35.4167 17.245 36.2017 15.3736 36.9213C15.1592 36.9998 14.9578 37.0391 14.7303 36.954C11.4945 35.7242 8.36907 34.2785 5.62053 32.1197C3.53476 30.4777 1.81936 28.5348 0.851202 26.0032C0.318389 24.6229 0.0259909 23.1837 0.0194932 21.7053C0 16.1121 0.0129955 10.5124 0 4.91266C0 4.57903 0.110461 4.48744 0.435348 4.48744C1.46199 4.50707 2.48863 4.53978 3.50877 4.48744C6.66017 4.31736 9.70111 3.68281 12.4626 2.05392C13.3203 1.55021 14.1131 0.954913 14.7498 0.176448C14.8863 0.00636276 15.0227 -0.104847 15.2242 0.124114C17.024 2.17167 19.4217 3.13331 21.9558 3.81365C24.2625 4.43511 26.6277 4.55286 29.0058 4.49399C30 4.46782 30 4.4809 30 5.48833C30 8.12464 30 10.761 30 13.4038V13.4104ZM8.21962 17.113C8.12216 17.1849 8.02469 17.2438 7.94022 17.3158C7.49838 17.6756 7.06303 18.0419 6.62768 18.4082C6.2963 18.683 6.2963 18.7026 6.62118 18.997C8.89539 21.0642 11.1696 23.1314 13.4308 25.2116C13.6517 25.4144 13.7492 25.4471 13.8856 25.1397C14.1975 24.4201 14.5744 23.7332 14.9643 23.0529C17.167 19.1998 19.987 15.857 23.1839 12.8151C23.7492 12.2786 23.7427 12.2852 23.2229 11.703C23.0734 11.5394 22.963 11.5198 22.781 11.631C22.1702 12.0039 21.5335 12.3441 20.9357 12.7366C17.8558 14.7514 15.1202 17.1915 12.5276 19.8016C12.2807 20.0502 12.1248 20.0633 11.8519 19.8474C10.7407 18.9774 9.61014 18.1335 8.48603 17.2765C8.40806 17.2176 8.32359 17.1719 8.23262 17.113H8.21962Z" fill="#E4C380"/>
</svg>
