<svg width="45" height="43" viewBox="0 0 45 43" fill="none" xmlns="http://www.w3.org/2000/svg">
<g clip-path="url(#clip0_206_3936)">
<path d="M11.9277 29.3195C11.7106 30.384 11.7369 30.4234 12.5921 30.8308C14.6119 31.7901 16.625 32.7561 18.6448 33.7088C21.2237 34.931 24.0724 33.8008 25.1316 31.1659C25.2303 30.9162 25.454 30.6665 25.6842 30.5285C29.9211 28.0382 34.1711 25.5675 38.4211 23.0968C39.4803 22.4857 40.5987 22.0389 41.8487 21.9798C44.1645 21.8681 45.7632 24.2336 44.6448 26.264C44.1645 27.1314 43.4474 27.9462 42.6579 28.5507C36.9079 32.94 31.1053 37.2637 25.3224 41.6071C25.0987 41.7713 24.8553 41.9028 24.6382 42.0736C23.2829 43.1512 21.875 43.2169 20.2763 42.5664C16.1382 40.8908 11.9606 39.2941 7.7895 37.704C7.19081 37.474 6.51318 37.3623 5.86845 37.3426C4.21055 37.29 2.54608 37.3294 0.888184 37.3228C0.151341 37.3228 0.0263415 37.198 0.0263415 36.4686C0.0263415 32.2172 0.0263415 27.9593 0.0131836 23.7079C0.0131836 23.11 0.243447 22.8209 0.835552 22.7223C3.73029 22.2492 6.62502 21.7564 9.52634 21.2767C10.454 21.1256 11.3224 21.257 12.1908 21.6709C15.5329 23.2611 18.9013 24.7987 22.25 26.3757C23.5987 27.0131 24.4079 28.4521 24.2566 29.8583C24.0921 31.3433 23.0855 32.5524 21.6579 32.9203C20.7829 33.1437 19.9342 33.0386 19.1119 32.6444C16.9211 31.5996 14.7237 30.5745 12.5263 29.5495C12.3356 29.464 12.1448 29.3852 11.9408 29.3063L11.9277 29.3195Z" fill="#E4C380"/>
<path d="M25.5131 29.2667C25.2302 28.4454 24.9605 27.67 24.6776 26.8618C24.75 26.8158 24.8684 26.7369 25 26.6712C28.0921 25.1534 31.1776 23.6421 34.2697 22.1307C35.3289 21.6116 36.3487 21.6773 37.421 22.3476C33.4079 24.6803 29.4671 26.9735 25.5131 29.2733V29.2667Z" fill="#E4C380"/>
<path d="M27.3092 2.50345C26.9211 3.15397 26.8948 3.15397 26.2698 2.83199C25.6645 2.51659 25.3356 1.95806 24.9935 1.41268C24.4277 0.532175 24.1974 0.453324 23.2632 0.952713C22.5527 1.33383 21.8356 1.69523 21.0132 1.47181C20.5066 1.33383 20.0263 1.08413 19.5527 0.854149C18.8487 0.512462 18.5263 0.591313 18.0987 1.2484C17.9342 1.50467 17.7763 1.76751 17.5987 2.0172C17.1185 2.70714 16.4606 3.08826 15.6119 3.13425C15.2435 3.15397 14.8685 3.17368 14.5 3.19996C14.0329 3.23939 13.7632 3.50222 13.6974 3.95562C13.6579 4.24474 13.6448 4.53386 13.6448 4.82298C13.6513 5.9006 13.1908 6.70883 12.2632 7.25421C12.0263 7.3922 11.7961 7.54333 11.5724 7.70103C11.1185 8.01643 11.0263 8.37783 11.2566 8.87065C11.3224 9.01521 11.3948 9.16634 11.4803 9.29776C12.1908 10.4214 12.1908 11.5384 11.4803 12.6621C11.3882 12.8132 11.3092 12.9709 11.2369 13.1352C11.0395 13.5754 11.1316 13.9565 11.5329 14.2325C11.8487 14.4559 12.1908 14.6465 12.5066 14.8633C13.2106 15.3561 13.5921 16.0329 13.6382 16.9003C13.6513 17.1566 13.6513 17.4128 13.6645 17.6757C13.7106 18.5562 14.0329 18.7796 14.9277 18.8059C15.5198 18.8256 16.1448 18.9504 16.6908 19.1804C17.079 19.3512 17.375 19.7652 17.6777 20.1003C17.8882 20.3369 18.0329 20.6391 18.2171 20.902C18.5132 21.3225 18.8356 21.4079 19.3092 21.1977C19.7632 20.994 20.1974 20.7443 20.6579 20.5669C21.2632 20.3369 21.8882 20.3632 22.4803 20.626C22.875 20.8034 23.25 21.0334 23.6382 21.2174C24.0329 21.4079 24.3882 21.3554 24.6645 20.9808C24.875 20.6983 25.0987 20.4223 25.2763 20.1135C25.8027 19.2133 26.6053 18.8124 27.625 18.8124C29.1382 18.8124 29.3027 18.6679 29.3356 17.1303C29.3553 16.0527 29.8092 15.2641 30.7237 14.6925C32.1053 13.8317 32.1185 13.8054 31.3619 12.3927C30.8487 11.4267 30.8487 10.5068 31.3685 9.54088C32.1119 8.161 32.0921 8.12814 30.7566 7.26735C30.6382 7.1885 30.5198 7.10308 30.375 7.00452C30.4935 6.83367 30.6053 6.68254 30.75 6.47884C31.1842 6.76796 31.6316 7.02423 32.0264 7.3462C32.5066 7.74046 32.6382 8.45011 32.375 9.02178C32.204 9.40289 31.9935 9.7643 31.8158 10.1454C31.5527 10.7039 31.5461 11.2625 31.8224 11.821C31.9869 12.1561 32.1645 12.4781 32.3224 12.8132C32.6908 13.5886 32.4935 14.3245 31.7895 14.8042C31.7763 14.8108 31.7632 14.8239 31.75 14.8305C30.4869 15.4284 29.8816 16.3746 29.9408 17.8268C29.9869 18.865 29.4474 19.3184 28.4079 19.4367C28.1514 19.4629 27.8948 19.4958 27.6382 19.5024C26.6908 19.5221 26.0198 19.9623 25.625 20.8166C25.1842 21.7562 24.2171 22.3804 23.0395 21.6511C22.9606 21.5985 22.8685 21.5591 22.7829 21.5131C21.9014 21.0005 21.0263 20.9808 20.1513 21.5459C19.5132 21.9599 18.8356 22.2359 18.1382 21.7233C17.8158 21.4868 17.5198 21.1451 17.3356 20.7837C16.8224 19.7915 16 19.4695 14.9474 19.4761C14.25 19.4761 13.5592 19.3381 13.2303 18.635C13.0658 18.2868 12.9935 17.8531 13.0132 17.4654C13.0658 16.3286 12.579 15.5533 11.5921 15.0473C11.4606 14.9816 11.3421 14.8962 11.2237 14.8173C10.4935 14.3179 10.2895 13.582 10.6711 12.7935C10.7369 12.6621 10.7895 12.5241 10.8685 12.4058C11.5198 11.4399 11.5 10.4805 10.8553 9.52117C10.7566 9.37661 10.6908 9.20577 10.6185 9.04807C10.3224 8.36469 10.5132 7.63532 11.1185 7.20821C11.4211 6.99137 11.7435 6.80739 12.0527 6.60369C12.6513 6.21601 12.9671 5.67062 12.9803 4.95439C12.9869 4.59956 13.0132 4.24474 13.0461 3.89648C13.1185 3.13425 13.6711 2.59544 14.4342 2.54287C14.4803 2.54287 14.5329 2.5363 14.579 2.54287C15.9935 2.66115 16.9671 2.07634 17.6185 0.801582C18.0527 -0.0460644 18.875 -0.216908 19.7303 0.210201C20.0329 0.361332 20.329 0.525604 20.6316 0.676735C21.1908 0.946142 21.75 0.946142 22.3092 0.683306C22.6448 0.525604 22.9671 0.341619 23.2961 0.177346C24.0658 -0.203766 24.8421 0.0130737 25.3224 0.729302C25.454 0.933 25.5987 1.12356 25.7171 1.3404C26.0592 1.97777 26.5724 2.36546 27.2895 2.49688L27.3092 2.50345Z" fill="#E4C380"/>
<path d="M1.83556 9.42259H6.89477C6.89477 9.60657 6.89477 9.79056 6.89477 9.97454C6.89477 11.9524 6.90135 13.9368 6.88819 15.9146C6.88819 16.2432 6.98687 16.4337 7.26977 16.6112C8.40135 17.3142 9.51977 18.0436 10.7566 18.8321H1.82898C2.32898 17.7282 2.71714 16.644 3.28951 15.6649C3.92108 14.5807 3.92108 13.6345 3.28951 12.5503C2.72372 11.5844 2.34214 10.5199 1.84214 9.41602L1.83556 9.42259Z" fill="#E4C380"/>
<path d="M36.0986 9.42261H41.1381C41.0526 9.62631 40.9934 9.78401 40.921 9.94171C40.3421 11.2165 39.7565 12.4846 39.2039 13.7725C39.1184 13.9762 39.1184 14.2785 39.2039 14.4822C39.75 15.7504 40.3355 17.0054 40.9079 18.267C40.9868 18.4379 41.046 18.6153 41.1447 18.8519H32.2302C33.4079 18.0962 34.4605 17.3931 35.5394 16.7492C35.9671 16.4929 36.1184 16.2169 36.1118 15.7175C36.0855 13.6411 36.0986 11.5647 36.0986 9.42918V9.42261Z" fill="#E4C380"/>
<path d="M11.454 15.7175H7.57239V6.34741H11.4013C11.1842 6.49197 11.0395 6.59054 10.8948 6.6891C9.94081 7.33305 9.65133 8.41068 10.1579 9.44231C10.2237 9.57373 10.2763 9.71172 10.3553 9.82999C10.8948 10.6054 10.8421 11.3413 10.375 12.1692C9.52634 13.674 9.77634 14.5216 11.2105 15.5204C11.2698 15.5598 11.3224 15.6124 11.4605 15.7175H11.454Z" fill="#E4C380"/>
<path d="M35.4145 15.7175H31.5066C31.7961 15.5204 31.9737 15.4021 32.1513 15.2773C33.0461 14.6531 33.329 13.5754 32.8553 12.5898C32.8158 12.5044 32.7829 12.4058 32.7237 12.3335C32.0855 11.4399 32.1513 10.5988 32.7105 9.6526C33.4474 8.39098 33.1447 7.39878 31.9408 6.58399C31.8619 6.53142 31.7829 6.47228 31.6184 6.354H35.4079V15.7175H35.4145Z" fill="#E4C380"/>
<path d="M8.10522 16.4075H11.3421V18.4707C10.2565 17.7808 9.2368 17.1303 8.10522 16.4075Z" fill="#E4C380"/>
<path d="M31.6514 18.4707V16.4075H34.8816C33.7566 17.1237 32.7369 17.7742 31.6514 18.4707Z" fill="#E4C380"/>
<path d="M21.4276 2.76636C16.875 2.76636 13.1842 6.45263 13.1842 10.9997C13.1842 15.5468 16.875 19.233 21.4276 19.233C25.9803 19.233 29.671 15.5468 29.671 10.9997C29.671 6.45263 25.9803 2.76636 21.4276 2.76636ZM18.1184 7.67482C18.5921 7.20172 19.3553 7.20172 19.8289 7.67482C20.3026 8.14793 20.3026 8.91015 19.8289 9.38326C19.3553 9.85636 18.5921 9.85636 18.1184 9.38326C17.6447 8.91015 17.6447 8.14793 18.1184 7.67482ZM24.7303 14.2786C24.2566 14.7517 23.4934 14.7517 23.0197 14.2786C22.546 13.8055 22.546 13.0433 23.0197 12.5701C23.4934 12.097 24.2566 12.097 24.7303 12.5701C25.2039 13.0433 25.2039 13.8055 24.7303 14.2786ZM25.171 8.29249L18.7368 14.7188C18.4474 15.008 17.9671 15.008 17.6776 14.7188C17.3882 14.4297 17.3882 13.95 17.6776 13.6609L24.1118 7.23457C24.4013 6.94545 24.8816 6.94545 25.171 7.23457C25.4605 7.52369 25.4605 8.00337 25.171 8.29249Z" fill="#E4C380"/>
</g>
<defs>
<clipPath id="clip0_206_3936">
<rect width="45" height="43" fill="white"/>
</clipPath>
</defs>
</svg>
