<svg width="990" height="285" viewBox="0 0 990 285" fill="none" xmlns="http://www.w3.org/2000/svg">
<path d="M300.012 284.577L297.527 282.266L19.5325 23.5623L24.6726 17.9978L300.183 274.475L476.061 121.068L657.507 265.829L974.31 10.6357L979.022 16.4569L657.593 275.417L476.232 130.827L300.012 284.577Z" fill="#DEDEDE"/>
<path d="M976.623 26.1308C983.578 26.1308 989.216 20.4966 989.216 13.5466C989.216 6.59652 983.578 0.962402 976.623 0.962402C969.668 0.962402 964.03 6.59652 964.03 13.5466C964.03 20.4966 969.668 26.1308 976.623 26.1308Z" fill="#DEDEDE"/>
<path d="M12.5933 26.1308C19.5484 26.1308 25.1866 20.4966 25.1866 13.5466C25.1866 6.59652 19.5484 0.962402 12.5933 0.962402C5.63821 0.962402 0 6.59652 0 13.5466C0 20.4966 5.63821 26.1308 12.5933 26.1308Z" fill="#DEDEDE"/>
</svg>
