<svg width="283" height="44" viewBox="0 0 283 44" fill="none" xmlns="http://www.w3.org/2000/svg">
<mask id="mask0_319_3966" style="mask-type:luminance" maskUnits="userSpaceOnUse" x="1" y="1" width="93" height="41">
<path d="M46.6203 36.776C43.1803 36.5131 33.3372 35.1425 20.7994 27.9964C19.5058 27.2167 18.2531 26.3871 17.0215 25.5484C13.0786 22.8647 9.04773 20.0314 6.27417 16.5059C5.89548 16.0254 5.55162 15.5283 5.25321 15.013C4.9654 14.5188 4.71849 14.002 4.64124 13.4626C4.35191 11.486 6.6559 10.8 8.56452 10.1819C11.741 9.15439 15.1311 8.52879 18.4803 7.97421C18.4803 7.97421 30.7924 5.51261 47.3959 5.42496C64.0009 5.51261 76.3131 7.97421 76.3131 7.97421C79.6623 8.52879 83.0523 9.1559 86.2288 10.1819C88.1375 10.8 90.4399 11.486 90.1521 13.4626C90.0733 14.002 89.8264 14.5188 89.5401 15.013C89.2402 15.5283 88.8979 16.0254 88.5177 16.5059C85.7456 20.0314 81.7148 22.8647 77.7718 25.5484C76.5388 26.3886 75.2876 27.2167 73.9909 27.9964C61.4546 35.1425 51.6115 36.5146 48.173 36.776C47.914 36.7956 47.6549 36.8047 47.3974 36.8047C47.1399 36.8047 46.8809 36.7956 46.6234 36.776M16.049 5.16354C12.4227 5.85714 8.74932 6.64141 5.30926 7.92736C3.24158 8.69954 0.746736 9.55785 1.0603 12.03C1.14664 12.7055 1.41173 13.3523 1.72377 13.9718C2.04793 14.614 2.42057 15.2366 2.83107 15.838C5.8364 20.2475 10.199 23.791 14.4706 27.1487C15.8052 28.1989 17.1609 29.2355 18.5636 30.2117C32.1421 39.1499 42.8031 40.8666 46.5295 41.1945C47.0899 41.2443 47.6504 41.2443 48.2094 41.1945C51.9342 40.8666 62.5952 39.1499 76.1752 30.2117C77.5764 29.2355 78.9321 28.1989 80.2682 27.1487C84.5399 23.791 88.9024 20.2459 91.9062 15.838C92.3167 15.2366 92.6894 14.614 93.0135 13.9718C93.3241 13.3523 93.5907 12.7055 93.677 12.03C93.9891 9.55936 91.4942 8.70105 89.428 7.92736C85.988 6.64141 82.3146 5.85865 78.6867 5.16354C78.6867 5.16354 65.3521 2.0839 47.3671 1.9751C29.3837 2.08541 16.049 5.16354 16.049 5.16354Z" fill="white"/>
</mask>
<g mask="url(#mask0_319_3966)">
<path d="M93.989 1.9751H0.74823V41.2428H93.989V1.9751Z" fill="url(#paint0_linear_319_3966)"/>
</g>
<mask id="mask1_319_3966" style="mask-type:luminance" maskUnits="userSpaceOnUse" x="0" y="0" width="96" height="44">
<path d="M32.898 17.1844H50.2468L47.3187 24.0131C46.3886 26.1815 46.6113 28.6492 47.9155 30.6166C49.2198 32.5841 51.4086 33.7597 53.7747 33.7597H66.3534L66.3186 33.7764C57.7237 37.7279 51.2465 38.6708 48.5684 38.896C48.0397 38.9398 47.5096 38.9398 46.9809 38.896C44.2528 38.6678 37.5923 37.6962 28.7657 33.5618L26.8358 32.6536L26.2723 32.3499L28.5657 26.9764H40.8536L43.4484 21.0513H31.1605L32.8995 17.1828L32.898 17.1844ZM23.0292 30.4927C22.8444 30.3869 22.6581 30.2736 22.4733 30.1663L27.7901 17.9777C29.1777 14.8089 31.2711 13.3325 34.3749 13.3325H72.2823L71.5491 15.0053H59.8656C57.9479 15.0053 56.3589 15.8123 55.2668 17.3052L54.9199 17.8236C54.7654 18.082 54.623 18.36 54.4942 18.6501L51.8237 24.5843C51.1587 26.1029 51.1647 27.3964 51.8403 28.427C52.2902 29.1131 53.2248 29.9306 55.1183 29.9306L73.5108 29.9124C72.5686 30.47 71.5931 31.1077 70.6857 31.5973H53.8504C52.1781 31.5973 50.6921 30.7995 49.7711 29.4108C48.8501 28.0205 48.6987 26.3447 49.3546 24.814L52.6416 17.1481L53.5535 15.0189H51.2344L34.2037 15.022C32.6072 15.022 31.1636 15.9649 30.5258 17.4216L27.9765 23.1396H40.2644L39.5312 24.814H27.2388L24.4652 31.2936L23.0277 30.4927H23.0292ZM20.6131 29.0451C19.2877 28.1716 18.0047 27.2468 16.7429 26.3084C16.0233 25.775 15.3038 25.2356 14.5873 24.6885C13.5724 23.9028 13.5512 23.9148 13.2074 23.6141C10.399 21.3883 7.74657 18.9886 5.73798 16.2036C5.35019 15.6657 4.99876 15.1111 4.69278 14.5354C4.39891 13.9823 4.14443 13.4051 4.06566 12.8006C3.77028 10.5929 6.12879 9.82524 8.08286 9.13618C11.3351 7.98622 14.8085 7.28658 18.2379 6.66702C18.2379 6.66702 30.847 3.9168 47.8519 3.81858C64.8553 3.9168 77.4644 6.66702 77.4644 6.66702C80.8938 7.28658 84.3657 7.98773 87.6179 9.13618C89.5735 9.82676 91.932 10.5929 91.6366 12.8006C91.5548 13.4051 91.3019 13.9823 91.0095 14.5354C90.702 15.1111 90.3506 15.6672 89.9628 16.2036C88.7858 17.8372 87.3831 19.3362 85.8608 20.7491C85.2428 21.3082 85.3609 21.1994 84.7762 21.7237C84.1991 22.2269 83.6098 22.718 83.01 23.2016C82.0042 24.0206 81.5997 24.3153 81.5997 24.3153C80.7242 24.9923 79.8395 25.6556 78.9579 26.31C78.2748 26.8192 77.634 27.206 76.9357 27.7002L76.8009 27.7878L55.1198 27.806C53.5338 27.806 53.0885 27.0156 53.7808 25.435L56.4498 19.5009C57.1421 17.9218 58.2797 17.1315 59.8671 17.1315H72.9473L75.5436 11.2064H34.3764C30.4122 11.2064 27.5644 13.1814 25.8346 17.1315L20.6313 29.0572C20.6313 29.0572 20.6192 29.0496 20.6131 29.0466M15.6704 3.5632C11.9561 4.3384 8.19344 5.21484 4.67157 6.65191C2.55542 7.51627 -1.29044e-05 8.47582 0.319606 11.2366C0.407463 11.9922 0.680124 12.716 0.999742 13.4066C1.33148 14.1244 1.71169 14.821 2.1328 15.4934C4.18381 18.7771 6.85437 21.6331 9.70367 24.2836C10.0687 24.622 10.4338 24.9575 10.8034 25.2915C11.8774 26.2601 12.9695 27.2045 14.0541 28.1339C15.4235 29.308 16.811 30.4655 18.247 31.558C32.1542 41.548 43.0713 43.4641 46.887 43.8313C47.4596 43.8872 48.0352 43.8872 48.6063 43.8313C52.4235 43.4641 63.3405 41.548 77.2477 31.558C78.6837 30.4655 80.0713 29.308 81.4391 28.1339C82.8782 26.9008 84.3263 25.642 85.7335 24.3349C86.094 24.001 86.45 23.6625 86.803 23.321C87.1256 23.0082 87.4468 22.6954 87.7633 22.378C88.0345 22.103 88.3041 21.8265 88.5707 21.5484C90.3536 19.6762 91.9941 17.68 93.3589 15.4934C93.7785 14.821 94.1603 14.1244 94.492 13.4066C94.8116 12.716 95.0858 11.9922 95.1721 11.2366C95.4918 8.47582 92.9378 7.51627 90.8202 6.65191C87.2983 5.21484 83.5371 4.33991 79.8214 3.5632C79.8214 3.5632 66.1641 0.1224 47.7459 0C29.3261 0.1224 15.6704 3.5632 15.6704 3.5632Z" fill="white"/>
</mask>
<g mask="url(#mask1_319_3966)">
<path d="M95.4903 0H0V43.9295H95.4903V0Z" fill="url(#paint1_linear_319_3966)"/>
</g>
<mask id="mask2_319_3966" style="mask-type:luminance" maskUnits="userSpaceOnUse" x="109" y="10" width="168" height="13">
<path d="M109.428 10.8393V22.6906H111.503V17.8651H117.456V15.9678H111.503V12.7339H118.218V10.8393H109.428ZM120.093 22.6906H122.166V10.8393H120.093V22.6906ZM126.873 12.7339H129.896C131.43 12.7339 132.341 13.4301 132.341 14.6976V14.7348C132.341 15.9333 131.393 16.7145 129.912 16.7145H126.873V12.7366V12.7339ZM124.8 10.8393V22.6906H126.873V18.5586H129.475L132.376 22.6906H134.821L131.635 18.2025C133.289 17.7296 134.451 16.5604 134.451 14.6126V14.5781C134.451 13.5444 134.097 12.6649 133.471 12.0218C132.714 11.2751 131.547 10.8367 130.064 10.8367H124.8V10.8393ZM145.652 10.8393V12.7685H149.397V22.6906H151.488V12.7685H155.233V10.8393H145.649H145.652ZM181.079 10.8393V15.7659H175.445V10.8393H173.37V22.6906H175.445V17.695H181.079V22.6906H183.157V10.8393H181.079ZM199.608 22.6906H201.68V10.8393H199.608V22.6906ZM216.24 10.8393V22.6906H225.081V20.8279H218.315V17.6445H224.236V15.7845H218.315V12.7021H224.995V10.8393H216.24ZM258.364 12.7339H261.387C262.921 12.7339 263.832 13.4301 263.832 14.6976V14.7348C263.832 15.9333 262.889 16.7145 261.403 16.7145H258.364V12.7366V12.7339ZM256.291 10.8393V22.6906H258.364V18.5586H260.963L263.867 22.6906H266.312L263.126 18.2025C264.778 17.7296 265.942 16.5604 265.942 14.6126V14.5781C265.942 13.5444 265.59 12.6649 264.961 12.0218C264.202 11.2751 263.041 10.8367 261.557 10.8367H256.294L256.291 10.8393ZM248.598 13.2415L250.639 17.982H246.574L248.598 13.2415ZM247.669 10.7516L242.475 22.6906H244.6L245.815 19.8288H251.398L252.597 22.6906H254.786L249.592 10.7516H247.669ZM136.156 14.1051V14.1396C136.156 16.3239 137.573 17.0679 140.087 17.6791C142.279 18.1866 142.751 18.6437 142.751 19.4913V19.5232C142.751 20.4214 141.944 21.0139 140.66 21.0139C139.192 21.0139 138.063 20.4559 136.933 19.4754L135.684 20.9634C137.101 22.2336 138.803 22.8607 140.609 22.8607C143.087 22.8607 144.826 21.5401 144.826 19.3213V19.2894C144.826 17.3257 143.526 16.4275 141.03 15.819C138.771 15.2769 138.231 14.8704 138.231 13.9563V13.9244C138.231 13.1458 138.942 12.5187 140.154 12.5187C141.233 12.5187 142.298 12.9412 143.361 13.7357L144.474 12.1626C143.276 11.1981 141.909 10.6719 140.188 10.6719C137.844 10.6719 136.158 12.0776 136.158 14.1077M267.649 14.1077V14.1423C267.649 16.3265 269.064 17.0706 271.578 17.6817C273.773 18.1893 274.247 18.6463 274.247 19.494V19.5259C274.247 20.424 273.437 21.0166 272.153 21.0166C270.688 21.0166 269.559 20.4586 268.427 19.478L267.178 20.9661C268.595 22.2363 270.297 22.8634 272.103 22.8634C274.583 22.8634 276.32 21.5427 276.32 19.3239V19.292C276.32 17.3283 275.022 16.4302 272.526 15.8217C270.268 15.2796 269.727 14.873 269.727 13.9589V13.927C269.727 13.1485 270.435 12.5214 271.647 12.5214C272.726 12.5214 273.789 12.9439 274.852 13.7384L275.965 12.1653C274.767 11.2007 273.403 10.6746 271.682 10.6746C269.338 10.6746 267.652 12.0803 267.652 14.1104M160.928 16.7703V16.8048C160.928 20.2061 163.491 22.8979 166.932 22.8979C169.143 22.8979 170.491 22.0848 171.721 20.7987L170.389 19.4435C169.377 20.3921 168.45 20.9847 166.999 20.9847C164.74 20.9847 163.102 19.0874 163.102 16.7676V16.7358C163.102 14.416 164.737 12.5532 166.999 12.5532C168.349 12.5532 169.361 13.1458 170.307 14.0254L171.639 12.4842C170.509 11.4 169.193 10.6374 167.017 10.6374C163.44 10.6374 160.925 13.3956 160.925 16.7676M187.328 16.7676V16.7358C187.328 14.4293 188.963 12.5532 191.31 12.5532C193.657 12.5532 195.324 14.4665 195.324 16.7676V16.8022C195.324 19.1034 193.689 20.982 191.342 20.982C188.995 20.982 187.328 19.0688 187.328 16.765M185.152 16.765V16.7995C185.152 20.1317 187.682 22.8926 191.308 22.8926C194.933 22.8926 197.498 20.0998 197.498 16.7623V16.7304C197.498 13.3929 194.967 10.6347 191.342 10.6347C187.717 10.6347 185.152 13.4275 185.152 16.765ZM203.795 16.765V16.7995C203.795 20.2008 206.357 22.8926 209.799 22.8926C212.01 22.8926 213.36 22.0795 214.591 20.7934L213.259 19.4382C212.247 20.3868 211.317 20.9794 209.866 20.9794C207.607 20.9794 205.971 19.0821 205.971 16.7623V16.7304C205.971 14.4107 207.609 12.5479 209.866 12.5479C211.219 12.5479 212.228 13.1405 213.174 14.02L214.506 12.4788C213.374 11.3947 212.06 10.6321 209.884 10.6321C206.309 10.6321 203.795 13.3903 203.795 16.7623M231.042 16.7623V16.7969C231.042 20.1981 233.607 22.8899 237.049 22.8899C239.254 22.8899 240.607 22.0768 241.838 20.7907L240.506 19.4355C239.494 20.3842 238.567 20.9767 237.115 20.9767C234.854 20.9767 233.218 19.0794 233.218 16.7597V16.7278C233.218 14.408 234.854 12.5453 237.115 12.5453C238.466 12.5453 239.475 13.1378 240.423 14.0174L241.755 12.4762C240.626 11.392 239.307 10.6294 237.131 10.6294C233.556 10.6294 231.042 13.3876 231.042 16.7597" fill="white"/>
</mask>
<g mask="url(#mask2_319_3966)">
<path d="M276.312 10.6353H109.428V22.8931H276.312V10.6353Z" fill="url(#paint2_linear_319_3966)"/>
</g>
<path d="M278.949 5.9265C279.092 5.91322 279.282 5.90524 279.505 5.90524C280.201 5.90524 280.549 6.12048 280.549 6.55361C280.549 6.98674 280.232 7.20995 279.599 7.20995H278.951V5.92916L278.949 5.9265ZM278.419 5.57309V9.23212H278.949V7.61386H279.623C280.166 7.61386 280.515 8.15328 280.664 9.23212H281.194C281.104 8.67144 281.002 8.26488 280.885 8.0151C280.773 7.76266 280.611 7.574 280.403 7.44379C280.84 7.25778 281.061 6.94954 281.061 6.52173C281.061 6.2002 280.92 5.9451 280.64 5.75644C280.358 5.56777 279.979 5.47477 279.503 5.47477C279.183 5.47477 278.821 5.50931 278.419 5.57309ZM276.82 7.35876C276.82 5.80958 278.08 4.5527 279.633 4.5527C281.186 4.5527 282.446 5.80958 282.446 7.35876C282.446 8.90793 281.183 10.1648 279.633 10.1648C278.083 10.1648 276.82 8.90528 276.82 7.35876ZM277.252 4.98318C276.615 5.61826 276.266 6.46061 276.266 7.35876C276.266 8.25691 276.615 9.09925 277.252 9.73168C277.886 10.3641 278.733 10.7149 279.633 10.7149C280.533 10.7149 281.378 10.3668 282.012 9.73168C282.648 9.0966 283 8.25159 283 7.35876C283 6.46592 282.648 5.61826 282.012 4.98318C281.378 4.34809 280.531 4 279.633 4C278.735 4 277.886 4.34809 277.252 4.98318Z" fill="url(#paint3_linear_319_3966)"/>
<path d="M150.726 37.0058C150.726 37.2663 150.673 37.4948 150.569 37.6941C150.465 37.8907 150.321 38.0555 150.137 38.191C149.954 38.3238 149.741 38.4275 149.501 38.4966C149.258 38.5656 149.003 38.6002 148.728 38.6002H145.734V32.4194H149.051C149.266 32.4194 149.461 32.4646 149.634 32.5576C149.807 32.6506 149.956 32.7702 150.079 32.919C150.201 33.0678 150.295 33.2352 150.361 33.4239C150.428 33.6125 150.462 33.8039 150.462 33.9952C150.462 34.2981 150.388 34.5798 150.236 34.8428C150.084 35.1086 149.863 35.3026 149.573 35.4301C149.927 35.5337 150.209 35.7224 150.414 35.9934C150.622 36.2618 150.723 36.6019 150.723 37.0085L150.726 37.0058ZM146.938 33.4451V35.0023H148.545C148.747 35.0023 148.92 34.9332 149.064 34.7924C149.208 34.6542 149.277 34.4629 149.277 34.2184C149.277 33.9739 149.21 33.7906 149.08 33.6524C148.949 33.5142 148.787 33.4425 148.595 33.4425H146.938V33.4451ZM149.514 36.78C149.514 36.671 149.495 36.5647 149.458 36.4611C149.421 36.3601 149.37 36.2724 149.306 36.1954C149.242 36.121 149.168 36.0599 149.08 36.0173C148.992 35.9748 148.896 35.9536 148.792 35.9536H146.941V37.5798H148.731C148.843 37.5798 148.944 37.5586 149.04 37.5187C149.136 37.4762 149.218 37.4204 149.288 37.3486C149.357 37.2769 149.413 37.1918 149.453 37.0935C149.493 36.9952 149.514 36.8916 149.514 36.78Z" fill="white"/>
<path d="M154.724 37.5793C155.009 37.5793 155.249 37.5208 155.444 37.4066C155.638 37.2897 155.795 37.1408 155.915 36.9548C156.035 36.7688 156.117 36.5562 156.168 36.3144C156.216 36.0726 156.243 35.8255 156.243 35.5704V32.4189H157.439V35.5704C157.439 35.9929 157.388 36.3915 157.287 36.7635C157.186 37.1355 157.026 37.4597 156.807 37.7387C156.589 38.0177 156.309 38.2383 155.966 38.4004C155.622 38.5625 155.212 38.6448 154.735 38.6448C154.258 38.6448 153.821 38.5598 153.475 38.3871C153.129 38.217 152.849 37.9885 152.633 37.7068C152.418 37.4252 152.263 37.0983 152.167 36.7263C152.071 36.3543 152.023 35.969 152.023 35.5678V32.4163H153.227V35.5678C153.227 35.8308 153.251 36.0806 153.302 36.3224C153.353 36.5642 153.435 36.7768 153.555 36.9628C153.675 37.1488 153.829 37.2976 154.021 37.4119C154.213 37.5235 154.45 37.5819 154.727 37.5819L154.724 37.5793Z" fill="white"/>
<path d="M159.785 32.4163L161.312 35.3924L162.865 32.4163H164.165L161.914 36.4367V38.597H160.718V36.4207L158.475 32.4163H159.783H159.785Z" fill="white"/>
<path d="M167.859 39.7291V31.8503H168.853V39.7291H167.859Z" fill="white"/>
<path d="M176.846 34.0348C176.806 33.9949 176.732 33.9391 176.623 33.87C176.516 33.8009 176.383 33.7318 176.231 33.6654C176.076 33.599 175.909 33.5432 175.73 33.4953C175.549 33.4475 175.365 33.4262 175.179 33.4262C174.849 33.4262 174.601 33.4874 174.438 33.6096C174.276 33.7318 174.193 33.9045 174.193 34.1251C174.193 34.2526 174.225 34.3589 174.284 34.444C174.345 34.529 174.433 34.6034 174.55 34.6645C174.667 34.7283 174.814 34.7868 174.99 34.8372C175.168 34.8904 175.373 34.9462 175.605 35.002C175.909 35.0844 176.183 35.1694 176.431 35.2624C176.678 35.3554 176.886 35.4723 177.059 35.6105C177.23 35.7487 177.363 35.9161 177.456 36.1101C177.55 36.304 177.595 36.5432 177.595 36.8275C177.595 37.1597 177.534 37.4413 177.408 37.6778C177.283 37.9117 177.115 38.103 176.902 38.2491C176.689 38.3926 176.444 38.4989 176.17 38.568C175.893 38.6344 175.605 38.669 175.301 38.669C174.835 38.669 174.377 38.5999 173.922 38.4591C173.466 38.3182 173.061 38.1216 172.699 37.8665L173.232 36.8302C173.285 36.8833 173.378 36.9497 173.514 37.0348C173.65 37.1198 173.812 37.2022 173.999 37.2872C174.185 37.3723 174.39 37.4413 174.619 37.4998C174.846 37.5583 175.08 37.5875 175.317 37.5875C175.981 37.5875 176.311 37.3749 176.311 36.9524C176.311 36.8195 176.274 36.7053 176.196 36.6123C176.122 36.5193 176.013 36.4369 175.874 36.3678C175.736 36.2987 175.565 36.235 175.368 36.1765C175.171 36.118 174.95 36.0543 174.705 35.9852C174.409 35.9028 174.151 35.8151 173.932 35.7194C173.714 35.6238 173.533 35.5095 173.386 35.3793C173.24 35.2491 173.13 35.0977 173.059 34.9249C172.987 34.7549 172.949 34.5503 172.949 34.3111C172.949 33.9975 173.008 33.7185 173.122 33.4741C173.24 33.2296 173.399 33.0277 173.607 32.8656C173.815 32.7035 174.055 32.5812 174.326 32.4962C174.601 32.4112 174.894 32.3687 175.208 32.3687C175.645 32.3687 176.047 32.4377 176.412 32.5733C176.78 32.7114 177.099 32.8709 177.374 33.0569L176.841 34.0321L176.846 34.0348Z" fill="white"/>
<path d="M183.242 37.5447V38.597H178.94V32.4163H183.165V33.4685H180.144V34.9566H182.754V35.9318H180.144V37.5421H183.242V37.5447Z" fill="white"/>
<path d="M184.622 38.597V32.4163H185.826V37.5421H188.985V38.5944H184.622V38.597Z" fill="white"/>
<path d="M190.154 38.597V32.4163H191.358V37.5421H194.517V38.5944H190.154V38.597Z" fill="white"/>
<path d="M198.262 39.7291V31.8503H199.256V39.7291H198.262Z" fill="white"/>
<path d="M208.193 33.4685H206.211V38.597H205.015V33.4685H203.033V32.4163H208.19V33.4685H208.193Z" fill="white"/>
<path d="M209.397 38.597V32.4163H212.138C212.423 32.4163 212.686 32.4747 212.929 32.5943C213.171 32.7139 213.379 32.8706 213.552 33.0646C213.725 33.2586 213.864 33.4792 213.962 33.7263C214.061 33.9734 214.109 34.2205 214.109 34.4703C214.109 34.8716 214.008 35.2356 213.808 35.5624C213.608 35.8893 213.336 36.1258 212.993 36.2719L214.407 38.597H213.054L211.789 36.5244H210.601V38.597H209.397ZM210.601 35.4721H212.111C212.22 35.4721 212.324 35.4455 212.42 35.3924C212.516 35.3392 212.598 35.2675 212.668 35.1798C212.737 35.0894 212.793 34.9832 212.833 34.8609C212.873 34.7387 212.894 34.6085 212.894 34.4703C212.894 34.3321 212.87 34.1913 212.825 34.0691C212.78 33.9468 212.716 33.8405 212.638 33.7502C212.559 33.6598 212.471 33.5908 212.367 33.5403C212.263 33.4898 212.162 33.4659 212.058 33.4659H210.601V35.4694V35.4721Z" fill="white"/>
<path d="M217.399 32.4163H218.464L220.821 38.597H219.583L219.007 37.0558H216.842L216.274 38.597H215.036L217.401 32.4163H217.399ZM218.786 36.2108L217.931 33.7821L217.042 36.2108H218.786Z" fill="white"/>
<path d="M221.937 38.597V32.4163H224.188C224.694 32.4163 225.139 32.496 225.52 32.6607C225.901 32.8228 226.218 33.0434 226.476 33.3224C226.732 33.6014 226.924 33.9282 227.052 34.3029C227.18 34.6776 227.244 35.0762 227.244 35.4987C227.244 35.969 227.172 36.3942 227.03 36.7741C226.889 37.1541 226.681 37.4783 226.415 37.7494C226.146 38.0204 225.826 38.2277 225.451 38.3765C225.075 38.5253 224.654 38.5997 224.188 38.5997H221.937V38.597ZM226.029 35.4987C226.029 35.2037 225.989 34.93 225.906 34.6802C225.824 34.4305 225.707 34.2152 225.549 34.0345C225.392 33.8538 225.198 33.7157 224.969 33.6173C224.74 33.519 224.479 33.4685 224.188 33.4685H223.141V37.5421H224.188C224.487 37.5421 224.748 37.4889 224.979 37.3853C225.208 37.2817 225.4 37.1382 225.555 36.9548C225.709 36.7715 225.826 36.5562 225.909 36.3065C225.992 36.0567 226.032 35.7856 226.032 35.496L226.029 35.4987Z" fill="white"/>
<path d="M232.922 37.5447V38.597H228.621V32.4163H232.845V33.4685H229.825V34.9566H232.435V35.9318H229.825V37.5421H232.922V37.5447Z" fill="white"/>
<path d="M234.164 36.7342V35.6819H236.806V36.7342H234.164Z" fill="white"/>
<path d="M238.386 38.597V32.4163H239.59V38.597H238.386Z" fill="white"/>
<path d="M242.523 34.6382V38.6002H241.319V32.4194H242.251L245.479 36.4744V32.4274H246.683V38.6002H245.706L242.52 34.6382H242.523Z" fill="white"/>
<defs>
<linearGradient id="paint0_linear_319_3966" x1="1.01795" y1="22.1015" x2="93.5722" y2="22.1015" gradientUnits="userSpaceOnUse">
<stop stop-color="#683C22"/>
<stop offset="0.24" stop-color="#683C22"/>
<stop offset="0.59" stop-color="#744928"/>
<stop offset="1" stop-color="#624031"/>
</linearGradient>
<linearGradient id="paint1_linear_319_3966" x1="0.311909" y1="21.6906" x2="95.1013" y2="21.6906" gradientUnits="userSpaceOnUse">
<stop stop-color="#E8C77C"/>
<stop offset="0.24" stop-color="#A88140"/>
<stop offset="0.41" stop-color="#D0AE68"/>
<stop offset="0.59" stop-color="#906A30"/>
<stop offset="1" stop-color="#E8CA87"/>
</linearGradient>
<linearGradient id="paint2_linear_319_3966" x1="109.414" y1="17.5808" x2="276.089" y2="17.5808" gradientUnits="userSpaceOnUse">
<stop stop-color="#E8C77C"/>
<stop offset="0.24" stop-color="#A88140"/>
<stop offset="0.41" stop-color="#D0AE68"/>
<stop offset="0.59" stop-color="#906A30"/>
<stop offset="1" stop-color="#E8CA87"/>
</linearGradient>
<linearGradient id="paint3_linear_319_3966" x1="279.633" y1="10.7149" x2="279.633" y2="3.99734" gradientUnits="userSpaceOnUse">
<stop stop-color="#E8C77C"/>
<stop offset="0.45" stop-color="#D0AE68"/>
<stop offset="1" stop-color="#E8CA87"/>
</linearGradient>
</defs>
</svg>
