<svg width="26" height="26" viewBox="0 0 26 26" fill="none" xmlns="http://www.w3.org/2000/svg">
<path d="M7.37321 14.5069C5.95751 11.6177 7.88416 5.98752 14.365 6.90795C21.5034 7.92178 20.2187 19.0178 14.2669 18.5844C12.3836 18.4473 11.6715 16.8866 11.4856 15.2921M11.4856 15.2921C11.3446 14.0833 11.5061 12.8551 11.689 12.2131C12.001 11.1178 12.5183 11.2668 12.1403 12.7156C11.9563 13.4206 11.7319 14.3058 11.4856 15.2921ZM11.4856 15.2921C10.8283 17.9242 10.0155 21.2782 9.40176 23.8634M9.40176 23.8634C10.5864 24.2759 11.8593 24.5 13.1845 24.5C19.5358 24.5 24.6845 19.3513 24.6845 13C24.6845 6.64873 19.5358 1.5 13.1845 1.5C6.83324 1.5 1.68451 6.64873 1.68451 13C1.68451 18.026 4.90879 22.299 9.40176 23.8634Z" stroke="#C8232C" stroke-width="2" stroke-linecap="round" stroke-linejoin="round"/>
</svg>
