<svg width="74" height="71" viewBox="0 0 74 71" fill="none" xmlns="http://www.w3.org/2000/svg">
<g opacity="0.3">
<path d="M1.06743 53.7749C1.06743 52.7455 1.16022 51.7066 1.04887 50.6959C0.696259 47.4671 2.07886 45.0993 4.51 43.1995C7.61853 40.7662 11.2281 39.4186 14.9769 38.3985C15.6357 38.2206 15.8306 37.9586 15.8028 37.2941C15.7285 35.4224 15.7193 33.5506 15.7193 31.6789C15.7193 31.1548 15.5337 30.8834 15.0697 30.6588C12.9819 29.648 11.0518 28.4127 9.59499 26.5409C8.6114 25.2775 8.10104 23.8549 8.08249 22.2359C8.05465 19.606 8.04537 16.9669 7.8969 14.3371C7.76699 11.988 8.68563 10.1443 10.2909 8.57206C12.7128 6.21365 15.6914 4.81919 18.8185 3.74294C25.2211 1.56234 31.8279 0.869793 38.5553 1.01953C44.4569 1.15056 50.2471 1.94605 55.8053 4.05177C58.6633 5.13739 61.345 6.51313 63.4235 8.86218C64.7133 10.3128 65.4093 11.988 65.2701 13.9814C65.1402 15.9748 65.0752 17.9776 64.9453 19.9804C64.9082 20.5606 65.0659 20.8601 65.6134 21.1035C67.5249 21.9738 69.3065 23.0688 70.8005 24.5756C72.3037 26.101 73.1388 27.8698 72.9811 30.0972C72.7862 32.7738 72.6749 35.4598 72.6006 38.1458C72.5357 40.2796 71.6634 41.9922 70.188 43.4522C67.9982 45.6141 65.3072 46.943 62.4771 48.0006C61.3821 48.4123 60.2593 48.768 59.1273 49.0768C58.6076 49.2172 58.4128 49.4324 58.3942 49.9753C58.3107 52.3149 58.088 54.6546 58.088 57.0037C58.088 59.699 56.9745 61.7673 54.998 63.4519C52.0472 65.9694 48.5397 67.3638 44.8652 68.3933C38.2769 70.2463 31.5588 70.6394 24.7665 70.1715C19.7743 69.8346 14.8841 68.9642 10.1981 67.1299C7.97114 66.2595 5.87404 65.1552 4.0646 63.5455C2.283 61.9545 1.15094 60.064 1.22517 57.5652C1.26229 56.3018 1.22517 55.0383 1.22517 53.7749C1.16022 53.7749 1.09526 53.7749 1.03959 53.7749H1.06743ZM36.7088 23.6116C42.8516 23.5554 48.8923 22.891 54.7197 20.8133C57.1415 19.9523 59.4706 18.8761 61.3728 17.0792C63.906 14.674 63.8968 12.0442 61.3914 9.62024C59.8974 8.17899 58.1065 7.21504 56.2136 6.41954C51.24 4.3419 45.9972 3.44345 40.6617 3.15333C33.4703 2.76962 26.3625 3.28436 19.4773 5.62405C16.5729 6.61608 13.7706 7.85143 11.5529 10.0882C9.21455 12.4466 9.26094 14.8612 11.6735 17.1447C13.3438 18.7263 15.3666 19.6996 17.4823 20.4858C23.6808 22.8161 30.1391 23.518 36.6995 23.6116H36.7088ZM56.3342 49.7694C53.7175 50.3309 51.1843 50.6491 48.6325 50.8269C43.1578 51.2013 37.7202 50.9299 32.329 49.891C28.3668 49.133 24.5159 48.0006 21.0269 45.8948C18.8835 44.6033 17.0091 43.0311 16.1275 40.5603C15.9791 40.1579 15.7749 40.2983 15.5244 40.3638C13.0376 41.0096 10.6343 41.8612 8.37014 43.0872C6.79268 43.9389 5.31729 44.9309 4.17595 46.3441C2.60777 48.3 2.63561 50.2186 4.25946 52.1184C4.56568 52.474 4.91829 52.7922 5.28017 53.1011C6.77412 54.3645 8.50933 55.2255 10.3188 55.9368C15.0326 57.7805 19.9506 58.6228 24.9706 58.9878C31.6794 59.4744 38.3233 59.1001 44.8559 57.3593C48.0201 56.517 51.0915 55.4033 53.7361 53.3818C54.9145 52.4834 55.9259 51.4259 56.3435 49.7787L56.3342 49.7694ZM18.5494 32.1374C18.6793 32.6335 18.9577 32.8393 19.1897 33.0827C20.3496 34.29 21.7507 35.151 23.2539 35.8622C27.7543 37.9867 32.5424 38.9413 37.4418 39.4747C41.5061 39.9146 45.5704 39.9614 49.6532 39.6525C54.3299 39.2969 58.9138 38.4733 63.3029 36.77C65.6784 35.8435 67.9518 34.7111 69.6963 32.7645C71.515 30.7336 71.5335 28.525 69.7705 26.4473C68.5178 24.978 66.9032 24.0234 65.2144 23.1624C64.8061 22.9565 64.7876 23.2279 64.7319 23.4806C64.3422 25.2307 63.3122 26.569 62.0224 27.7295C60.0923 29.4795 57.8189 30.6494 55.4249 31.5853C50.841 33.3822 46.0622 34.2619 41.172 34.6082C35.8365 34.9825 30.5288 34.7766 25.2582 33.8314C23.0312 33.429 20.8321 32.8768 18.568 32.1374H18.5494ZM45.691 45.3239V43.7423C45.691 41.7676 45.691 41.7863 43.7145 41.8144C43.232 41.8144 43.0928 41.9641 43.0928 42.4414C43.1207 43.9108 43.0928 45.3895 43.0928 46.8588C43.0928 48.9739 43.0928 48.9645 45.1992 48.8241C45.5704 48.7961 45.691 48.6837 45.691 48.3094C45.6724 47.308 45.691 46.3066 45.691 45.3146V45.3239ZM37.8687 29.0865V27.43C37.8687 25.5021 37.8687 25.5208 35.9293 25.5489C35.4468 25.5489 35.3076 25.6892 35.3076 26.1759C35.3354 27.6733 35.3169 29.1707 35.3169 30.6775C35.3169 32.6709 35.3169 32.6615 37.2933 32.596C37.7202 32.5867 37.8872 32.4744 37.8779 32.0158C37.8501 31.0425 37.8779 30.0692 37.8779 29.0958L37.8687 29.0865ZM35.6602 44.7624V46.5032C35.6602 48.4591 35.6602 48.4498 37.6088 48.4966C38.045 48.5059 38.2027 48.403 38.1934 47.9444C38.1656 46.4938 38.1934 45.0525 38.1749 43.6019C38.1749 42.9281 38.4718 42.0297 38.045 41.6366C37.6367 41.2622 36.7552 41.4307 36.0963 41.2997C35.7066 41.2248 35.6602 41.3652 35.6602 41.6927C35.6695 42.7222 35.6602 43.7423 35.6602 44.7718V44.7624ZM23.5602 64.4065C23.5602 63.9292 23.5694 63.4612 23.5602 62.9839C23.5323 62.3288 23.8107 61.5427 23.4488 61.056C23.0869 60.5787 22.2518 60.9063 21.6579 60.7098C21.129 60.5413 21.0455 60.7846 21.0548 61.2526C21.0733 62.75 21.0548 64.2567 21.0548 65.7541C21.0548 67.7476 21.0548 67.7288 23.022 67.9067C23.4488 67.9441 23.5694 67.8131 23.5602 67.4013C23.5416 66.3999 23.5602 65.3985 23.5602 64.3971V64.4065ZM19.8299 63.8917V62.3101C19.8299 60.3354 19.8299 60.3448 17.9277 60.0359C17.4359 59.9517 17.2967 60.0827 17.306 60.5881C17.3338 62.1136 17.3153 63.6391 17.3153 65.1739C17.3153 66.403 17.9122 67.108 19.1062 67.289C19.1804 67.2983 19.2639 67.289 19.3381 67.3077C19.7093 67.4106 19.8485 67.289 19.8392 66.8866C19.8114 65.8852 19.8392 64.8838 19.8392 63.8824L19.8299 63.8917ZM26.6687 28.3097C26.6687 27.7856 26.6687 27.2615 26.6687 26.7374C26.6687 24.7627 26.6687 24.7814 24.7665 24.4632C24.3025 24.3884 24.1726 24.5194 24.1819 24.978C24.2004 26.5503 24.1819 28.1319 24.1819 29.7042C24.1819 31.501 24.1819 31.4823 25.9913 31.735C26.4924 31.8005 26.6965 31.7163 26.6687 31.1548C26.6316 30.2095 26.6594 29.2643 26.6594 28.3191L26.6687 28.3097ZM30.3618 28.9461C30.3618 28.3939 30.3804 27.8418 30.3618 27.2896C30.334 26.6626 30.6123 25.9139 30.2412 25.4553C29.9164 25.0435 29.1555 25.2681 28.5988 25.1745C28.5245 25.1652 28.441 25.1464 28.3668 25.1184C27.9678 24.9967 27.875 25.1932 27.875 25.5582C27.875 27.5516 27.875 29.5544 27.875 31.5478C27.875 31.838 27.9214 32.0719 28.2554 32.1187C28.8493 32.1936 29.4432 32.2685 30.037 32.334C30.4268 32.3808 30.3618 32.0813 30.3618 31.8567C30.3618 30.8834 30.3618 29.9101 30.3618 28.9461ZM34.1013 29.0771C34.1013 28.553 34.1199 28.0289 34.1013 27.5049C34.0735 26.8778 34.3518 26.1198 33.9807 25.6799C33.6559 25.2868 32.895 25.605 32.3383 25.5114C32.2826 25.5114 32.2362 25.5114 32.1805 25.4927C31.6702 25.3336 31.5681 25.5676 31.5774 26.0355C31.6052 27.561 31.5774 29.0771 31.5774 30.6026C31.5774 32.5773 31.5774 32.5586 33.526 32.5679C33.9621 32.5679 34.1199 32.4556 34.1106 31.9971C34.0827 31.0237 34.1106 30.0504 34.1106 29.0865L34.1013 29.0771ZM34.4446 44.5565V42.8158C34.4446 41.6179 33.857 40.9253 32.6816 40.7382C32.6816 40.7382 32.6259 40.7382 32.6074 40.7288C32.1527 40.6258 31.9485 40.7569 31.9578 41.281C31.9857 42.7784 31.9578 44.2851 31.9578 45.7825C31.9578 47.0241 32.5641 47.751 33.7765 47.9631C33.7765 47.9631 33.8322 47.9631 33.8508 47.9818C34.2962 48.1035 34.4539 47.9444 34.4446 47.4765C34.4168 46.5032 34.4446 45.5298 34.4446 44.5565ZM31.1227 64.6685C31.1227 64.1444 31.1227 63.6203 31.1227 63.0869C31.1227 61.0467 31.1227 61.056 29.1277 61.1122C28.673 61.1215 28.5616 61.2806 28.5616 61.7112C28.5802 63.2086 28.5616 64.706 28.5616 66.2034C28.5616 68.2716 28.5616 68.2529 30.6123 68.15C31.0392 68.1313 31.132 67.9722 31.1227 67.5791C31.1041 66.6058 31.1227 65.6325 31.1227 64.6592V64.6685ZM41.9051 45.2584C41.9051 44.5472 41.9051 43.8359 41.9051 43.1246C41.9051 42.3011 41.5092 41.8612 40.7174 41.805C40.4297 41.7863 40.1421 41.7489 39.8637 41.7021C39.5111 41.646 39.409 41.7957 39.409 42.1326C39.4183 44.1635 39.4183 46.185 39.409 48.2158C39.409 48.5714 39.5575 48.6557 39.873 48.665C40.3462 48.6744 40.8102 48.7212 41.2741 48.7773C41.7381 48.8335 41.9329 48.6931 41.9144 48.1877C41.8773 47.2144 41.9051 46.2411 41.9144 45.2678L41.9051 45.2584ZM32.2548 64.5656C32.2548 65.1177 32.2548 65.6699 32.2548 66.2221C32.2548 68.1874 32.2548 68.1781 34.2034 67.9722C34.6395 67.9254 34.7694 67.785 34.7601 67.3545C34.7416 65.7729 34.7601 64.1912 34.7601 62.6189C34.7601 61.5895 34.2683 61.0872 33.2847 61.1122C33.127 61.1122 32.9692 61.1309 32.8115 61.1122C32.3475 61.056 32.2362 61.29 32.2455 61.7112C32.264 62.6564 32.2455 63.6016 32.2455 64.5562L32.2548 64.5656ZM13.5572 62.4786C13.5572 63.0027 13.5572 63.5268 13.5572 64.0508C13.5572 66.1285 13.5572 66.1191 15.5986 66.5403C15.9883 66.6245 16.0904 66.5683 16.0811 66.1659C16.0626 64.6685 16.0811 63.1711 16.0811 61.6737C16.0811 59.6148 16.0811 59.6335 14.0397 59.1843C13.6129 59.0907 13.5572 59.1843 13.5572 59.568C13.5758 60.5413 13.5572 61.5146 13.5572 62.4879V62.4786ZM53.0958 44.7718C53.0958 44.2477 53.1144 43.7236 53.0958 43.1995C53.068 42.5725 53.3742 41.7115 52.9752 41.3933C52.6226 41.1125 51.806 41.4775 51.1843 41.4869C50.6925 41.4869 50.5811 41.7021 50.5904 42.1513C50.6183 43.6487 50.5904 45.1461 50.5904 46.6435C50.5904 48.6931 50.6461 48.7305 52.6318 48.2532C52.9752 48.169 53.1051 48.0473 53.0958 47.6917C53.0772 46.7184 53.0958 45.7451 53.0958 44.7811V44.7718ZM30.668 43.8827C30.668 43.3586 30.668 42.8345 30.668 42.3011C30.668 40.3638 30.668 40.3919 28.7936 39.8865C28.1812 39.718 28.1534 39.9427 28.1626 40.4293C28.1812 41.8706 28.1626 43.3212 28.1626 44.7624C28.1626 46.7184 28.1626 46.6997 30.0278 47.1863C30.5845 47.3267 30.6866 47.1583 30.668 46.6342C30.6309 45.717 30.6587 44.7905 30.6587 43.8733L30.668 43.8827ZM38.4904 64.1444C38.4904 63.4051 38.4904 62.6751 38.4904 61.9358C38.4904 61.1184 38.1037 60.741 37.3305 60.8034C37.0706 60.8221 36.8108 60.8595 36.551 60.8595C36.0871 60.8595 35.9571 61.0935 35.9664 61.552C35.9943 62.9933 35.9757 64.4439 35.9757 65.8852C35.9757 67.9535 35.9757 67.9347 37.9893 67.6446C38.4068 67.5885 38.5089 67.4294 38.4996 67.0456C38.4811 66.0723 38.4996 65.099 38.4996 64.1257L38.4904 64.1444ZM39.1028 29.0678V30.8085C39.1028 32.699 39.1028 32.6896 41.005 32.5212C41.469 32.4837 41.6267 32.3246 41.6267 31.8473C41.5989 30.378 41.6174 28.8993 41.6267 27.43C41.6267 25.4834 41.6267 25.5114 39.6967 25.6518C39.2049 25.6892 39.0935 25.8577 39.1028 26.3163C39.1306 27.2334 39.1028 28.16 39.1028 29.0771V29.0678ZM54.3206 44.6127C54.3206 45.1087 54.3206 45.6141 54.3206 46.1101C54.3206 48.1971 54.3206 48.1784 56.3249 47.6356C56.724 47.5233 56.8539 47.3642 56.8446 46.943C56.8167 45.1274 56.7982 43.3212 56.8446 41.5056C56.8631 40.7943 56.6683 40.6352 56.028 40.8505C55.6661 40.9721 55.2671 41.0096 54.8774 41.0376C54.4598 41.0751 54.2928 41.2529 54.3114 41.6927C54.3392 42.6661 54.3114 43.6394 54.3114 44.6127H54.3206ZM49.013 24.4726C48.2985 24.5943 47.6582 24.6879 47.0272 24.8002C46.7396 24.8563 46.4983 24.9218 46.5076 25.3336C46.5261 27.327 46.5169 29.3298 46.5076 31.3232C46.5076 31.5572 46.5447 31.7631 46.8416 31.7069C47.4819 31.5759 48.1129 31.4355 48.7439 31.2952C48.9758 31.2484 49.0037 31.0799 49.0037 30.8834C49.0037 28.7589 49.0037 26.6345 49.0037 24.4726H49.013ZM39.7523 63.873V65.4547C39.7523 67.5042 39.7523 67.4949 41.7381 66.9708C42.1185 66.8678 42.2855 66.7087 42.2763 66.2782C42.2484 64.3784 42.2484 62.4879 42.2763 60.5881C42.2763 60.0921 42.1278 60.0172 41.6917 60.1389C41.2648 60.2512 40.8194 60.298 40.3833 60.3541C39.9286 60.4103 39.7152 60.5881 39.743 61.1122C39.7894 62.0294 39.7523 62.9559 39.7523 63.873ZM19.1804 26.6345V25.1371C19.1804 23.1624 19.1711 23.1905 17.3338 22.5166C16.7028 22.2827 16.6564 22.5166 16.6657 23.0501C16.6936 24.4445 16.6657 25.839 16.6657 27.2334C16.6657 28.5686 17.3029 29.4359 18.5772 29.8352C18.6236 29.8539 18.6793 29.8633 18.7257 29.882C19.0783 30.0598 19.1804 29.9101 19.1804 29.5544C19.1711 28.5811 19.1804 27.6078 19.1804 26.6345ZM12.3138 65.5576V60.6443C12.3138 59.359 11.7076 58.5136 10.4951 58.108C10.4487 58.0893 10.393 58.0799 10.3466 58.0519C9.91049 57.8366 9.80841 58.0425 9.80841 58.4543C9.81769 60.3728 9.80841 62.2914 9.80841 64.2006C9.80841 64.5001 9.89193 64.6872 10.1796 64.8089C10.8477 65.0803 11.5158 65.3611 12.3045 65.5576H12.3138ZM58.0787 43.7517C58.0787 44.229 58.0787 44.6969 58.0787 45.1742C58.0787 46.6467 58.7654 47.1177 60.1387 46.5874C60.1387 46.5874 60.1851 46.578 60.2129 46.5687C60.4727 46.5032 60.5934 46.3534 60.5934 46.0633C60.5841 44.0886 60.5934 42.1139 60.5934 40.1392C60.5934 39.8865 60.5377 39.7368 60.2315 39.821C59.6283 39.9894 59.0252 40.1579 58.422 40.3076C58.088 40.3919 58.0694 40.6258 58.0787 40.9066C58.0787 41.8518 58.0787 42.8064 58.0787 43.7517ZM45.9787 59.0626C45.2456 59.2498 44.6517 59.4183 44.0393 59.5586C43.631 59.6522 43.4454 59.8394 43.464 60.3073C43.5011 61.7299 43.4733 63.1524 43.4733 64.5749C43.4733 66.7087 43.4733 66.69 45.5147 65.9226C45.8395 65.8009 45.9787 65.6606 45.9787 65.3143C45.9694 63.2647 45.9787 61.2151 45.9787 59.072V59.0626ZM50.2935 27.5797C50.2935 28.525 50.2935 29.4796 50.2935 30.4248C50.2935 30.8272 50.377 31.0331 50.8317 30.874C51.3235 30.7055 51.8338 30.5839 52.3256 30.4248C52.5854 30.3499 52.7803 30.247 52.7803 29.8913C52.7617 27.9447 52.771 25.9981 52.7803 24.0421C52.7803 23.6771 52.6411 23.5742 52.3071 23.6678C51.8338 23.8081 51.3606 23.986 50.8781 24.0608C50.4141 24.1357 50.2749 24.3509 50.2935 24.8002C50.3213 25.7173 50.2935 26.6438 50.2935 27.561V27.5797ZM64.3143 38.361C63.5349 38.6511 62.8389 38.9132 62.1337 39.1565C61.7997 39.2688 61.8182 39.5309 61.8182 39.7929C61.8182 40.6633 61.8182 41.5243 61.8182 42.3947C61.8182 43.5645 61.8182 44.725 61.8182 46.0071C62.6162 45.6702 63.2843 45.3895 63.9524 45.1087C64.1844 45.0058 64.3236 44.8654 64.3143 44.5752C64.305 42.535 64.3143 40.4855 64.3143 38.361ZM53.9959 29.7416C54.8496 29.5825 55.5548 29.1707 56.2971 28.8619C56.4734 28.787 56.5105 28.6466 56.5105 28.4782C56.5105 26.5035 56.5105 24.5288 56.5105 22.5447C56.5105 22.2546 56.4177 22.1704 56.1301 22.292C55.5269 22.5353 54.9145 22.7787 54.3021 22.9846C54.0515 23.0688 53.9959 23.2279 53.9959 23.4525C53.9959 25.5301 53.9959 27.6172 53.9959 29.7322V29.7416ZM23.2539 44.6595C23.2539 42.4508 23.2539 40.3264 23.2539 38.2113C23.2539 38.0335 23.1983 37.9212 23.0312 37.8463C22.2889 37.5 21.5559 37.135 20.7486 36.742C20.7486 38.8196 20.7486 40.7943 20.7486 42.769C20.7486 42.9468 20.7207 43.1434 20.9063 43.265C21.6394 43.7423 22.3446 44.2851 23.2539 44.6688V44.6595ZM12.9262 20.5419C12.9262 22.6196 12.9262 24.5943 12.9262 26.569C12.9262 26.831 12.9912 27.0182 13.2232 27.1586C13.8077 27.5142 14.3738 27.8792 14.9491 28.2442C15.2924 28.4688 15.4502 28.422 15.4409 27.9634C15.4316 26.0449 15.4409 24.117 15.4409 22.1891C15.4409 21.9457 15.4316 21.7305 15.1625 21.5995C14.4573 21.2719 13.7613 20.9256 12.9355 20.5232L12.9262 20.5419ZM27.2254 64.6685C27.2254 64.0883 27.244 63.508 27.2254 62.9278C27.2069 62.3569 27.4574 61.655 27.1048 61.2432C26.7986 60.8782 26.1119 61.1683 25.6016 61.0841C25.5273 61.0747 25.4438 61.0841 25.3696 61.056C24.85 60.8969 24.7479 61.159 24.7479 61.6176C24.7665 63.1711 24.7479 64.7247 24.7479 66.2782C24.7479 68.1781 24.7479 68.1687 26.6872 68.1313C27.0955 68.1313 27.2347 68.0002 27.2254 67.5885C27.2069 66.6151 27.2254 65.6418 27.2254 64.6685ZM22.8457 27.6639C22.8457 27.1399 22.8457 26.6158 22.8457 26.0823C22.8457 24.1638 22.8457 24.1825 21.0084 23.7145C20.4888 23.5835 20.3681 23.7145 20.3774 24.2106C20.396 25.6799 20.3774 27.1586 20.3774 28.6279C20.3774 30.5839 20.3774 30.5745 22.2982 31.0144C22.7529 31.1173 22.8549 30.9957 22.8457 30.5839C22.8364 29.6106 22.8457 28.6373 22.8457 27.6639ZM49.3656 45.1836V43.2931C49.3656 42.2574 48.8707 41.7614 47.8809 41.805C47.751 41.805 47.6211 41.8331 47.4912 41.805C46.9808 41.7302 46.888 41.9922 46.8973 42.4414C46.9159 43.9108 46.8973 45.3895 46.8973 46.8588C46.8973 48.8054 46.8973 48.7867 48.8274 48.6463C49.3006 48.6089 49.3748 48.4123 49.3656 48.0099C49.347 47.0647 49.3656 46.1194 49.3656 45.1648V45.1836ZM45.2734 28.5437C45.2734 27.6733 45.2363 26.8123 45.2827 25.9419C45.3291 25.212 45.1435 24.9218 44.3919 25.1839C44.1321 25.2681 43.8259 25.2494 43.5382 25.2587C43.0093 25.2681 42.7773 25.474 42.7959 26.073C42.8423 27.5423 42.8145 29.0116 42.8145 30.4809C42.8145 32.3808 42.8145 32.3527 44.7074 32.0813C45.1992 32.0064 45.3013 31.8192 45.2827 31.3887C45.2549 30.4435 45.2827 29.4983 45.2827 28.553L45.2734 28.5437ZM26.9378 46.213V41.3652C26.9378 39.2875 26.9378 39.3063 25.0077 38.7167C24.553 38.5763 24.4695 38.7167 24.4695 39.1378C24.4788 41.0376 24.4695 42.9281 24.4695 44.8279C24.4695 45.1461 24.5159 45.3801 24.8592 45.5111C25.5088 45.7638 26.149 46.0539 26.9378 46.213ZM57.7354 28.0945C58.5891 27.7107 59.2386 27.2334 59.8974 26.7749C60.1294 26.6158 60.2315 26.4099 60.2315 26.1104C60.2222 24.379 60.2315 22.6476 60.2315 20.9069C60.2315 20.5326 60.1851 20.336 59.7582 20.5887C59.2201 20.9069 58.6633 21.1877 58.0973 21.4684C57.8282 21.5995 57.7261 21.7773 57.7261 22.0768C57.7354 24.0421 57.7261 26.0168 57.7261 28.0945H57.7354ZM50.9801 60.3261C50.9801 60.7191 50.9523 61.1122 50.9801 61.5053C51.0358 62.1604 50.6646 63.1898 51.1564 63.3864C51.6575 63.5923 52.3349 62.8061 52.9195 62.4224C53.1979 62.2352 53.467 62.0574 53.4577 61.6269C53.4391 59.8675 53.4484 58.108 53.4577 56.3486C53.4577 55.9742 53.3463 55.8806 53.003 56.0678C52.5019 56.3486 52.0101 56.6387 51.4905 56.8727C51.11 57.0505 50.9523 57.2845 50.9709 57.7243C50.9987 58.5853 50.9801 59.4557 50.9709 60.3261H50.9801ZM49.6532 61.0467C49.6532 60.1295 49.6347 59.2124 49.6532 58.2858C49.6625 57.8085 49.5047 57.7524 49.1057 57.9396C48.6603 58.1455 48.1871 58.3233 47.7231 58.4543C47.2963 58.576 47.1757 58.8193 47.1757 59.2498C47.1942 61.0373 47.1942 62.8248 47.1757 64.603C47.1757 65.1645 47.2777 65.4172 47.8716 65.1084C48.2613 64.9118 48.6789 64.734 49.0965 64.5936C49.5511 64.4439 49.6718 64.1631 49.6532 63.7139C49.6254 62.8248 49.6532 61.9264 49.6439 61.0373L49.6532 61.0467ZM8.60212 60.6255C8.60212 60.2325 8.53717 59.8207 8.6114 59.4463C8.91761 57.8647 8.32375 56.9195 6.79268 56.3954C6.13386 56.1708 6.1153 56.3299 6.12458 56.8633C6.14314 58.1267 6.12458 59.3902 6.12458 60.6536C6.12458 61.995 6.70607 63.0027 7.86907 63.6765C7.93402 63.7139 8.00825 63.7514 8.07321 63.7982C8.49077 64.0789 8.60212 63.9011 8.60212 63.4706C8.59284 62.5254 8.60212 61.5801 8.60212 60.6255ZM65.5299 44.2196C67.7847 43.2744 67.9889 42.9749 67.9889 40.7943V36.5454C67.1909 36.9666 66.5228 37.3222 65.8547 37.6591C65.6413 37.7621 65.5299 37.9024 65.5299 38.1364C65.5299 40.1298 65.5299 42.1326 65.5299 44.2103V44.2196ZM17.7328 34.6082C17.9927 37.1912 17.1761 39.8959 19.5144 42.0484C19.5144 40.5697 19.4031 39.2314 19.5423 37.9212C19.6907 36.4799 19.2546 35.4504 18.0205 34.7392C17.9741 34.7111 17.9277 34.7017 17.7328 34.6082ZM4.94612 61.4865C4.94612 59.3808 4.94612 57.4903 4.94612 55.5999C4.94612 55.4314 4.89045 55.3004 4.75126 55.1881C4.26874 54.8044 3.78623 54.4207 3.30371 54.037C3.30371 55.3659 3.32227 56.62 3.30371 57.8741C3.27587 59.2592 3.8883 60.3448 4.94612 61.4865ZM10.0961 18.483C10.0961 20.0646 10.0126 21.5901 10.1239 23.0969C10.1981 24.117 10.792 24.978 11.7014 25.7735C11.7014 23.7613 11.7014 21.8989 11.7014 20.0366C11.7014 19.7932 11.5622 19.6528 11.3952 19.5218C10.9683 19.1849 10.5415 18.8386 10.0961 18.483ZM62.9781 18.4175C62.9132 18.3988 62.8575 18.3707 62.7925 18.352C62.6348 18.4924 62.5049 18.6608 62.3286 18.7544C61.5398 19.1943 61.3635 19.8587 61.4192 20.7291C61.4935 22.0113 61.4378 23.3028 61.4471 24.5849C61.4471 24.7347 61.3357 24.9593 61.6234 25.0529C63.3678 23.0875 62.6997 20.6636 62.9874 18.4268L62.9781 18.4175ZM70.8283 34.4678C69.5478 35.1229 69.0467 35.9652 69.1859 37.3035C69.3158 38.6324 69.2137 39.9894 69.2137 41.4775C71.2644 39.3811 70.3829 36.8449 70.8283 34.4771V34.4678ZM56.0187 53.9527C55.5733 54.4675 54.6825 54.6078 54.6454 55.3004C54.5619 57.0692 54.6176 58.838 54.6176 60.7753C56.5755 58.6976 55.861 56.2456 56.0187 53.9527Z" fill="black" stroke="black" stroke-width="0.75"/>
<path d="M50.2286 6.41943C50.0894 7.41146 49.5419 8.01042 48.9759 8.58131C46.7396 10.8181 44.0301 12.3155 41.1628 13.5508C40.4576 13.8503 39.7431 14.1404 38.9451 14.2714C39.075 13.869 39.3997 13.8035 39.6688 13.6538C41.6175 12.4933 43.6682 11.4919 45.2642 9.79795C45.4962 9.55462 45.8209 9.31129 45.9045 9.01181C46.2014 7.93555 47.0736 7.64543 47.9552 7.32723C48.6882 7.06519 49.4027 6.75635 50.2471 6.41943H50.2286Z" fill="black"/>
<path d="M38.1562 18.4736C38.6109 18.4736 38.9821 18.4174 39.3254 18.4736C41.6916 18.9228 43.9186 18.2022 46.1735 17.6968C46.5075 17.622 47.0643 17.5752 46.5354 16.9856C46.3776 16.8077 46.5168 16.6486 46.6745 16.527C47.055 16.2369 47.4262 15.9654 47.9551 16.1433C48.2427 16.2369 48.1963 16.4427 48.1963 16.6393C48.187 17.1166 48.0386 17.5658 47.5839 17.7436C44.8465 18.8573 42.1185 19.9991 39.0749 19.0258C38.7687 18.9322 38.4068 18.9041 38.1655 18.4549L38.1562 18.4736Z" fill="black"/>
<path d="M47.7974 19.8681C47.2221 19.8494 46.721 19.9243 46.2385 19.7652C46.09 19.7184 45.9323 19.6435 45.8952 19.4657C45.858 19.2692 46.0251 19.1943 46.155 19.1194C46.5911 18.8667 47.0087 18.6983 47.5468 18.8948C48.4469 19.213 49.3934 19.1194 50.3213 18.9697C50.7482 18.9042 50.8595 18.7451 50.7667 18.2865C50.5719 17.3226 51.0265 16.8546 52.0287 16.8546C52.3442 16.8546 52.4277 17.0324 52.4834 17.2758C52.6597 18.0151 52.2421 18.483 51.7132 18.8574C50.5069 19.7184 49.1057 19.8213 47.7788 19.8588L47.7974 19.8681Z" fill="black"/>
<path d="M27.0397 53.045C26.3437 53.1105 25.7499 52.9701 25.1653 52.4834C24.7477 52.1372 24.126 52.0248 23.5785 51.8377C21.8248 51.2481 20.071 50.6585 18.308 50.0876C17.7048 49.891 17.1481 49.6009 16.6284 49.2547C15.9232 48.7961 15.2644 48.3188 14.3458 48.6089C13.9839 48.7306 13.6405 48.534 13.557 48.141C13.4457 47.5701 13.056 47.5607 12.6198 47.5514C10.8661 47.5046 9.13086 47.3548 7.46989 46.7278C7.108 46.5874 6.75539 46.4002 6.43062 46.2037C6.23576 46.082 6.01306 45.8855 6.18936 45.6234C6.34711 45.3895 6.60692 45.5486 6.75539 45.6422C7.93385 46.4189 9.27005 46.6061 10.6155 46.7933C11.6919 46.943 12.759 47.0928 13.8632 46.812C14.9118 46.55 15.9882 46.7184 17.0274 47.046C17.2316 47.1115 17.4636 47.1583 17.4914 47.4016C17.5285 47.6543 17.3151 47.7572 17.111 47.8134C16.3315 48.0474 16.6748 48.3375 17.0738 48.6183C18.4008 49.5541 19.9597 49.9285 21.4536 50.4713C22.8084 50.9579 24.1539 51.4633 25.6942 51.1358C26.7984 50.9018 27.9583 51.2761 29.1182 51.0515C29.5636 50.9673 30.306 51.0983 30.408 51.6879C30.5101 52.2682 29.8605 52.4554 29.4059 52.6145C28.645 52.8765 27.8748 53.1666 27.0397 53.0262V53.045ZM27.5129 52.3524C27.6707 52.4273 27.7913 52.5021 27.9305 52.5396C28.181 52.6238 28.3944 52.5396 28.5243 52.315C28.5707 52.2401 28.5986 52.081 28.5522 52.0342C28.3666 51.8564 28.1717 52.0436 27.9862 52.081C27.8377 52.1091 27.6707 52.0997 27.5129 52.343V52.3524Z" fill="black"/>
<path d="M27.012 53.7C27.81 53.9901 28.5894 54.327 29.3967 54.5797C31.2618 55.1693 33.2012 55.1318 35.122 55.1693C35.289 55.1693 35.5674 55.1693 35.456 54.8885C35.1962 54.2053 35.7808 54.3176 36.0777 54.1866C36.4675 54.0088 36.9778 54.0275 37.117 54.3925C37.2469 54.7481 36.9685 55.1974 36.5881 55.422C36.1984 55.6466 35.7622 55.7308 35.3076 55.7402C33.8786 55.7402 32.4403 55.8057 31.0113 55.7308C29.4338 55.6466 28.0976 54.9166 26.9099 53.9246L27.0027 53.7093L27.012 53.7Z" fill="black"/>
<path d="M38.6666 57.9863C36.987 57.9489 35.7529 57.6588 34.5744 57.116C34.3796 57.0224 34.0734 56.9194 34.1476 56.6293C34.2033 56.4047 34.4724 56.4234 34.6765 56.386C35.0755 56.3111 35.4189 56.3579 35.7807 56.6106C36.5416 57.1534 37.4603 57.3032 38.3511 57.4903C38.88 57.6026 39.1398 57.4155 39.1212 56.8352C39.112 56.517 39.0099 56.0678 39.4275 55.9461C39.8729 55.8245 40.3832 55.7964 40.8101 55.9929C41.1998 56.1707 41.0049 57.0785 40.5224 57.4061C39.845 57.8647 39.0934 58.0144 38.6666 57.9863Z" fill="black"/>
<path d="M46.062 34.6081C46.9343 34.6642 47.7972 34.7204 48.6695 34.7672C50.5995 34.8514 52.409 34.2244 54.2555 33.7939C54.5339 33.7284 54.7102 33.5973 54.4318 33.3259C54.172 33.0733 54.2555 32.8954 54.5061 32.6895C54.9236 32.3339 55.3876 32.1842 55.8794 32.3994C56.1763 32.5304 56 32.8674 55.9629 33.1107C55.8979 33.4944 55.7216 33.822 55.3505 33.9717C52.975 34.9169 50.6181 35.937 47.9642 35.5065C47.2869 35.3942 46.5909 35.2632 46.062 34.6174V34.6081Z" fill="black"/>
<path d="M55.4619 36.1522C55.0722 36.1335 54.6824 36.1335 54.2927 36.0773C54.0793 36.0493 53.7824 36.0212 53.7174 35.7404C53.6525 35.4222 53.9679 35.3754 54.1535 35.2631C54.5061 35.0572 54.8495 34.9917 55.267 35.1321C56.1207 35.4222 57.0022 35.3754 57.893 35.2725C58.5333 35.1976 58.7096 34.9636 58.5426 34.374C58.3848 33.8125 58.4776 33.3914 59.1457 33.2884C59.5076 33.2323 59.9623 32.9047 60.1943 33.3352C60.417 33.747 60.352 34.2617 59.9994 34.6642C59.3035 35.4597 58.3663 35.7685 57.3827 35.9463C56.7424 36.0586 56.0929 36.1803 55.4341 36.1522H55.4619Z" fill="black"/>
<path d="M40.9678 15.7126C40.8471 15.3383 40.4852 15.357 40.179 15.3196C39.9749 15.2915 39.7243 15.2541 39.5573 15.3383C38.4253 15.9279 37.0983 15.8624 35.9756 16.3865C35.0384 16.8263 34.1104 16.9854 33.6001 16.9106C31.9298 16.817 30.7514 16.7795 29.5822 16.6672C28.7842 16.5924 27.9676 16.5549 27.2067 16.2367C26.7892 16.0589 26.5943 15.8905 27.0954 15.5629C27.2902 15.4412 27.5593 15.3102 27.4387 15.0201C27.3366 14.7674 27.049 14.8048 26.817 14.7955C25.6386 14.7861 24.5529 15.123 23.5136 15.6378C23.0589 15.8624 22.6135 16.0308 22.1217 16.1244C20.2937 16.452 18.475 16.7608 16.6099 16.4052C16.3872 16.3678 16.0717 16.3022 16.0068 16.6017C15.9511 16.8731 16.2387 16.9948 16.4614 17.0603C16.9347 17.21 17.4265 17.2943 17.9183 17.2943C19.5978 17.3036 21.2217 16.948 22.8455 16.5456C23.0775 16.4894 23.4115 16.1806 23.625 16.6859C23.8941 17.3317 24.3766 17.2849 24.9241 17.0229C25.2395 16.8731 25.5179 16.5924 25.9355 16.7515C28.6636 17.7996 31.5216 17.6125 34.361 17.6967C34.9548 17.7154 35.5858 17.6967 36.1519 17.8464C37.9335 18.3425 39.3439 17.6405 40.643 16.5269C40.8842 16.321 41.0606 16.0215 40.9492 15.6846L40.9678 15.7126ZM25.1839 16.1525C24.8313 16.3022 24.4972 16.3116 24.4415 16.1712C24.3859 16.0308 24.6271 15.7969 24.9797 15.6471C25.3323 15.4974 25.6664 15.488 25.7221 15.6284C25.7777 15.7688 25.5365 16.0028 25.1839 16.1525ZM38.9078 17.0416C38.5552 17.1445 38.2211 17.1445 38.1654 17.0509C38.1098 16.9574 38.351 16.7983 38.7036 16.6953C39.0562 16.5924 39.3903 16.5924 39.446 16.6859C39.5016 16.7795 39.2604 16.9386 38.9078 17.0416ZM38.1005 16.7889C37.7479 16.8918 37.4138 16.8918 37.3582 16.7983C37.3025 16.7047 37.5437 16.5456 37.8964 16.4426C38.249 16.3397 38.583 16.3397 38.6387 16.4333C38.6944 16.5269 38.4531 16.686 38.1005 16.7889Z" fill="black"/>
</g>
</svg>
