<svg width="100" height="107" viewBox="0 0 100 107" fill="none" xmlns="http://www.w3.org/2000/svg">
<g clip-path="url(#clip0_1_6532)">
<path d="M0.0524476 51.6046C0.0524476 37.2277 0.130992 22.8508 8.47057e-05 8.48711C-0.0391874 3.83037 3.44294 -0.0130764 8.36505 4.11735e-05C31.3393 0.0918642 54.3135 0.0787466 77.2877 4.11735e-05C81.6338 -0.0130764 85.6134 3.10891 85.5872 8.31658C85.5348 17.1447 85.5872 25.9859 85.561 34.8141C85.561 35.6798 85.6658 36.1127 86.6999 36.2832C89.2395 36.6899 90.9937 38.9592 91.1246 41.7533C91.1639 42.501 90.8889 43.4848 91.2686 43.9177C91.6351 44.3505 92.4729 43.5635 93.1406 43.4454C96.7143 42.7502 99.987 45.3475 100 48.9942C100.026 59.6981 100.013 70.402 100 81.106C100 83.7426 99.1754 86.1825 97.8008 88.4256C96.9238 89.8554 95.9681 91.2458 95.0256 92.6363C94.7376 93.0561 94.6591 93.3709 95.0518 93.8038C95.4707 94.2629 95.5492 94.8663 95.5492 95.4828C95.5361 98.408 95.5492 101.32 95.5492 104.245C95.5492 105.964 94.5544 107 92.8526 107C83.1785 107.013 73.5045 107.013 63.8304 107C62.0632 107 61.0945 105.964 61.0552 104.193C61.029 102.995 60.4094 102.396 59.1963 102.396C52.808 102.396 46.4198 102.409 40.0315 102.383C39.1021 102.383 38.7355 102.54 38.7486 103.589C38.7879 106.082 37.0075 107.079 34.8607 105.859C33.6563 105.177 32.4389 104.521 31.2869 103.773C30.6324 103.353 30.1349 103.327 29.4673 103.773C28.276 104.547 27.0324 105.229 25.8019 105.924C23.8252 107.053 21.9925 106.056 22.0841 103.799C22.1365 102.579 21.7307 102.33 20.5918 102.356C16.2195 102.422 11.8472 102.383 7.47489 102.383C2.84077 102.383 0.0917197 99.6149 0.0917197 94.9844C0.0917197 80.5419 0.0917197 66.0863 0.0917197 51.6439L0.0524476 51.6046ZM70.8078 36.9391C70.9125 36.4931 71.0041 36.0865 71.1089 35.6929C72.2216 31.6265 77.0259 30.0786 80.2331 32.7677C81.3458 33.6991 81.948 34.9059 82.2229 36.3095C82.2622 36.5062 82.1574 36.926 82.5894 36.8342C82.8643 36.7817 83.0214 36.5587 83.0214 36.257C83.0214 36.1127 83.0214 35.9553 83.0214 35.811C83.0214 26.4844 83.0345 17.1709 83.0214 7.84435C83.0214 4.69613 80.7698 2.5055 77.615 2.5055C58.8952 2.5055 40.1886 2.5055 21.4689 2.47926C20.6049 2.47926 20.3431 2.68914 20.3431 3.58114C20.3692 27.6912 20.3692 51.7882 20.3431 75.8983C20.3431 76.7509 20.5394 77.0526 21.4558 77.0526C30.9465 77.0133 40.4373 77.0264 49.915 77.0526C50.7528 77.0526 50.9623 76.8296 50.9623 75.977C50.923 70.507 50.923 65.0501 50.9492 59.58C50.9492 57.2713 51.8001 55.2775 53.384 53.5984C55.4 51.4734 57.9396 50.6863 60.7934 50.8437C61.8014 50.8962 62.0501 50.5683 62.0239 49.5976C61.9585 47.1315 61.9585 44.6522 62.0239 42.1861C62.0894 38.7493 64.1708 36.3882 67.3649 36.0734C68.5955 35.9553 69.7082 36.3619 70.834 36.8998L70.8078 36.9391ZM97.539 65.1812C97.539 59.9473 97.539 54.7003 97.539 49.4664C97.539 47.2758 96.2169 45.8328 94.2794 45.8459C92.3551 45.8591 91.2293 47.2102 91.2293 49.4533C91.2293 56.0383 91.2293 62.6233 91.2424 69.2215C91.2424 70.1134 90.9675 70.8087 89.9333 70.7956C88.9384 70.7956 88.729 70.0741 88.729 69.2477C88.729 68.2376 88.7159 67.2276 88.7159 66.2175C88.6766 58.1765 88.6504 50.1223 88.6112 42.0812C88.6112 40.166 87.5377 38.8412 85.9145 38.6575C83.8069 38.4214 82.3014 39.825 82.3014 42.055C82.3014 50.9224 82.3014 59.7899 82.3014 68.6705C82.3014 69.0116 82.3276 69.3526 82.2883 69.6806C82.1836 70.402 81.7647 70.8349 81.0055 70.8087C80.2986 70.7824 79.9058 70.3758 79.8535 69.6806C79.8273 69.3133 79.8404 68.9329 79.8273 68.5525C79.8142 58.4126 79.8011 48.2727 79.788 38.1197C79.788 37.595 79.7749 37.0703 79.6833 36.5587C79.4607 35.2338 78.4659 34.2238 77.2091 33.9745C75.9393 33.7253 74.6826 34.3025 73.9496 35.4568C73.4259 36.2832 73.3736 37.2146 73.3736 38.159C73.3736 48.3383 73.3736 58.5175 73.3605 68.6967C73.3605 69.0772 73.3997 69.4576 73.3343 69.8117C73.2165 70.4283 72.8107 70.7824 72.1561 70.7956C71.5016 70.8087 71.0827 70.4545 70.9387 69.8511C70.8601 69.4969 70.8994 69.1034 70.8994 68.7361C70.8994 60.0129 70.8994 51.2897 70.8994 42.5797C70.8994 42.2386 70.9125 41.8976 70.8994 41.5696C70.7554 39.9955 69.5903 38.7756 68.1373 38.6444C66.4878 38.5001 65.0871 39.4446 64.6944 41.0449C64.5504 41.6221 64.5766 42.2386 64.5766 42.8289C64.5766 51.434 64.5766 60.0523 64.5766 68.6574C64.5766 69.1034 64.629 69.5494 64.4588 69.9954C64.2493 70.5463 63.8566 70.8349 63.2675 70.8218C62.6654 70.8087 62.2595 70.507 62.1417 69.9298C62.0501 69.5363 62.037 69.1165 62.037 68.7099C62.037 64.2237 62.037 59.7243 62.037 55.2381C62.037 53.1655 62.3774 53.4279 60.1781 53.4279C56.2378 53.4279 53.4888 56.0252 53.4626 59.8293C53.4233 65.1419 53.3579 70.4545 53.4757 75.7671C53.5935 81.0928 55.7535 85.5266 59.9163 88.9109C61.3039 90.039 62.757 91.1016 64.1708 92.2034C64.5373 92.492 64.9301 92.6232 65.4013 92.6232C74.0674 92.6232 82.7334 92.6232 91.3995 92.6232C91.8446 92.6232 92.1457 92.5314 92.4206 92.1247C93.3631 90.6424 94.358 89.1864 95.3267 87.7303C96.9107 85.3561 97.6176 82.7457 97.6045 79.886C97.5652 74.9801 97.6045 70.0741 97.6045 65.1812H97.539ZM2.52659 78.5612C4.30693 77.2363 6.08727 77.0133 7.95924 77.0526C10.7607 77.1051 13.5621 77.0658 16.3635 77.0526C17.3235 77.0526 17.8035 76.5717 17.8035 75.6097C17.8035 51.6964 17.8035 27.7831 17.8035 3.88284C17.8035 3.73855 17.7904 3.58114 17.8035 3.43684C17.9213 2.67603 17.5678 2.5055 16.8609 2.5055C14.0202 2.54485 11.1796 2.5055 8.35196 2.51861C7.86761 2.51861 7.37016 2.51861 6.89889 2.61044C4.12366 3.16138 2.52659 5.28642 2.52659 8.39529C2.52659 31.3641 2.52659 54.3461 2.52659 77.315C2.52659 77.6429 2.52659 77.9577 2.52659 78.548V78.5612ZM28.6033 79.5581C21.3903 79.5581 14.1904 79.5581 6.97744 79.5581C4.46402 79.5581 2.59205 81.2765 2.55277 83.7951C2.47423 87.7172 2.48732 91.6525 2.55277 95.5878C2.57896 97.8702 4.29384 99.7723 6.40145 99.7985C11.3628 99.8641 16.3373 99.8247 21.2987 99.851C21.8092 99.851 22.0318 99.7067 22.0187 99.1557C21.9925 97.2799 21.9794 95.4172 22.0187 93.5414C22.0187 92.8987 21.7438 92.8068 21.2071 92.82C20.1991 92.8462 19.1911 92.82 18.1831 92.82C17.3191 92.82 16.6646 92.4789 16.6646 91.5607C16.6646 90.6162 17.3322 90.3276 18.1962 90.3276C20.0289 90.3276 21.8616 90.3276 23.6812 90.3276C29.8862 90.3276 36.0781 90.3276 42.2831 90.3276C43.1864 90.3276 44.0242 90.4588 43.9849 91.5869C43.9587 92.6888 43.134 92.8462 42.2307 92.8331C41.3406 92.82 40.4373 92.8593 39.5471 92.82C38.9057 92.7806 38.7093 93.0298 38.7224 93.6464C38.7617 95.3254 38.7879 97.0176 38.7224 98.6966C38.6832 99.6542 38.9973 99.8772 39.9137 99.8641C46.4852 99.8247 53.0568 99.8116 59.6414 99.8641C60.741 99.8641 61.1207 99.6542 61.0683 98.4736C61.0028 97.1094 60.6887 95.6402 61.2646 94.3678C61.6836 93.4496 61.3694 93.1217 60.7148 92.715C60.4007 92.5182 60.1127 92.2821 59.8116 92.0591C55.7273 89.0815 52.7557 85.3036 51.5775 80.2927C51.3942 79.5187 50.9361 79.545 50.3601 79.545C43.1078 79.545 35.8687 79.545 28.6164 79.545L28.6033 79.5581ZM78.1517 104.416C78.1517 104.416 78.1517 104.481 78.1517 104.521C82.7465 104.521 87.3414 104.521 91.9231 104.521C92.6038 104.521 92.9049 104.403 92.9049 103.616C92.9049 101.11 92.9573 98.6048 93.0489 96.0993C93.0751 95.3385 92.8264 95.1418 92.1064 95.1418C82.9167 95.1549 73.7401 95.1549 64.5504 95.1418C63.8043 95.1418 63.6079 95.4041 63.6079 96.1125C63.6079 98.513 63.5686 100.9 63.4639 103.288C63.4246 104.219 63.7519 104.416 64.5897 104.403C69.106 104.377 73.6223 104.39 78.1386 104.39L78.1517 104.416ZM35.9996 103.616C36.0912 103.471 36.1567 103.406 36.1567 103.353C36.1567 100.061 36.1567 96.7683 36.1959 93.4758C36.1959 92.7806 35.7901 92.82 35.3319 92.82C32.0069 92.82 28.6819 92.8462 25.3568 92.8068C24.5714 92.8068 24.4405 93.0823 24.4535 93.7775C24.4928 96.178 24.4666 98.5655 24.4666 100.966C24.4666 101.845 24.4666 102.711 24.4666 103.773C26.0244 102.881 27.399 102.133 28.7211 101.307C29.8338 100.612 30.8418 100.612 31.9545 101.307C33.2767 102.133 34.6512 102.855 35.9996 103.629V103.616Z" fill="#D3B478"/>
<path d="M92.1326 13.2881C92.1326 14.9278 92.1326 16.5675 92.1326 18.2072C92.1326 19.0861 91.8969 19.8075 90.8758 19.8338C89.8155 19.86 89.6191 19.0992 89.6191 18.2334C89.6191 14.8753 89.6191 11.5172 89.6191 8.15912C89.6191 7.28024 89.8548 6.54565 90.902 6.58501C91.9231 6.62436 92.1326 7.37206 92.1326 8.23782C92.1326 9.91687 92.1326 11.5959 92.1326 13.275V13.2881Z" fill="#D3B478"/>
<path d="M89.6321 25.3432C89.6321 23.7428 89.9724 23.1656 90.915 23.205C91.8051 23.2443 92.1324 23.8084 92.1324 25.3432C92.1324 25.6842 92.1586 26.0122 92.1324 26.3532C92.0669 27.114 91.6873 27.6519 90.8888 27.665C90.0772 27.665 89.6975 27.1534 89.6583 26.3663C89.6452 26.0253 89.6583 25.6973 89.6583 25.3563L89.6321 25.3432Z" fill="#D3B478"/>
<path d="M48.0037 6.58508C50.3208 6.58508 52.6248 6.58508 54.9418 6.58508C55.7927 6.58508 56.4734 6.83431 56.4996 7.77878C56.5389 8.80195 55.832 9.0643 54.9287 9.0643C50.3077 9.05118 45.6867 9.03806 41.0656 9.0643C40.1755 9.0643 39.5471 8.72324 39.5471 7.81813C39.5471 6.91302 40.1886 6.57196 41.0656 6.58508C43.3827 6.61131 45.6867 6.58508 48.0037 6.58508Z" fill="#D3B478"/>
<path d="M34.2714 9.05115C33.6038 9.10362 32.9754 9.0118 32.6613 8.3428C32.4387 7.88369 32.4911 7.39834 32.8445 6.99169C33.3551 6.41452 35.3187 6.38828 35.8554 6.95234C36.4837 7.62133 36.1696 8.77568 35.2794 8.99868C34.9652 9.07738 34.6118 9.03803 34.2845 9.06427L34.2714 9.05115Z" fill="#D3B478"/>
<path d="M67.7182 87.35C67.7051 88.3076 66.6841 88.9372 65.8855 88.36C63.5423 86.6548 61.0682 85.0675 59.4842 82.5227C59.0391 81.7881 58.7904 81.0798 59.602 80.4501C60.2696 79.9386 60.9896 80.1878 61.6049 81.1847C62.8485 83.2311 64.8514 84.4379 66.6579 85.8677C67.1422 86.2481 67.7444 86.576 67.7052 87.35H67.7182Z" fill="#D3B478"/>
<path d="M57.4551 75.9509C57.4289 75.1245 57.6908 74.4292 58.6202 74.3505C59.5627 74.2718 59.9293 74.8883 59.9816 75.741C59.9816 75.7803 59.9816 75.8197 59.9816 75.8459C60.1518 77.4069 59.7984 78.1546 58.8558 78.194C57.9526 78.2333 57.4682 77.4594 57.4551 75.9377V75.9509Z" fill="#D3B478"/>
<path d="M9.12416 31.0625C9.12416 34.1975 9.12416 37.3458 9.12416 40.4809C9.12416 40.8482 9.12417 41.2286 9.03253 41.5959C8.90162 42.173 8.5089 42.4747 7.90673 42.501C7.30456 42.5272 6.89874 42.2386 6.71547 41.6877C6.62384 41.4122 6.59766 41.1105 6.59766 40.8088C6.59766 34.3025 6.59766 27.7962 6.59766 21.2899C6.59766 21.0013 6.61075 20.6865 6.70238 20.411C6.89874 19.8076 7.34383 19.5059 7.98527 19.5583C8.57435 19.6108 8.95399 19.9388 9.05871 20.529C9.12417 20.8963 9.12417 21.2767 9.13726 21.644C9.13726 24.7791 9.13726 27.9274 9.13726 31.0625H9.12416Z" fill="#D3B478"/>
<path d="M6.58473 14.4949C6.62401 13.5242 7.18691 12.8684 7.94617 12.934C8.73161 12.9995 9.1767 13.7079 9.11124 14.7966C9.07197 15.6362 8.78397 16.2658 7.81526 16.2658C6.97746 16.2658 6.54546 15.6231 6.58473 14.5081V14.4949Z" fill="#D3B478"/>
<path d="M67.548 98.6048C68.3727 98.5523 69.1189 98.7885 69.1844 99.851C69.2367 100.664 68.5167 101.123 67.3386 101.11C66.2389 101.11 65.6106 100.638 65.6106 99.8379C65.6106 98.9983 66.2259 98.5917 67.548 98.6048Z" fill="#D3B478"/>
<path d="M41.8511 23.5461H51.3681L49.7579 27.3109C49.2474 28.5046 49.3652 29.8688 50.0852 30.9576C50.8052 32.0463 51.9964 32.6891 53.3055 32.6891H60.2043H60.1912C55.4785 34.8797 51.9179 35.3913 50.4517 35.5225C50.1637 35.5487 49.8757 35.5487 49.5746 35.5225C48.0823 35.3913 44.4169 34.8666 39.5733 32.5841L38.513 32.0857L38.1988 31.9151L39.4555 28.9506H46.1972L47.6241 25.6843H40.8824L41.838 23.5461H41.8511ZM36.4316 30.8788C36.3268 30.8264 36.2221 30.7608 36.1305 30.6952L39.0497 23.979C39.809 22.2344 40.9609 21.4211 42.6627 21.4211H63.477L63.0712 22.3393H56.6567C55.6095 22.3393 54.7324 22.7853 54.1302 23.6117L53.9338 23.9003C53.8553 24.0446 53.7768 24.202 53.6982 24.3594L52.2321 27.6257C51.8655 28.4652 51.8655 29.1736 52.2321 29.7507C52.4808 30.1311 52.9913 30.5771 54.0255 30.5771H64.1184C63.5948 30.8788 63.0712 31.2199 62.5737 31.4954H53.3317C52.4153 31.4954 51.6037 31.0494 51.0932 30.2886C50.5826 29.5277 50.5041 28.5964 50.8706 27.7569L52.6771 23.533L53.1746 22.3655H42.558C41.6809 22.3655 40.8955 22.8902 40.542 23.6904L39.1413 26.8386H45.8831L45.4772 27.7569H38.7355L37.217 31.3248L36.4316 30.8788ZM35.1094 30.0787C34.3763 29.5933 33.6825 29.0817 32.9887 28.5702C32.596 28.2816 32.2033 27.9799 31.8105 27.6782C31.2476 27.2453 31.2476 27.2453 31.0513 27.0879C29.5066 25.8548 28.0535 24.5431 26.9539 22.9952C26.7444 22.6935 26.5481 22.3918 26.3779 22.077C26.2208 21.7753 26.0768 21.4473 26.0375 21.1194C25.8804 19.8994 27.1764 19.4797 28.2368 19.0993C30.0171 18.4696 31.9283 18.0761 33.8134 17.735C33.8134 17.735 40.7384 16.2134 50.0721 16.1609C59.4058 16.2134 66.3308 17.735 66.3308 17.735C68.2158 18.0761 70.114 18.4565 71.9074 19.0993C72.9808 19.4797 74.2768 19.8994 74.1197 21.1194C74.0805 21.4473 73.9365 21.7753 73.7794 22.077C73.6092 22.3918 73.4128 22.7066 73.2034 22.9952C72.5619 23.9003 71.7896 24.7267 70.9518 25.5006C70.6114 25.8155 70.6769 25.7499 70.3496 26.0385C70.0354 26.3139 69.7082 26.5894 69.3809 26.8518C68.8311 27.2977 68.6085 27.4683 68.6085 27.4683C68.1242 27.8356 67.6398 28.2029 67.1555 28.5702C66.7758 28.8456 66.4224 29.0686 66.0428 29.331L65.9642 29.3834H54.0648C53.2008 29.3834 52.952 28.9637 53.3317 28.0848L54.7978 24.8185C55.1775 23.9528 55.8058 23.5068 56.6698 23.5068H63.8435L65.2704 20.2405H42.6758C40.5028 20.2405 38.9319 21.3293 37.9894 23.5068L35.1356 30.0787M32.4258 16.0298C30.3836 16.4626 28.3153 16.9349 26.391 17.735C25.2259 18.2073 23.8252 18.7451 24.0085 20.2667C24.0608 20.6865 24.2048 21.08 24.375 21.4604C24.5583 21.854 24.7677 22.2344 25.0034 22.6148C26.1292 24.425 27.5953 25.9991 29.1531 27.4552C29.3495 27.6388 29.5589 27.8225 29.7553 28.0061C30.3444 28.5439 30.9465 29.0555 31.5356 29.5802C32.2818 30.223 33.0541 30.8657 33.8396 31.4691C41.4715 36.9785 47.467 38.0279 49.5615 38.2378C49.8757 38.264 50.1899 38.264 50.5041 38.2378C52.5986 38.041 58.5941 36.9785 66.226 31.4691C67.0115 30.8657 67.7707 30.223 68.53 29.5802C69.3154 28.8981 70.114 28.2029 70.8863 27.4814C71.0827 27.2978 71.279 27.1141 71.4754 26.9173C71.6587 26.7468 71.8289 26.5763 71.999 26.3926C72.143 26.2352 72.3001 26.0909 72.4441 25.9335C73.4259 24.8972 74.3292 23.7954 75.0754 22.5885C75.311 22.2212 75.5204 21.8277 75.7037 21.4342C75.8739 21.0538 76.031 20.6603 76.0833 20.2405C76.2535 18.7189 74.8528 18.1942 73.6877 17.7088C71.7503 16.9218 69.6951 16.4364 67.6529 16.0035C67.6529 16.0035 60.1519 14.1015 50.0459 14.0359C39.9399 14.1015 32.4389 16.0035 32.4389 16.0035" fill="#D3B478"/>
<mask id="mask0_1_6532" style="mask-type:luminance" maskUnits="userSpaceOnUse" x="23" y="14" width="54" height="25">
<path d="M41.8511 23.5461H51.3681L49.7579 27.3109C49.2474 28.5046 49.3652 29.8688 50.0852 30.9576C50.8052 32.0463 51.9964 32.6891 53.3055 32.6891H60.2043H60.1912C55.4785 34.8797 51.9179 35.3913 50.4517 35.5225C50.1637 35.5487 49.8757 35.5487 49.5746 35.5225C48.0823 35.3913 44.4169 34.8666 39.5733 32.5841L38.513 32.0857L38.1988 31.9151L39.4555 28.9506H46.1972L47.6241 25.6843H40.8824L41.838 23.5461H41.8511ZM36.4316 30.8788C36.3268 30.8264 36.2221 30.7608 36.1305 30.6952L39.0497 23.979C39.809 22.2344 40.9609 21.4211 42.6627 21.4211H63.477L63.0712 22.3393H56.6567C55.6095 22.3393 54.7324 22.7853 54.1302 23.6117L53.9338 23.9003C53.8553 24.0446 53.7768 24.202 53.6982 24.3594L52.2321 27.6257C51.8655 28.4652 51.8655 29.1736 52.2321 29.7507C52.4808 30.1311 52.9913 30.5771 54.0255 30.5771H64.1184C63.5948 30.8788 63.0712 31.2199 62.5737 31.4954H53.3317C52.4153 31.4954 51.6037 31.0494 51.0932 30.2886C50.5826 29.5277 50.5041 28.5964 50.8706 27.7569L52.6771 23.533L53.1746 22.3655H42.558C41.6809 22.3655 40.8955 22.8902 40.542 23.6904L39.1413 26.8386H45.8831L45.4772 27.7569H38.7355L37.217 31.3248L36.4316 30.8788ZM35.1094 30.0787C34.3763 29.5933 33.6825 29.0817 32.9887 28.5702C32.596 28.2816 32.2033 27.9799 31.8105 27.6782C31.2476 27.2453 31.2476 27.2453 31.0513 27.0879C29.5066 25.8548 28.0535 24.5431 26.9539 22.9952C26.7444 22.6935 26.5481 22.3918 26.3779 22.077C26.2208 21.7753 26.0768 21.4473 26.0375 21.1194C25.8804 19.8994 27.1764 19.4797 28.2368 19.0993C30.0171 18.4696 31.9283 18.0761 33.8134 17.735C33.8134 17.735 40.7384 16.2134 50.0721 16.1609C59.4058 16.2134 66.3308 17.735 66.3308 17.735C68.2158 18.0761 70.114 18.4565 71.9074 19.0993C72.9808 19.4797 74.2768 19.8994 74.1197 21.1194C74.0805 21.4473 73.9365 21.7753 73.7794 22.077C73.6092 22.3918 73.4128 22.7066 73.2034 22.9952C72.5619 23.9003 71.7896 24.7267 70.9518 25.5006C70.6114 25.8155 70.6769 25.7499 70.3496 26.0385C70.0354 26.3139 69.7082 26.5894 69.3809 26.8518C68.8311 27.2977 68.6085 27.4683 68.6085 27.4683C68.1242 27.8356 67.6398 28.2029 67.1555 28.5702C66.7758 28.8456 66.4224 29.0686 66.0428 29.331L65.9642 29.3834H54.0648C53.2008 29.3834 52.952 28.9637 53.3317 28.0848L54.7978 24.8185C55.1775 23.9528 55.8058 23.5068 56.6698 23.5068H63.8435L65.2704 20.2405H42.6758C40.5028 20.2405 38.9319 21.3293 37.9894 23.5068L35.1356 30.0787M32.4258 16.0298C30.3836 16.4626 28.3153 16.9349 26.391 17.735C25.2259 18.2073 23.8252 18.7451 24.0085 20.2667C24.0608 20.6865 24.2048 21.08 24.375 21.4604C24.5583 21.854 24.7677 22.2344 25.0034 22.6148C26.1292 24.425 27.5953 25.9991 29.1531 27.4552C29.3495 27.6388 29.5589 27.8225 29.7553 28.0061C30.3444 28.5439 30.9465 29.0555 31.5356 29.5802C32.2818 30.223 33.0541 30.8657 33.8396 31.4691C41.4715 36.9785 47.467 38.0279 49.5615 38.2378C49.8757 38.264 50.1899 38.264 50.5041 38.2378C52.5986 38.041 58.5941 36.9785 66.226 31.4691C67.0115 30.8657 67.7707 30.223 68.53 29.5802C69.3154 28.8981 70.114 28.2029 70.8863 27.4814C71.0827 27.2978 71.279 27.1141 71.4754 26.9173C71.6587 26.7468 71.8289 26.5763 71.999 26.3926C72.143 26.2352 72.3001 26.0909 72.4441 25.9335C73.4259 24.8972 74.3292 23.7954 75.0754 22.5885C75.311 22.2212 75.5204 21.8277 75.7037 21.4342C75.8739 21.0538 76.031 20.6603 76.0833 20.2405C76.2535 18.7189 74.8528 18.1942 73.6877 17.7088C71.7503 16.9218 69.6951 16.4364 67.6529 16.0035C67.6529 16.0035 60.1519 14.1015 50.0459 14.0359C39.9399 14.1015 32.4389 16.0035 32.4389 16.0035" fill="white"/>
</mask>
<g mask="url(#mask0_1_6532)">
<path d="M76.2011 14.062H23.7859V38.2902H76.2011V14.062Z" fill="#D3B478"/>
</g>
</g>
<defs>
<clipPath id="clip0_1_6532">
<rect width="100" height="107" fill="white"/>
</clipPath>
</defs>
</svg>
