<svg width="72" height="50" viewBox="0 0 72 50" fill="none" xmlns="http://www.w3.org/2000/svg">
<g opacity="0.3">
<g clip-path="url(#clip0_1_8391)">
<path d="M0 36.0239C0 18.4426 13.5704 2.72608 31.8215 0.31088C47.1908 -1.72251 62.1409 6.32225 69.1095 20.2896C69.7208 21.5238 69.5723 21.9767 68.3236 22.4295C66.3588 23.1487 64.4463 24.01 62.5514 24.8891C61.7043 25.2798 61.2415 25.2354 60.6127 24.4096C53.1377 14.5268 43.2087 10.0605 31.0181 11.055C17.4215 12.1649 5.43166 23.0777 2.55864 36.6899C1.99102 39.3714 1.70285 42.0797 1.71158 44.8234C1.71158 45.2052 2.06089 45.8889 1.36228 45.9156C0.820861 45.9333 0.881989 45.2318 0.794663 44.8234C0.261977 42.2928 0.0174651 39.7266 0 36.0061L0 36.0239Z" fill="black"/>
<path d="M6.68047 45.9954C5.83341 45.9954 4.96889 45.8977 4.13929 46.0131C2.69842 46.2173 2.51504 45.5159 2.59363 44.2728C3.56294 28.9114 13.5268 16.8354 28.4158 14.0028C41.3051 11.5521 51.9064 16.054 60.0103 26.5761C60.6215 27.3752 60.4556 27.5706 59.6435 28.0412C58.1764 28.8936 57.146 28.8314 56.3164 27.2154C55.775 26.1587 55.0938 26.1055 54.3515 27.1C54.0197 27.5351 53.5743 27.8813 53.1814 28.272C51.7318 29.7105 51.2515 29.6217 50.0901 27.8813C49.732 27.3486 50.0639 27.1621 50.3346 26.8957C51.007 26.2209 51.6444 25.4928 52.378 24.8979C53.2687 24.1698 53.0591 23.6991 52.2557 23.0776C50.1075 21.4083 47.8283 19.9875 45.3483 18.8865C44.5274 18.5224 44.0995 18.5757 43.855 19.5347C43.593 20.5558 43.235 21.5592 42.877 22.5537C42.7023 23.0332 42.6586 23.6547 41.7854 23.2996C41.0082 22.9888 41.3138 22.5537 41.4623 22.1097C41.8203 21.0087 42.1958 19.9076 42.58 18.8155C42.7896 18.2294 42.6936 17.8654 42.0299 17.7055C40.2834 17.2882 38.5369 16.9241 36.7467 16.7554C35.9782 16.6844 35.6464 16.9241 35.7075 17.7411C35.7512 18.4425 35.7075 19.1618 35.6901 19.8721C35.6726 21.6302 34.8343 22.2163 33.1838 21.6835C32.7122 21.5326 32.721 21.2218 32.721 20.8755C32.721 20.0142 32.6511 19.144 32.7559 18.2916C32.9131 17.0041 32.4765 16.5778 31.2015 16.791C28.8961 17.1817 26.6169 17.6611 24.4076 18.478C23.6129 18.7711 23.3771 19.0641 23.7963 19.881C24.3115 20.8577 24.6958 21.9055 25.1673 22.9089C25.4293 23.4683 25.3769 23.8146 24.7569 24.0987C24.1281 24.3917 23.9971 24.0188 23.805 23.5748C23.3509 22.5093 22.8357 21.4704 22.4166 20.3871C22.1633 19.73 21.8839 19.5169 21.2289 19.8899C19.3602 20.9643 17.57 22.1452 15.9195 23.5482C15.3432 24.0366 15.3519 24.374 15.8584 24.8712C16.5395 25.5372 17.1159 26.3452 17.8582 26.9135C18.9497 27.757 18.3122 28.2543 17.666 28.867C17.046 29.453 16.5308 30.2699 15.7274 29.0623C15.4567 28.645 15.0463 28.3342 14.6882 27.9701C13.5763 26.8217 12.5342 26.9135 11.562 28.2454C10.5577 29.6306 9.6932 31.1135 8.88981 32.6318C8.54051 33.2978 8.52304 33.6796 9.33517 33.9726C10.3656 34.3367 11.3437 34.8517 12.3566 35.2601C12.8282 35.4555 13.1688 35.6242 12.9155 36.2458C12.6623 36.8584 12.3304 36.9295 11.7628 36.6453C10.9158 36.228 9.98138 35.9705 9.16925 35.4999C8.1912 34.9316 7.71965 35.1003 7.39654 36.228C6.7416 38.5189 6.20018 40.8187 5.99933 43.1983C5.92947 43.9709 6.14778 44.2017 6.85512 44.1928C7.90303 44.184 8.95094 44.255 9.99884 44.2372C10.6974 44.2284 10.9594 44.4859 10.9507 45.214C10.9507 45.9954 10.4879 45.9687 9.97265 45.9598C8.87234 45.9598 7.78077 45.9598 6.68047 45.9598V45.9954Z" fill="black"/>
<path d="M72.0001 25.1821C71.5984 26.0878 70.8037 26.5406 70.0964 27.0379C63.4946 31.6729 56.4736 35.6243 49.4963 39.6377C43.6891 42.9764 37.8296 46.2085 31.9788 49.4584C30.3982 50.3374 28.87 50.1243 27.7085 48.9967C26.5733 47.8956 26.2153 46.244 26.8003 44.8145C27.1234 44.0331 27.6474 43.4204 28.3984 43.0741C42.0474 36.8319 55.6003 30.3676 69.7646 25.3685C70.4195 25.1377 71.1356 24.7381 71.9914 25.1732L72.0001 25.1821Z" fill="black"/>
<path d="M56.1852 37.4889C56.0543 36.8673 56.421 36.7963 56.6481 36.6631C58.6391 35.5265 60.6563 34.4344 62.6299 33.2623C63.3547 32.8272 63.6167 32.9959 63.9048 33.7418C65.2933 37.3557 65.9832 41.1028 66.1229 44.9654C66.1491 45.7645 65.8697 46.022 65.0925 46.0042C63.0054 45.9598 60.9183 45.9598 58.8225 46.0042C58.0278 46.022 57.8095 45.729 57.8095 44.9565C57.8095 44.1218 58.0191 43.7578 58.9011 43.8288C59.8442 43.8998 60.796 43.811 61.7304 43.8732C62.5426 43.9265 62.7609 43.6068 62.691 42.8254C62.4902 40.5967 62.0011 38.4479 61.3375 36.3257C61.1017 35.5621 60.7436 35.5976 60.1236 35.8728C58.8399 36.45 57.5126 36.9472 56.1852 37.48V37.4889Z" fill="black"/>
</g>
</g>
<defs>
<clipPath id="clip0_1_8391">
<rect width="72" height="50" fill="white"/>
</clipPath>
</defs>
</svg>
