<svg width="65" height="70" viewBox="0 0 65 70" fill="none" xmlns="http://www.w3.org/2000/svg">
<g clip-path="url(#clip0_164_9)">
<path d="M44.4021 10.8205C40.0824 12.8417 35.8 14.8415 31.443 16.8787C31.683 15.7481 31.907 14.7029 32.131 13.6576C32.2803 12.959 32.419 12.2551 32.5896 11.5618C32.675 11.2205 32.6003 11.1192 32.2377 11.1192C29.3899 11.1352 26.5901 11.4925 23.913 12.4524C14.2337 15.9135 8.10616 22.6329 6.03165 32.7228C3.08787 46.9991 12.5165 61.0194 26.8247 63.9258C40.9037 66.7896 54.604 58.1396 58.0597 44.194C58.1557 43.8153 58.2783 43.7353 58.657 43.826C60.1395 44.1886 61.6274 44.5246 63.1206 44.8553C63.4353 44.9246 63.5473 44.9992 63.4513 45.3619C60.4222 56.7477 53.3774 64.5551 42.2369 68.3201C24.2436 74.405 4.94907 63.3658 0.784049 44.8339C-3.13032 27.4539 7.9675 10.0952 25.3582 6.36752C28.0246 5.79689 30.7178 5.55691 33.4429 5.66357C33.7629 5.67423 33.8642 5.57824 33.9229 5.2796C34.2642 3.62106 34.6268 1.96785 34.9841 0.314643C35.0001 0.234649 35.0214 0.159988 35.0641 0C38.1945 3.63172 41.2823 7.21012 44.4021 10.8205Z" fill="#766443"/>
<path d="M64.107 41.6395C64.0003 42.5994 63.8297 43.522 63.6537 44.4393C63.6217 44.6099 63.547 44.6579 63.3711 44.6153C61.7498 44.2526 60.1233 43.9007 58.4968 43.5487C58.3314 43.5114 58.2408 43.4634 58.2834 43.25C58.4221 42.5194 58.5341 41.7888 58.6461 41.0529C58.6727 40.8556 58.7527 40.8076 58.9501 40.8342C60.5873 41.0315 62.2298 41.2182 63.867 41.4048C64.0323 41.4262 64.1817 41.4475 64.1177 41.6395" fill="#766443"/>
<path d="M61.5794 38.1304C62.39 38.1304 63.2006 38.1411 64.0112 38.1304C64.2672 38.1304 64.3525 38.2104 64.3312 38.4611C64.2832 39.1757 64.2512 39.8903 64.2192 40.5996C64.2086 40.8342 64.1392 40.9249 63.8673 40.8929C62.294 40.7222 60.7208 40.5729 59.1476 40.4289C58.801 40.3969 58.6836 40.3009 58.7476 39.9276C58.8276 39.453 58.8436 38.9677 58.8276 38.4877C58.8116 38.1038 58.9663 38.0398 59.3076 38.0504C60.0649 38.0771 60.8168 38.0611 61.5741 38.0611V38.1358H61.5794V38.1304Z" fill="#766443"/>
<path d="M61.5954 37.3784C60.7848 37.3784 59.9742 37.3731 59.1636 37.3784C58.945 37.3784 58.849 37.3357 58.8436 37.0904C58.8436 36.6211 58.8063 36.1572 58.7743 35.6879C58.7583 35.4852 58.8063 35.3999 59.0303 35.3786C60.6462 35.2559 62.262 35.1172 63.8779 34.9733C64.1392 34.9519 64.2512 35.0052 64.2512 35.2879C64.2619 35.8532 64.2939 36.4131 64.3365 36.9784C64.3579 37.2557 64.2512 37.3304 63.9846 37.3251C63.19 37.3144 62.39 37.3251 61.5901 37.3251V37.3731L61.5954 37.3784Z" fill="#766443"/>
<path d="M64.0803 33.6401C64.1123 33.8268 64.0216 33.8855 63.8563 33.9015C62.2137 34.0881 60.5765 34.2801 58.934 34.4774C58.742 34.4987 58.63 34.4774 58.6087 34.2428C58.5767 33.8855 58.5127 33.5335 58.4487 33.1815C58.4114 32.9895 58.4327 32.8775 58.6673 32.8402C60.2939 32.5629 61.9204 32.2749 63.547 31.9816C63.6963 31.9549 63.8083 31.9229 63.8403 32.1309C63.9149 32.6322 64.0003 33.1335 64.0856 33.6401" fill="#766443"/>
<path d="M58.3209 31.6883C58.2036 31.7149 58.1343 31.6776 58.1129 31.5549C58.1129 31.5283 58.1023 31.5016 58.0916 31.475C57.8623 30.7817 58.0969 30.339 58.7955 30.1417C60.1181 29.7737 61.446 29.4111 62.7686 29.0378C63.0086 28.9685 63.1419 28.9845 63.1899 29.2725C63.2485 29.6084 63.3445 29.9444 63.4459 30.2697C63.4992 30.451 63.4779 30.547 63.2752 30.5897C61.6487 30.947 60.0275 31.3096 58.4009 31.6669C58.3742 31.6669 58.3476 31.6776 58.3209 31.6776" fill="#766443"/>
<path d="M62.5392 27.1713C62.5819 27.3526 62.4699 27.3633 62.3792 27.3953C60.7793 27.9286 59.1794 28.4619 57.5796 29.0005C57.4302 29.0538 57.3503 29.0112 57.3023 28.8672C57.2276 28.6485 57.1476 28.4245 57.0569 28.2112C56.9823 28.0459 57.0303 27.9712 57.1956 27.9072C58.7635 27.3153 60.326 26.718 61.8886 26.1261C61.9846 26.0887 62.0966 26.0087 62.1606 26.1687C62.2939 26.5154 62.4219 26.862 62.5392 27.1713Z" fill="#766443"/>
<path d="M56.3637 26.3234C56.2303 26.3394 56.2143 26.2434 56.1717 26.1741C55.889 25.7314 55.985 25.3901 56.4596 25.1501C57.7715 24.4888 59.0888 23.8382 60.3953 23.1663C60.6673 23.0276 60.7847 23.065 60.918 23.3423C61.2699 24.0835 61.2859 24.0729 60.5447 24.4142C59.2488 25.0061 57.9475 25.6034 56.6516 26.2007C56.5503 26.2434 56.449 26.286 56.369 26.3234" fill="#766443"/>
<path d="M54.8651 23.7102C54.6785 23.6035 54.6305 23.3849 54.5025 23.2302C54.3265 23.0276 54.3318 22.8942 54.5878 22.7289C55.9424 21.8703 57.2916 20.9904 58.6302 20.1051C58.8488 19.9611 58.9555 19.9718 59.0994 20.2011C59.5474 20.8997 59.5581 20.8944 58.8648 21.3104C57.6169 22.057 56.369 22.8089 55.1211 23.5555C55.0411 23.6035 54.9558 23.6515 54.8651 23.7049" fill="#766443"/>
<path d="M53.0309 21.1823C52.8869 21.001 52.7269 20.8357 52.6043 20.6437C52.4923 20.4784 52.6843 20.4357 52.7643 20.3717C54.0068 19.3531 55.2547 18.3452 56.4867 17.3159C56.732 17.1133 56.8706 17.1239 57.0253 17.3799C57.0946 17.4973 57.1906 17.5986 57.2813 17.6999C57.3773 17.8066 57.3613 17.8759 57.2493 17.9612C55.9 18.9958 54.5508 20.0357 53.2016 21.0703C53.1589 21.1023 53.1109 21.129 53.0309 21.1823Z" fill="#766443"/>
<path d="M50.8011 18.6971C50.7211 18.6225 50.6465 18.5638 50.5825 18.4945C50.4758 18.3825 50.5932 18.3238 50.6518 18.2598C50.8758 18.0145 51.1051 17.7799 51.3291 17.5399C52.2357 16.58 53.1476 15.6254 54.0489 14.6601C54.2142 14.4841 54.3102 14.4415 54.5022 14.6334C54.6942 14.8201 54.6622 14.9214 54.4915 15.0867C53.3183 16.228 52.161 17.3799 50.9931 18.5318C50.9345 18.5851 50.8758 18.6385 50.8065 18.7025" fill="#766443"/>
<path d="M51.4151 11.9617C51.3617 12.0417 51.3191 12.1111 51.2657 12.175C50.2578 13.4656 49.2499 14.7562 48.2366 16.0414C48.1726 16.1214 48.114 16.3187 47.9647 16.1961C47.8473 16.1001 47.9966 15.9988 48.0553 15.9241C49.0152 14.5962 49.9805 13.2736 50.9458 11.9511C51.0044 11.8711 51.0364 11.7218 51.1857 11.7804C51.2711 11.8124 51.3351 11.8977 51.4151 11.9617Z" fill="#766443"/>
<path d="M20.0786 51.1268C20.4732 49.5749 20.8892 48.039 21.2518 46.4925C21.3531 46.0552 21.5238 45.9272 21.9611 45.9485C22.841 45.9858 23.7263 45.9645 24.6062 45.9538C24.8515 45.9538 24.9742 45.9858 24.9742 46.2845C24.9635 48.983 24.9635 51.6867 24.9742 54.3852C24.9742 54.6625 24.8782 54.7372 24.6169 54.7265C24.1209 54.7105 23.625 54.7052 23.129 54.7265C22.8144 54.7425 22.7397 54.6412 22.7397 54.3319C22.7557 52.4174 22.7397 50.5028 22.7397 48.5883V48.3163C22.5957 48.4337 22.601 48.5777 22.569 48.7056C22.0838 50.5988 21.5878 52.4867 21.1185 54.3852C21.0492 54.6572 20.9372 54.7372 20.6705 54.7265C20.2439 54.7052 19.8173 54.6999 19.3906 54.7265C19.092 54.7478 18.9907 54.6305 18.9267 54.3585C18.4414 52.4067 17.9401 50.4655 17.4494 48.5137C17.4334 48.4497 17.4281 48.375 17.3161 48.3377V50.8441C17.3161 52.0174 17.3055 53.1853 17.3161 54.3585C17.3161 54.6519 17.2255 54.7372 16.9375 54.7265C16.4309 54.7052 15.9189 54.7105 15.4069 54.7265C15.1723 54.7319 15.0923 54.6519 15.0923 54.4172V46.2365C15.0923 46.0232 15.1669 45.9485 15.3803 45.9538C16.3882 45.9645 17.3908 45.9698 18.3987 45.9538C18.6813 45.9485 18.7027 46.1245 18.7507 46.3058C19.14 47.8097 19.5293 49.3189 19.9186 50.8228C19.9452 50.9241 19.9346 51.0468 20.0679 51.1321" fill="#766443"/>
<path d="M34.0084 50.0549V54.0439C34.0084 54.4972 33.7844 54.7266 33.3364 54.7266C32.8244 54.7266 32.3178 54.7159 31.8059 54.7266C31.5659 54.7319 31.4592 54.6679 31.4645 54.4066C31.4699 51.6921 31.4699 48.983 31.4645 46.2685C31.4645 46.0445 31.5179 45.9486 31.7632 45.9539C32.4245 45.9699 33.0858 45.9699 33.747 45.9539C33.987 45.9486 34.083 46.0819 34.195 46.2472C35.1229 47.6124 36.0509 48.9777 36.9841 50.3429C37.0588 50.4549 37.1388 50.5669 37.2348 50.6949C37.3361 50.5722 37.2934 50.4495 37.2934 50.3376C37.2934 48.999 37.3041 47.6658 37.2934 46.3325C37.2934 46.0445 37.3681 45.9486 37.6614 45.9592C38.28 45.9806 38.8986 45.9752 39.5226 45.9592C39.7572 45.9592 39.8639 46.0019 39.8639 46.2739C39.8532 48.9883 39.8532 51.6974 39.8639 54.4119C39.8639 54.6732 39.7786 54.7425 39.5333 54.7372C38.9146 54.7212 38.2907 54.7212 37.6721 54.7372C37.4108 54.7425 37.2508 54.6626 37.1014 54.4386C36.1895 53.0787 35.2616 51.7294 34.339 50.3749C34.2643 50.2629 34.1843 50.1509 34.1097 50.0389C34.0777 50.0442 34.0457 50.0496 34.0137 50.0549" fill="#766443"/>
<path d="M45.1751 54.8705C44.5138 54.8492 43.9059 54.8119 43.3192 54.6465C42.1727 54.3212 41.2821 53.2333 41.1967 52.0654C41.1807 51.8894 41.2287 51.8094 41.41 51.7988C42.1247 51.7614 42.8393 51.7188 43.5539 51.6708C43.7832 51.6548 43.7779 51.8254 43.8152 51.9641C44.0818 52.9187 44.8338 53.3506 45.7724 53.084C46.1563 52.972 46.439 52.7427 46.4817 52.3214C46.5243 51.9054 46.2843 51.6494 45.9377 51.4788C45.5537 51.2921 45.1324 51.2015 44.7165 51.1055C44.0605 50.9508 43.4099 50.7642 42.8179 50.4389C41.9647 49.9696 41.458 49.2816 41.5167 48.2737C41.57 47.3031 42.0713 46.5885 42.9513 46.2258C44.4071 45.6232 45.911 45.6286 47.3776 46.2045C48.2309 46.5405 48.6362 47.2711 48.8015 48.1457C48.8441 48.3643 48.7801 48.439 48.5562 48.4497C47.9109 48.471 47.2656 48.5083 46.6203 48.5563C46.3963 48.5723 46.2897 48.519 46.2097 48.279C45.9697 47.5591 45.1698 47.2338 44.4605 47.5324C44.1938 47.6444 44.0178 47.8364 44.0232 48.1244C44.0232 48.407 44.2258 48.5723 44.4818 48.647C44.9991 48.791 45.5217 48.9136 46.039 49.047C46.5457 49.175 47.0469 49.3189 47.5269 49.5376C48.4442 49.9536 49.0575 50.6148 49.1268 51.6601C49.2014 52.7693 48.7535 53.6439 47.8256 54.2572C47.0096 54.8012 46.071 54.8652 45.1858 54.8759" fill="#766443"/>
<path d="M26.7981 50.3588C26.7981 49.0256 26.8034 47.6924 26.7927 46.3538C26.7927 46.0658 26.8407 45.9378 27.1714 45.9485C27.8433 45.9752 28.5206 45.9645 29.1925 45.9485C29.4379 45.9485 29.5232 46.0125 29.5232 46.2738C29.5125 48.9829 29.5125 51.692 29.5232 54.4065C29.5232 54.6678 29.4325 54.7318 29.1872 54.7265C28.5153 54.7158 27.838 54.7105 27.166 54.7265C26.878 54.7372 26.7927 54.6518 26.7927 54.3585C26.8087 53.0253 26.7981 51.692 26.7981 50.3535" fill="#766443"/>
<path d="M16.1749 39.309C16.8255 37.7678 18.356 36.1359 20.7719 34.4081C22.8677 32.9095 24.2223 31.8323 24.8409 31.187C25.7848 30.1737 26.2594 29.0698 26.2594 27.8699C26.2594 26.894 25.9875 26.078 25.4435 25.4274C24.8995 24.7768 24.1263 24.4515 23.113 24.4515C21.7318 24.4515 20.7879 24.9688 20.2866 25.998C19.9986 26.5953 19.8279 27.5393 19.7746 28.8405H15.3536C15.4283 26.8726 15.7856 25.2834 16.4255 24.0675C17.6414 21.7584 19.7959 20.6064 22.8944 20.6064C25.3422 20.6064 27.294 21.2837 28.7392 22.6383C30.1898 23.9929 30.9097 25.7901 30.9097 28.0245C30.9097 29.7364 30.3978 31.2563 29.3739 32.5895C28.7019 33.4748 27.598 34.4561 26.0621 35.544L24.2383 36.8345C23.097 37.6451 22.3184 38.2264 21.8971 38.5891C21.4758 38.9517 21.1238 39.373 20.8358 39.8476H30.9364V43.8527H15.0923C15.1349 42.1941 15.4923 40.6742 16.1642 39.3037" fill="#766443"/>
<path d="M47.4576 23.6728C48.6415 25.7473 49.2388 28.6964 49.2388 32.5148C49.2388 36.3332 48.6469 39.277 47.4576 41.3408C46.2737 43.4046 44.2046 44.4392 41.2608 44.4392C38.317 44.4392 36.2478 43.4046 35.0639 41.3408C33.88 39.277 33.2827 36.3332 33.2827 32.5148C33.2827 28.6964 33.8747 25.7473 35.0639 23.6728C36.2478 21.5983 38.317 20.5637 41.2608 20.5637C44.2046 20.5637 46.2737 21.6036 47.4576 23.6728ZM38.5783 38.6157C39.0156 40.0236 39.9062 40.7328 41.2608 40.7328C42.6153 40.7328 43.4953 40.0289 43.9166 38.6157C44.3379 37.2078 44.5459 35.1706 44.5459 32.5148C44.5459 29.859 44.3379 27.6618 43.9166 26.3233C43.4953 24.9847 42.61 24.3128 41.2608 24.3128C39.9115 24.3128 39.0156 24.9847 38.5783 26.3233C38.141 27.6618 37.9224 29.7257 37.9224 32.5148C37.9224 35.3039 38.141 37.2078 38.5783 38.6157Z" fill="#766443"/>
</g>
<defs>
<clipPath id="clip0_164_9">
<rect width="64.3418" height="70" fill="white"/>
</clipPath>
</defs>
</svg>
