<svg width="72" height="57" viewBox="0 0 72 57" fill="none" xmlns="http://www.w3.org/2000/svg">
<g opacity="0.3" clip-path="url(#clip0_1_8486)">
<path d="M36.4394 41.9162C34.7845 41.6682 33.1217 41.6602 31.4668 41.5801C29.6932 41.4921 27.8957 41.6042 26.1458 41.164C24.2613 40.6919 22.5668 39.8757 21.2999 38.3312C20.5714 37.4349 20.1122 36.4266 20.1359 35.2343C20.1597 34.0339 20.8248 33.2257 21.9809 32.9536C23.8416 32.5135 25.7341 32.3615 27.6344 32.2654C32.3695 32.0174 37.1046 31.7453 41.7921 30.929C44.3339 30.4889 46.8677 30.0168 49.4094 29.5847C51.0089 29.3126 52.6242 29.1285 54.2553 29.1445C55.8627 29.1525 57.288 29.7367 58.6658 30.4809C61.3025 31.8973 63.6859 33.6978 65.9743 35.6184C67.9696 37.2989 69.9729 38.9794 71.8337 40.8199C72.0475 41.036 72.0554 41.148 71.905 41.3881C70.5826 43.4927 69.2761 45.5973 67.9617 47.7019C66.2039 50.5187 64.4461 53.3196 62.7041 56.1444C62.5061 56.4645 62.3873 56.5125 62.0468 56.3124C59.2834 54.704 56.4487 53.2395 53.4081 52.2232C52.1095 51.7911 50.7872 51.367 49.4094 51.5591C48.3405 51.7111 47.2874 52.0152 46.2342 52.2793C41.7763 53.4076 37.255 54.2238 32.7337 55.0641C31.3401 55.3201 29.9465 55.6162 28.5292 55.7683C26.7634 55.9603 25.0214 55.7443 23.2874 55.4722C15.9947 54.3039 9.12965 51.8551 2.57339 48.4702C2.05871 48.2061 1.55987 47.902 1.06894 47.5899C0.0870864 46.9577 -0.229641 45.9334 0.182105 44.8211C0.435486 44.1329 0.910577 43.6287 1.48069 43.2046C2.73176 42.2844 4.15703 41.9883 5.67732 42.0283C7.91817 42.0843 10.064 42.6445 12.2098 43.2286C13.6272 43.6127 15.0287 44.0689 16.454 44.429C18.7977 45.0211 21.1336 45.6773 23.5882 45.5493C26.3121 45.4053 28.9489 44.8051 31.5302 43.9488C33.2088 43.3887 34.8479 42.7405 36.4394 41.9242V41.9162Z" fill="black"/>
<path d="M22.1947 30.5049C21.8147 30.5929 21.4504 30.6729 21.0862 30.769C19.2175 31.2571 18.0298 33.0336 17.8556 34.6901C17.7843 35.3383 17.8318 35.9705 17.9427 36.6107C18.0773 37.3949 17.9823 38.1951 17.9981 38.9793C18.0139 39.5395 18.0139 40.0917 17.9981 40.6518C17.9823 41.388 17.5626 41.7401 16.85 41.7962C15.6068 41.8922 14.4904 41.404 13.3343 41.1C11.9011 40.7239 10.4838 40.3157 9.02681 40.0677C8.67841 40.0116 8.59923 39.8676 8.60715 39.5315C8.6309 38.4752 8.60715 37.4189 8.62298 36.3626C8.62298 36.0905 8.57547 35.9545 8.2825 35.8904C6.54842 35.4823 5.51114 34.1379 5.51114 32.3374C5.51114 28.3282 5.51114 24.3271 5.51114 20.3179C5.51114 18.2373 7.02351 16.7249 9.09016 16.7089C9.30395 16.7089 9.69194 16.8689 9.71569 16.5568C9.73945 16.2767 9.3277 16.3728 9.12183 16.3407C8.12414 16.1727 7.11853 16.0287 6.11292 15.8926C5.78828 15.8446 5.52698 15.7086 5.35278 15.4365C4.91728 14.7723 4.54512 14.0841 4.363 13.2999C4.08587 12.1075 4.56096 11.4833 5.78036 11.3953C6.96808 11.3153 8.11622 11.5714 9.25644 11.8754C9.58108 11.9635 9.89781 12.0675 10.2066 12.1715C10.4204 12.2436 10.5154 12.2035 10.555 11.9635C10.8638 10.1149 11.1885 8.2744 11.5052 6.42586C11.6636 5.5296 11.7982 4.63334 11.9724 3.74508C12.3049 1.97656 13.5243 0.960269 15.4564 0.752208C19.4946 0.320082 23.5408 0.0400006 27.6108 -1.10362e-05C30.6989 -0.024018 33.787 0.048003 36.8671 0.280071C38.7437 0.41611 40.6203 0.536145 42.4811 0.808224C44.1756 1.0563 45.2842 2.19263 45.5771 3.90513C46.0285 6.5699 46.5036 9.23468 46.9549 11.9075C47.0024 12.2035 47.0816 12.2276 47.3429 12.1395C48.6652 11.7074 50.0034 11.3473 51.4128 11.3633C51.7058 11.3633 51.9908 11.3873 52.2759 11.4673C53.0202 11.6834 53.3607 12.2276 53.2261 13.0038C53.0677 13.9 52.6639 14.6923 52.173 15.4365C51.9988 15.7006 51.7375 15.8446 51.4128 15.8926C50.2805 16.0527 49.1482 16.2287 48.0238 16.4048C47.9288 16.4208 47.7625 16.3568 47.7784 16.5568C47.7942 16.7329 47.9367 16.7009 48.0476 16.7009C48.5148 16.7009 48.974 16.7009 49.4254 16.8209C50.9377 17.237 51.9988 18.5894 52.0146 20.1739C52.0304 22.3025 52.0146 24.4311 52.0225 26.5597C52.0225 26.8238 51.9513 26.9118 51.69 26.9438C50.233 27.0879 48.7919 27.3039 47.3508 27.584C47.1133 27.632 47.1053 27.488 47.0657 27.3199C46.6936 25.6635 45.2921 24.4951 43.653 24.4631C42.0298 24.4311 40.5887 25.5354 40.1453 27.1519C40.0265 27.608 39.9394 28.0722 40.0661 28.5443C40.1373 28.8084 40.0106 28.8804 39.7969 28.9044C38.5458 29.0564 37.2947 29.2085 36.0436 29.3685C35.7823 29.4006 35.7348 29.3045 35.7348 29.0565C35.7507 28.2082 35.7427 27.352 35.7348 26.5037C35.7348 25.7915 35.426 25.4874 34.7292 25.4874C30.7543 25.4874 26.7715 25.4874 22.7965 25.4874C22.0839 25.4874 21.7909 25.7755 21.7909 26.4957C21.7909 27.48 21.7909 28.4643 21.7909 29.4486C21.7909 30.0407 21.8068 30.0727 22.2106 30.5209L22.1947 30.5049ZM41.2063 17.6451C40.7391 14.4922 40.2799 11.3793 39.8127 8.2664C39.7098 7.56219 39.1951 7.07405 38.5062 6.99403C35.7665 6.67393 33.0189 6.47387 30.2634 6.43386C26.5181 6.37785 22.7807 6.52989 19.0591 6.97802C18.2832 7.07405 17.7922 7.51418 17.6735 8.31441C17.238 11.2513 16.8183 14.1961 16.359 17.133C16.2878 17.5731 16.3353 17.6611 16.7787 17.6531C24.7602 17.6371 32.7497 17.6371 40.7312 17.6371C40.8737 17.6371 41.0163 17.6371 41.2063 17.6371V17.6451ZM13.8648 31.6652C15.8523 31.6812 17.4913 30.0567 17.4993 28.0642C17.4993 26.1116 15.9077 24.4711 13.9678 24.4391C12.012 24.4071 10.365 26.0316 10.3571 28.0001C10.3412 30.0087 11.909 31.6412 13.8727 31.6572L13.8648 31.6652Z" fill="black"/>
</g>
<defs>
<clipPath id="clip0_1_8486">
<rect width="72" height="56.4324" fill="white"/>
</clipPath>
</defs>
</svg>
