<svg width="72" height="55" viewBox="0 0 72 55" fill="none" xmlns="http://www.w3.org/2000/svg">
<g opacity="0.3">
<g clip-path="url(#clip0_1_8413)">
<path d="M17.1425 48.3666C12.4178 48.3666 7.69308 48.3666 2.97664 48.3666C1.847 48.3666 0.956482 47.9388 0.379295 46.9598C0.115437 46.5238 0 46.0466 0 45.5365C0 43.595 0.00824553 41.6451 0 39.7036C0 38.9302 0.206138 38.2392 0.742098 37.6715C0.981218 37.4247 1.05543 37.1532 1.04718 36.8241C1.03894 34.8332 0.989464 32.834 1.05543 30.8431C1.12964 28.6465 1.92945 26.7049 3.49611 25.1171C3.54558 25.0677 3.59505 25.0266 3.63628 24.9772C3.84242 24.7387 3.79295 24.5494 3.47961 24.4836C2.96839 24.3767 2.52313 24.1299 2.10261 23.8419C1.27806 23.2825 0.841044 22.2459 1.08841 21.3985C1.31929 20.5922 1.83875 19.9834 2.54787 19.531C3.95786 18.6342 5.49977 18.4697 7.10765 18.7165C7.51168 18.7741 7.55291 18.7741 7.69308 18.3874C7.95694 17.6388 8.20431 16.8901 8.44343 16.1414C9.1443 13.9531 9.9606 11.8223 11.4613 10.0288C12.7311 8.50678 14.2895 7.42081 16.219 6.91074C17.1919 6.6557 18.1896 6.54052 19.2038 6.54875C23.3019 6.55698 27.3917 6.54875 31.4897 6.55698C31.5886 6.55698 31.6876 6.55698 31.7865 6.55698C32.0339 6.55698 32.1493 6.70506 32.1493 6.93542C32.1493 7.39613 32.1493 7.85684 32.1411 8.31756C32.1328 8.62196 32.0339 8.71245 31.7041 8.72891C31.4402 8.73713 31.1764 8.72068 30.9125 8.72068C26.6661 8.72068 22.4279 8.68777 18.1814 8.72068C16.2272 8.73713 14.5863 9.56806 13.2506 10.9996C12.022 12.3159 11.2634 13.9037 10.7027 15.582C10.0266 17.5976 9.37517 19.6132 8.70728 21.6288C8.65781 21.7687 8.59185 21.9003 8.54237 22.0402C8.41869 22.3857 8.4929 22.4927 8.88044 22.4762C11.6344 22.3528 14.3967 22.4351 17.1507 22.4269C21.9084 22.4104 26.6661 22.4269 31.4155 22.4269C32.1493 22.4269 32.1493 22.4269 32.1493 23.1755C32.1493 29.0085 32.1493 34.8414 32.1493 40.6744C32.1493 41.0857 32.1493 41.4971 32.1493 41.9084C32.1493 42.4349 32.1081 42.4761 31.5886 42.4761C29.115 42.4761 26.6331 42.4843 24.1594 42.4843C22.2959 42.4843 20.4242 42.4843 18.5607 42.4843C18.4947 42.4843 18.4288 42.4843 18.3628 42.4843C17.5795 42.4925 17.4475 42.6571 17.6207 43.4057C17.7774 44.0721 18.2391 44.6891 19.1956 44.6809C23.2442 44.6562 27.2845 44.6645 31.333 44.6645C31.399 44.6645 31.465 44.6645 31.5309 44.6645C32.0999 44.6645 32.1493 44.7138 32.1576 45.2815C32.1576 46.1206 32.1576 46.9598 32.1576 47.799C32.1576 48.2679 32.0916 48.3502 31.6216 48.3502C30.4013 48.3502 29.1809 48.3502 27.9524 48.3502C24.3491 48.3502 20.754 48.3502 17.1507 48.3502L17.1425 48.3666ZM9.43289 33.5169C9.43289 33.5169 9.43289 33.5169 9.43289 33.5086C10.8841 33.5086 12.3353 33.5086 13.7865 33.5086C14.0669 33.5086 14.3472 33.5086 14.6276 33.5086C14.8997 33.5086 15.0316 33.3852 15.0893 33.1137C15.2707 32.291 14.9739 31.6576 14.339 31.1639C13.8443 30.7773 13.3165 30.4564 12.7476 30.1932C11.6674 29.6995 10.5543 29.3211 9.39991 29.0085C8.1136 28.6629 6.81906 28.5066 5.49977 28.4573C5.21942 28.449 4.93907 28.4737 4.66697 28.5313C3.694 28.7288 3.14155 29.3705 3.12506 30.3495C3.10857 31.2544 3.36418 32.1018 3.64453 32.9492C3.79295 33.3935 4.07329 33.5333 4.53504 33.5333C6.16766 33.5086 7.80027 33.5251 9.43289 33.5251V33.5169ZM8.87219 41.7439C8.41044 41.7439 7.94869 41.7439 7.48694 41.7439C6.49748 41.7521 5.78012 42.8134 6.15941 43.7266C6.41503 44.3518 6.88502 44.6809 7.5694 44.6891C8.39395 44.6891 9.21851 44.6645 10.0431 44.6974C10.4801 44.7138 10.8099 44.5575 11.115 44.2942C11.5932 43.8829 11.7499 43.3235 11.5437 42.7393C11.3376 42.1552 10.8181 41.7686 10.208 41.7521C9.76271 41.7439 9.31745 41.7521 8.87219 41.7521V41.7439Z" fill="black"/>
<path d="M71.9834 29.2224C71.9834 36.3881 71.9834 43.5538 71.9917 50.7277C71.9917 51.2954 71.9422 51.8466 71.7855 52.3814C71.5712 53.1053 71.1012 53.6895 70.4992 54.1502C69.8479 54.6438 69.1058 54.8988 68.2894 54.9071C66.6568 54.9235 65.0242 54.9235 63.3834 54.9235C54.8987 54.9235 46.4058 54.9235 37.9211 54.9235C36.8492 54.9235 35.868 54.6849 35.0517 53.928C34.2519 53.1876 33.8561 52.2826 33.8396 51.2131C33.8149 49.8475 33.8396 48.4818 33.8396 47.1079C33.8396 33.9282 33.8396 20.7485 33.8396 7.56888C33.8396 6.27724 34.2519 5.16659 35.2826 4.35212C35.901 3.86673 36.6101 3.57055 37.4182 3.57055C38.9024 3.57055 40.3866 3.57055 41.879 3.57055C42.4315 3.57055 42.4727 3.61169 42.4727 4.15467C42.4727 4.97737 42.4562 5.80007 42.4727 6.62277C42.5222 8.13654 43.1076 9.42818 44.163 10.5141C44.196 10.5471 44.2372 10.58 44.2702 10.6129C44.3609 10.7034 44.5176 10.7774 44.4681 10.9255C44.4104 11.1147 44.229 11.0571 44.0888 11.0571C41.9779 11.0571 39.8588 11.0489 37.748 11.0407C36.8245 11.0407 36.0329 11.6988 36.0329 12.7437C36.0494 22.7477 36.0494 32.7435 36.0494 42.7475C36.0494 45.4789 36.0494 48.2185 36.0494 50.9499C36.0494 51.6738 36.3298 52.2251 36.9894 52.5541C37.1378 52.6282 37.2945 52.6775 37.4676 52.6775C37.6655 52.6775 37.8634 52.6858 38.0613 52.6858C47.791 52.6858 57.5125 52.6858 67.2423 52.6858C67.5721 52.6858 67.9019 52.6858 68.2317 52.6858C69.1552 52.6693 69.7984 51.8055 69.7984 50.991C69.7819 38.7657 69.7819 26.5403 69.7819 14.315C69.7819 13.772 69.7819 13.2291 69.7901 12.6861C69.8066 11.8963 69.18 11.0654 68.2152 11.0489C66.6816 11.0242 65.1479 11.0407 63.606 11.0489C62.9298 11.0489 62.2537 10.9995 61.5776 11.0571C61.4951 11.0571 61.4044 11.0571 61.3632 10.9749C61.3055 10.8679 61.3632 10.7856 61.4374 10.7116C61.6023 10.5471 61.7672 10.3907 61.9239 10.218C62.9463 9.08265 63.3669 7.72519 63.3916 6.22788C63.4081 5.5039 63.3834 4.77992 63.3916 4.05595C63.3916 3.60346 63.4658 3.5541 63.9193 3.5541C65.3705 3.5541 66.83 3.59523 68.2812 3.5541C69.8643 3.51296 71.5134 4.74701 71.8763 6.33483C71.9834 6.79554 72.0082 7.2398 72.0082 7.70051C72.0082 11.6083 72.0082 15.5079 72.0082 19.4158C72.0082 22.6819 72.0082 25.9398 72.0082 29.2059L71.9834 29.2224Z" fill="black"/>
<path d="M52.9528 0.00827882C55.2616 0.00827882 57.5703 0.00827882 59.8873 0.00827882C60.2006 0.00827882 60.514 5.18125e-05 60.8273 5.18125e-05C61.6189 5.18125e-05 62.0889 0.460764 62.0889 1.25056C62.0889 2.99468 62.1218 4.73881 62.0889 6.48293C62.0229 9.08266 59.8626 11.0242 57.5208 11.0242C54.4535 11.0242 51.3779 11.0242 48.3106 11.0242C46.1832 11.0242 44.3032 9.36238 43.9157 7.4784C43.8497 7.14109 43.759 6.80378 43.759 6.45825C43.759 4.69767 43.759 2.93709 43.759 1.17651C43.759 0.666439 43.9817 0.304451 44.4517 0.0823219C44.6578 -0.0164022 44.8722 5.18125e-05 45.0866 5.18125e-05C47.7086 5.18125e-05 50.3307 5.18125e-05 52.9611 5.18125e-05L52.9528 0.00827882ZM52.9281 3.87497C52.087 3.86674 51.3119 4.62363 51.2872 5.47101C51.2625 6.26903 52.0705 7.09173 52.8951 7.10818C53.7444 7.12464 54.4947 6.3513 54.5112 5.44633C54.5195 4.62363 53.7774 3.8832 52.9281 3.87497Z" fill="black"/>
<path d="M9.42455 49.1646C11.7993 49.1646 14.174 49.1646 16.5487 49.1646C17.0187 49.1646 17.0599 49.1975 17.0599 49.6664C17.0599 50.1601 17.0599 50.6537 17.0434 51.1473C17.0269 51.7561 16.8208 52.3073 16.5157 52.8256C16.2354 53.3028 15.8313 53.5496 15.2624 53.5496C13.5143 53.5414 11.7663 53.5496 10.0182 53.5496C7.84141 53.5496 5.66459 53.5496 3.48777 53.5496C2.79514 53.5496 2.4076 53.13 2.11901 52.5788C1.87989 52.1181 1.7727 51.6162 1.73971 51.1062C1.70673 50.629 1.69849 50.1518 1.69849 49.6747C1.69849 49.214 1.75621 49.1564 2.20971 49.1564C3.24865 49.1564 4.28758 49.1564 5.32652 49.1564C6.69528 49.1564 8.06404 49.1564 9.4328 49.1564L9.42455 49.1646Z" fill="black"/>
<path d="M58.4196 37.4904C55.9954 37.4904 53.5712 37.4904 51.147 37.4904C50.6523 37.4904 50.5781 37.4246 50.5698 36.9227C50.5698 36.5608 50.5698 36.1988 50.5698 35.8368C50.5863 35.3596 50.6688 35.2773 51.1717 35.2773C52.7219 35.2773 54.2721 35.2773 55.8222 35.2773C59.0875 35.2773 62.3527 35.2773 65.6179 35.2773C65.7169 35.2773 65.8158 35.2773 65.9148 35.2773C66.1374 35.2773 66.2528 35.409 66.2611 35.6147C66.2611 36.1247 66.2611 36.6348 66.2611 37.1449C66.2611 37.3341 66.1374 37.441 65.9477 37.4575C65.7828 37.4657 65.6179 37.4822 65.453 37.4822C63.1113 37.4822 60.7695 37.4822 58.4278 37.4822L58.4196 37.4904Z" fill="black"/>
<path d="M58.4195 18.774C56.0448 18.774 53.6618 18.774 51.2871 18.774C51.1717 18.774 51.0563 18.774 50.9408 18.774C50.7264 18.774 50.5863 18.667 50.5863 18.4449C50.578 17.9348 50.578 17.4247 50.5863 16.9147C50.5863 16.6761 50.7429 16.5609 50.9738 16.5609C51.1552 16.5609 51.3366 16.5609 51.518 16.5609C56.2097 16.5609 60.8932 16.5609 65.5849 16.5609C65.6838 16.5609 65.7828 16.5609 65.8817 16.5609C66.1208 16.5609 66.261 16.7008 66.261 16.9311C66.2775 17.4412 66.2693 17.9513 66.261 18.4614C66.261 18.7246 66.0631 18.774 65.8487 18.774C65.2386 18.774 64.6284 18.774 64.0182 18.774C62.1547 18.774 60.2913 18.774 58.4195 18.774Z" fill="black"/>
<path d="M58.3866 28.1117C56.0119 28.1117 53.629 28.1117 51.2543 28.1117C51.1553 28.1117 51.0564 28.1117 50.9574 28.1117C50.7183 28.1117 50.5781 28.0047 50.5781 27.7579C50.5781 27.2807 50.5616 26.8036 50.5781 26.3264C50.5864 26.0467 50.6853 25.9644 50.9904 25.9397C51.1058 25.9315 51.2213 25.9397 51.3367 25.9397C55.913 25.9397 60.481 25.9397 65.0573 25.9397C65.3047 25.9397 65.552 25.9233 65.7994 25.9315C66.121 25.9397 66.2446 26.022 66.2611 26.3264C66.2859 26.8036 66.2776 27.2807 66.2611 27.7579C66.2611 27.9883 66.1127 28.1117 65.8736 28.1117C65.4943 28.1117 65.115 28.1117 64.7357 28.1117C62.6249 28.1117 60.5058 28.1117 58.3949 28.1117H58.3866Z" fill="black"/>
<path d="M58.3618 46.8198C56.0036 46.8198 53.6453 46.8198 51.2871 46.8198C51.1717 46.8198 51.0562 46.8198 50.9408 46.8198C50.7182 46.8198 50.5945 46.6964 50.5945 46.4907C50.5862 45.9807 50.578 45.4706 50.5945 44.9605C50.5945 44.7219 50.7594 44.615 50.9903 44.615C51.2047 44.615 51.419 44.6232 51.6334 44.6232C56.3334 44.6232 61.0333 44.6232 65.7415 44.6232C66.1868 44.6232 66.2692 44.689 66.2775 45.1251C66.2857 45.5364 66.294 45.9478 66.2775 46.3591C66.261 46.754 66.2033 46.8198 65.8075 46.8281C65.1643 46.8363 64.5212 46.8281 63.878 46.8281C62.0475 46.8281 60.217 46.8281 58.3865 46.8281L58.3618 46.8198Z" fill="black"/>
<path d="M43.0005 20.5675C42.8274 20.5675 42.7449 20.4276 42.646 20.3207C41.6895 19.3663 40.733 18.412 39.7765 17.4577C39.6611 17.3425 39.5456 17.2273 39.4219 17.1121C39.2818 16.9723 39.257 16.8407 39.4055 16.6843C39.8012 16.2894 40.1888 15.8863 40.5846 15.4914C40.733 15.3433 40.8649 15.3762 41.0051 15.5243C41.4916 16.018 41.9781 16.5116 42.4646 16.997C42.8356 17.3672 42.8768 17.359 43.2231 16.9394C44.0642 15.9275 44.9052 14.9155 45.7545 13.9036C46.0596 13.5416 46.1173 13.5416 46.4636 13.8296C46.777 14.0928 47.0903 14.3561 47.4036 14.6276C47.7334 14.9073 47.7417 14.9731 47.4613 15.3104C46.7275 16.1989 45.9854 17.0875 45.2515 17.9678C44.6084 18.7411 43.9652 19.5144 43.3221 20.2795C43.2314 20.3947 43.1572 20.5346 42.9923 20.5593L43.0005 20.5675Z" fill="black"/>
<path d="M40.7576 34.068C40.8978 34.0598 40.9555 34.1585 41.0379 34.2408C41.5244 34.7344 42.0109 35.228 42.4974 35.7134C42.819 36.0342 42.8849 36.0178 43.19 35.6558C44.0063 34.6603 44.8309 33.6813 45.6472 32.6941C45.6884 32.6447 45.7379 32.5954 45.7791 32.546C46.0265 32.291 46.1502 32.2663 46.414 32.472C46.7603 32.7434 47.1067 33.0314 47.4365 33.3276C47.7333 33.5991 47.7333 33.6649 47.4777 33.9775C46.7439 34.866 46.01 35.7545 45.2679 36.6348C44.6165 37.4164 43.9569 38.198 43.2972 38.9795C42.9921 39.3415 42.9674 39.3497 42.6541 39.0371C41.6069 37.9923 40.5597 36.9392 39.5125 35.8944C39.2157 35.5982 39.2239 35.5653 39.5125 35.2527C39.8423 34.9071 40.1804 34.5698 40.5185 34.2325C40.5844 34.1585 40.6504 34.0844 40.7576 34.068Z" fill="black"/>
<path d="M47.6756 24.2861C47.6426 24.4671 47.5519 24.5823 47.4529 24.6892C46.7603 25.4379 46.1419 26.2523 45.4905 27.0339C44.7566 27.8977 44.031 28.7698 43.3054 29.6419C43.0168 29.9874 43.0004 29.9956 42.6623 29.6583C41.6233 28.6299 40.5844 27.5933 39.5455 26.5567C39.1992 26.2112 39.2074 26.1865 39.5455 25.8492C39.8588 25.5366 40.1721 25.224 40.4937 24.9113C40.7576 24.6645 40.807 24.6645 41.0544 24.9113C41.5409 25.405 42.0274 25.8904 42.5139 26.384C42.8107 26.6884 42.9096 26.7048 43.1653 26.3511C43.8661 25.4132 44.6742 24.5658 45.3916 23.6444C45.54 23.4469 45.7214 23.2742 45.878 23.0849C45.9935 22.9451 46.1337 22.9122 46.2656 23.0191C46.7026 23.3647 47.1396 23.7184 47.5601 24.0804C47.6178 24.1298 47.6343 24.2203 47.6673 24.2696L47.6756 24.2861Z" fill="black"/>
<path d="M40.7907 43.4139C40.8979 43.4139 40.9556 43.5044 41.0298 43.5785C41.5246 44.0803 42.0275 44.5822 42.5305 45.0758C42.8273 45.3719 42.8768 45.3719 43.1407 45.0593C43.9735 44.0639 44.798 43.0602 45.6391 42.0647C46.1008 41.5217 46.1008 41.5299 46.6203 41.9906C46.8759 42.221 47.148 42.4349 47.4201 42.657C47.7334 42.9121 47.7417 43.0437 47.4861 43.3481C46.2163 44.8619 44.9464 46.3674 43.6766 47.8812C43.5282 48.054 43.388 48.2432 43.2396 48.4159C43.0417 48.6463 42.9593 48.6545 42.7614 48.4571C41.6647 47.3711 40.5681 46.2687 39.4714 45.1827C39.3065 45.0182 39.2488 44.8619 39.4384 44.6726C39.826 44.286 40.2053 43.8993 40.5846 43.5126C40.6423 43.4551 40.7165 43.4057 40.7989 43.4139H40.7907Z" fill="black"/>
</g>
</g>
<defs>
<clipPath id="clip0_1_8413">
<rect width="72" height="54.9153" fill="white"/>
</clipPath>
</defs>
</svg>
