<svg width="72" height="61" viewBox="0 0 72 61" fill="none" xmlns="http://www.w3.org/2000/svg">
<g opacity="0.3">
<g clip-path="url(#clip0_1_8492)">
<path d="M29.8534 27.7358C29.9467 26.679 30.0328 25.6869 30.1189 24.6948C30.1548 24.249 30.1763 23.8033 30.2266 23.3648C30.3199 22.4661 30.9011 21.9485 31.8484 21.9413C32.9464 21.9341 34.0444 21.9413 35.1423 21.9413C39.9935 21.9413 44.8447 21.9413 49.6959 21.9413C50.8154 21.9413 51.3178 22.3367 51.4469 23.4582C51.5905 24.7235 51.6694 26.0032 51.7627 27.2757C51.7842 27.5848 51.7914 27.7142 52.1717 27.5488C52.71 27.3188 53.3128 27.3476 53.8725 27.5201C54.4682 27.6998 54.8198 28.3109 54.7839 28.9507C54.7409 29.5978 54.3103 30.1441 53.6429 30.252C53.3056 30.3095 53.2482 30.4389 53.2769 30.7336C53.4778 32.6963 53.6716 34.6589 53.8654 36.6216C53.9012 37.0026 53.9515 37.3908 53.9802 37.7718C54.0376 38.5123 53.5998 39.0946 52.832 39.2097C52.4444 39.2672 52.3511 39.4253 52.3799 39.7776C52.4086 40.1155 52.3799 40.4606 52.3799 40.8057C52.3799 41.7762 51.9493 42.3082 50.9948 42.4448C50.3202 42.5382 49.6313 42.5454 48.9568 42.4376C48.0956 42.2938 47.6507 41.7331 47.6578 40.856C47.6578 40.4246 47.6578 39.9933 47.6578 39.5619C47.6578 39.3534 47.5932 39.2528 47.378 39.2744C47.3062 39.2744 47.2273 39.2744 47.1555 39.2744C42.943 39.2744 38.7305 39.2744 34.518 39.2672C34.1377 39.2672 33.9726 39.3463 34.0157 39.756C34.0515 40.0939 34.0228 40.439 34.0228 40.7841C34.0228 41.769 33.5851 42.3226 32.6163 42.4592C31.9273 42.5526 31.2241 42.5598 30.5351 42.4376C29.7314 42.2938 29.308 41.7546 29.308 40.9422C29.308 40.4965 29.3008 40.0508 29.308 39.6051C29.308 39.3894 29.2434 39.3031 29.0209 39.26C27.966 39.0443 27.6359 38.6417 27.7292 37.5562C27.9301 35.2628 28.1598 32.9767 28.3966 30.6905C28.4253 30.4101 28.3966 30.3239 28.088 30.2735C27.2771 30.1369 26.8322 29.4899 26.9183 28.656C26.9972 27.9299 27.5641 27.441 28.3607 27.441C28.8631 27.441 29.3726 27.3691 29.8534 27.7501V27.7358ZM40.8475 28.7063C43.7683 28.7063 46.689 28.7063 49.6098 28.7135C49.9901 28.7135 50.0834 28.6128 50.0476 28.239C49.9112 26.9234 49.7892 25.6078 49.7174 24.2922C49.6887 23.8608 49.5452 23.7602 49.1362 23.7602C44.773 23.7745 40.4169 23.7674 36.0537 23.7674C34.8194 23.7674 33.5923 23.7674 32.3579 23.7674C32.1642 23.7674 31.9919 23.7386 31.9632 24.0405C31.8628 25.3993 31.7264 26.758 31.6188 28.1168C31.5757 28.6991 31.5901 28.7063 32.157 28.7063C35.049 28.7063 37.9411 28.7063 40.8332 28.7063H40.8475ZM34.7189 35.2053C34.7189 34.1197 34.4821 33.789 33.5851 33.5446C32.8172 33.3289 32.035 33.1636 31.2743 32.9191C29.9036 32.4734 29.8319 33.0198 29.8749 34.0407C29.8965 34.623 30.1907 35.0471 30.7289 35.2053C31.7838 35.5001 32.8387 35.7876 33.8937 36.0608C34.3242 36.1686 34.6185 35.9674 34.6902 35.5216C34.7189 35.3778 34.7118 35.2269 34.7118 35.2125L34.7189 35.2053ZM51.7627 33.8106C51.856 32.7682 51.4039 32.5956 50.5499 32.8688C49.6672 33.1492 48.7558 33.3577 47.8588 33.6021C47.3564 33.7387 47.0407 34.0694 46.9617 34.587C46.9259 34.8171 46.9474 35.0615 46.9546 35.2988C46.9689 35.953 47.2703 36.183 47.8947 36.0177C48.806 35.7732 49.7174 35.5288 50.636 35.2844C51.533 35.0471 51.7699 34.7452 51.7699 33.8106H51.7627Z" fill="black"/>
<path d="M41.8594 21.0282C41.802 20.6041 41.802 20.1655 41.7302 19.7414C41.5867 18.9002 41.0772 18.4761 40.2232 18.4761C34.1879 18.4761 28.1454 18.4761 22.1102 18.4761C21.2059 18.4761 20.6677 18.9649 20.5816 19.8636C20.4453 21.3014 20.3304 22.7321 20.2013 24.249C19.7133 23.8608 19.1894 23.9111 18.6727 23.9255C17.869 23.9398 17.3164 24.4503 17.2446 25.2195C17.1729 25.9744 17.6537 26.6214 18.4215 26.7508C18.7158 26.8011 18.766 26.9018 18.7373 27.175C18.5076 29.4827 18.2995 31.7904 18.0627 34.0909C17.9622 35.0543 18.3856 35.6294 19.3544 35.7301C19.5697 35.7516 19.6272 35.8163 19.6272 36.0248C19.6128 36.528 19.6128 37.0385 19.6272 37.5417C19.6415 38.2391 20.2084 38.8933 20.8758 38.9364C21.5719 38.9724 22.2752 38.9867 22.9641 38.9364C23.8038 38.8861 24.3276 38.2678 24.3276 37.4195C24.3276 36.9738 24.342 36.528 24.3276 36.0823C24.3133 35.7948 24.4138 35.73 24.6793 35.7372C24.9592 35.7372 25.2319 35.7444 25.5117 35.7444H25.5548C26.0069 35.7444 26.459 35.7444 26.9111 35.7444C26.9972 35.7444 27.1121 35.7732 27.1838 35.7301H27.5139L27.801 30.9061L27.435 30.7192C27.435 30.7192 27.4135 30.712 27.4063 30.7048L27.2484 30.6257C26.4375 30.1728 26.0715 29.2742 26.2868 28.3396C26.4877 27.4481 27.313 26.7724 28.2387 26.7364C28.576 26.722 29.021 26.873 29.2147 26.7077C29.4444 26.5064 29.2793 26.0319 29.3582 25.6868C29.4372 25.3417 29.3439 25.2339 28.9707 25.2339C26.7604 25.2483 24.5501 25.2339 22.3398 25.2483C21.9953 25.2483 21.8805 25.1764 21.9164 24.8169C22.0527 23.4725 22.1676 22.1282 22.2609 20.7766C22.2896 20.3884 22.3829 20.2518 22.7919 20.2518C28.2674 20.2662 33.743 20.259 39.2185 20.259C39.9648 20.259 39.9792 20.259 40.0581 21.0067C40.0797 21.2439 40.1586 21.3014 40.3739 21.2942C40.7758 21.2798 41.1776 21.2798 41.5723 21.2942C41.7661 21.2942 41.8809 21.2727 41.8522 21.0354L41.8594 21.0282ZM24.2702 30.1441C24.7439 30.2807 25.0237 30.7264 25.0453 31.2296C25.0955 32.4662 24.9735 32.8328 23.5885 32.4087C22.8708 32.1858 22.1389 32.0061 21.4069 31.812C20.4237 31.5532 20.2156 31.2728 20.2228 30.2519C20.2228 30.1009 20.2084 29.9572 20.2228 29.8062C20.2658 29.4036 20.5744 29.1592 20.9691 29.2598C22.0743 29.5402 23.1723 29.8349 24.2631 30.1513L24.2702 30.1441Z" fill="black"/>
<path d="M34.6617 61C34.2598 60.8562 33.8293 60.9137 33.413 60.8778C29.3584 60.504 25.5406 59.3249 21.9309 57.463C17.7974 55.335 14.2379 52.4809 11.3172 48.8432C11.109 48.5843 11.1234 48.4549 11.3602 48.2249C12.573 47.0387 13.7715 45.8237 14.9699 44.6231C15.0488 44.544 15.1134 44.4362 15.2067 44.3212C15.9459 45.3277 16.6994 46.2407 17.5247 47.089C21.3281 50.9927 25.8277 53.6743 31.1525 54.9036C33.3556 55.414 35.5946 55.5363 37.848 55.3709C42.5198 55.0186 46.7753 53.4945 50.5573 50.7339C55.6668 47.0099 58.932 42.0494 60.3386 35.8667C60.7118 34.2276 60.8912 32.5669 60.927 30.8846C60.927 30.5827 60.8768 30.4677 60.5395 30.4749C58.9607 30.4964 57.3748 30.482 55.796 30.482C55.6812 30.482 55.5735 30.482 55.4013 30.482C55.9467 29.7487 56.4562 29.0658 56.9657 28.3828C59.1473 25.4784 61.3289 22.574 63.4962 19.6552C63.6828 19.4036 63.7473 19.4395 63.9124 19.6624C66.503 23.1347 69.108 26.6071 71.7059 30.0723C71.792 30.1873 71.8494 30.3454 72.0073 30.403V30.4749C70.285 30.4749 68.5626 30.482 66.8403 30.4677C66.5317 30.4677 66.4456 30.5467 66.4528 30.8559C66.46 33.1133 66.1873 35.3419 65.6491 37.5346C63.977 44.3715 60.4032 50.015 54.8989 54.3932C50.1626 58.1603 44.7588 60.3027 38.7307 60.8562C38.2642 60.8994 37.7906 60.8419 37.3385 60.9784H34.6689L34.6617 61Z" fill="black"/>
<path d="M37.1231 -2.5983e-05C37.5537 0.136568 38.0058 0.0790547 38.4435 0.115001C43.6679 0.589485 48.4545 2.33645 52.8608 5.1546C55.8174 7.03816 58.4152 9.33869 60.6112 12.0849C60.9269 12.4804 60.9269 12.4804 60.5609 12.847C59.3051 14.1123 58.0492 15.3704 56.7719 16.6501C56.047 15.6651 55.2864 14.7377 54.4539 13.8822C50.7294 10.0648 46.3231 7.412 41.1203 6.15389C38.8526 5.60752 36.549 5.44936 34.2239 5.61471C29.4014 5.96697 25.031 7.56297 21.163 10.4602C16.1108 14.2489 12.9102 19.2597 11.5898 25.4568C11.2596 26.9953 11.1018 28.5553 11.0731 30.1297C11.0731 30.4173 11.1305 30.5108 11.4319 30.5036C13.1327 30.4892 14.8263 30.4964 16.5916 30.4964C16.4625 30.6761 16.3692 30.8271 16.2615 30.9637C13.6781 34.4145 11.0874 37.8653 8.51111 41.3232C8.31735 41.5892 8.24559 41.5174 8.08771 41.3089C5.46118 37.8006 2.83465 34.2923 0.208113 30.7839C0.150703 30.7049 0.114821 30.597 0 30.5611V30.4892C1.72232 30.4892 3.44463 30.4892 5.16695 30.4964C5.46835 30.4964 5.56165 30.4317 5.56165 30.1154C5.56165 27.6639 5.85588 25.2483 6.50174 22.8903C8.91299 14.0476 14.1804 7.48389 22.304 3.25666C25.763 1.45937 29.4588 0.445702 33.3484 0.107811C33.8579 0.0646764 34.3817 0.107811 34.8841 -0.0144043H37.1374L37.1231 -2.5983e-05Z" fill="black"/>
</g>
</g>
<defs>
<clipPath id="clip0_1_8492">
<rect width="72" height="61" fill="white"/>
</clipPath>
</defs>
</svg>
