<svg width="69" height="69" viewBox="0 0 69 69" fill="none" xmlns="http://www.w3.org/2000/svg">
<g opacity="0.4">
<g clip-path="url(#clip0_1_8514)">
<path d="M58.8 68.85C58.73 68.81 58.67 68.76 58.6 68.73C57.96 68.46 57.64 67.98 57.64 67.28C57.64 65.3 57.64 63.33 57.64 61.35C57.64 61.05 57.56 60.98 57.26 60.98C51.86 60.98 46.46 60.98 41.07 60.98C40.26 60.98 39.7 60.56 39.52 59.84C39.49 59.71 39.48 59.57 39.48 59.44C39.48 53.64 39.48 47.83 39.48 42.03C39.48 41.12 40.08 40.48 41 40.48C44.32 40.48 47.64 40.48 50.96 40.48C51.84 40.48 52.49 41.15 52.48 41.97C52.46 42.8 51.82 43.41 50.92 43.41C48.22 43.41 45.52 43.42 42.82 43.41C42.48 43.41 42.4 43.49 42.4 43.83C42.41 48.45 42.41 53.07 42.4 57.69C42.4 58 42.48 58.08 42.79 58.08C44.91 58.07 47.04 58.07 49.16 58.08C49.45 58.08 49.64 58.01 49.85 57.78C52 55.46 54.17 53.17 56.34 50.86C58.1 48.99 59.85 47.13 61.61 45.26C61.74 45.12 61.78 44.99 61.77 44.81C61.65 43.04 61.54 41.27 61.41 39.51C61.3 38.02 61.17 36.54 61.03 35.06C60.86 33.38 60.71 31.69 60.38 30.03C60.3 29.61 60.08 29.32 59.74 29.08C58.87 28.46 57.89 28.05 56.91 27.66C54.4 26.66 51.86 25.71 49.42 24.54C49.07 24.37 48.73 24.21 48.4 24.01C47.94 23.74 47.69 23.33 47.68 22.79C47.66 21.69 47.65 20.6 47.63 19.5C47.63 19.1 47.71 18.72 48 18.44C48.68 17.78 48.96 16.93 49.18 16.05C49.27 15.69 49.31 15.32 49.39 14.95C49.52 14.37 49.87 13.99 50.44 13.83C50.85 13.71 51.06 13.48 51.07 13.05C51.07 12.78 51.03 12.51 51.01 12.24C51.01 12.1 50.91 12.06 50.8 12C50.17 11.67 49.9 11.14 49.98 10.44C50.06 9.72999 50.12 9.02999 50.21 8.31999C50.49 6.17999 49.54 4.65999 47.72 3.69999C45.59 2.56999 43.4 2.63999 41.34 3.92999C39.74 4.92999 38.99 6.40999 39.23 8.32999C39.32 9.03999 39.39 9.73999 39.47 10.45C39.55 11.12 39.26 11.68 38.66 11.99C38.51 12.07 38.43 12.15 38.42 12.31C38.39 12.72 38.3 13.14 38.52 13.53C38.61 13.68 38.7 13.76 38.88 13.8C39.61 13.96 40 14.4 40.1 15.15C40.2 15.86 40.36 16.55 40.64 17.2C40.83 17.64 41.05 18.05 41.41 18.38C41.67 18.62 41.8 18.93 41.8 19.29C41.8 20.45 41.8 21.62 41.78 22.78C41.77 23.4 41.42 23.83 40.88 24.11C39.65 24.74 38.39 25.28 37.13 25.82C35.6 26.47 34.04 27.07 32.56 27.85C31.91 28.19 31.29 28.58 30.74 29.08C30.51 29.29 30.41 29.53 30.41 29.85C30.42 31.88 30.61 33.91 30.79 35.93C31.01 38.38 31.25 40.83 31.51 43.27C31.73 45.42 31.98 47.58 32.23 49.73C32.46 51.76 32.69 53.79 32.93 55.81C33.16 57.77 33.4 59.73 33.65 61.69C33.88 63.53 34.11 65.36 34.34 67.2C34.42 67.82 34.06 68.42 33.49 68.69C33.39 68.74 33.27 68.74 33.2 68.85H32.59C32.43 68.77 32.27 68.7 32.11 68.6C31.73 68.36 31.48 68.02 31.43 67.56C31.18 65.59 30.93 63.62 30.69 61.65C30.52 60.31 30.36 58.96 30.2 57.62C30.18 57.42 30.11 57.33 29.89 57.34C27.57 57.34 25.26 57.34 22.94 57.34C22.7 57.34 22.65 57.43 22.64 57.65C22.5 61.04 19.75 63.68 16.35 63.69C14.89 63.69 13.44 63.69 11.98 63.69C8.53996 63.68 5.76996 61 5.67996 57.55C5.63996 55.69 5.66996 53.82 5.66996 51.96C5.66996 47.77 5.66996 43.58 5.67996 39.39C5.67996 39.16 5.61996 39.11 5.39996 39.1C2.62996 38.98 0.539958 37.12 0.0899581 34.4C-0.400042 31.46 1.85996 28.49 4.81996 28.18C5.93996 28.06 7.04996 28.15 8.16996 28.13C8.35996 28.13 8.46996 28.09 8.54996 27.89C10.35 23.53 12.77 19.52 15.48 15.68C15.64 15.45 15.83 15.23 15.96 14.98C16.32 14.31 16.89 13.9 17.53 13.54C19.45 12.45 21.52 11.82 23.66 11.39C26.2 10.87 28.78 10.68 31.37 10.67C32.11 10.67 32.65 11.04 32.86 11.67C33.06 12.27 32.86 12.92 32.35 13.3C32.04 13.54 31.68 13.6 31.3 13.6C29.09 13.6 26.9 13.77 24.73 14.17C22.82 14.52 20.95 15.03 19.22 15.95C18.83 16.16 18.53 16.42 18.27 16.79C15.99 20.02 13.86 23.34 12.17 26.93C11.7 27.94 11.26 28.97 10.85 30.01C10.55 30.76 10.11 31.07 9.29996 31.07C8.04996 31.07 6.78996 31.06 5.53996 31.07C4.28996 31.08 3.30996 31.88 3.01996 33.08C2.75996 34.17 3.28996 35.34 4.29996 35.89C4.77996 36.15 5.29996 36.22 5.83996 36.2C5.98996 36.2 6.02996 36.14 6.04996 36C6.06996 35.81 6.10996 35.62 6.14996 35.44C6.32996 34.65 7.00996 34.18 7.80996 34.3C8.51996 34.4 9.07996 35.06 9.00996 35.82C8.94996 36.5 8.81996 37.18 8.71996 37.86C8.62996 38.5 8.58996 39.14 8.58996 39.78C8.58996 45.61 8.58996 51.43 8.58996 57.26C8.58996 59.33 10.04 60.77 12.11 60.77C13.5 60.77 14.89 60.77 16.28 60.77C18.02 60.77 19.4 59.6 19.69 57.89C19.71 57.8 19.69 57.71 19.72 57.62C19.76 57.39 19.66 57.33 19.44 57.33C18.42 57.33 17.41 57.33 16.39 57.33C15.07 57.33 13.75 57.33 12.43 57.33C11.52 57.33 10.85 56.7 10.86 55.87C10.86 55.04 11.55 54.41 12.44 54.41C18.1 54.41 23.76 54.41 29.41 54.41C29.69 54.41 29.81 54.4 29.76 54.04C29.42 51.25 29.11 48.46 28.8 45.67C28.71 44.87 28.63 44.08 28.55 43.28C28.53 43.07 28.46 43 28.24 43C26.38 43 24.51 43 22.65 43C22.45 43 22.36 43.07 22.3 43.26C21.41 45.97 18.98 47.57 16.16 47.35C13.55 47.14 11.25 44.91 10.96 42.3C10.61 39.14 12.55 36.45 15.64 35.8C18.46 35.21 21.37 36.93 22.27 39.72C22.36 40 22.48 40.08 22.76 40.07C24.48 40.06 26.19 40.06 27.91 40.07C28.17 40.07 28.22 40.02 28.2 39.75C27.96 37.19 27.71 34.63 27.62 32.05C27.6 31.56 27.6 31.56 27.1 31.58C23.27 31.73 19.47 32.16 15.67 32.62C15.37 32.66 15.06 32.68 14.76 32.73C13.95 32.85 13.23 32.32 13.09 31.51C12.96 30.73 13.48 29.96 14.28 29.86C15.93 29.64 17.59 29.44 19.25 29.27C21.66 29.01 24.08 28.78 26.5 28.68C26.82 28.67 27.14 28.7 27.45 28.64C27.83 28.56 27.71 28.13 27.89 27.88C28.54 26.99 29.37 26.3 30.3 25.73C31.9 24.76 33.63 24.09 35.35 23.36C36.44 22.9 37.52 22.41 38.61 21.94C38.8 21.86 38.91 21.75 38.87 21.54C38.87 21.53 38.87 21.52 38.87 21.51C38.95 20.6 38.85 19.76 38.27 18.97C37.78 18.31 37.59 17.48 37.41 16.67C37.38 16.52 37.33 16.41 37.19 16.31C36.06 15.48 35.47 14.36 35.45 12.96C35.44 12.04 35.5 11.09 36.05 10.33C36.41 9.83999 36.42 9.37999 36.34 8.85999C35.61 4.00999 39.38 0.82999 42.85 0.18999C43.21 0.11999 43.59 0.11999 43.94 -0.0100098C44.45 -9.76585e-06 44.95 -9.76585e-06 45.45 -9.76585e-06C45.56 0.0199902 45.67 0.0599902 45.78 0.0699902C47.93 0.33999 49.79 1.17999 51.26 2.79999C52.54 4.20999 53.26 5.84999 53.17 7.77999C53.14 8.37999 53.08 8.96999 53.03 9.56999C53.03 9.67999 52.99 9.78999 53.08 9.88999C53.68 10.58 53.87 11.42 53.96 12.29C54.13 13.96 53.59 15.33 52.22 16.34C52.08 16.44 52.05 16.57 52.02 16.71C51.84 17.5 51.65 18.33 51.17 18.98C50.58 19.77 50.51 20.61 50.57 21.52C50.59 21.77 50.67 21.89 50.89 21.99C53.06 23 55.29 23.86 57.51 24.73C58.88 25.26 60.23 25.83 61.43 26.69C62.32 27.33 62.93 28.14 63.16 29.26C63.58 31.31 63.81 33.38 64.01 35.46C64.16 37.04 64.28 38.63 64.4 40.22C64.42 40.43 64.49 40.48 64.69 40.48C65.33 40.48 65.98 40.48 66.62 40.48C67.65 40.48 68.24 41.07 68.24 42.1C68.24 47.86 68.24 53.62 68.24 59.38C68.24 60.41 67.65 60.99 66.62 60.99C64.75 60.99 62.87 60.99 61 60.99C60.5 60.99 60.56 60.94 60.56 61.42C60.56 63.38 60.56 65.35 60.56 67.31C60.56 67.98 60.24 68.44 59.64 68.72C59.56 68.76 59.46 68.76 59.41 68.85H58.8ZM53.58 58.07C53.78 58.07 53.87 58.07 53.96 58.07C57.62 58.07 61.28 58.07 64.93 58.07C65.24 58.07 65.32 57.99 65.32 57.68C65.31 54.3 65.32 50.93 65.32 47.55C65.32 46.26 65.31 44.98 65.32 43.69C65.32 43.31 65.08 43.43 64.89 43.41C64.66 43.38 64.6 43.48 64.62 43.7C64.67 44.25 64.69 44.8 64.73 45.35C64.77 45.86 64.63 46.3 64.28 46.68C60.85 50.32 57.43 53.97 54 57.61C53.88 57.74 53.76 57.87 53.57 58.06L53.58 58.07ZM19.64 41.56C19.64 39.95 18.35 38.64 16.76 38.63C15.15 38.63 13.82 39.95 13.82 41.55C13.82 43.14 15.14 44.45 16.73 44.46C18.34 44.46 19.63 43.17 19.64 41.57V41.56Z" fill="black"/>
<path d="M45.3499 32.49C45.3499 33.56 45.3499 34.63 45.3499 35.7C45.3499 36.4 44.9399 36.94 44.3099 37.13C43.6999 37.31 43.0699 37.1 42.6899 36.58C42.4999 36.31 42.4099 36.02 42.4099 35.69C42.4099 33.54 42.4099 31.38 42.4099 29.23C42.4099 28.36 43.0299 27.72 43.8499 27.71C44.6899 27.7 45.3299 28.33 45.3399 29.21C45.3599 30.3 45.3399 31.4 45.3399 32.49H45.3499Z" fill="black"/>
</g>
</g>
<defs>
<clipPath id="clip0_1_8514">
<rect width="68.24" height="68.85" fill="white"/>
</clipPath>
</defs>
</svg>
