<svg width="75" height="74" viewBox="0 0 75 74" fill="none" xmlns="http://www.w3.org/2000/svg">
<path d="M42.9967 31.7007H51.6783C53.035 31.7007 54.1305 32.3949 54.5891 33.5669C55.0986 34.8535 54.863 36.0255 53.9012 37.0255C53.6337 37.3058 53.5445 37.5287 53.6655 37.9172C54.035 39.1338 53.7611 40.223 52.8566 41.1274C52.5955 41.3822 52.5318 41.6051 52.6401 41.9682C53.0222 43.2102 52.742 44.3185 51.812 45.2293C51.57 45.4714 51.519 45.6816 51.6146 46.0128C52.2515 48.2739 50.8439 50.1083 48.4808 50.1147C44.5827 50.1147 40.6783 50.1147 36.7802 50.1274C36.2579 50.1274 35.8439 49.9746 35.449 49.6497C34.1815 48.6179 32.8885 47.6242 31.64 46.5796C31.1687 46.1847 30.6846 45.9746 30.0795 46.051C29.9139 46.0701 29.742 46.051 29.57 46.051C28.8566 46.051 28.449 46.4013 28.3534 47.0956C28.2643 47.7198 27.8502 48.0446 27.2643 48.051C25.2324 48.0765 23.1942 48.0765 21.1623 48.051C20.5127 48.0446 20.1241 47.5988 20.0477 46.9554C20.0286 46.7644 20.035 46.5733 20.035 46.3822V31.3758C20.035 30.0255 20.3725 29.6943 21.7292 29.6879H26.9458C28.0095 29.6879 28.3598 30.0191 28.3598 31.0892C28.3598 31.5542 28.5063 31.6879 28.9776 31.7261C30.0477 31.8217 30.8057 31.6179 31.3853 30.5351C32.0732 29.2357 33.2197 28.2739 34.5381 27.5605C35.0222 27.2994 35.4872 27 35.9649 26.7261C37.3534 25.9172 38.1751 24.7198 38.4617 23.1465C38.5764 22.516 38.742 21.9109 39.035 21.3376C40.1942 19.0637 43.1814 18.8089 44.7165 20.8599C45.5891 22.0255 45.7929 23.3695 45.7229 24.7771C45.5955 27.1147 44.6783 29.1656 43.3662 31.0637C43.2579 31.223 43.1496 31.3758 43.0413 31.5351C43.0286 31.5478 43.0286 31.5733 42.9967 31.7134M42.8248 48H48.1687C49.0668 48 49.5127 47.7325 49.6082 47.1593C49.7037 46.6051 49.3725 46.293 48.4362 46.0319C47.9012 45.8854 47.5827 45.4395 47.6273 44.8917C47.6719 44.3567 48.0604 43.9746 48.6337 43.9363C48.9076 43.9172 49.1815 43.9363 49.4617 43.9236C50.156 43.8981 50.6082 43.5414 50.6401 43C50.6719 42.4968 50.3025 42.1274 49.6209 41.9809C48.9267 41.8281 48.5891 41.414 48.6464 40.7962C48.7037 40.223 49.1241 39.879 49.7929 39.8535C50.1496 39.8408 50.519 39.8535 50.8694 39.7898C51.3407 39.707 51.6273 39.3758 51.6464 38.9045C51.6592 38.4332 51.3916 38.1083 50.933 37.9682C50.812 37.93 50.6846 37.9172 50.5636 37.8917C49.9458 37.7516 49.6018 37.293 49.6719 36.7007C49.7356 36.1529 50.1432 35.8026 50.7738 35.7771C51.0668 35.7644 51.3662 35.7898 51.6655 35.758C52.2643 35.7007 52.6719 35.3058 52.6846 34.8089C52.691 34.3121 52.2897 33.9045 51.691 33.8408C51.4808 33.8153 51.2643 33.8281 51.0541 33.8281H40.6846C40.156 33.8281 39.7165 33.7007 39.4936 33.172C39.2706 32.6433 39.4808 32.2293 39.8502 31.8535C40.0158 31.6879 40.1815 31.5223 40.3343 31.3503C41.9203 29.5605 43.1687 27.5924 43.4936 25.1593C43.6337 24.1147 43.64 23.0637 42.9649 22.172C42.3407 21.3503 41.3662 21.465 40.9267 22.3822C40.7356 22.7898 40.6464 23.223 40.5636 23.6624C40.3725 24.6497 40.0095 25.5669 39.449 26.414C38.57 27.7389 37.2643 28.5351 35.9203 29.2548C34.2961 30.121 33.1305 31.3631 32.4235 33.051C32.2006 33.5796 31.8184 33.8344 31.2324 33.8217C30.4681 33.8089 29.7037 33.8281 28.9458 33.8153C28.5636 33.8089 28.3598 33.9045 28.3598 34.344C28.3725 37.3567 28.3725 40.3631 28.3598 43.3758C28.3598 43.8026 28.5381 43.93 28.933 43.9172C29.6146 43.8981 30.2897 43.9363 30.9713 43.9045C31.5381 43.879 31.9904 44.0446 32.4235 44.4077C33.7165 45.4714 35.0413 46.4968 36.3343 47.5605C36.6974 47.8599 37.0668 48 37.5445 47.9937C39.3025 47.9746 41.0604 47.9873 42.8248 47.9873M22.2388 38.8026C22.2388 40.9236 22.2515 43.0382 22.2388 45.1593C22.2388 45.6816 22.4108 45.8726 22.933 45.8535C23.8439 45.8217 24.7547 45.8281 25.6655 45.8535C26.1114 45.8663 26.2515 45.6943 26.2515 45.2548C26.2388 41 26.2388 36.7389 26.2515 32.4841C26.2515 32.0446 26.0986 31.8726 25.6592 31.8854C24.7674 31.9045 23.8757 31.9172 22.9904 31.8854C22.4044 31.8599 22.226 32.0701 22.2324 32.6497C22.2579 34.707 22.2451 36.758 22.2451 38.8153" fill="#766443"/>
<path d="M37.5 72C56.83 72 72.5 56.33 72.5 37C72.5 17.67 56.83 2 37.5 2C18.17 2 2.5 17.67 2.5 37C2.5 56.33 18.17 72 37.5 72Z" stroke="#766443" stroke-width="4" stroke-miterlimit="10"/>
</svg>
