<svg width="74" height="69" viewBox="0 0 74 69" fill="none" xmlns="http://www.w3.org/2000/svg">
<g opacity="0.3">
<path d="M71.7545 30.8501C70.667 30.2704 69.6092 29.6456 68.544 29.0359C62.1007 25.3697 55.6499 21.7111 49.1992 18.0526C48.9384 17.902 48.8416 17.8041 49.0353 17.5105C49.7206 16.4642 50.3761 15.3952 51.039 14.3337C51.1657 14.1305 51.2774 14.0477 51.5381 14.0928C52.1936 14.2058 52.7001 13.9498 53.0502 13.3702C53.3706 12.8432 53.7132 12.3238 54.041 11.7968C54.6145 10.8709 54.4432 10.103 53.5195 9.5083C51.4189 8.1608 49.3183 6.81329 47.2177 5.46578C45.0501 4.07311 42.8825 2.68043 40.7074 1.30281C39.8656 0.768327 39.0686 0.948998 38.5397 1.7846C38.1822 2.3492 37.8321 2.9138 37.4745 3.4784C37.1319 4.02041 37.1319 4.56242 37.4894 5.08185C37.6459 5.30769 37.6384 5.45073 37.4969 5.68409C35.1728 9.3728 32.8562 13.069 30.5396 16.7653C30.4055 16.9836 30.2863 17.089 30.0032 17.0363C29.3626 16.9158 28.871 17.1718 28.5284 17.7288C28.2081 18.2408 27.8877 18.7527 27.5674 19.257C26.9194 20.2959 27.0907 21.0261 28.1187 21.681C30.3533 23.1113 32.5955 24.5492 34.8302 25.9795C36.8339 27.2668 38.8377 28.5541 40.8489 29.8338C41.6906 30.3683 42.4877 30.1876 43.0165 29.352C43.3666 28.8025 43.7093 28.2454 44.0594 27.6959C44.4244 27.1238 44.4169 26.5516 44.0445 26.0021C43.903 25.7988 43.9179 25.6709 44.0445 25.4902C44.7149 24.4287 45.3853 23.3748 46.0408 22.3059C46.1823 22.0725 46.2866 22.0951 46.4803 22.2306C50.5027 25.1063 54.5326 27.9744 58.555 30.8426C61.6463 33.0483 64.7302 35.2464 67.8215 37.4521C68.2684 37.7683 68.7526 37.8737 69.2889 37.7533C71.4342 37.279 73.0581 35.1712 72.9985 32.8902C72.924 32.032 72.6037 31.3018 71.762 30.8576L71.7545 30.8501ZM38.8526 3.9376C39.1058 3.58379 39.3442 3.20739 39.5528 2.82346C39.7316 2.4847 39.9029 2.45459 40.2306 2.66538C42.361 4.05052 44.5063 5.42061 46.6516 6.7907C48.6256 8.06293 50.607 9.32763 52.581 10.5999C52.7002 10.6751 52.8417 10.7354 52.9162 10.8859C52.8715 10.9687 52.8268 11.0591 52.7746 11.1343C52.5065 11.5634 52.2309 11.985 51.9776 12.4216C51.8286 12.6776 51.6945 12.655 51.4711 12.512C47.3146 9.83953 43.1581 7.17463 38.9941 4.50973C38.7334 4.34411 38.6664 4.20861 38.86 3.9376H38.8526ZM42.6441 27.2894C42.4057 27.598 42.1972 27.9368 42.0184 28.2755C41.8322 28.6294 41.6608 28.6745 41.3182 28.4487C38.3684 26.5366 35.4037 24.6471 32.4465 22.75C31.2994 22.0123 30.1671 21.267 29.0051 20.5518C28.6401 20.3335 28.6326 20.1529 28.8636 19.8367C29.1317 19.4678 29.3477 19.0688 29.601 18.6849C29.6606 18.5946 29.6904 18.4666 29.8468 18.4591C29.9362 18.5118 30.033 18.5645 30.1299 18.6247C34.2491 21.2595 38.361 23.9093 42.4877 26.529C42.8452 26.7549 42.9271 26.928 42.6515 27.2743L42.6441 27.2894ZM42.8899 24.6546C42.7111 24.9331 42.5845 24.9406 42.3238 24.775C38.8377 22.5317 35.3516 20.2884 31.8506 18.0601C31.575 17.8869 31.5675 17.759 31.7314 17.4955C34.0406 13.8369 36.3423 10.1708 38.6366 6.49711C38.8153 6.21105 38.9494 6.17341 39.2325 6.36161C42.7186 8.60495 46.2121 10.8408 49.6982 13.0841C49.8025 13.1518 49.944 13.1895 49.9366 13.3777C49.8845 13.4605 49.8323 13.5584 49.7727 13.6562C47.471 17.3223 45.1693 20.9885 42.8825 24.6546H42.8899ZM71.5683 32.9579C71.6055 34.4786 70.4435 35.9992 69.0729 36.338C68.7675 36.4133 68.5813 36.2477 68.3727 36.0971C65.4676 34.0269 62.5625 31.9567 59.6575 29.8865C55.5754 26.9807 51.5009 24.0674 47.4189 21.1691C47.0539 20.9057 46.9421 20.7175 47.2401 20.3335C47.471 20.0399 47.6647 19.7162 47.836 19.385C47.9924 19.0764 48.1414 19.0688 48.4319 19.2344C50.3388 20.3335 52.2607 21.4176 54.175 22.5016C59.7617 25.6784 65.3484 28.8552 70.9426 32.0245C71.3523 32.2578 71.5906 32.5439 71.5683 32.9504V32.9579Z" fill="black" stroke="black" stroke-width="0.75"/>
<path d="M39.9173 32.6299C36.8405 30.6602 33.666 28.8432 30.4951 27.0284C28.8295 26.075 27.1648 25.1223 25.5159 24.1483C25.1505 23.9306 24.8137 23.8128 24.4673 23.8118C24.1209 23.8107 23.7802 23.9266 23.4069 24.1483C18.2735 27.1858 13.1286 30.2037 7.98295 33.2219C6.01312 34.3773 4.04319 35.5328 2.07378 36.6895C1.98686 36.7403 1.89524 36.7856 1.79889 36.8332C1.76818 36.8484 1.737 36.8638 1.70533 36.8798C1.57747 36.944 1.44468 37.015 1.32625 37.104C1.20684 37.1937 1.09907 37.3039 1.02286 37.4483C0.946378 37.5933 0.905427 37.7657 0.909513 37.9742L0.909515 37.9743C0.913641 38.1765 0.962536 38.3422 1.04536 38.48C1.12768 38.617 1.23956 38.72 1.3603 38.8031C1.48012 38.8855 1.61248 38.9508 1.73724 39.0099C1.75628 39.0189 1.7751 39.0278 1.7937 39.0366C1.89987 39.0866 1.99855 39.1331 2.08835 39.186L2.08844 39.1861C6.70689 41.9037 11.333 44.614 15.9741 47.2942L15.9743 47.2943C17.4018 48.1165 18.6712 49.1091 19.7405 50.3611L39.9173 32.6299ZM39.9173 32.6299H39.9248L39.9556 32.6496C45.7422 36.3614 48.7649 41.8658 48.8922 48.8248V48.825C48.9377 51.5113 47.8051 53.662 45.3437 55.0856L45.3437 55.0857C40.2598 58.0208 35.205 61.0031 30.1508 63.9849C27.9336 65.2931 25.7164 66.6012 23.497 67.9052C22.194 68.6753 20.7837 68.8592 19.3183 68.5523L19.3179 68.5522C18.1022 68.2927 16.9869 67.8047 15.9056 67.1596C12.5594 65.1752 9.19782 63.2184 5.83425 61.2604C4.54117 60.5076 3.24779 59.7547 1.95486 59L39.9173 32.6299ZM20.5304 66.7542L20.5307 66.7542C21.2993 66.7688 21.9484 66.5949 22.4871 66.2506C23.0263 65.906 23.4629 65.3855 23.7976 64.6943C24.2854 63.6863 24.4478 62.6087 24.4407 61.4778C24.2109 57.2057 22.4745 53.5659 19.7405 50.3611L20.5304 66.7542ZM20.5304 66.7542C19.2161 66.7321 18.0702 66.182 16.9337 65.5214M20.5304 66.7542L16.9337 65.5214M43.6995 53.4899C44.1689 52.3203 44.559 51.1312 44.5305 49.8838L44.5305 49.8837C44.4048 44.0788 41.7396 39.6968 36.982 36.6086L36.982 36.6086C35.4205 35.5945 33.8008 34.6831 32.1775 33.7697C31.3334 33.2947 30.4883 32.8192 29.6499 32.3283C29.3447 32.1501 29.0686 32.1171 28.7308 32.2264C26.1853 33.0559 23.6547 32.9639 21.1435 32.0978C20.9941 32.0475 20.8707 32.0223 20.7542 32.0263C20.6398 32.0302 20.5239 32.0625 20.3906 32.1399C18.744 33.1188 17.09 34.0825 15.4366 35.046L15.4365 35.046C15.2846 35.1343 15.2407 35.1857 15.2297 35.2254C15.2192 35.2633 15.2272 35.3358 15.3309 35.5044C15.331 35.5046 15.3311 35.5047 15.3312 35.5048L15.2247 35.5703L43.6995 53.4899ZM43.6995 53.4899H43.6927L43.6608 53.5674C43.5247 53.899 43.2811 54.0798 42.9487 54.1759M43.6995 53.4899L42.9487 54.1759M43.7076 49.6708C43.6052 47.8354 42.823 46.3526 41.6137 45.4331C40.4043 44.5135 38.7787 44.1659 37.0067 44.58C34.3883 45.1919 32.1483 47.133 30.7572 49.5562C29.3661 51.9795 28.8139 54.902 29.5932 57.4902C30 58.8409 30.8107 59.8585 32.1415 60.5571C31.6732 60.8342 31.2229 61.0992 30.7688 61.3665C30.398 61.5847 30.0247 61.8044 29.6369 62.0334C29.7022 59.6743 29.3183 57.5111 28.7536 55.382L28.7536 55.3819C27.3822 50.2243 24.4053 46.2461 19.9321 43.4217L19.9321 43.4216C18.4257 42.472 16.8972 41.5603 15.3541 40.6714L15.3534 40.6709C15.1058 40.5307 15.0293 40.4371 15.0154 40.3588C15.0085 40.32 15.0138 40.2693 15.0453 40.1958C15.0771 40.1214 15.1321 40.032 15.2139 39.92L42.7858 54.187L42.8822 54.1075C42.8976 54.1261 42.9123 54.1411 42.9294 54.1575M43.7076 49.6708L43.5828 49.6777L43.7076 49.6706C43.7076 49.6707 43.7076 49.6707 43.7076 49.6708ZM43.7076 49.6708C43.7968 51.2414 43.4469 52.7193 42.9294 54.1575M42.9294 54.1575C42.9262 54.1663 42.923 54.1751 42.9198 54.1839C42.9295 54.1813 42.9391 54.1786 42.9487 54.1759M42.9294 54.1575C42.9347 54.1626 42.9403 54.1679 42.9462 54.1735C42.9471 54.1743 42.9479 54.1751 42.9487 54.1759M46.9887 48.539C46.7148 42.3896 44.0233 37.5196 38.8972 34.2453C35.9016 32.3365 32.8141 30.5702 29.7239 28.8024C28.1364 27.8943 26.5483 26.9858 24.9715 26.0573L24.9709 26.0569C24.7568 25.9292 24.5891 25.8819 24.4319 25.8881C24.2728 25.8945 24.1077 25.9563 23.8994 26.0797L23.8992 26.0798C19.3998 28.7332 14.8965 31.3788 10.3923 34.0249C8.64746 35.05 6.90247 36.0751 5.1575 37.1009L5.15702 37.1011C4.93363 37.2311 4.70513 37.3657 4.46577 37.5067C4.24018 37.6395 4.00496 37.778 3.75531 37.9237C3.82174 37.9662 3.88402 38.0063 3.94329 38.0445C4.12452 38.1612 4.2776 38.2597 4.43506 38.3534C5.73858 39.1137 7.05012 39.8626 8.36214 40.6117C11.3191 42.3 14.2784 43.9897 17.1539 45.8158L17.154 45.8158C22.8727 49.4516 25.9176 54.7963 26.2473 61.656M46.9887 48.539L25.9486 63.7268C25.9263 63.8739 25.9039 64.0222 25.8824 64.1723C25.9288 64.1507 25.974 64.1295 26.0179 64.1087M46.9887 48.539C47.0337 49.5929 46.8581 50.6329 46.2835 51.5804C46.5348 47.8229 45.8769 44.5678 44.3868 41.7692C42.835 38.8546 40.385 36.4436 37.1372 34.4772C34.9217 33.1356 32.6753 31.8424 30.4307 30.5502C28.8722 29.653 27.3146 28.7564 25.7691 27.8445C25.4401 27.6489 25.1365 27.5464 24.8255 27.5485C24.5148 27.5506 24.2118 27.657 23.8837 27.852L46.9887 48.539ZM26.2473 61.656C26.2473 61.6561 26.2473 61.6562 26.2474 61.6563L26.1225 61.6623L26.2473 61.6559C26.2473 61.6559 26.2473 61.656 26.2473 61.656ZM26.2473 61.656C26.283 62.354 26.1783 63.0452 26.0712 63.7526C26.0533 63.8708 26.0353 63.9895 26.0179 64.1087M26.0179 64.1087C26.0107 64.158 26.0036 64.2074 25.9967 64.2569L27.7481 61.507C27.7481 61.5067 27.7481 61.5064 27.7481 61.5061M26.0179 64.1087C26.7522 63.7612 27.1481 63.518 27.3802 63.1931C27.6315 62.8413 27.7032 62.376 27.7481 61.5061M27.7481 61.5061C27.763 61.1159 27.7701 60.7316 27.7337 60.3492L27.7336 60.3489C27.1035 53.5461 24.2457 48.128 18.275 44.6137C15.7465 43.1256 13.2272 41.6328 10.7065 40.1391C10.0264 39.7361 9.34611 39.333 8.66554 38.9299C8.37712 38.7593 8.15262 38.5898 7.99901 38.4173C7.84483 38.2442 7.75506 38.0598 7.75506 37.8635C7.75506 37.6671 7.8449 37.4832 7.99925 37.3109C8.153 37.1393 8.37763 36.9712 8.66611 36.8024C10.1638 35.9223 11.662 35.0435 13.1603 34.1647C16.737 32.0668 20.3139 29.9688 23.8835 27.8521L27.7481 61.5061ZM16.9337 65.5214C15.6804 64.7893 14.4276 64.0571 13.175 63.3251M16.9337 65.5214L13.175 63.3251M13.175 63.3251C9.75265 61.3251 6.33205 59.326 2.9075 57.3311M13.175 63.3251L2.9075 57.3311M2.9075 57.3311L2.84458 57.4391M2.9075 57.3311L2.84458 57.4391M2.84458 57.4391L2.90788 57.3313C2.86296 57.3049 2.81631 57.2767 2.76869 57.2479M2.84458 57.4391L2.76869 57.2479M2.76869 57.2479C2.67632 57.1921 2.5803 57.1341 2.48629 57.0829M2.76869 57.2479L2.48629 57.0829M2.48629 57.0829C2.34172 57.0041 2.18827 56.9336 2.03003 56.8983M2.48629 57.0829L2.03003 56.8983M2.03003 56.8983C1.86982 56.8626 1.70246 56.8627 1.53421 56.9276M2.03003 56.8983L1.53421 56.9276M1.53421 56.9276C1.36684 56.9921 1.20976 57.1165 1.06184 57.3104M1.53421 56.9276L1.06184 57.3104M1.06184 57.3104C0.957816 57.4451 0.894597 57.5878 0.882318 57.7385C0.86998 57.8899 0.910043 58.0374 0.992514 58.1794C1.15393 58.4572 1.48535 58.7267 1.95473 58.9999L1.06184 57.3104ZM1.84599 38.923C1.95193 38.9729 2.05661 39.0222 2.15183 39.0783L39.8807 32.7549C36.7967 30.7791 33.6166 28.959 30.437 27.1392C28.7705 26.1854 27.1043 25.2317 25.4521 24.2558C24.7444 23.8342 24.1932 23.8267 23.4707 24.2558C18.337 27.2935 13.1917 30.3116 8.04589 33.3299C6.07609 34.4853 4.10622 35.6408 2.13693 36.7974C2.04587 36.8506 1.94882 36.8986 1.85151 36.9467C1.43938 37.1505 1.02244 37.3566 1.03449 37.9717C1.04621 38.5464 1.45467 38.7387 1.84599 38.923ZM38.0226 57.1259H38.0153L37.9866 57.1422C37.3403 57.5088 36.7023 57.8844 36.0675 58.2581C35.8671 58.376 35.6671 58.4938 35.4673 58.611L35.4669 58.6112C34.688 59.0719 33.8621 59.1449 33.1507 58.8972C32.4392 58.6495 31.8319 58.0773 31.4978 57.2277L31.4976 57.2273C31.1999 56.4787 31.1197 55.6916 31.1487 55.1117L31.1488 55.1117L31.1489 55.1068C31.193 51.2252 33.6591 47.6993 36.9718 46.5513C38.2677 46.1025 39.47 46.2388 40.3493 46.8162C41.2272 47.3926 41.8008 48.4202 41.819 49.7921C41.8558 52.8821 40.8404 55.5121 38.0226 57.1259ZM14.2236 37.8472L14.2235 37.8475C14.1052 38.3961 13.7282 38.8246 13.3242 39.248L13.3234 39.2488C13.274 39.3015 13.2288 39.3201 13.1887 39.3236C13.1463 39.3273 13.0939 39.3154 13.0308 39.2791C12.2579 38.8217 11.4849 38.3642 10.6145 37.8514C10.9281 37.6673 11.2312 37.4901 11.5268 37.3173C12.1015 36.9815 12.6479 36.6621 13.1881 36.3402L13.1881 36.3402L13.1899 36.339C13.2914 36.2762 13.3616 36.2627 13.4156 36.2708C13.4701 36.2789 13.5333 36.3129 13.6123 36.3993C14.0122 36.8492 14.3499 37.2697 14.2236 37.8472ZM26.8804 30.74C25.5257 30.9971 24.2695 30.9678 22.9914 30.648C23.7771 29.9985 24.266 29.7069 24.7865 29.7181C25.0668 29.7241 25.3684 29.8185 25.7431 30.0155C26.0641 30.1842 26.4324 30.4245 26.8804 30.74Z" fill="black" stroke="black" stroke-width="0.25"/>
<path d="M1.73467 55.2785C6.39025 57.981 11.0384 60.6986 15.694 63.4162C16.3197 63.7851 16.9752 64.0862 17.6754 64.2669C19.8952 64.8465 21.5861 63.8001 22.115 61.5493C22.2565 60.947 22.2788 60.3297 22.3235 59.6974C21.9287 55.3538 20.141 51.8307 16.3644 49.5045C14.8522 48.5711 13.3029 47.7053 11.7684 46.8095C8.77391 45.063 5.77199 43.309 2.77752 41.5625C2.65833 41.4948 2.5317 41.427 2.41252 41.3593C1.91344 41.0732 1.40691 41.0657 1.12385 41.6077C0.840793 42.1572 1.13875 42.5261 1.64528 42.8197C6.13699 45.4244 10.5914 48.0893 15.113 50.6412C17.8244 52.1769 19.411 54.5257 20.3347 57.4089C20.722 58.6134 20.8635 59.8705 20.5507 61.1352C20.2229 62.4903 19.4408 62.9871 18.1 62.6709C17.2806 62.4752 16.5729 62.0235 15.8504 61.602C11.4183 59.0124 6.97871 56.4227 2.5466 53.8331C2.04752 53.5395 1.50375 53.389 1.15365 53.9611C0.773753 54.5859 1.18344 54.9623 1.73467 55.2785Z" fill="black"/>
<path d="M16.1259 58.3197C15.2618 57.8153 14.3903 57.326 13.5262 56.8216C9.86135 54.6836 6.18902 52.5457 2.52415 50.4002C2.01762 50.1066 1.48875 49.9636 1.13865 50.5433C0.818341 51.0702 1.0865 51.4767 1.60048 51.7778C6.18157 54.4352 10.7552 57.1302 15.3512 59.7726C17.0719 60.7662 18.5394 59.8177 18.5096 57.6572C18.3382 55.8128 17.4891 54.2094 15.7609 53.1856C12.2971 51.138 8.8185 49.1205 5.33984 47.0879C4.33424 46.5007 3.32863 45.906 2.30813 45.3414C1.83885 45.078 1.35466 45.1382 1.1014 45.6576C0.885382 46.1168 1.03436 46.5309 1.51854 46.7717C1.68987 46.8546 1.85374 46.9675 2.02507 47.0653C6.27096 49.5345 10.5094 52.0112 14.7553 54.4804C16.044 55.2332 16.7814 56.3549 16.8782 57.868C16.9155 58.4627 16.6473 58.6358 16.1185 58.3272L16.1259 58.3197Z" fill="black"/>
<path d="M31.1055 43.1661C28.9975 41.5701 26.6809 40.3205 24.4238 38.9579C24.26 38.8601 24.0737 38.7998 23.9844 38.7622C23.5225 38.7245 23.2097 38.8525 23.083 39.2063C22.9266 39.643 23.016 40.0344 23.448 40.2904C25.8242 41.7132 28.2526 43.0456 30.4649 44.7319C30.7852 44.9728 31.1502 44.9351 31.4631 44.6792C31.7312 44.4609 31.761 44.1447 31.694 43.836C31.6195 43.5123 31.3364 43.3543 31.0981 43.1661H31.1055Z" fill="black"/>
<path d="M34.9268 40.1245C32.9156 38.5662 30.6213 37.4972 28.4463 36.2175C28.3271 36.1497 28.193 36.1271 28.0813 36.0895C27.6567 36.1422 27.3587 36.3304 27.2544 36.7218C27.1278 37.2111 27.4183 37.4972 27.8057 37.7306C30.0701 39.1157 32.5432 40.1696 34.5618 41.9613C34.897 42.2549 35.2918 42.1947 35.6047 41.8634C35.9548 41.4946 35.925 41.1031 35.6047 40.7418C35.4036 40.5159 35.1652 40.3127 34.9268 40.1245Z" fill="black"/>
<path d="M39.2174 50.7543C39.0535 50.2349 38.845 49.6929 38.4949 49.2036C38.3608 49.0229 38.2192 48.8497 38.0479 48.7142C38.0703 49.2186 38.0926 49.6929 38.1075 50.1596C38.1075 50.2349 38.1224 50.2951 38.1895 50.3403C38.6736 50.664 38.9492 51.1985 39.1504 51.7405C39.1951 51.8609 39.1951 51.891 39.0982 51.9061C38.7705 51.9513 38.4278 52.0491 38.0703 52.162C37.9064 52.2147 37.7351 52.2298 37.6084 52.019C37.5637 51.9437 37.519 52.004 37.4818 52.019C37.4371 52.0265 37.4446 52.0717 37.4446 52.1244C37.4818 52.4782 37.5265 52.8245 37.6159 53.1557C37.6978 53.4493 37.8915 53.6074 38.115 53.5171C38.7109 53.2912 39.2695 53.0503 39.7388 52.8847C39.6271 52.418 39.5079 51.9061 39.3887 51.349C39.3068 51.1608 39.2844 50.9576 39.2174 50.7543Z" fill="black"/>
<path d="M34.6365 55.0751C34.6961 54.5933 34.7557 54.0965 34.6588 53.5921C34.5024 52.7565 34.2491 52.0112 33.9884 51.3864C33.7724 50.8595 33.5489 50.4153 33.3329 50.054C33.2733 50.4454 33.2361 50.7616 33.2212 51.0702C33.2212 51.1982 33.2361 51.2961 33.2808 51.3789C33.4521 51.6875 33.6309 52.0564 33.7873 52.5005C33.9735 53.0426 34.1896 53.6523 34.3087 54.3298C34.346 54.5406 34.3683 54.7514 34.3832 54.9697C34.3981 55.1203 34.4801 55.0751 34.5322 55.1052C34.5695 55.1278 34.6216 55.1579 34.629 55.0676L34.6365 55.0751Z" fill="black"/>
<path d="M36.8413 54.2696C36.8264 54.1868 36.7966 54.1567 36.7295 54.1868C36.439 54.3073 36.1411 54.4202 35.8506 54.5181C35.7835 54.5406 35.7612 54.5783 35.7835 54.6761C35.8729 55.0676 35.9623 55.4591 36.0442 55.8505C36.0666 55.9408 36.0889 55.9634 36.156 55.9408C36.305 55.8881 36.4539 55.8279 36.6029 55.7677C36.7444 55.7075 36.8934 55.6397 37.0349 55.5795C37.102 55.5494 37.1318 55.5117 37.102 55.4139C37.0126 55.0375 36.9232 54.6536 36.8413 54.2696Z" fill="black"/>
<path d="M34.6365 56.3701C34.5546 56.3023 34.5397 56.2496 34.6067 56.1819C34.6961 56.099 34.8004 56.1292 34.9121 56.1819C34.9493 56.1969 34.994 56.2496 35.0089 56.1593C35.0313 56.0238 35.0387 55.8883 34.9494 55.7753C34.86 55.6549 34.7706 55.7076 34.6961 55.7603C34.5173 55.8958 34.4428 56.1141 34.413 56.3776C34.3981 56.4679 34.4428 56.5658 34.5099 56.6486C34.5546 56.6938 34.5993 56.7389 34.6514 56.7992C34.5471 56.8669 34.4726 56.9648 34.4577 57.168C34.711 57.0702 34.9568 56.9347 35.1952 56.7766C35.2697 56.7239 35.2846 56.6185 35.2771 56.4529C35.0611 56.6636 34.8451 56.5357 34.629 56.3701H34.6365Z" fill="black"/>
</g>
</svg>
