<svg width="115" height="115" viewBox="0 0 115 115" fill="none" xmlns="http://www.w3.org/2000/svg">
<g clip-path="url(#clip0_150_1783)">
<path d="M83.7097 52.4999C83.4197 53.1799 82.8797 53.6099 82.2597 53.9699C77.3097 56.8399 72.3797 59.7399 67.4197 62.5899C65.1897 63.8699 62.9097 63.8099 60.6797 62.5299C55.9897 59.8299 51.2997 57.1199 46.6097 54.4099C41.9797 51.7399 37.3497 49.0699 32.7197 46.3999C32.2997 46.1599 31.8897 45.9199 31.5797 45.5399C30.9597 44.7999 30.9897 43.9199 31.6397 43.2199C31.8997 42.9399 32.2097 42.7299 32.5397 42.5399C37.4697 39.6699 42.3897 36.7899 47.3297 33.9299C49.6297 32.5999 51.9497 32.6199 54.2597 33.9499C63.5797 39.3299 72.8897 44.7099 82.2097 50.0899C82.8497 50.4599 83.4097 50.8799 83.7197 51.5799V52.5099H83.7097V52.4999ZM38.2697 46.4799C38.3897 46.5599 38.4897 46.6399 38.6097 46.7099C45.7097 50.8199 52.8097 54.9199 59.9097 59.0299C60.1997 59.1999 60.3997 59.1799 60.6997 59.0299C62.8697 57.9999 65.0297 57.9799 67.0997 59.2999C67.3997 59.4899 67.5897 59.3999 67.8397 59.2599C69.9097 58.0499 71.9897 56.8499 74.0597 55.6499C74.8597 55.1799 75.6597 54.7099 76.5297 54.1999C76.2697 54.0799 76.0997 54.0099 75.9397 53.9199C75.1997 53.4999 74.5397 52.9899 74.5397 52.0499C74.5397 51.1099 75.1897 50.5899 75.9397 50.1799C75.9697 50.1599 75.9997 50.1499 76.0297 50.1299C76.1497 50.0699 76.3397 50.0599 76.3597 49.9199C76.3897 49.7299 76.1697 49.6999 76.0497 49.6299C68.9497 45.5299 61.8397 41.4299 54.7397 37.3199C54.4397 37.1399 54.2197 37.1599 53.8997 37.3199C51.8097 38.4199 49.6997 38.4399 47.6197 37.3199C47.3197 37.1599 47.1197 37.1299 46.8297 37.3199C44.7897 38.5199 42.7497 39.6999 40.6997 40.8899C39.8897 41.3599 39.0797 41.8299 38.2597 42.3099C40.5497 44.1699 40.5497 44.7499 38.2597 46.4799" fill="#A3895A"/>
<path d="M63.969 85.6C62.759 85.48 61.829 84.72 60.829 84.14C51.179 78.58 41.539 73.0101 31.899 67.4301C31.489 67.1901 30.979 66.97 31.069 66.38C31.159 65.78 31.689 65.5901 32.199 65.4801C33.059 65.2801 33.849 65.48 34.609 65.92C37.349 67.51 40.099 69.0901 42.839 70.6801C49.799 74.7001 56.759 78.71 63.709 82.74C64.099 82.97 64.389 82.96 64.779 82.74C69.849 79.77 74.939 76.8301 80.009 73.8701C80.849 73.3801 81.719 73.17 82.659 73.49C83.099 73.64 83.509 73.85 83.569 74.3601C83.629 74.8701 83.229 75.1101 82.859 75.3301C79.619 77.2201 76.379 79.1 73.129 80.99C70.919 82.27 68.709 83.55 66.509 84.84C65.899 85.2 65.289 85.5301 64.569 85.6101H63.949H63.969V85.6Z" fill="#A3895A"/>
<path d="M64.1985 74.7401C63.5885 74.7801 63.0185 74.5801 62.4685 74.2701C53.9886 69.3701 45.4985 64.4701 37.0185 59.5701C35.3385 58.6001 33.6685 57.6401 31.9885 56.6701C31.8685 56.6001 31.7485 56.5301 31.6385 56.4601C31.3285 56.2601 31.0385 56.0201 31.0685 55.6101C31.1085 55.1601 31.4385 54.9301 31.8185 54.7801C32.7785 54.4101 33.6985 54.5501 34.5785 55.0601C38.3185 57.2201 42.0485 59.3801 45.7885 61.5401C51.8085 65.0201 57.8385 68.4901 63.8485 71.9801C64.1685 72.1701 64.3985 72.1201 64.6885 71.9501C69.8586 68.9401 75.0285 65.9401 80.1985 62.9401C81.0185 62.4601 81.8685 62.3801 82.7685 62.6901C83.1785 62.8301 83.5385 63.0601 83.5985 63.5201C83.6585 64.0001 83.2985 64.2501 82.9285 64.4601C80.4085 65.9301 77.8985 67.3901 75.3785 68.8501C72.2885 70.6501 69.1785 72.4401 66.0985 74.2501C65.5185 74.5901 64.9085 74.7701 64.2085 74.7301" fill="#A3895A"/>
<path d="M32.8609 49.1599C33.4809 49.1599 34.0409 49.3699 34.5609 49.6699C44.2909 55.2899 54.0209 60.8999 63.7409 66.5299C64.0809 66.7299 64.3309 66.7399 64.6709 66.5299C69.8309 63.5199 75.0009 60.5199 80.1709 57.5199C80.9709 57.0599 81.8009 56.9399 82.6809 57.2599C83.1009 57.4099 83.4809 57.6099 83.5309 58.1099C83.5809 58.6099 83.2209 58.8399 82.8609 59.0499C79.9109 60.7599 76.9709 62.4799 74.0209 64.1899C71.3709 65.7299 68.7209 67.2699 66.0709 68.8099C64.8609 69.5199 63.6309 69.5399 62.4209 68.8399C55.3109 64.7399 48.2109 60.6399 41.1109 56.5399C38.0509 54.7799 35.0009 53.0199 31.9409 51.2499C31.5009 50.9899 30.9609 50.7699 31.0509 50.1299C31.1409 49.4799 31.7209 49.3699 32.2309 49.2299C32.4209 49.1699 32.6409 49.1799 32.8409 49.1599" fill="#A3895A"/>
<path d="M64.2408 80.18C63.6408 80.14 63.0608 80.03 62.5208 79.72C52.5508 73.96 42.5908 68.21 32.6208 62.46C32.2808 62.26 31.9408 62.07 31.6008 61.86C31.2808 61.67 31.0108 61.42 31.0508 61C31.0908 60.57 31.4008 60.35 31.7608 60.2C32.7208 59.79 33.6408 59.96 34.5208 60.47C36.6108 61.67 38.7008 62.88 40.8008 64.09C48.4808 68.53 56.1708 72.96 63.8408 77.41C64.2008 77.62 64.4408 77.51 64.7208 77.34C69.4308 74.6 74.1308 71.85 78.8408 69.13C79.5808 68.7 80.2608 68.17 81.1208 67.97C81.7108 67.83 82.2808 67.91 82.8308 68.14C83.1908 68.29 83.5008 68.5 83.5508 68.93C83.6008 69.37 83.3108 69.62 82.9708 69.82C81.6508 70.59 80.3408 71.36 79.0208 72.12C74.6808 74.64 70.3408 77.16 66.0108 79.69C65.4608 80.01 64.8708 80.13 64.2408 80.18Z" fill="#A3895A"/>
<path d="M57.3586 53.6601C55.2086 53.6301 53.0586 53.2601 51.0586 52.1901C50.3786 51.8201 49.7586 51.3701 49.2186 50.8001C47.6786 49.1801 47.7286 47.0501 49.3486 45.5001C50.6486 44.2501 52.2386 43.5601 53.9786 43.1901C57.3386 42.4901 60.6186 42.6801 63.7386 44.2501C64.4486 44.6001 65.0786 45.0701 65.6286 45.6501C67.1886 47.3001 67.1386 49.4201 65.4986 50.9901C64.1486 52.2801 62.4886 52.9301 60.7186 53.3301C59.6486 53.5701 58.5586 53.6601 57.3586 53.6601ZM56.4686 50.7501C57.2286 50.7701 57.9386 50.6201 58.5686 50.1801C59.1886 49.7401 59.3086 49.1801 58.9186 48.5201C58.7386 48.2101 58.5086 47.9301 58.3286 47.6201C58.0386 47.1001 58.2386 46.7501 58.8286 46.7101C59.5786 46.6701 60.1786 47.0301 60.6086 47.5701C60.9586 48.0001 61.2786 48.0301 61.7486 47.8601C62.5686 47.5701 62.6086 47.5401 61.9586 46.9701C61.5686 46.6201 61.5486 46.3901 62.0286 46.1501C62.1486 46.0901 62.2986 45.9701 62.1186 45.8401C61.8186 45.6301 61.4886 45.2901 61.1086 45.5401C60.4586 45.9701 59.8186 45.8101 59.1386 45.6901C58.2386 45.5301 57.3586 45.6701 56.5686 46.1601C55.9486 46.5501 55.8286 47.0601 56.1886 47.6901C56.3486 47.9701 56.5486 48.2301 56.7286 48.5001C56.8886 48.7401 57.0886 48.9901 56.9086 49.3001C56.7386 49.5801 56.4586 49.6301 56.1486 49.6501C55.2386 49.6801 54.5986 49.2101 54.0586 48.5501C53.8886 48.3401 53.7586 48.0601 53.4086 48.1901C53.0286 48.3301 52.4586 48.2801 52.3486 48.6801C52.2486 49.0201 52.7086 49.3001 52.9986 49.5301C53.2886 49.7701 53.2886 49.9401 52.9586 50.1501C52.4986 50.4401 52.5186 50.5601 52.9986 50.8101C53.2786 50.9501 53.5686 51.0301 53.8286 50.8501C54.3786 50.4501 54.9386 50.5001 55.5386 50.6601C55.8286 50.7401 56.1486 50.7301 56.4586 50.7601" fill="#A3895A"/>
<path d="M47.8286 44.2301C47.1086 44.2301 46.4286 44.0901 45.8386 43.6601C45.0286 43.0701 45.0486 42.2501 45.8686 41.6901C46.8986 40.9901 48.7386 40.9701 49.7786 41.6501C50.6986 42.2501 50.6986 43.1501 49.7786 43.7401C49.2786 44.0601 48.5386 44.2501 47.8186 44.2301" fill="#A3895A"/>
<path d="M66.7496 52.23C67.7896 52.24 68.4696 52.37 69.0596 52.8C69.8596 53.39 69.8496 54.25 69.0096 54.76C67.7696 55.5 66.4596 55.53 65.1996 54.85C64.1396 54.28 64.1596 53.27 65.1996 52.66C65.7796 52.32 66.4196 52.23 66.7496 52.23Z" fill="#A3895A"/>
<path d="M57.45 112.4C87.798 112.4 112.4 87.798 112.4 57.45C112.4 27.102 87.798 2.5 57.45 2.5C27.102 2.5 2.5 27.102 2.5 57.45C2.5 87.798 27.102 112.4 57.45 112.4Z" stroke="#010101" stroke-width="5" stroke-miterlimit="10"/>
</g>
<defs>
<clipPath id="clip0_150_1783">
<rect width="114.9" height="114.9" fill="white"/>
</clipPath>
</defs>
</svg>
