<svg width="121" height="132" viewBox="0 0 121 132" fill="none" xmlns="http://www.w3.org/2000/svg">
<g clip-path="url(#clip0_150_1763)">
<path d="M83.26 20.29C75.16 24.08 67.13 27.83 58.96 31.65C59.41 29.53 59.83 27.57 60.25 25.61C60.53 24.3 60.79 22.98 61.11 21.68C61.27 21.04 61.13 20.85 60.45 20.85C55.11 20.88 49.86 21.55 44.84 23.35C26.69 29.84 15.2 42.44 11.31 61.36C5.78996 88.13 23.47 114.42 50.3 119.87C76.7 125.24 102.39 109.02 108.87 82.87C109.05 82.16 109.28 82.01 109.99 82.18C112.77 82.86 115.56 83.49 118.36 84.11C118.95 84.24 119.16 84.38 118.98 85.06C113.3 106.41 100.09 121.05 79.2 128.11C45.46 139.52 9.27996 118.82 1.46996 84.07C-5.87004 51.48 14.94 18.93 47.55 11.94C52.55 10.87 57.6 10.42 62.71 10.62C63.31 10.64 63.5 10.46 63.61 9.9C64.25 6.79 64.93 3.69 65.6 0.59C65.63 0.44 65.67 0.3 65.75 0C71.62 6.81 77.41 13.52 83.26 20.29Z" fill="#010101"/>
<path d="M120.209 78.0801C120.009 79.8801 119.689 81.6101 119.359 83.3301C119.299 83.6501 119.159 83.7401 118.829 83.6601C115.789 82.9801 112.739 82.3201 109.689 81.6601C109.379 81.5901 109.209 81.5001 109.289 81.1001C109.549 79.7301 109.759 78.3601 109.969 76.9801C110.019 76.6101 110.169 76.5201 110.539 76.5701C113.609 76.9401 116.689 77.2901 119.759 77.6401C120.069 77.6801 120.349 77.7201 120.229 78.0801" fill="#010101"/>
<path d="M115.47 71.4999C116.99 71.4999 118.51 71.5199 120.03 71.4999C120.51 71.4999 120.67 71.6499 120.63 72.1199C120.54 73.4599 120.48 74.7999 120.42 76.1299C120.4 76.5699 120.27 76.7399 119.76 76.6799C116.81 76.3599 113.86 76.0799 110.91 75.8099C110.26 75.7499 110.04 75.5699 110.16 74.8699C110.31 73.9799 110.34 73.0699 110.31 72.1699C110.28 71.4499 110.57 71.3299 111.21 71.3499C112.63 71.3999 114.04 71.3699 115.46 71.3699V71.5099H115.47V71.4999Z" fill="#010101"/>
<path d="M115.5 70.0899C113.98 70.0899 112.46 70.0799 110.94 70.0899C110.53 70.0899 110.35 70.0099 110.34 69.5499C110.34 68.6699 110.27 67.7999 110.21 66.9199C110.18 66.5399 110.27 66.3799 110.69 66.3399C113.72 66.1099 116.75 65.8499 119.78 65.5799C120.27 65.5399 120.48 65.6399 120.48 66.1699C120.5 67.2299 120.56 68.2799 120.64 69.3399C120.68 69.8599 120.48 69.9999 119.98 69.9899C118.49 69.9699 116.99 69.9899 115.49 69.9899V70.0799L115.5 70.0899Z" fill="#010101"/>
<path d="M120.16 63.08C120.22 63.43 120.05 63.54 119.74 63.57C116.66 63.92 113.59 64.28 110.51 64.65C110.15 64.69 109.94 64.65 109.9 64.21C109.84 63.54 109.72 62.88 109.6 62.22C109.53 61.86 109.57 61.65 110.01 61.58C113.06 61.06 116.11 60.52 119.16 59.97C119.44 59.92 119.65 59.86 119.71 60.25C119.85 61.19 120.01 62.13 120.17 63.08" fill="#010101"/>
<path d="M109.361 59.4201C109.141 59.4701 109.011 59.4001 108.971 59.1701C108.971 59.1201 108.951 59.0701 108.931 59.0201C108.501 57.7201 108.941 56.8901 110.251 56.5201C112.731 55.8301 115.221 55.1501 117.701 54.4501C118.151 54.3201 118.401 54.3501 118.491 54.8901C118.601 55.5201 118.781 56.1501 118.971 56.7601C119.071 57.1001 119.031 57.2801 118.651 57.3601C115.601 58.0301 112.561 58.7101 109.511 59.3801C109.461 59.3801 109.411 59.4001 109.361 59.4001" fill="#010101"/>
<path d="M117.27 50.9501C117.35 51.2901 117.14 51.3101 116.97 51.3701C113.97 52.3701 110.97 53.3701 107.97 54.3801C107.69 54.4801 107.54 54.4001 107.45 54.1301C107.31 53.7201 107.16 53.3001 106.99 52.9001C106.85 52.5901 106.94 52.4501 107.25 52.3301C110.19 51.2201 113.12 50.1001 116.05 48.9901C116.23 48.9201 116.44 48.7701 116.56 49.0701C116.81 49.7201 117.05 50.3701 117.27 50.9501Z" fill="#010101"/>
<path d="M105.69 49.36C105.44 49.39 105.41 49.21 105.33 49.08C104.8 48.25 104.98 47.61 105.87 47.16C108.33 45.92 110.8 44.7 113.25 43.44C113.76 43.18 113.98 43.25 114.23 43.77C114.89 45.16 114.92 45.14 113.53 45.78C111.1 46.89 108.66 48.01 106.23 49.13C106.04 49.21 105.85 49.29 105.7 49.36" fill="#010101"/>
<path d="M102.88 44.4601C102.53 44.2601 102.44 43.8501 102.2 43.5601C101.87 43.1801 101.88 42.9301 102.36 42.6201C104.9 41.0101 107.43 39.3601 109.94 37.7001C110.35 37.4301 110.55 37.4501 110.82 37.8801C111.66 39.1901 111.68 39.1801 110.38 39.9601C108.04 41.3601 105.7 42.7701 103.36 44.1701C103.21 44.2601 103.05 44.3501 102.88 44.4501" fill="#010101"/>
<path d="M99.4403 39.72C99.1703 39.38 98.8703 39.07 98.6403 38.71C98.4303 38.4 98.7903 38.32 98.9403 38.2C101.27 36.29 103.61 34.4 105.92 32.47C106.38 32.09 106.64 32.11 106.93 32.59C107.06 32.81 107.24 33 107.41 33.19C107.59 33.39 107.56 33.52 107.35 33.68C104.82 35.62 102.29 37.57 99.7603 39.51C99.6803 39.57 99.5903 39.62 99.4403 39.72Z" fill="#010101"/>
<path d="M95.2605 35.0599C95.1105 34.9199 94.9705 34.8099 94.8505 34.6799C94.6505 34.4699 94.8705 34.3599 94.9805 34.2399C95.4005 33.7799 95.8305 33.3399 96.2505 32.8899C97.9505 31.0899 99.6605 29.2999 101.35 27.4899C101.66 27.1599 101.84 27.0799 102.2 27.4399C102.56 27.7899 102.5 27.9799 102.18 28.2899C99.9805 30.4299 97.8105 32.5899 95.6205 34.7499C95.5105 34.8499 95.4005 34.9499 95.2705 35.0699" fill="#010101"/>
<path d="M96.4114 22.4299C96.3114 22.5799 96.2314 22.7099 96.1314 22.8299C94.2414 25.2499 92.3514 27.6699 90.4514 30.0799C90.3314 30.2299 90.2214 30.5999 89.9414 30.3699C89.7214 30.1899 90.0014 29.9999 90.1114 29.8599C91.9114 27.3699 93.7214 24.8899 95.5314 22.4099C95.6414 22.2599 95.7014 21.9799 95.9814 22.0899C96.1414 22.1499 96.2614 22.3099 96.4114 22.4299Z" fill="#010101"/>
<path d="M37.6508 95.8699C38.3908 92.9599 39.1708 90.0799 39.8508 87.1799C40.0408 86.3599 40.3608 86.1199 41.1808 86.1599C42.8308 86.2299 44.4908 86.1899 46.1408 86.1699C46.6008 86.1699 46.8308 86.2299 46.8308 86.7899C46.8108 91.8499 46.8108 96.9199 46.8308 101.98C46.8308 102.5 46.6508 102.64 46.1608 102.62C45.2308 102.59 44.3008 102.58 43.3708 102.62C42.7808 102.65 42.6408 102.46 42.6408 101.88C42.6708 98.2899 42.6408 94.6999 42.6408 91.1099V90.5999C42.3708 90.8199 42.3808 91.0899 42.3208 91.3299C41.4108 94.8799 40.4808 98.4199 39.6008 101.98C39.4708 102.49 39.2608 102.64 38.7608 102.62C37.9608 102.58 37.1608 102.57 36.3608 102.62C35.8008 102.66 35.6108 102.44 35.4908 101.93C34.5808 98.2699 33.6408 94.6299 32.7208 90.9699C32.6908 90.8499 32.6808 90.7099 32.4708 90.6399V95.3399C32.4708 97.5399 32.4508 99.7299 32.4708 101.93C32.4708 102.48 32.3008 102.64 31.7608 102.62C30.8108 102.58 29.8508 102.59 28.8908 102.62C28.4508 102.63 28.3008 102.48 28.3008 102.04V86.6999C28.3008 86.2999 28.4408 86.1599 28.8408 86.1699C30.7308 86.1899 32.6108 86.1999 34.5008 86.1699C35.0308 86.1599 35.0708 86.4899 35.1608 86.8299C35.8908 89.6499 36.6208 92.4799 37.3508 95.2999C37.4008 95.4899 37.3808 95.7199 37.6308 95.8799" fill="#A3895A"/>
<path d="M63.7704 93.8601V101.34C63.7704 102.19 63.3504 102.62 62.5104 102.62C61.5504 102.62 60.6004 102.6 59.6404 102.62C59.1904 102.63 58.9904 102.51 59.0004 102.02C59.0104 96.9301 59.0104 91.8501 59.0004 86.7601C59.0004 86.3401 59.1004 86.1601 59.5604 86.1701C60.8004 86.2001 62.0404 86.2001 63.2804 86.1701C63.7304 86.1601 63.9104 86.4101 64.1204 86.7201C65.8604 89.2801 67.6004 91.8401 69.3504 94.4001C69.4904 94.6101 69.6404 94.8201 69.8204 95.0601C70.0104 94.8301 69.9304 94.6001 69.9304 94.3901C69.9304 91.8801 69.9504 89.3801 69.9304 86.8801C69.9304 86.3401 70.0704 86.1601 70.6204 86.1801C71.7804 86.2201 72.9404 86.2101 74.1104 86.1801C74.5504 86.1801 74.7504 86.2601 74.7504 86.7701C74.7304 91.8601 74.7304 96.9401 74.7504 102.03C74.7504 102.52 74.5904 102.65 74.1304 102.64C72.9704 102.61 71.8004 102.61 70.6404 102.64C70.1504 102.65 69.8504 102.5 69.5704 102.08C67.8604 99.5301 66.1204 97.0001 64.3904 94.4601C64.2504 94.2501 64.1004 94.0401 63.9604 93.8301C63.9004 93.8401 63.8404 93.8501 63.7804 93.8601" fill="#A3895A"/>
<path d="M84.7095 102.89C83.4695 102.85 82.3295 102.78 81.2295 102.47C79.0795 101.86 77.4095 99.8201 77.2495 97.6301C77.2195 97.3001 77.3095 97.1501 77.6495 97.1301C78.9895 97.0601 80.3295 96.9801 81.6695 96.8901C82.0995 96.8601 82.0895 97.1801 82.1595 97.4401C82.6595 99.2301 84.0695 100.04 85.8295 99.5401C86.5495 99.3301 87.0795 98.9001 87.1595 98.1101C87.2395 97.3301 86.7895 96.8501 86.1395 96.5301C85.4195 96.1801 84.6295 96.0101 83.8495 95.8301C82.6195 95.5401 81.3995 95.1901 80.2895 94.5801C78.6895 93.7001 77.7395 92.4101 77.8495 90.5201C77.9495 88.7001 78.8895 87.3601 80.5395 86.6801C83.2695 85.5501 86.0895 85.5601 88.8395 86.6401C90.4395 87.2701 91.1995 88.6401 91.5095 90.2801C91.5895 90.6901 91.4695 90.8301 91.0495 90.8501C89.8395 90.8901 88.6295 90.9601 87.4195 91.0501C86.9995 91.0801 86.7995 90.9801 86.6495 90.5301C86.1995 89.1801 84.6995 88.5701 83.3695 89.1301C82.8695 89.3401 82.5395 89.7001 82.5495 90.2401C82.5495 90.7701 82.9295 91.0801 83.4095 91.2201C84.3795 91.4901 85.3595 91.7201 86.3295 91.9701C87.2795 92.2101 88.2195 92.4801 89.1195 92.8901C90.8395 93.6701 91.9895 94.9101 92.1195 96.8701C92.2595 98.9501 91.4195 100.59 89.6795 101.74C88.1495 102.76 86.3895 102.88 84.7295 102.9" fill="#A3895A"/>
<path d="M50.2502 94.4301C50.2502 91.9301 50.2602 89.4301 50.2402 86.9201C50.2402 86.3801 50.3302 86.1401 50.9502 86.1601C52.2102 86.2101 53.4802 86.1901 54.7402 86.1601C55.2002 86.1601 55.3602 86.2801 55.3602 86.7701C55.3402 91.8501 55.3402 96.9301 55.3602 102.02C55.3602 102.51 55.1902 102.63 54.7302 102.62C53.4702 102.6 52.2002 102.59 50.9402 102.62C50.4002 102.64 50.2402 102.48 50.2402 101.93C50.2702 99.4301 50.2502 96.9301 50.2502 94.4201" fill="#A3895A"/>
<path d="M30.3308 73.7099C31.5508 70.8199 34.4208 67.7599 38.9508 64.5199C42.8808 61.7099 45.4208 59.6899 46.5808 58.4799C48.3508 56.5799 49.2408 54.5099 49.2408 52.2599C49.2408 50.4299 48.7308 48.8999 47.7108 47.6799C46.6908 46.4599 45.2408 45.8499 43.3408 45.8499C40.7508 45.8499 38.9808 46.8199 38.0408 48.7499C37.5008 49.8699 37.1808 51.6399 37.0808 54.0799H28.7908C28.9308 50.3899 29.6008 47.4099 30.8008 45.1299C33.0808 40.7999 37.1208 38.6399 42.9308 38.6399C47.5208 38.6399 51.1808 39.9099 53.8908 42.4499C56.6108 44.9899 57.9608 48.3599 57.9608 52.5499C57.9608 55.7599 57.0008 58.6099 55.0808 61.1099C53.8208 62.7699 51.7508 64.6099 48.8708 66.6499L45.4508 69.0699C43.3108 70.5899 41.8508 71.6799 41.0608 72.3599C40.2708 73.0399 39.6108 73.8299 39.0708 74.7199H58.0108V82.2299H28.3008C28.3808 79.1199 29.0508 76.2699 30.3108 73.6999" fill="#A3895A"/>
<path d="M88.9902 44.3901C91.2102 48.2801 92.3302 53.8101 92.3302 60.9701C92.3302 68.1301 91.2202 73.6501 88.9902 77.5201C86.7702 81.3901 82.8902 83.3301 77.3702 83.3301C71.8502 83.3301 67.9702 81.3901 65.7502 77.5201C63.5302 73.6501 62.4102 68.1301 62.4102 60.9701C62.4102 53.8101 63.5202 48.2801 65.7502 44.3901C67.9702 40.5001 71.8502 38.5601 77.3702 38.5601C82.8902 38.5601 86.7702 40.5101 88.9902 44.3901ZM72.3402 72.4101C73.1602 75.0501 74.8302 76.3801 77.3702 76.3801C79.9102 76.3801 81.5602 75.0601 82.3502 72.4101C83.1402 69.7701 83.5302 65.9501 83.5302 60.9701C83.5302 55.9901 83.1402 51.8701 82.3502 49.3601C81.5602 46.8501 79.9002 45.5901 77.3702 45.5901C74.8402 45.5901 73.1602 46.8501 72.3402 49.3601C71.5202 51.8701 71.1102 55.7401 71.1102 60.9701C71.1102 66.2001 71.5202 69.7701 72.3402 72.4101Z" fill="#A3895A"/>
</g>
<defs>
<clipPath id="clip0_150_1763">
<rect width="120.65" height="131.26" fill="white"/>
</clipPath>
</defs>
</svg>
