<svg width="115" height="115" viewBox="0 0 115 115" fill="none" xmlns="http://www.w3.org/2000/svg">
<g clip-path="url(#clip0_150_1803)">
<path d="M77.7508 53.61C77.7508 56.7 77.7908 59.78 77.7308 62.87C77.7008 64.61 77.1108 66.25 76.4308 67.85C75.6208 69.76 74.2308 71.21 72.7808 72.63C71.3808 74.01 69.9808 75.38 68.5108 76.69C66.3508 78.61 64.1208 80.42 61.4708 81.66C58.8108 82.9 56.1208 83.05 53.3508 82.02C50.9508 81.13 48.9408 79.64 46.9908 78.03C44.5808 76.04 42.4108 73.8 40.1908 71.61C37.4308 68.89 36.2008 65.56 36.1808 61.74C36.1608 55.94 36.1808 50.13 36.1808 44.33C36.1808 41.77 38.0708 38.95 40.4608 38.03C43.0508 37.03 45.7608 36.43 48.5008 35.96C51.1708 35.51 53.8508 35.32 56.5508 35.28C60.6908 35.22 64.7408 35.75 68.7708 36.65C69.1508 36.73 69.5208 36.82 69.8908 36.92C70.1908 37 70.3008 37.16 70.0908 37.43C69.4308 38.31 68.7808 39.2 68.1308 40.09C67.9208 40.37 67.6408 40.31 67.3708 40.24C65.4308 39.75 63.4408 39.48 61.4508 39.27C59.1108 39.03 56.7708 38.99 54.4208 39.15C53.3208 39.23 52.2208 39.25 51.1308 39.4C48.0508 39.82 45.0208 40.44 42.0808 41.5C40.8608 41.94 40.0708 43.05 40.0608 44.44C40.0308 46.68 40.0408 48.92 40.0408 51.16C40.0408 54.85 40.0408 58.54 40.0408 62.23C40.0408 64.64 40.8908 66.75 42.5508 68.51C44.2508 70.31 46.0208 72.04 47.8508 73.71C49.3708 75.1 50.9708 76.39 52.7208 77.48C55.4008 79.15 58.0908 79.3 60.8708 77.64C62.7808 76.5 64.4708 75.12 66.1108 73.64C67.4208 72.46 68.7008 71.25 69.9208 69.99C71.0508 68.83 72.3308 67.78 72.9608 66.2C73.4508 64.96 73.8508 63.71 73.8508 62.37C73.8508 57.36 73.8608 52.34 73.8508 47.33C73.8508 46.82 73.9908 46.42 74.2908 46.02C75.1508 44.88 75.9808 43.71 76.8308 42.55C76.9208 42.42 77.0008 42.22 77.1808 42.24C77.4208 42.27 77.3808 42.51 77.4408 42.68C77.7008 43.46 77.7208 44.27 77.7208 45.08V53.62" fill="#A3895A"/>
<path d="M77.2908 37.8301C77.2208 38.3501 77.0708 38.8901 76.7208 39.3701C74.4908 42.4001 72.2608 45.4301 70.0408 48.4701C66.6908 53.0401 63.3408 57.6201 60.0008 62.2001C59.5608 62.8101 59.1408 63.4301 58.6708 64.0201C57.6208 65.3501 55.7608 65.2401 54.9308 63.8101C53.0208 60.5301 51.1208 57.2401 49.2108 53.9501C48.3808 52.5201 48.8608 51.1201 50.3608 50.5501C51.3108 50.1901 52.4008 50.6101 52.9908 51.6101C54.0908 53.4801 55.1608 55.3601 56.2508 57.2301C56.4308 57.5501 56.6508 57.8501 56.8208 58.1701C57.0308 58.5801 57.2108 58.5801 57.4708 58.2001C58.3608 56.9401 59.2608 55.6901 60.1708 54.4501C61.9108 52.0701 63.6708 49.6901 65.4108 47.3001C67.5408 44.3801 69.6608 41.4501 71.7808 38.5301C72.3008 37.8201 72.8108 37.1001 73.3508 36.4101C73.8408 35.7801 75.0308 35.4601 75.7608 35.7301C76.5808 36.0301 77.3008 37.0101 77.2908 37.8301Z" fill="#A3895A"/>
<path d="M71.2601 50.5801V51.7201C71.2601 55.0601 71.2301 58.4001 71.2601 61.7501C71.2901 64.2701 70.2001 66.2201 68.3901 67.8701C67.2701 68.8901 66.2101 70.0001 65.1001 71.0301C63.4501 72.5701 61.7601 74.0701 59.8101 75.2301C59.3001 75.5301 58.7701 75.7701 58.2201 75.9701C57.1801 76.3501 56.1701 76.2401 55.1701 75.7801C53.4801 75.0101 52.0501 73.8501 50.6601 72.6501C49.2101 71.3901 47.7701 70.1001 46.4301 68.7101C45.4901 67.7401 44.3801 66.9001 43.7001 65.7001C43.0401 64.5401 42.6601 63.3001 42.6701 61.9301C42.7001 56.4201 42.6701 50.9101 42.6701 45.4001C42.6701 44.2101 42.7901 44.0001 43.9201 43.6601C46.9201 42.7701 49.9701 42.1701 53.0901 41.8801C55.3701 41.6701 57.6401 41.6701 59.9101 41.8201C61.8501 41.9501 63.7801 42.1801 65.6901 42.6001C66.1001 42.6901 66.1001 42.7901 65.9001 43.1801C65.3301 44.3101 64.5301 44.4401 63.3501 44.2201C60.6801 43.7201 57.9501 43.6101 55.2301 43.7201C51.8801 43.8601 48.5901 44.4101 45.3601 45.2801C44.8501 45.4201 44.6601 45.6501 44.6601 46.2001C44.6801 51.6201 44.6601 57.0301 44.6801 62.4501C44.6801 63.4301 45.0001 64.3901 45.6601 65.0801C48.3101 67.8301 50.9701 70.5701 54.0501 72.8501C54.6601 73.3001 55.2901 73.7001 55.9901 74.0001C56.6801 74.3001 57.3301 74.2501 58.0101 73.9401C59.4501 73.2601 60.6901 72.2701 61.8901 71.2401C64.0201 69.4101 65.9901 67.4101 67.9701 65.4101C68.7901 64.5801 69.2001 63.5601 69.2301 62.4401C69.2901 59.5901 69.2601 56.7501 69.2301 53.9001C69.2301 53.2801 69.3701 52.7601 69.7601 52.2801C70.2201 51.7201 70.6401 51.1201 71.0801 50.5301C71.1401 50.5501 71.1901 50.5601 71.2501 50.5801" fill="#A3895A"/>
<path d="M57.45 112.4C87.798 112.4 112.4 87.798 112.4 57.45C112.4 27.102 87.798 2.5 57.45 2.5C27.102 2.5 2.5 27.102 2.5 57.45C2.5 87.798 27.102 112.4 57.45 112.4Z" stroke="#010101" stroke-width="5" stroke-miterlimit="10"/>
</g>
<defs>
<clipPath id="clip0_150_1803">
<rect width="114.9" height="114.9" fill="white"/>
</clipPath>
</defs>
</svg>
