<svg width="115" height="115" viewBox="0 0 115 115" fill="none" xmlns="http://www.w3.org/2000/svg">
<g clip-path="url(#clip0_150_1796)">
<path d="M58.8006 72.45H46.9706C46.3439 72.45 46.0306 72.7633 46.0306 73.39V78.67C46.0306 80.46 45.0206 81.46 43.2406 81.46C42.4006 81.46 41.5406 81.4 40.7106 81.47C38.9706 81.62 37.9006 80.05 37.9306 78.69C37.9606 77.14 37.9106 75.59 37.9506 74.04C37.9706 73.37 37.7206 73.15 37.0606 73.1C29.3606 72.47 22.2906 65.92 21.0306 58.29C20.1206 52.81 21.2306 47.81 24.6706 43.44C27.8406 39.42 32.0306 37.14 37.1406 36.57C40.3506 36.21 43.4006 36.74 46.3606 37.98C46.6206 38.09 46.8906 38.14 47.1806 38.14C54.5706 38.14 61.9706 38.11 69.3606 38.11C72.7506 38.11 75.8006 40.41 76.8006 43.65C77.7506 46.72 78.7406 49.78 79.6906 52.85C79.8206 53.27 80.0506 53.49 80.4706 53.65C82.9606 54.57 84.5906 56.29 85.1806 58.91C85.7806 61.59 86.3706 64.27 86.9306 66.96C87.5906 70.08 85.6906 72.41 82.5006 72.44H80.6706C80.0106 72.44 79.6806 72.78 79.6806 73.47V78.4C79.6806 80.44 78.6506 81.46 76.5906 81.46H74.6206C72.5306 81.46 71.5806 80.49 71.5806 78.38C71.5806 76.67 71.5606 74.95 71.5906 73.24C71.6006 72.62 71.3906 72.43 70.7806 72.43C66.7906 72.45 62.8006 72.44 58.8106 72.44M39.1806 40.01C31.0306 40.01 24.2906 46.7 24.3306 54.84C24.3706 63.05 30.9006 69.67 39.1806 69.66C47.5706 69.64 53.9406 62.91 53.9906 54.95C54.0406 46.73 47.3606 40.02 39.1906 40.01M52.4806 41.98C52.6006 42.13 52.6906 42.24 52.7806 42.34C55.3306 45.26 56.9606 48.61 57.4106 52.49C57.4706 53.04 57.6506 53.2 58.1806 53.2C63.7606 53.19 69.3506 53.19 74.9306 53.2C75.5306 53.2 75.7206 53.08 75.5206 52.44C74.7006 49.92 73.9306 47.38 73.1206 44.86C72.5106 42.96 70.9906 41.87 68.9906 41.87H53.2206C52.9906 41.87 52.7506 41.81 52.4606 41.99M79.3406 62.94C79.3406 60.87 77.6506 59.18 75.5906 59.18C73.5306 59.18 71.8006 60.88 71.8106 62.92C71.8106 64.98 73.5306 66.7 75.5706 66.71C77.6006 66.71 79.3506 64.96 79.3506 62.94M60.8706 64.06C62.5406 64.06 64.2006 64.07 65.8706 64.06C66.7806 64.06 67.4006 63.43 67.3106 62.7C67.2206 62 66.7406 61.59 65.9206 61.59C63.3906 61.59 60.8406 61.7 58.3206 61.54C56.7606 61.44 55.8806 61.91 55.4206 63.39C55.2406 63.96 55.2906 64.08 55.8706 64.08C57.5406 64.06 59.2006 64.08 60.8706 64.08" fill="#A3895A"/>
<path d="M48.9299 51.9699C48.8999 52.3099 48.7299 52.5099 48.5499 52.6999C46.1299 55.3199 43.6999 57.9299 41.2799 60.5499C40.2599 61.6499 39.2499 62.7599 38.2299 63.8599C37.6499 64.4899 37.5399 64.4599 36.9699 63.8599C35.6299 62.4499 34.2499 61.0699 32.8899 59.6699C31.8299 58.5799 30.7799 57.4599 29.7099 56.3799C29.3199 55.9899 29.2999 55.7299 29.7599 55.3699C30.9899 54.4299 32.1999 53.4599 33.3899 52.4799C33.7999 52.1399 34.0599 52.1799 34.3499 52.6299C35.2699 54.0499 36.2199 55.4499 37.1599 56.8499C37.5799 57.4799 37.6399 57.4799 38.0199 56.8199C40.1499 53.1499 42.2699 49.4699 44.3999 45.7899C44.5399 45.5499 44.6199 45.1799 44.9199 45.1699C45.2699 45.1699 45.3499 45.5599 45.4899 45.8099C46.5499 47.6599 47.5999 49.5199 48.6399 51.3899C48.7499 51.5899 48.8399 51.8099 48.9099 51.9699" fill="#A3895A"/>
<path d="M57.45 112.4C87.798 112.4 112.4 87.798 112.4 57.45C112.4 27.102 87.798 2.5 57.45 2.5C27.102 2.5 2.5 27.102 2.5 57.45C2.5 87.798 27.102 112.4 57.45 112.4Z" stroke="#010101" stroke-width="5" stroke-miterlimit="10"/>
</g>
<defs>
<clipPath id="clip0_150_1796">
<rect width="114.9" height="114.9" fill="white"/>
</clipPath>
</defs>
</svg>
