<svg width="115" height="115" viewBox="0 0 115 115" fill="none" xmlns="http://www.w3.org/2000/svg">
<g clip-path="url(#clip0_150_1800)">
<path d="M33.0898 49.8199C33.0898 48.3299 33.3698 46.9299 33.9398 45.6199C34.4998 44.3099 35.2698 43.1599 36.2298 42.1799C37.1898 41.1999 38.3298 40.4299 39.6398 39.8599C40.9498 39.2999 42.3498 39.0099 43.8398 39.0099C45.3298 39.0099 46.7298 39.2899 48.0398 39.8599C49.3498 40.4199 50.4798 41.1999 51.4498 42.1799C52.4098 43.1599 53.1798 44.3099 53.7398 45.6199C54.2998 46.9299 54.5898 48.3299 54.5898 49.8199C54.5898 51.3099 54.3098 52.7099 53.7398 54.0199C53.1798 55.3299 52.4098 56.4699 51.4498 57.4599C50.4898 58.4399 49.3498 59.2099 48.0398 59.7799C46.7298 60.3499 45.3298 60.6299 43.8398 60.6299C42.3498 60.6299 40.9498 60.3499 39.6398 59.7799C38.3298 59.2199 37.1898 58.4399 36.2298 57.4599C35.2698 56.4799 34.4998 55.3299 33.9398 54.0199C33.3798 52.7099 33.0898 51.3099 33.0898 49.8199ZM49.0198 49.8199C49.0198 48.3699 48.5198 47.1299 47.5198 46.1099C46.5198 45.0899 45.2898 44.5799 43.8398 44.5799C42.3898 44.5799 41.1598 45.0899 40.1598 46.1099C39.1598 47.1299 38.6598 48.3599 38.6598 49.8199C38.6598 51.2799 39.1598 52.5099 40.1598 53.5299C41.1598 54.5499 42.3898 55.0599 43.8398 55.0599C45.2898 55.0599 46.5198 54.5499 47.5198 53.5299C48.5198 52.5099 49.0198 51.2799 49.0198 49.8199ZM66.3698 37.9299L70.9498 40.4899L48.4198 80.0399L44.2698 77.6899L66.3598 37.9199L66.3698 37.9299ZM60.5298 68.0899C60.5298 66.5999 60.8098 65.1999 61.3798 63.8899C61.9398 62.5799 62.7098 61.4299 63.6698 60.4499C64.6298 59.4699 65.7698 58.6999 67.0798 58.1299C68.3898 57.5699 69.7898 57.2799 71.2798 57.2799C72.7698 57.2799 74.1698 57.5599 75.4798 58.1299C76.7898 58.6899 77.9298 59.4699 78.8898 60.4499C79.8498 61.4299 80.6198 62.5799 81.1798 63.8899C81.7398 65.1999 82.0198 66.5999 82.0198 68.0899C82.0198 69.5799 81.7398 70.9899 81.1798 72.3199C80.6098 73.6499 79.8498 74.7999 78.8898 75.7799C77.9298 76.7599 76.7898 77.5299 75.4798 78.0999C74.1698 78.6599 72.7698 78.9499 71.2798 78.9499C69.7898 78.9499 68.3898 78.6699 67.0798 78.0999C65.7698 77.5399 64.6298 76.7599 63.6698 75.7799C62.7098 74.7999 61.9398 73.6399 61.3798 72.3199C60.8098 70.9899 60.5298 69.5799 60.5298 68.0899ZM76.4598 68.0899C76.4598 66.6399 75.9598 65.3999 74.9598 64.3799C73.9598 63.3599 72.7298 62.8499 71.2798 62.8499C69.8298 62.8499 68.5998 63.3599 67.5998 64.3799C66.5998 65.3999 66.0998 66.6299 66.0998 68.0899C66.0998 69.5499 66.5998 70.8399 67.5998 71.8499C68.5998 72.8699 69.8298 73.3799 71.2798 73.3799C72.7298 73.3799 73.9598 72.8699 74.9598 71.8499C75.9598 70.8299 76.4598 69.5799 76.4598 68.0899Z" fill="#A3895A"/>
<path d="M57.45 112.4C87.798 112.4 112.4 87.798 112.4 57.45C112.4 27.102 87.798 2.5 57.45 2.5C27.102 2.5 2.5 27.102 2.5 57.45C2.5 87.798 27.102 112.4 57.45 112.4Z" stroke="#010101" stroke-width="5" stroke-miterlimit="10"/>
</g>
<defs>
<clipPath id="clip0_150_1800">
<rect width="114.9" height="114.9" fill="white"/>
</clipPath>
</defs>
</svg>
