<svg width="115" height="115" viewBox="0 0 115 115" fill="none" xmlns="http://www.w3.org/2000/svg">
<g clip-path="url(#clip0_150_1793)">
<path d="M66.0809 54.1299H79.7109C81.8409 54.1299 83.5609 55.2199 84.2809 57.0599C85.0809 59.0799 84.7109 60.9199 83.2009 62.4899C82.7809 62.9299 82.6409 63.2799 82.8309 63.8899C83.4109 65.7999 82.9809 67.5099 81.5609 68.9299C81.1509 69.3299 81.0509 69.6799 81.2209 70.2499C81.8209 72.1999 81.3809 73.9399 79.9209 75.3699C79.5409 75.7499 79.4609 76.0799 79.6109 76.5999C80.6109 80.1499 78.4009 83.0299 74.6909 83.0399C68.5709 83.0399 62.4409 83.0399 56.3209 83.0599C55.5009 83.0599 54.8509 82.8199 54.2309 82.3099C52.2409 80.6899 50.2109 79.1299 48.2509 77.4899C47.5109 76.8699 46.7509 76.5399 45.8009 76.6599C45.5409 76.6899 45.2709 76.6599 45.0009 76.6599C43.8809 76.6599 43.2409 77.2099 43.0909 78.2999C42.9509 79.2799 42.3009 79.7899 41.3809 79.7999C38.1909 79.8399 34.9909 79.8399 31.8009 79.7999C30.7809 79.7899 30.1709 79.0899 30.0509 78.0799C30.0209 77.7799 30.0309 77.4799 30.0309 77.1799V53.6199C30.0309 51.4999 30.5609 50.9799 32.6909 50.9699H40.8809C42.5509 50.9699 43.1009 51.4899 43.1009 53.1699C43.1009 53.8999 43.3309 54.1099 44.0709 54.1699C45.7509 54.3199 46.9409 53.9999 47.8509 52.2999C48.9309 50.2599 50.7309 48.7499 52.8009 47.6299C53.5609 47.2199 54.2909 46.7499 55.0409 46.3199C57.2209 45.0499 58.5109 43.1699 58.9609 40.6999C59.1409 39.7099 59.4009 38.7599 59.8609 37.8599C61.6809 34.2899 66.3709 33.8899 68.7809 37.1099C70.1509 38.9399 70.4709 41.0499 70.3609 43.2599C70.1609 46.9299 68.7209 50.1499 66.6609 53.1299C66.4909 53.3799 66.3209 53.6199 66.1509 53.8699C66.1309 53.8899 66.1309 53.9299 66.0809 54.1499M65.8109 79.7199H74.2009C75.6109 79.7199 76.3109 79.2999 76.4609 78.3999C76.6109 77.5299 76.0909 77.0399 74.6209 76.6299C73.7809 76.3999 73.2809 75.6999 73.3509 74.8399C73.4209 73.9999 74.0309 73.3999 74.9309 73.3399C75.3609 73.3099 75.7909 73.3399 76.2309 73.3199C77.3209 73.2799 78.0309 72.7199 78.0809 71.8699C78.1309 71.0799 77.5509 70.4999 76.4809 70.2699C75.3909 70.0299 74.8609 69.3799 74.9509 68.4099C75.0409 67.5099 75.7009 66.9699 76.7509 66.9299C77.3109 66.9099 77.8909 66.9299 78.4409 66.8299C79.1809 66.6999 79.6309 66.1799 79.6609 65.4399C79.6809 64.6999 79.2609 64.1899 78.5409 63.9699C78.3509 63.9099 78.1509 63.8899 77.9609 63.8499C76.9909 63.6299 76.4509 62.9099 76.5609 61.9799C76.6609 61.1199 77.3009 60.5699 78.2909 60.5299C78.7509 60.5099 79.2209 60.5499 79.6909 60.4999C80.6309 60.4099 81.2709 59.7899 81.2909 59.0099C81.3009 58.2299 80.6709 57.5899 79.7309 57.4899C79.4009 57.4499 79.0609 57.4699 78.7309 57.4699H62.4509C61.6209 57.4699 60.9309 57.2699 60.5809 56.4399C60.2309 55.6099 60.5609 54.9599 61.1409 54.3699C61.4009 54.1099 61.6609 53.8499 61.9009 53.5799C64.3909 50.7699 66.3509 47.6799 66.8609 43.8599C67.0809 42.2199 67.0909 40.5699 66.0309 39.1699C65.0509 37.8799 63.5209 38.0599 62.8309 39.4999C62.5309 40.1399 62.3909 40.8199 62.2609 41.5099C61.9609 43.0599 61.3909 44.4999 60.5109 45.8299C59.1309 47.9099 57.0809 49.1599 54.9709 50.2899C52.4209 51.6499 50.5909 53.5999 49.4809 56.2499C49.1309 57.0799 48.5309 57.4799 47.6109 57.4599C46.4109 57.4399 45.2109 57.4699 44.0209 57.4499C43.4209 57.4399 43.1009 57.5899 43.1009 58.2799C43.1209 63.0099 43.1209 67.7299 43.1009 72.4599C43.1009 73.1299 43.3809 73.3299 44.0009 73.3099C45.0709 73.2799 46.1309 73.3399 47.2009 73.2899C48.0909 73.2499 48.8009 73.5099 49.4809 74.0799C51.5109 75.7499 53.5909 77.3599 55.6209 79.0299C56.1909 79.4999 56.7709 79.7199 57.5209 79.7099C60.2809 79.6799 63.0409 79.6999 65.8109 79.6999M33.4909 65.2799C33.4909 68.6099 33.5109 71.9299 33.4909 75.2599C33.4909 76.0799 33.7609 76.3799 34.5809 76.3499C36.0109 76.2999 37.4409 76.3099 38.8709 76.3499C39.5709 76.3699 39.7909 76.0999 39.7909 75.4099C39.7709 68.7299 39.7709 62.0399 39.7909 55.3599C39.7909 54.6699 39.5509 54.3999 38.8609 54.4199C37.4609 54.4499 36.0609 54.4699 34.6709 54.4199C33.7509 54.3799 33.4709 54.7099 33.4809 55.6199C33.5209 58.8499 33.5009 62.0699 33.5009 65.2999" fill="#A3895A"/>
<path d="M57.45 112.4C87.798 112.4 112.4 87.798 112.4 57.45C112.4 27.102 87.798 2.5 57.45 2.5C27.102 2.5 2.5 27.102 2.5 57.45C2.5 87.798 27.102 112.4 57.45 112.4Z" stroke="#010101" stroke-width="5" stroke-miterlimit="10"/>
</g>
<defs>
<clipPath id="clip0_150_1793">
<rect width="114.9" height="114.9" fill="white"/>
</clipPath>
</defs>
</svg>
