<svg width="24" height="24" viewBox="0 0 24 24" fill="none" xmlns="http://www.w3.org/2000/svg">
<path d="M23.4545 17.6418C19.8008 15.6537 18.9411 13.6657 18.7262 12.806L21.2515 11.5701C21.7351 11.3015 21.95 10.7104 21.7351 10.2269C21.4665 9.74327 20.8754 9.52835 20.3918 9.74327L18.7262 10.5492V6.08954C18.7262 2.97313 15.7172 0.447754 12.0097 0.447754C8.30229 0.447754 5.18587 3.02686 5.18587 6.14327V10.603L3.5202 9.797C3.03662 9.52835 2.39184 9.74327 2.17692 10.2806C1.90826 10.7642 2.12318 11.4089 2.6605 11.6239L5.18587 12.8597C4.97094 13.7731 4.11124 15.7074 0.511245 17.6955C0.135125 17.9104 -0.0797997 18.3403 0.0276629 18.7701C0.135126 19.2 0.457513 19.5224 0.887364 19.5761C1.8008 19.6836 4.3799 20.3283 4.59482 21.7791C4.64856 22.1015 4.80975 22.3701 5.13214 22.5313C5.40079 22.6925 5.77691 22.6925 6.04557 22.5313C7.38885 21.8866 8.14109 22.2089 9.21572 22.7463C10.0217 23.1224 10.8814 23.5522 12.0097 23.5522C13.1381 23.5522 14.0515 23.1224 14.8038 22.7463C15.9321 22.2089 16.6306 21.8866 17.9739 22.5313C18.2426 22.6925 18.6187 22.6925 18.8874 22.5313C19.156 22.3701 19.3709 22.1015 19.4247 21.7791C19.6396 20.3283 22.2187 19.6836 23.1321 19.5761C23.562 19.5224 23.9381 19.2 23.9918 18.7701C24.0456 18.2866 23.8306 17.8567 23.4545 17.6418ZM17.759 20.3283C16.0933 19.8985 14.9112 20.4358 13.8903 20.9194C13.1918 21.2418 12.6545 21.5104 11.956 21.5104C11.2575 21.5104 10.6665 21.2418 10.0217 20.9194C9.26945 20.5433 8.40975 20.1671 7.33512 20.1671C6.959 20.1671 6.58288 20.2209 6.15303 20.3283C5.56199 19.2537 4.48736 18.6089 3.46647 18.1791C7.28139 15.3851 7.33512 12.7522 7.28139 12.2149V6.14327C7.28139 4.15522 9.37691 2.48954 12.0097 2.48954C14.6426 2.48954 16.7381 4.10148 16.7381 6.14327V12.1612C16.6844 12.7522 16.7381 15.3851 20.553 18.1254C19.4247 18.5552 18.35 19.2537 17.759 20.3283Z" fill="#FFFC00"/>
</svg>
