<svg width="18" height="24" viewBox="0 0 18 24" fill="none" xmlns="http://www.w3.org/2000/svg">
<path fill-rule="evenodd" clip-rule="evenodd" d="M11.3684 0C12.0661 0 12.6316 0.565541 12.6316 1.26316C12.6316 3.70415 14.3675 5.74608 16.6727 6.21458C17.3563 6.35353 17.7979 7.02038 17.6589 7.70402C17.52 8.38767 16.8531 8.82923 16.1694 8.69029C14.8277 8.41757 13.6143 7.79043 12.6316 6.91077V17.6842C12.6316 21.1723 9.80387 24 6.31579 24C2.82768 24 0 21.1723 0 17.6842C0 14.1961 2.82768 11.3684 6.31579 11.3684C7.01343 11.3684 7.57895 11.9339 7.57895 12.6316C7.57895 13.3292 7.01343 13.8947 6.31579 13.8947C4.22293 13.8947 2.52632 15.5913 2.52632 17.6842C2.52632 19.7771 4.22293 21.4737 6.31579 21.4737C8.40872 21.4737 10.1053 19.7771 10.1053 17.6842V1.26316C10.1053 0.565541 10.6708 0 11.3684 0Z" fill="white"/>
</svg>
