<svg width="101" height="101" viewBox="0 0 101 101" fill="none" xmlns="http://www.w3.org/2000/svg">
<path d="M51.2388 100.511C23.6534 101.025 0.522899 78.9381 0.00888689 51.544C-0.505125 23.3794 21.3404 0.522421 49.4397 0.00878076C77.1107 -0.504859 100.156 21.5817 100.584 48.9758C101.098 77.0548 79.1668 99.9973 51.2388 100.511ZM4.20665 50.0887C4.20665 75.5138 24.8528 96.2306 50.2964 96.2306C75.5687 96.2306 96.3005 75.5994 96.3862 50.3455C96.3862 24.9203 75.8257 4.2035 50.4677 4.2035C25.0241 4.2035 4.29232 24.7491 4.29232 50.0887H4.20665Z" fill="white"/>
<path d="M92.5311 50.0888C92.5311 73.4594 73.5983 92.3785 50.2965 92.3785C26.9089 92.3785 7.89045 73.4594 7.97612 50.0888C7.97612 26.8038 26.9946 7.97034 50.3821 7.97034C73.5127 7.97034 92.5311 26.975 92.5311 50.0888ZM88.2477 50.26C88.2477 29.372 71.1996 12.2507 50.2965 12.2507C29.3076 12.2507 12.2596 29.2008 12.2596 50.0888C12.2596 71.0624 29.1363 88.0982 50.1251 88.1838C71.1996 88.1838 88.2477 71.3192 88.3334 50.26H88.2477Z" fill="white"/>
<path d="M57.0642 45.894C57.0642 53.513 57.0642 61.132 57.0642 68.751C57.0642 69.6926 57.2355 70.3775 58.0922 70.9767C59.7199 72.0896 60.2339 76.0275 59.1202 77.654C58.4349 78.6813 57.4069 78.9381 56.2075 78.9381C51.0674 78.9381 45.9273 78.9381 40.7871 78.9381C38.4741 78.9381 37.446 77.8253 37.3604 75.5139C37.3604 74.9146 37.3604 74.401 37.3604 73.8017C37.3604 72.0896 38.2171 70.8911 39.9304 70.3775C40.6158 70.2063 40.8728 69.7782 40.8728 69.0934C40.8728 59.6767 40.8728 50.3455 40.8728 40.9288C40.8728 40.0727 40.7871 39.6447 39.7591 39.9871C39.7591 39.9871 39.6734 39.9871 39.5878 39.9871C34.619 40.7576 34.1906 37.847 34.7046 34.2515C34.876 33.053 35.7327 32.3681 36.8464 31.8545C41.0441 30.0568 44.2995 27.0605 47.0409 23.465C47.0409 23.3794 47.2123 23.2938 47.2979 23.1226C49.0113 19.9552 51.8384 19.6127 55.0081 19.9552C56.3788 20.1264 57.0642 20.8968 57.0642 22.5234C57.0642 27.9166 57.0642 33.3954 57.0642 38.7886C57.0642 41.1856 57.0642 43.5826 57.0642 45.894ZM41.3868 74.5722H55.2651C55.2651 74.5722 55.5221 74.401 55.6078 74.3154C52.0954 73.0313 52.7807 70.2063 52.7807 67.6381C52.7807 53.5986 52.7807 39.6447 52.7807 25.6052C52.7807 25.0916 53.1234 24.4067 52.4381 24.1499C51.7527 23.8931 51.4957 24.6635 51.153 25.0916C48.9257 27.9166 46.6983 30.656 43.6999 32.7106C42.2435 33.7378 40.7871 34.6795 39.2451 35.5356C40.0161 35.45 40.7871 35.2788 41.5581 35.0219C44.0425 34.2515 45.0706 35.0219 45.0706 37.5901C45.0706 48.0342 45.0706 58.5638 45.0706 69.0078C45.0706 71.4904 44.4709 73.2025 41.9865 73.973C41.8152 73.973 41.7295 74.1442 41.3868 74.4866V74.5722Z" fill="white"/>
<path d="M83.7072 49.5749C83.7072 57.622 81.4799 64.2137 77.1108 70.1205C76.6824 70.7198 76.1684 71.2334 75.3117 71.319C74.455 71.319 73.7697 71.0622 73.3413 70.2917C72.8273 69.3501 72.9987 68.494 73.5983 67.7235C75.6544 64.9841 77.1964 62.0735 78.1388 58.8204C81.2228 47.7772 78.8241 38.018 71.0283 29.6286C70.6856 29.2862 70.3429 29.0293 70.0859 28.6869C69.2292 27.7452 69.3149 26.5467 70.0859 25.6907C70.8569 24.9202 72.0563 24.8346 72.913 25.6051C73.8553 26.4611 74.7977 27.4028 75.6544 28.4301C80.8802 34.6794 83.6216 41.9559 83.6216 49.4893L83.7072 49.5749Z" fill="white"/>
</svg>
