<svg width="91" height="103" viewBox="0 0 91 103" fill="none" xmlns="http://www.w3.org/2000/svg">
<path d="M73.2031 82.5344C73.2031 77.6549 73.2031 72.8609 73.2031 67.9813C73.2031 66.0124 73.8028 64.557 75.0878 63.1873C92.3929 44.4395 83.3977 14.5628 58.6395 8.4847C38.7643 3.60512 18.8892 18.5007 18.2038 38.9607C18.0325 42.8986 17.1758 46.3228 15.2054 49.5759C13.3207 52.6577 11.7787 55.9108 10.0653 59.0782C9.46562 60.1911 9.20861 60.7903 11.0077 60.7903C18.1182 60.9616 18.1182 61.0472 18.1182 68.2381C18.1182 71.9192 18.1182 75.6003 18.1182 79.2814C18.1182 83.4761 20.6026 85.8731 24.8003 85.8731C30.1974 85.8731 35.6803 85.8731 41.0774 85.8731C44.1615 85.8731 45.2751 86.986 45.2751 90.0678C45.2751 92.9784 45.2751 95.8891 45.2751 98.7141C45.2751 100.854 43.9044 102.31 42.0197 102.31C40.135 102.31 38.7643 100.854 38.6786 98.7997C38.6786 97.2588 38.593 95.7178 38.6786 94.2625C38.7643 92.8928 38.336 92.5504 36.9653 92.5504C32.9388 92.5504 28.9124 92.5504 24.8003 92.5504C16.8331 92.5504 11.5217 87.2428 11.436 79.1958C11.436 75.8571 11.436 72.5184 11.436 69.1798C11.436 67.8957 11.0933 67.3821 9.72261 67.3821C8.09491 67.4677 6.38155 67.3821 4.75385 67.3821C0.813087 67.3821 -0.64328 65.0707 1.24143 61.5608C4.3255 55.7396 7.40958 49.9183 10.5793 44.1826C11.179 43.0698 11.436 41.9569 11.436 40.6728C11.693 20.8976 24.886 5.14602 44.3328 1.37933C65.5786 -2.72979 87.2528 12.6794 90.3369 34.1667C92.1359 46.494 89.0518 57.3661 80.9133 66.7828C80.1423 67.7245 79.9709 68.6662 79.9709 69.779C79.9709 79.1102 79.9709 88.4413 79.9709 97.7724C79.9709 98.9709 79.971 100.084 79.1143 101.025C78.0863 102.053 76.8869 102.395 75.5162 101.882C73.9741 101.282 73.2888 100.084 73.2888 98.5429C73.2888 93.1497 73.2888 87.842 73.2888 82.4488L73.2031 82.5344Z" fill="white"/>
<path d="M50.4152 16.7887C64.3792 16.6175 74.8308 27.4039 74.1454 41.1866C73.7171 48.6343 68.4056 55.5685 61.1238 58.0511C54.0133 60.5337 46.7314 58.7359 42.1053 53.3427C34.5665 44.6108 38.5072 31.2562 49.3872 28.8592C56.926 27.1471 63.9509 32.5403 63.6938 39.8169C63.5225 44.782 59.4104 48.8912 54.4416 48.9768C52.2999 48.9768 50.7579 47.8639 50.5865 45.9805C50.4152 44.0116 51.5289 42.6419 53.7563 42.2995C55.5553 42.0426 56.926 41.4434 57.0974 39.4744C57.2687 37.5911 56.0693 36.3926 54.4416 35.6221C50.4152 33.8244 45.4464 37.0775 45.0181 41.7002C44.3327 49.0624 51.1005 54.0276 58.5537 51.7162C67.4632 48.8912 70.4617 37.8479 64.5505 29.9721C57.44 20.5554 42.962 21.2402 36.7082 31.1706C34.8235 34.1668 33.7954 37.4199 33.2814 40.9298C33.1958 41.6146 33.1101 42.3851 32.9388 43.0699C32.4248 44.8677 31.1397 45.7237 29.3407 45.4669C27.456 45.2957 26.3423 44.0116 26.4279 42.2138C27.3703 28.1743 36.4512 16.5319 50.3295 16.6175L50.4152 16.7887Z" fill="white"/>
</svg>
