<svg width="86" height="86" viewBox="0 0 86 86" fill="none" xmlns="http://www.w3.org/2000/svg">
<path d="M83.7256 10.4411L73.788 15.4062L71.5605 10.9547L81.4981 5.9895L83.7256 10.4411Z" fill="white"/>
<path d="M81.4981 50.077L71.5605 45.1118L73.788 40.6603L83.7256 45.6254L81.4981 50.077Z" fill="white"/>
<path d="M75.2443 25.5936H85.3532V30.5588H75.2443V25.5936Z" fill="white"/>
<path d="M4.39623 5.9895L14.3338 10.9547L12.1064 15.4062L2.16882 10.4411L4.39623 5.9895Z" fill="white"/>
<path d="M4.39623 50.077L2.16882 45.6254L12.1064 40.6603L14.3338 45.1118L4.39623 50.077Z" fill="white"/>
<path d="M0.626831 25.5936H10.7357V30.5588H0.626831V25.5936Z" fill="white"/>
<path d="M35.494 80.3817H50.4004V85.3468H35.494V80.3817Z" fill="white"/>
<path d="M70.2755 28.0759C70.2755 13.0092 58.0249 0.853027 43.0328 0.853027C28.0408 0.853027 15.7902 13.0948 15.7902 28.0759C15.7902 38.3487 21.6156 47.6799 30.6965 52.3026V60.264H25.7277V65.2292H30.6965V75.502H55.4548V65.2292H60.4236V60.264H55.4548V52.3026C64.5357 47.6799 70.3611 38.3487 70.3611 28.0759H70.2755ZM50.4004 70.5368H35.494V65.2292H50.4004V70.5368ZM40.4628 33.0411C40.4628 31.6714 41.5765 30.5585 42.9472 30.5585C44.3179 30.5585 45.4316 31.6714 45.4316 33.0411C45.4316 34.4108 44.3179 35.5237 42.9472 35.5237C41.5765 35.5237 40.4628 34.4108 40.4628 33.0411ZM45.4316 60.264V39.9753C48.3443 38.948 50.4004 36.2086 50.4004 32.9555C50.4004 28.8464 47.0592 25.5077 42.9472 25.5077C38.8351 25.5077 35.494 28.8464 35.494 32.9555C35.494 36.2086 37.55 38.948 40.4628 39.9753V60.264H35.494V49.1352L34.0376 48.4503C25.8991 44.8548 20.6733 36.8934 20.6733 28.0759C20.6733 15.7486 30.6965 5.81821 42.9472 5.81821C55.1978 5.81821 65.221 15.8342 65.221 28.0759C65.221 36.8934 59.9952 44.9405 51.8567 48.4503L50.4004 49.1352V60.264H45.4316Z" fill="white"/>
</svg>
