<svg width="109" height="108" viewBox="0 0 109 108" fill="none" xmlns="http://www.w3.org/2000/svg">
<path d="M28.721 77.0285C29.4064 74.8027 30.263 72.8338 31.3767 71.036C31.6337 70.608 31.3767 70.3512 31.2053 70.0088C30.006 68.3822 29.8347 66.6701 30.6057 64.7012C31.6337 62.133 30.006 58.1094 27.436 56.9966C25.4656 56.2261 24.4375 54.8564 24.2662 52.8019C24.0949 51.0897 24.0949 49.3776 24.2662 47.6654C24.5232 45.9533 25.3799 44.8404 27.0076 44.07C30.263 42.6147 31.6337 39.1048 30.4344 35.6805C29.8347 34.1396 30.006 32.7699 30.8627 31.4002C32.0621 29.6881 33.4328 28.2327 35.1462 27.0342C36.5169 26.0926 38.0589 25.9214 39.6009 26.5206C42.7706 27.6335 46.3688 26.0926 47.6538 23.0963C48.4248 21.3842 49.7098 20.4425 51.4232 20.1857C53.4792 19.8433 55.5353 19.8433 57.5913 20.1857C59.3904 20.4425 60.6754 21.3842 61.3608 23.0963C62.6458 26.0926 66.3296 27.6335 69.328 26.5206C71.127 25.8358 72.669 26.0926 74.2111 27.2055C75.6674 28.3183 76.8668 29.6024 77.9805 31.0578C79.0942 32.5987 79.2655 34.1396 78.5802 35.9373C77.3808 38.9336 78.9229 42.7002 81.9213 43.9843C83.6346 44.7548 84.577 46.0389 84.834 47.9223C85.091 49.6344 85.091 51.4321 84.834 53.1443C84.577 54.8564 83.7203 56.0549 82.0926 56.8253C78.9228 58.2807 77.4665 61.8761 78.6658 65.1292C79.2655 66.8413 79.0942 68.3823 77.9805 69.752C77.5522 70.3512 77.5522 70.7792 77.9805 71.2929C79.0085 73.005 79.6939 74.8027 80.3792 76.8573C81.6643 75.0596 83.1206 73.6899 84.834 72.6626C85.605 72.2346 85.0053 71.8921 84.834 71.6353C82.6923 68.3822 82.6923 64.3587 85.0053 61.2769C87.9181 57.339 93.4008 56.3973 97.3416 59.2224C101.282 61.9618 102.396 67.4406 99.6547 71.4641C99.1407 72.2346 99.1407 72.4914 99.9974 73.005C104.195 75.83 106.422 79.7679 106.508 84.8187C106.508 86.1028 106.594 87.3869 106.337 88.7566C105.566 92.4377 102.396 95.1771 98.6266 95.2627C94.2575 95.2627 89.9741 95.2627 85.605 95.2627C84.1487 95.2627 82.778 94.7491 81.3216 93.9786C81.3216 96.1188 81.3216 98.1733 81.3216 100.228C81.3216 101.17 81.3216 102.111 80.9789 102.967C80.0366 106.392 76.8668 108.275 73.0117 107.676C70.2703 107.248 67.6145 106.306 64.8731 105.621C61.6177 104.765 58.3623 103.909 55.1069 103.053C54.5072 102.882 53.9933 102.882 53.4793 103.053C47.9965 104.508 42.5136 105.964 37.0308 107.504C35.8315 107.847 34.6321 107.933 33.3471 107.847C29.749 107.419 27.5216 104.936 27.3503 101.17C27.3503 98.8582 27.3503 96.5468 27.3503 94.0642C24.0092 96.1188 20.4111 95.1771 16.9844 95.3483C14.6713 95.4339 12.3583 95.3483 10.0452 95.3483C6.44715 95.3483 3.10603 92.6945 2.50635 89.2703C1.64966 84.4763 2.24933 79.8535 5.50474 76.0012C6.44709 74.8027 7.56078 73.8611 8.84581 73.0906C9.53116 72.6626 9.61684 72.4914 9.1885 71.8065C6.87544 68.4678 7.04679 64.2731 9.53118 61.1913C11.9299 58.1951 16.042 57.0822 19.6401 58.3663C23.3238 59.736 25.6369 63.2459 25.4656 67.1838C25.4656 68.8959 24.8659 70.5224 23.8378 71.8921C23.4095 72.4058 23.4095 72.6626 24.0092 73.0906C25.7226 74.0323 27.0076 75.402 28.2926 77.1141L28.721 77.0285ZM61.8748 100.998C61.8748 100.998 61.8748 101.17 61.8748 101.255C65.7298 102.282 69.4993 103.395 73.3544 104.251C76.3528 104.936 77.8948 103.652 77.8948 100.57C77.8948 95.1771 77.8948 89.7839 77.8948 84.3907C77.8948 74.974 72.0693 66.4989 63.3311 62.989C62.6458 62.7322 62.1318 62.7322 61.4465 62.989C56.8203 65.4716 52.1942 65.4716 47.6538 62.989C46.9684 62.6466 46.3687 62.6466 45.6834 62.989C37.0308 66.5845 31.291 74.974 31.2053 84.3907C31.2053 89.6983 31.2053 95.0915 31.2053 100.399C31.2053 103.652 32.6617 104.851 35.8315 104.166C36.1741 104.166 36.5168 103.995 36.7738 103.909C41.3143 102.71 45.9404 101.426 50.4808 100.228C56.2206 98.687 61.9604 97.1461 67.7002 95.6052C69.4993 95.0915 70.613 93.8074 70.6986 92.0953C70.7843 89.6127 68.5569 87.7293 66.0725 88.3286C61.1037 89.5271 56.2207 90.8112 51.3375 92.0953C47.3111 93.1226 43.199 94.1498 39.1725 95.1771C37.8875 95.5195 37.0308 95.1771 36.6881 94.1498C36.3455 93.1226 36.6882 92.3521 37.8876 91.8385C38.4016 91.5816 38.4016 91.3248 38.4016 90.8968C38.4016 88.8422 38.4016 86.8733 38.4016 84.8187C38.4016 83.5346 39.0869 82.7642 40.1149 82.7642C41.2286 82.7642 41.914 83.5346 41.9996 84.8187C41.9996 86.4452 41.9996 88.0718 41.9996 89.6127C41.9996 90.4688 42.171 90.7256 43.0277 90.4688C44.998 89.8695 47.0541 89.3559 49.1101 88.9278C55.0213 87.4725 60.761 85.7604 66.6722 84.5619C67.0149 84.5619 67.1006 84.3907 67.1862 84.0483C67.5289 83.021 68.2142 82.593 69.2423 82.7642C70.2703 82.9354 70.6986 83.7058 70.6986 84.7331C70.6986 85.1612 70.6987 85.5036 71.127 85.846C73.6971 87.7293 74.8107 90.2119 74.1254 93.3794C73.44 96.5468 71.384 98.3446 68.2142 99.115C66.0725 99.6287 64.0165 100.228 61.8748 100.827V100.998ZM33.7754 67.4406C33.7754 67.4406 34.3751 66.8413 34.6321 66.5845C36.9452 64.0163 39.6009 61.9617 42.7707 60.5064C43.6274 60.0784 43.6273 59.8216 43.1133 59.1367C39.7722 54.4284 39.2583 49.3776 41.8283 44.2412C44.3984 39.1048 48.7674 36.3654 54.5072 36.2798C60.4184 36.2798 64.7875 39.0192 67.4432 44.2412C70.0133 49.4632 69.4136 54.514 66.0725 59.2224C65.5585 59.9072 65.6442 60.164 66.4152 60.5064C68.2999 61.3625 70.0133 62.4754 71.641 63.7595C73.0117 64.8724 74.2111 66.1565 75.4961 67.4406C75.7531 66.8413 75.4961 66.4989 75.3247 66.0709C74.7251 64.6156 74.5538 63.1602 74.8964 61.7049C75.6675 58.6231 76.6955 55.6269 79.7795 54.1716C81.2359 53.4867 81.6643 52.6306 81.5786 51.1753C81.5786 50.4905 81.5786 49.72 81.5786 49.0351C81.5786 48.1791 81.1502 47.5798 80.2935 47.2374C76.4385 45.5253 73.6971 39.7896 75.1534 35.8517C75.7531 34.1396 75.4104 33.1123 74.2111 31.9994C73.7827 31.5714 73.3544 31.1434 72.926 30.7153C72.155 29.9449 71.384 29.7736 70.3559 30.2017C66.5008 31.657 60.5041 29.4312 58.8764 25.6645C58.1053 23.8668 56.9916 23.61 55.4496 23.61C54.5929 23.61 53.7363 23.61 52.8796 23.61C51.9372 23.61 51.3375 24.038 50.9949 24.9797C49.7098 28.9176 42.7707 31.5714 39.6866 30.2017C37.9732 29.4312 36.9452 30.0305 35.9172 31.229C35.4031 31.8282 34.8891 32.3419 34.3751 32.8555C33.8611 33.4547 33.7754 34.054 34.1181 34.8244C34.8035 36.2798 34.9748 37.7351 34.6321 39.276C33.8611 42.3578 32.8331 45.3541 29.749 46.8094C28.2926 47.4942 27.8643 48.3503 27.95 49.8056C27.95 50.5761 27.95 51.2609 27.95 52.0314C27.95 52.8018 28.2926 53.4011 29.1493 53.6579C33.0044 54.7708 36.0885 62.133 34.2038 65.8997C34.0325 66.2421 33.7754 66.6701 34.0324 67.2694L33.7754 67.4406ZM65.3015 50.5761C65.3015 44.6692 60.4184 39.7896 54.5072 39.7896C48.5961 39.7896 43.713 44.6692 43.713 50.5761C43.713 56.4829 48.5961 61.3625 54.5072 61.3625C60.4184 61.3625 65.3015 56.4829 65.3015 50.5761ZM16.813 91.8385C18.8691 91.8385 21.0108 91.8385 23.0668 91.8385C25.7226 91.8385 27.5216 89.9551 27.6073 87.3013C27.6073 86.4453 27.6073 85.5892 27.6073 84.7331C27.2646 80.3672 25.1229 77.1997 21.1821 75.3164C20.6681 75.0596 20.1541 75.0596 19.5544 75.3164C17.7554 75.9156 15.8707 75.9156 14.0716 75.3164C13.4719 75.1452 12.958 75.1452 12.4439 75.402C9.70255 76.6861 7.73212 78.7407 6.7041 81.6513C6.01875 83.449 6.01875 85.418 6.10442 87.3013C6.10442 90.0407 7.98914 91.9241 10.7305 91.9241C12.7866 91.9241 14.757 91.9241 16.813 91.9241V91.8385ZM92.2015 91.8385C94.2575 91.8385 96.3136 91.8385 98.3696 91.8385C98.3696 91.8385 98.541 91.8385 98.6266 91.8385C101.111 91.8385 102.996 89.8695 103.081 87.3869C103.081 86.4452 103.081 85.5036 103.081 84.5619C102.739 80.2816 100.597 77.1141 96.6562 75.2308C96.1422 74.974 95.6283 74.8883 95.0286 75.1452C93.2295 75.83 91.3448 75.83 89.5458 75.1452C88.9461 74.8883 88.432 74.974 87.8324 75.2308C85.091 76.5149 83.2063 78.5695 82.1783 81.3945C81.4929 83.1922 81.4929 85.1612 81.4929 87.0445C81.4929 89.7839 83.3776 91.6673 86.119 91.7529C88.1751 91.7529 90.1454 91.7529 92.2015 91.7529V91.8385ZM22.2959 66.7557C22.2959 63.8451 19.9828 61.3625 16.9844 61.3625C13.986 61.3625 11.5016 63.6739 11.5016 66.6701C11.5016 69.6664 13.9003 72.0633 16.8987 72.0633C19.8114 72.0633 22.2102 69.6663 22.2959 66.7557ZM92.2872 61.3625C89.3744 61.3625 86.9757 63.7595 86.9757 66.7557C86.9757 69.7519 89.3744 72.1489 92.3728 72.1489C95.2855 72.1489 97.6843 69.7519 97.6843 66.7557C97.6843 63.7595 95.2856 61.3625 92.2872 61.3625Z" fill="white"/>
<path d="M54.5072 14.7069C50.5664 14.7069 47.311 11.4539 47.311 7.51595C47.311 3.57805 50.5664 0.324981 54.5929 0.410587C58.5336 0.410587 61.7034 3.66366 61.7034 7.51595C61.7034 11.4539 58.4479 14.7069 54.5072 14.7069ZM58.1052 7.51595C58.1052 5.547 56.4776 4.00608 54.5072 4.00608C52.5368 4.00608 50.9091 5.63259 50.9091 7.60155C50.9091 9.5705 52.5368 11.197 54.5929 11.197C56.5632 11.197 58.1052 9.48489 58.1052 7.60155V7.51595Z" fill="white"/>
<path d="M101.282 21.8979C105.223 21.8979 108.478 25.151 108.393 29.1745C108.393 33.1124 105.137 36.2799 101.197 36.2799C97.2559 36.2799 94.0005 33.0268 94.0005 29.0889C94.0005 25.151 97.2559 21.8979 101.282 21.9835V21.8979ZM101.025 32.6844C102.996 32.77 104.709 31.2291 104.795 29.2601C104.88 27.2912 103.338 25.579 101.454 25.4934C99.4833 25.4078 97.6842 26.9487 97.6842 28.9177C97.6842 30.8866 99.1406 32.5132 101.111 32.5988L101.025 32.6844Z" fill="white"/>
<path d="M15.0996 29.1747C15.0996 33.1126 11.8442 36.3657 7.81779 36.2801C3.87703 36.2801 0.707275 32.9414 0.707275 29.0035C0.707275 25.0656 3.96272 21.8981 7.90348 21.9838C11.8442 21.9838 15.0996 25.2368 15.0996 29.1747ZM7.90348 32.6846C9.87386 32.6846 11.5015 31.1437 11.5015 29.1747C11.5015 27.2058 9.95948 25.5792 7.9891 25.5792C6.01872 25.5792 4.30534 27.1202 4.30534 29.1747C4.30534 31.1437 5.9331 32.7702 7.90348 32.7702V32.6846Z" fill="white"/>
<path d="M19.2118 25.6648C18.2694 25.4936 17.6697 25.0656 17.4983 24.2095C17.327 23.3534 17.584 22.6686 18.4407 22.2405C20.2398 21.3845 22.1245 20.5284 23.9235 19.6723C29.8346 16.9329 35.7458 14.1935 41.7426 11.4541C41.9996 11.3685 42.171 11.1973 42.428 11.1117C43.5417 10.6836 44.484 10.9404 44.9124 11.8821C45.3407 12.8238 44.9123 13.8511 43.8843 14.3647C36.0028 18.0458 28.0356 21.6413 20.0684 25.3223C19.8114 25.4936 19.4688 25.4936 19.2118 25.5792V25.6648Z" fill="white"/>
<path d="M91.6875 23.781C91.6875 25.1507 90.4025 26.0068 89.0318 25.4076C86.7187 24.3803 84.4057 23.2674 82.0926 22.2401C76.6098 19.6719 71.127 17.1893 65.6442 14.6211C65.4729 14.5355 65.2159 14.4499 65.0446 14.3643C64.1022 13.8507 63.8452 12.8234 64.1879 11.9673C64.6162 11.1113 65.5586 10.7688 66.5009 11.1113C67.7003 11.6249 68.814 12.1385 69.9277 12.6522C76.6955 15.734 83.3777 18.9015 90.1455 21.9833C90.9165 22.3257 91.6018 22.7538 91.6018 23.781H91.6875Z" fill="white"/>
<path d="M94.9427 54.7707C93.6577 54.7707 92.8867 53.6578 93.2294 52.2881C94.0004 49.4631 94.7714 46.5524 95.4567 43.7274C95.7137 42.7001 95.9707 41.6729 96.2278 40.7312C96.5704 39.5327 97.5128 38.9335 98.4552 39.1903C99.4832 39.4471 99.9972 40.3888 99.6545 41.5872C98.6265 45.5252 97.5985 49.3775 96.5704 53.2298C96.3134 54.0858 95.7994 54.6851 94.857 54.6851L94.9427 54.7707Z" fill="white"/>
<path d="M15.9563 52.8874C15.9563 54.0002 15.4423 54.5139 14.5856 54.7707C13.7289 55.0275 12.8722 54.7707 12.6152 53.9146C11.4158 49.7199 10.3021 45.4396 9.27411 41.1593C9.0171 40.2176 9.87379 39.3615 10.8161 39.2759C11.7585 39.1047 12.5295 39.7039 12.8722 40.8168C13.7289 44.0699 14.5856 47.3229 15.4423 50.576C15.6993 51.432 15.8706 52.2881 16.0419 52.973L15.9563 52.8874Z" fill="white"/>
</svg>
