<svg width="78" height="78" viewBox="0 0 78 78" fill="none" xmlns="http://www.w3.org/2000/svg">
<path d="M11.5395 9.41355C5.28564 9.41355 0.145508 14.4643 0.145508 20.7992C0.145508 27.1341 5.19998 32.1849 11.5395 32.1849H14.7948C17.1936 40.4888 23.79 47.0805 32.1856 49.3919V59.4078H23.7044L19.164 73.1905H14.0239V77.7276H63.9687V73.1905H58.8285L54.2881 59.4078H45.8069V49.3919C54.1168 46.9949 60.7133 40.4888 63.0264 32.1849H66.3674C72.6212 32.1849 77.7613 27.1341 77.7613 20.7992C77.7613 14.4643 72.7069 9.41355 66.3674 9.41355H63.9687V4.70519H68.6805V0.16803H9.31205V4.70519H13.8525V9.41355H11.5395ZM11.5395 27.5622C7.77004 27.5622 4.68594 24.4803 4.68594 20.7136C4.68594 16.9469 7.77004 13.8651 11.5395 13.8651H13.8525V25.2508C13.8525 26.0212 13.8525 26.7917 13.9382 27.5622H11.5395ZM54.0311 73.1049H23.9614L27.0455 63.8594H51.0327L54.1168 73.1049H54.0311ZM41.2665 59.3222H36.726V50.1623C37.497 50.1623 38.2681 50.2479 39.0391 50.2479C39.8101 50.2479 40.5811 50.2479 41.3521 50.1623V59.3222H41.2665ZM66.3674 13.9507C70.1369 13.9507 73.2209 17.0325 73.2209 20.7992C73.2209 24.5659 70.1369 27.6478 66.3674 27.6478H63.7973C63.7973 26.8773 63.883 26.1068 63.883 25.3364V13.9507H66.2817H66.3674ZM59.4282 4.70519V25.2508C59.4282 36.5508 50.2617 45.7108 38.9534 45.7108C27.6451 45.7108 18.3929 36.5508 18.3929 25.2508V4.70519H59.4282Z" fill="white"/>
</svg>
