<svg width="92" height="117" viewBox="0 0 92 117" fill="none" xmlns="http://www.w3.org/2000/svg">
<g clip-path="url(#clip0_1_33909)">
<path d="M29.621 117C28.5586 116.536 28.0837 115.645 27.8087 114.554C26.8713 110.916 25.834 107.291 24.9466 103.64C24.7091 102.649 24.3467 102.587 23.4843 102.825C19.7598 103.866 16.0228 104.82 12.2983 105.848C11.1985 106.149 10.2486 106.061 9.53619 105.133C8.82378 104.205 8.97376 103.239 9.53619 102.261C12.9982 96.2769 16.4352 90.2683 19.8723 84.2721C20.0972 83.8832 20.3097 83.4818 20.5597 83.0177C19.5973 82.8546 18.6974 82.7543 17.8351 82.541C12.8982 81.3619 9.39871 77.0717 9.4362 71.9662C9.4612 68.7675 8.18637 66.5848 5.42425 65.0042C0.299942 62.0688 -1.52481 55.4455 1.42479 50.3149C3.08706 47.4297 3.06207 44.8331 1.41229 41.9604C-1.51231 36.8675 0.287443 30.2818 5.36175 27.359C8.14888 25.7533 9.4612 23.5706 9.4487 20.3217C9.4237 14.3506 14.273 9.45835 20.2222 9.45835C23.4593 9.45835 25.6465 8.19139 27.2588 5.39402C30.1959 0.263434 36.77 -1.53039 41.8943 1.43005C44.7314 3.07334 47.2811 3.08588 50.1182 1.43005C55.2425 -1.54293 61.8041 0.238345 64.7662 5.39402C66.366 8.19139 68.5657 9.4709 71.8027 9.4709C77.7519 9.44581 82.6013 14.3381 82.5888 20.3217C82.5888 23.5204 83.8261 25.7031 86.5757 27.2962C91.8375 30.3696 93.5623 36.8926 90.5252 42.1737C88.9629 44.8958 88.9379 47.3921 90.5002 50.1142C93.5498 55.3828 91.8375 61.9559 86.6007 65.0042C83.8636 66.5973 82.5638 68.7549 82.5763 71.9662C82.6138 77.5108 78.5143 82.0393 73.0776 82.7668C72.5901 82.8295 72.1027 82.8923 71.6028 82.9675C71.4903 83.4442 71.8527 83.7453 72.0402 84.0714C75.4897 90.1052 78.9642 96.1264 82.4263 102.16C83.1387 103.402 83.1387 104.418 82.4263 105.221C81.7139 106.011 80.8515 106.149 79.8391 105.873C76.0022 104.82 72.1527 103.829 68.3282 102.762C67.6033 102.562 67.3533 102.675 67.1534 103.415C66.2035 107.128 65.1661 110.828 64.2163 114.541C63.9413 115.633 63.4664 116.511 62.404 116.987H61.0417C60.2668 116.473 59.7669 115.758 59.3044 114.955C55.0925 107.604 50.8681 100.266 46.6561 92.9276C46.0312 91.8363 46.0187 91.8363 45.3938 92.9276C41.1694 100.266 36.945 107.604 32.7455 114.955C32.2831 115.758 31.7707 116.461 31.0083 116.987H29.646L29.621 117ZM87.4381 36.4661C87.3381 34.2959 86.2758 32.3516 84.0636 31.0971C80.0391 28.8266 78.0144 25.4021 78.0519 20.7356C78.0769 16.7465 75.3023 13.9994 71.3153 14.0119C66.7159 14.037 63.3414 12.0299 61.0667 8.04085C59.1045 4.61628 55.3675 3.6002 51.9804 5.58219C47.981 7.92796 44.0315 7.92796 40.032 5.58219C36.645 3.6002 32.933 4.61628 30.9583 8.0534C28.6711 12.0299 25.2965 14.037 20.6972 14.0119C16.7102 13.9994 13.9356 16.7591 13.9606 20.7482C13.9856 25.3644 12.0108 28.7639 8.03639 31.0595C4.57436 33.0666 3.58699 36.7671 5.61172 40.267C7.88641 44.2059 7.89891 48.1197 5.63672 52.0585C3.587 55.6086 4.56186 59.284 8.09888 61.3413C12.0233 63.6243 13.9856 66.9987 13.9606 71.5648C13.9356 75.6166 16.7102 78.3763 20.7597 78.3512C25.309 78.3262 28.6711 80.3332 30.9208 84.2596C32.9205 87.7469 36.595 88.7504 40.082 86.7308C44.044 84.4352 47.9685 84.4227 51.9304 86.7308C55.38 88.7504 59.092 87.7343 61.0917 84.247C63.3539 80.3082 66.7159 78.3262 71.2653 78.3387C75.3272 78.3512 78.0769 75.5915 78.0519 71.5397C78.0269 66.9736 80.0016 63.5992 83.9136 61.3287C87.3881 59.3091 88.4255 55.596 86.4132 52.1464C84.1011 48.1698 84.0636 44.2184 86.4007 40.2544C87.0257 39.1882 87.4256 38.0592 87.4256 36.4661H87.4381ZM40.7944 91.761C40.432 91.5227 40.207 91.7234 39.9571 91.7987C34.6953 93.304 29.7834 91.3345 27.0088 86.5928C26.6589 86.0032 26.2839 85.4387 25.8465 84.9119C25.3465 84.3223 25.0716 84.3348 24.6591 85.0499C21.9595 89.8041 19.2099 94.5458 16.4977 99.2876C16.3853 99.4883 16.1103 99.6764 16.3353 100.04C19.2849 99.2374 22.2345 98.422 25.1966 97.6443C26.9963 97.1676 28.0212 97.7697 28.5211 99.5761C29.071 101.558 29.5585 103.54 30.1209 105.522C30.4083 106.526 30.5458 107.567 31.0958 108.646C34.3703 102.938 37.5824 97.3558 40.7944 91.7736V91.761ZM75.9772 100.09C75.0148 98.4095 74.1774 96.9669 73.3525 95.5243C71.3278 91.9994 69.2906 88.487 67.2908 84.9495C66.9534 84.3599 66.7284 84.2721 66.2535 84.799C65.716 85.4011 65.2911 86.0659 64.8912 86.7559C62.4165 90.9582 57.9296 92.9904 53.1678 92.0621C52.5553 91.9366 51.9429 91.7485 51.093 91.5352C54.4301 97.3307 57.6422 102.925 60.9542 108.683C61.1042 108.257 61.1917 108.043 61.2542 107.83C62.0166 105.008 62.754 102.173 63.5289 99.3628C63.9538 97.8073 64.9787 97.2178 66.5409 97.569C67.5033 97.7822 68.4407 98.0582 69.3906 98.3216C71.4903 98.8861 73.6025 99.4506 75.9647 100.09H75.9772Z" fill="white"/>
<path d="M79.6891 45.8617C79.7141 63.5616 66.4909 78.1505 49.1558 79.8064C30.6833 81.5751 14.2855 67.9646 12.4857 49.3615C11.8983 43.3152 12.8857 37.5449 15.4104 32.0254C16.2727 30.1438 17.4476 29.5166 18.7974 30.1814C20.1222 30.8337 20.3722 32.0881 19.5473 33.9196C13.4731 47.3419 18.0225 62.8842 30.3583 70.8122C47.8434 82.0643 71.3153 71.5899 74.7023 51.0174C77.3894 34.7726 66.2909 19.5063 50.1056 17.2107C44.4939 16.4204 39.0696 17.1981 33.9078 19.569C31.9456 20.4722 30.6583 20.2087 30.0334 18.7787C29.4334 17.4114 30.0834 16.3075 32.0081 15.4294C52.5553 5.94596 76.727 19.4561 79.4142 41.9228C79.5766 43.3152 79.7391 44.7202 79.6766 45.8742L79.6891 45.8617Z" fill="white"/>
<path d="M25.959 50.6787C25.959 47.6681 25.959 44.6575 25.959 41.6594C25.959 38.8495 27.7087 37.1058 30.5084 37.0933C32.5206 37.0807 34.5328 37.0933 36.545 37.0933C37.1575 37.0933 37.8324 37.0682 38.3198 37.3818C39.1822 37.9337 39.7571 37.5825 40.432 37.0682C42.6442 35.3496 44.394 33.2297 45.9188 30.8713C47.3936 28.5883 49.6058 27.7102 52.2179 28.1994C54.8051 28.6761 56.4173 30.3696 57.0548 32.9286C57.4297 34.4214 57.0548 35.8514 56.5423 37.2814C55.7049 39.5896 55.7424 39.6021 58.1796 39.6272C62.979 39.6774 66.0285 42.7758 66.041 47.6179C66.041 50.6285 66.0535 53.6391 66.041 56.6372C66.016 61.1155 62.9165 64.2641 58.4671 64.2892C54.5926 64.3143 50.7306 64.2892 46.8561 64.2892C44.7814 64.2892 42.7817 63.9254 40.8695 63.1476C40.357 62.9469 39.9946 62.9344 39.5571 63.3358C38.8072 64.0383 37.8574 64.2892 36.8325 64.2892C34.6328 64.2892 32.4331 64.3143 30.2334 64.2892C27.6962 64.2515 25.9715 62.4953 25.959 59.9489C25.934 56.863 25.959 53.7771 25.959 50.7038V50.6787ZM41.1694 50.1769C41.1694 52.6105 41.1944 55.0441 41.1569 57.4777C41.1569 58.1174 41.3694 58.4436 41.9443 58.6819C43.5441 59.3342 45.1814 59.7231 46.9186 59.7105C50.7056 59.7105 54.5051 59.7105 58.2921 59.7105C60.4293 59.7105 61.4917 58.6317 61.4917 56.4616C61.4917 53.6517 61.4917 50.8292 61.4917 48.0193C61.4917 45.1341 60.5543 44.1933 57.6922 44.1808C55.53 44.1808 53.3678 44.1808 51.2056 44.1557C50.1807 44.1431 49.4933 43.5661 49.1808 42.6127C48.8684 41.6468 49.0433 40.6433 49.9307 40.1917C50.9431 39.6649 51.2181 38.8244 51.5055 37.8836C51.7805 36.9804 52.0929 36.0772 52.4179 35.1866C52.7678 34.2207 52.7428 33.3676 51.7555 32.8157C50.9306 32.3516 50.0932 32.7028 49.4183 33.7816C47.4561 36.9177 44.9564 39.5394 41.8693 41.5841C41.3194 41.9479 41.1444 42.3493 41.1444 42.9891C41.1819 45.385 41.1569 47.781 41.1569 50.1769H41.1694ZM30.5084 50.6661C30.5084 53.4008 30.5209 56.1354 30.5084 58.8701C30.5084 59.4973 30.6833 59.7356 31.3333 59.7231C32.8081 59.6854 34.2829 59.698 35.7577 59.7231C36.3576 59.7231 36.645 59.5976 36.6325 58.9077C36.6075 53.4384 36.6075 47.9691 36.6325 42.4998C36.6325 41.8601 36.4326 41.6218 35.7826 41.6468C34.4203 41.6845 33.058 41.7096 31.6957 41.6468C30.7708 41.5967 30.4584 41.8475 30.4834 42.826C30.5584 45.4477 30.5084 48.0695 30.5084 50.6912V50.6661Z" fill="white"/>
<path d="M26.034 23.8591C26.034 25.1261 25.0841 26.1045 23.8343 26.1296C22.5345 26.1547 21.5096 25.1136 21.5346 23.834C21.5596 22.5922 22.5845 21.6012 23.8093 21.6012C25.0466 21.6012 26.034 22.6047 26.034 23.8591Z" fill="white"/>
</g>
<defs>
<clipPath id="clip0_1_33909">
<rect width="92" height="117" fill="white"/>
</clipPath>
</defs>
</svg>
