<svg width="48" height="48" viewBox="0 0 48 48" fill="none" xmlns="http://www.w3.org/2000/svg">
<g clip-path="url(#clip0_3_6455)">
<path d="M18.5991 39.8366C18.5991 41.5506 17.2121 42.9373 15.4984 42.9373C13.7846 42.9373 12.3977 41.5504 12.3977 39.8366C12.3977 38.1227 13.7846 36.7359 15.4984 36.7359C17.2121 36.7359 18.5991 38.1227 18.5991 39.8366ZM16.7349 39.8366C16.7349 39.1588 16.1762 38.6001 15.4984 38.6001C14.8206 38.6001 14.2618 39.1588 14.2618 39.8366C14.2618 40.5144 14.8206 41.0732 15.4984 41.0732C16.1762 41.0732 16.7349 40.5144 16.7349 39.8366ZM35.6361 39.8366C35.6361 41.5506 34.2491 42.9373 32.5354 42.9373C30.8214 42.9373 29.4347 41.5504 29.4347 39.8366C29.4347 38.1227 30.8216 36.7359 32.5354 36.7359C34.2493 36.7359 35.6361 38.1227 35.6361 39.8366ZM33.7232 39.8366C33.7232 39.1856 33.1866 38.649 32.5356 38.649C31.8846 38.649 31.3479 39.1856 31.3479 39.8366C31.3479 40.4876 31.8846 41.0243 32.5356 41.0243C33.1866 41.0243 33.7232 40.4876 33.7232 39.8366ZM38.1844 37.0742H37.5304V33.9058C37.5304 32.9136 36.7297 32.1131 35.7262 32.1131H31.3288C31.2611 32.1131 31.1934 32.0794 31.1484 32.0342L26.1309 26.622C25.9054 26.3964 25.5898 26.2612 25.2628 26.25H15.5096C14.664 26.25 13.9423 26.8251 13.7507 27.6482L12.7697 31.9215C12.7472 32.0342 12.6457 32.1131 12.5216 32.1131C11.394 32.1131 10.4694 33.0264 10.4694 34.1653V36.8151C10.4694 36.9504 10.3567 37.0631 10.2214 37.0631H9.81562C9.68025 37.0631 9.56756 37.1758 9.56756 37.3112V38.1568C9.56756 38.7883 10.0862 39.3069 10.7177 39.3069H11.1801C11.304 39.3069 11.4056 39.2167 11.4281 39.1041C11.7664 37.1647 13.4689 35.6764 15.5098 35.6764C17.5508 35.6764 19.242 37.1535 19.5802 39.0928C19.6028 39.2167 19.7042 39.2957 19.8283 39.2957H28.2173C28.3412 39.2957 28.4428 39.2055 28.4653 39.0928C28.8036 37.1535 30.4948 35.6764 32.5358 35.6764C34.5765 35.6764 36.2679 37.1535 36.6062 39.0928C36.6287 39.2167 36.7301 39.2957 36.8542 39.2957H37.2827C37.9254 39.2957 38.4328 38.7771 38.4328 38.1456V37.3112C38.4324 37.1869 38.3197 37.0742 38.1844 37.0742ZM19.9408 31.8536C19.9408 31.989 19.8281 32.1017 19.6927 32.1017H14.3934C14.2356 32.1017 14.1116 31.9551 14.1454 31.7972L15.0135 27.9411C15.0587 27.7382 15.2164 27.5916 15.4307 27.5916H19.6927C19.8281 27.5916 19.9408 27.7043 19.9408 27.8396V31.8536ZM28.7357 32.1129H21.5421C21.4067 32.1129 21.294 32.0002 21.294 31.8649V27.8509C21.294 27.7155 21.4067 27.6028 21.5421 27.6028H25.1051C25.1728 27.6028 25.2405 27.6366 25.2967 27.6818L28.9275 31.6845C29.0627 31.8536 28.9498 32.1129 28.7357 32.1129ZM0.375 13.2188C0.375 15.7834 2.17969 17.9629 4.5 18.7642V43.9688H0.375V47.3438H47.625V43.9688H43.5V18.7601C45.9169 18.0204 47.5686 15.8734 47.625 13.2188V11.7188H0.375V13.2188ZM12.2419 13.0961C12.2419 14.3106 13.5084 18.9967 18.1907 18.9967C22.2574 18.9967 24.0411 15.3189 24.0411 13.0961C24.0411 15.1684 25.4304 18.9924 29.9406 18.9924C34.0155 18.9924 35.8211 15.0551 35.8211 13.0961C35.8211 15.8008 37.6447 18.0491 40.125 18.75V43.9688H7.875V18.7676C10.3879 18.0874 12.2419 15.8241 12.2419 13.0961ZM41.781 4.40625H41.8125V0.65625H6.375V4.40625L0.375 10.4062H47.625L41.781 4.40625Z" fill="#C8A96B"/>
</g>
<defs>
<clipPath id="clip0_3_6455">
<rect width="48" height="48" fill="white"/>
</clipPath>
</defs>
</svg>
